<svg width="993" height="904" viewBox="0 0 993 904" fill="none" xmlns="http://www.w3.org/2000/svg">
<g opacity="0.8" filter="url(#filter0_i_2141_15810)">
<path d="M204.109 0.187988L15.9409 235.19L0.00390625 254.786L498.066 903.731L992.17 257.725L774.254 0.188113L204.109 0.187988Z" fill="#FCF5F4"/>
</g>
<g filter="url(#filter1_d_2141_15810)">
<path d="M772.068 494L230 497.73L337.07 640.934H658.68L772.068 494Z" fill="#EADCA6"/>
</g>
<path d="M346.124 578V557.424H348.993V578H346.124ZM338.919 559.439V556.813H356.167V559.439H338.919ZM361.113 578V556.813H363.983V578H361.113ZM374.79 578V556.813H377.659V578H374.79ZM363.067 568.353V565.728H375.492V568.353H363.067ZM384.194 578V556.813H387.063V578H384.194ZM386.148 578V575.375H398.298V578H386.148ZM386.148 568.414V565.911H397.29V568.414H386.148ZM386.148 559.439V556.813H398.145V559.439H386.148ZM413.527 578V575.497H419.938C421.159 575.497 422.115 575.141 422.807 574.428C423.499 573.696 423.845 572.82 423.845 571.803C423.845 571.111 423.693 570.49 423.387 569.941C423.082 569.371 422.634 568.923 422.044 568.597C421.474 568.272 420.803 568.109 420.029 568.109H413.527V565.606H419.602C420.62 565.606 421.424 565.341 422.014 564.812C422.624 564.262 422.93 563.479 422.93 562.461C422.93 561.444 422.614 560.67 421.983 560.141C421.352 559.592 420.518 559.317 419.48 559.317H413.527V556.813H419.541C420.925 556.813 422.075 557.068 422.991 557.577C423.927 558.065 424.629 558.716 425.097 559.53C425.586 560.345 425.83 561.24 425.83 562.217C425.83 563.357 425.514 564.354 424.883 565.209C424.273 566.063 423.367 566.735 422.166 567.224L422.411 566.308C423.774 566.796 424.832 567.539 425.586 568.536C426.359 569.513 426.746 570.673 426.746 572.016C426.746 573.136 426.471 574.143 425.921 575.039C425.372 575.934 424.578 576.657 423.54 577.206C422.523 577.735 421.271 578 419.785 578H413.527ZM411.604 578V556.813H414.473V578H411.604ZM432.151 578V556.813H435.02V578H432.151ZM434.104 578V575.375H445.461V578H434.104ZM458.32 578.305C456.814 578.305 455.409 578.031 454.107 577.481C452.804 576.911 451.664 576.128 450.688 575.13C449.711 574.113 448.947 572.942 448.398 571.62C447.869 570.297 447.604 568.882 447.604 567.376C447.604 565.85 447.869 564.435 448.398 563.133C448.947 561.81 449.7 560.65 450.657 559.653C451.634 558.655 452.763 557.882 454.046 557.332C455.348 556.783 456.752 556.508 458.259 556.508C459.765 556.508 461.159 556.783 462.441 557.332C463.743 557.882 464.883 558.655 465.86 559.653C466.837 560.65 467.6 561.81 468.15 563.133C468.699 564.456 468.974 565.88 468.974 567.407C468.974 568.913 468.699 570.327 468.15 571.65C467.6 572.973 466.837 574.133 465.86 575.13C464.904 576.128 463.774 576.911 462.471 577.481C461.189 578.031 459.805 578.305 458.32 578.305ZM458.259 575.558C459.785 575.558 461.118 575.212 462.258 574.52C463.418 573.807 464.334 572.841 465.005 571.62C465.677 570.378 466.013 568.964 466.013 567.376C466.013 566.196 465.819 565.117 465.433 564.14C465.046 563.143 464.507 562.278 463.815 561.545C463.123 560.813 462.309 560.253 461.372 559.866C460.436 559.459 459.398 559.256 458.259 559.256C456.752 559.256 455.419 559.602 454.259 560.294C453.12 560.986 452.214 561.942 451.542 563.163C450.891 564.384 450.565 565.789 450.565 567.376C450.565 568.557 450.749 569.656 451.115 570.673C451.502 571.67 452.031 572.535 452.702 573.268C453.394 573.98 454.208 574.54 455.145 574.947C456.101 575.354 457.139 575.558 458.259 575.558ZM484.263 578.305C482.757 578.305 481.352 578.031 480.05 577.481C478.747 576.911 477.607 576.128 476.631 575.13C475.654 574.113 474.89 572.942 474.341 571.62C473.812 570.297 473.547 568.882 473.547 567.376C473.547 565.85 473.812 564.435 474.341 563.133C474.89 561.81 475.643 560.65 476.6 559.653C477.577 558.655 478.706 557.882 479.989 557.332C481.291 556.783 482.695 556.508 484.202 556.508C485.708 556.508 487.102 556.783 488.384 557.332C489.686 557.882 490.826 558.655 491.803 559.653C492.78 560.65 493.543 561.81 494.093 563.133C494.642 564.456 494.917 565.88 494.917 567.407C494.917 568.913 494.642 570.327 494.093 571.65C493.543 572.973 492.78 574.133 491.803 575.13C490.846 576.128 489.717 576.911 488.414 577.481C487.132 578.031 485.748 578.305 484.263 578.305ZM484.202 575.558C485.728 575.558 487.061 575.212 488.201 574.52C489.361 573.807 490.277 572.841 490.948 571.62C491.62 570.378 491.956 568.964 491.956 567.376C491.956 566.196 491.762 565.117 491.376 564.14C490.989 563.143 490.45 562.278 489.758 561.545C489.066 560.813 488.252 560.253 487.315 559.866C486.379 559.459 485.341 559.256 484.202 559.256C482.695 559.256 481.362 559.602 480.202 560.294C479.063 560.986 478.157 561.942 477.485 563.163C476.834 564.384 476.508 565.789 476.508 567.376C476.508 568.557 476.692 569.656 477.058 570.673C477.445 571.67 477.974 572.535 478.645 573.268C479.337 573.98 480.151 574.54 481.088 574.947C482.044 575.354 483.082 575.558 484.202 575.558ZM500.38 578V556.813H502.395L511.37 571.559H509.996L518.971 556.813H520.986V578H518.117V561.851L518.788 562.034L511.706 573.665H509.691L502.608 562.034L503.249 561.851V578H500.38ZM539.635 581.541C538.516 580.605 537.559 579.445 536.766 578.061C535.972 576.697 535.361 575.202 534.934 573.573C534.506 571.945 534.293 570.256 534.293 568.506C534.293 566.755 534.506 565.066 534.934 563.438C535.361 561.81 535.972 560.314 536.766 558.95C537.559 557.566 538.516 556.406 539.635 555.47L541.223 556.905C539.778 558.167 538.658 559.795 537.865 561.79C537.091 563.784 536.705 566.023 536.705 568.506C536.705 570.968 537.091 573.197 537.865 575.191C538.658 577.186 539.778 578.824 541.223 580.106L539.635 581.541ZM555.419 578.305C553.892 578.305 552.478 578.031 551.175 577.481C549.873 576.911 548.733 576.128 547.756 575.13C546.8 574.133 546.057 572.973 545.528 571.65C544.998 570.327 544.734 568.913 544.734 567.407C544.734 565.88 544.998 564.456 545.528 563.133C546.057 561.81 546.8 560.66 547.756 559.683C548.733 558.686 549.863 557.912 551.145 557.363C552.447 556.793 553.862 556.508 555.388 556.508C557.057 556.508 558.522 556.793 559.784 557.363C561.046 557.933 562.165 558.706 563.142 559.683L561.158 561.667C560.486 560.914 559.662 560.324 558.685 559.897C557.729 559.469 556.63 559.256 555.388 559.256C554.269 559.256 553.241 559.459 552.305 559.866C551.369 560.253 550.555 560.813 549.863 561.545C549.171 562.278 548.631 563.143 548.245 564.14C547.878 565.137 547.695 566.226 547.695 567.407C547.695 568.587 547.878 569.676 548.245 570.673C548.631 571.67 549.171 572.535 549.863 573.268C550.555 574.001 551.369 574.571 552.305 574.978C553.241 575.364 554.269 575.558 555.388 575.558C556.711 575.558 557.861 575.344 558.838 574.917C559.815 574.469 560.639 573.869 561.311 573.115L563.295 575.069C562.318 576.087 561.168 576.881 559.845 577.45C558.543 578.02 557.067 578.305 555.419 578.305ZM577.129 578.305C575.623 578.305 574.219 578.031 572.916 577.481C571.614 576.911 570.474 576.128 569.497 575.13C568.52 574.113 567.757 572.942 567.207 571.62C566.678 570.297 566.414 568.882 566.414 567.376C566.414 565.85 566.678 564.435 567.207 563.133C567.757 561.81 568.51 560.65 569.466 559.653C570.443 558.655 571.573 557.882 572.855 557.332C574.158 556.783 575.562 556.508 577.068 556.508C578.574 556.508 579.968 556.783 581.25 557.332C582.553 557.882 583.693 558.655 584.67 559.653C585.646 560.65 586.41 561.81 586.959 563.133C587.509 564.456 587.783 565.88 587.783 567.407C587.783 568.913 587.509 570.327 586.959 571.65C586.41 572.973 585.646 574.133 584.67 575.13C583.713 576.128 582.583 576.911 581.281 577.481C579.999 578.031 578.615 578.305 577.129 578.305ZM577.068 575.558C578.594 575.558 579.927 575.212 581.067 574.52C582.227 573.807 583.143 572.841 583.815 571.62C584.486 570.378 584.822 568.964 584.822 567.376C584.822 566.196 584.629 565.117 584.242 564.14C583.855 563.143 583.316 562.278 582.624 561.545C581.932 560.813 581.118 560.253 580.182 559.866C579.246 559.459 578.208 559.256 577.068 559.256C575.562 559.256 574.229 559.602 573.069 560.294C571.929 560.986 571.023 561.942 570.352 563.163C569.701 564.384 569.375 565.789 569.375 567.376C569.375 568.557 569.558 569.656 569.924 570.673C570.311 571.67 570.84 572.535 571.512 573.268C572.204 573.98 573.018 574.54 573.954 574.947C574.911 575.354 575.949 575.558 577.068 575.558ZM593.246 578V556.813H596.116V578H593.246ZM595.2 578V575.375H606.557V578H595.2ZM619.415 578.305C617.909 578.305 616.505 578.031 615.202 577.481C613.9 576.911 612.76 576.128 611.783 575.13C610.806 574.113 610.043 572.942 609.494 571.62C608.965 570.297 608.7 568.882 608.7 567.376C608.7 565.85 608.965 564.435 609.494 563.133C610.043 561.81 610.796 560.65 611.753 559.653C612.73 558.655 613.859 557.882 615.141 557.332C616.444 556.783 617.848 556.508 619.354 556.508C620.86 556.508 622.254 556.783 623.537 557.332C624.839 557.882 625.979 558.655 626.956 559.653C627.933 560.65 628.696 561.81 629.245 563.133C629.795 564.456 630.07 565.88 630.07 567.407C630.07 568.913 629.795 570.327 629.245 571.65C628.696 572.973 627.933 574.133 626.956 575.13C625.999 576.128 624.87 576.911 623.567 577.481C622.285 578.031 620.901 578.305 619.415 578.305ZM619.354 575.558C620.881 575.558 622.214 575.212 623.353 574.52C624.514 573.807 625.429 572.841 626.101 571.62C626.773 570.378 627.108 568.964 627.108 567.376C627.108 566.196 626.915 565.117 626.528 564.14C626.142 563.143 625.602 562.278 624.91 561.545C624.218 560.813 623.404 560.253 622.468 559.866C621.532 559.459 620.494 559.256 619.354 559.256C617.848 559.256 616.515 559.602 615.355 560.294C614.215 560.986 613.31 561.942 612.638 563.163C611.987 564.384 611.661 565.789 611.661 567.376C611.661 568.557 611.844 569.656 612.211 570.673C612.597 571.67 613.127 572.535 613.798 573.268C614.49 573.98 615.304 574.54 616.24 574.947C617.197 575.354 618.235 575.558 619.354 575.558ZM637.456 568.78V566.369H643.195C644.437 566.369 645.393 566.053 646.065 565.422C646.736 564.791 647.072 563.937 647.072 562.858C647.072 561.84 646.736 560.996 646.065 560.324C645.413 559.653 644.467 559.317 643.226 559.317H637.456V556.813H643.317C644.66 556.813 645.831 557.078 646.828 557.607C647.825 558.116 648.588 558.818 649.118 559.714C649.667 560.609 649.942 561.637 649.942 562.797C649.942 563.998 649.667 565.046 649.118 565.941C648.588 566.837 647.825 567.539 646.828 568.048C645.831 568.536 644.66 568.78 643.317 568.78H637.456ZM635.533 578V556.813H638.402V578H635.533ZM647.744 578L640.051 568.506L642.768 567.559L651.377 578H647.744ZM656.288 581.541L654.701 580.106C656.146 578.824 657.255 577.186 658.028 575.191C658.802 573.197 659.188 570.968 659.188 568.506C659.188 566.023 658.802 563.784 658.028 561.79C657.255 559.795 656.146 558.167 654.701 556.905L656.288 555.47C657.407 556.406 658.364 557.566 659.158 558.95C659.952 560.314 660.562 561.81 660.989 563.438C661.417 565.066 661.631 566.755 661.631 568.506C661.631 570.256 661.417 571.945 660.989 573.573C660.562 575.202 659.952 576.697 659.158 578.061C658.364 579.445 657.407 580.605 656.288 581.541Z" fill="#602D23"/>
<g filter="url(#filter2_d_2141_15810)">
<path d="M883.411 341L113 341L221.233 483.963H776.831L883.411 341Z" fill="#FFC38B"/>
</g>
<path d="M327.314 423V402.424H330.184V423H327.314ZM320.109 404.439V401.813H337.358V404.439H320.109ZM342.303 423V401.813H345.173V423H342.303ZM355.98 423V401.813H358.849V423H355.98ZM344.257 413.353V410.728H356.682V413.353H344.257ZM365.384 423V401.813H368.254V423H365.384ZM367.338 423V420.375H379.488V423H367.338ZM367.338 413.414V410.911H378.481V413.414H367.338ZM367.338 404.439V401.813H379.336V404.439H367.338ZM394.717 423V420.497H401.128C402.349 420.497 403.306 420.141 403.998 419.428C404.69 418.696 405.036 417.82 405.036 416.803C405.036 416.111 404.883 415.49 404.578 414.941C404.273 414.371 403.825 413.923 403.235 413.597C402.665 413.272 401.993 413.109 401.22 413.109H394.717V410.606H400.792C401.81 410.606 402.614 410.341 403.204 409.812C403.815 409.262 404.12 408.479 404.12 407.461C404.12 406.444 403.804 405.67 403.174 405.141C402.543 404.592 401.708 404.317 400.67 404.317H394.717V401.813H400.731C402.115 401.813 403.265 402.068 404.181 402.577C405.117 403.065 405.819 403.716 406.287 404.53C406.776 405.345 407.02 406.24 407.02 407.217C407.02 408.357 406.705 409.354 406.074 410.209C405.463 411.063 404.557 411.735 403.357 412.224L403.601 411.308C404.965 411.796 406.023 412.539 406.776 413.536C407.549 414.513 407.936 415.673 407.936 417.016C407.936 418.136 407.661 419.143 407.112 420.039C406.562 420.934 405.768 421.657 404.73 422.206C403.713 422.735 402.461 423 400.976 423H394.717ZM392.794 423V401.813H395.664V423H392.794ZM413.341 423V401.813H416.21V423H413.341ZM415.295 423V420.375H427.445V423H415.295ZM415.295 413.414V410.911H426.437V413.414H415.295ZM415.295 404.439V401.813H427.292V404.439H415.295ZM431.317 423L439.987 401.813H442.063L450.703 423H447.589L440.476 405.08H441.544L434.37 423H431.317ZM435.438 418.207V415.704H446.581V418.207H435.438ZM463.117 423.305C461.55 423.305 460.146 422.959 458.904 422.267C457.683 421.555 456.717 420.588 456.004 419.367C455.292 418.126 454.936 416.721 454.936 415.154V401.813H457.805V415.093C457.805 416.213 458.039 417.179 458.508 417.993C458.976 418.807 459.607 419.438 460.4 419.886C461.214 420.334 462.12 420.558 463.117 420.558C464.155 420.558 465.061 420.334 465.834 419.886C466.628 419.438 467.249 418.807 467.697 417.993C468.165 417.179 468.399 416.223 468.399 415.124V401.813H471.299V415.185C471.299 416.752 470.943 418.146 470.23 419.367C469.518 420.588 468.551 421.555 467.33 422.267C466.109 422.959 464.705 423.305 463.117 423.305ZM482.864 423V402.424H485.734V423H482.864ZM475.66 404.439V401.813H492.908V404.439H475.66ZM503.139 414.391L494.805 401.813H498.132L504.849 412.101H503.353L510.099 401.813H513.366L504.971 414.391H503.139ZM502.651 423V412.498H505.52V423H502.651ZM529.507 426.541C528.388 425.605 527.431 424.445 526.637 423.061C525.844 421.697 525.233 420.202 524.806 418.573C524.378 416.945 524.165 415.256 524.165 413.506C524.165 411.755 524.378 410.066 524.806 408.438C525.233 406.81 525.844 405.314 526.637 403.95C527.431 402.566 528.388 401.406 529.507 400.47L531.094 401.905C529.649 403.167 528.53 404.795 527.736 406.79C526.963 408.784 526.576 411.023 526.576 413.506C526.576 415.968 526.963 418.197 527.736 420.191C528.53 422.186 529.649 423.824 531.094 425.106L529.507 426.541ZM545.291 423.305C543.764 423.305 542.35 423.031 541.047 422.481C539.745 421.911 538.605 421.128 537.628 420.13C536.671 419.133 535.929 417.973 535.399 416.65C534.87 415.327 534.606 413.913 534.606 412.407C534.606 410.88 534.87 409.456 535.399 408.133C535.929 406.81 536.671 405.66 537.628 404.683C538.605 403.686 539.734 402.912 541.017 402.363C542.319 401.793 543.734 401.508 545.26 401.508C546.929 401.508 548.394 401.793 549.656 402.363C550.918 402.933 552.037 403.706 553.014 404.683L551.03 406.667C550.358 405.914 549.534 405.324 548.557 404.897C547.601 404.469 546.501 404.256 545.26 404.256C544.141 404.256 543.113 404.459 542.177 404.866C541.24 405.253 540.426 405.813 539.734 406.545C539.042 407.278 538.503 408.143 538.116 409.14C537.75 410.137 537.567 411.226 537.567 412.407C537.567 413.587 537.75 414.676 538.116 415.673C538.503 416.67 539.042 417.535 539.734 418.268C540.426 419.001 541.24 419.571 542.177 419.978C543.113 420.364 544.141 420.558 545.26 420.558C546.583 420.558 547.733 420.344 548.71 419.917C549.687 419.469 550.511 418.869 551.182 418.115L553.167 420.069C552.19 421.087 551.04 421.881 549.717 422.45C548.415 423.02 546.939 423.305 545.291 423.305ZM558.219 423V401.813H561.088V423H558.219ZM560.172 423V420.375H571.529V423H560.172ZM574.257 423L582.927 401.813H585.003L593.642 423H590.529L583.415 405.08H584.484L577.31 423H574.257ZM578.378 418.207V415.704H589.521V418.207H578.378ZM600.282 413.78V411.369H606.021C607.262 411.369 608.219 411.053 608.891 410.422C609.562 409.791 609.898 408.937 609.898 407.858C609.898 406.84 609.562 405.996 608.891 405.324C608.239 404.653 607.293 404.317 606.051 404.317H600.282V401.813H606.143C607.486 401.813 608.656 402.078 609.654 402.607C610.651 403.116 611.414 403.818 611.943 404.714C612.493 405.609 612.768 406.637 612.768 407.797C612.768 408.998 612.493 410.046 611.943 410.941C611.414 411.837 610.651 412.539 609.654 413.048C608.656 413.536 607.486 413.78 606.143 413.78H600.282ZM598.358 423V401.813H601.228V423H598.358ZM610.57 423L602.876 413.506L605.593 412.559L614.202 423H610.57ZM618.696 423V401.813H621.566V423H618.696ZM633.711 423V402.424H636.58V423H633.711ZM626.506 404.439V401.813H643.754V404.439H626.506ZM653.985 414.391L645.651 401.813H648.979L655.695 412.101H654.199L660.946 401.813H664.212L655.817 414.391H653.985ZM653.497 423V412.498H656.366V423H653.497ZM669.098 426.541L667.51 425.106C668.955 423.824 670.065 422.186 670.838 420.191C671.611 418.197 671.998 415.968 671.998 413.506C671.998 411.023 671.611 408.784 670.838 406.79C670.065 404.795 668.955 403.167 667.51 401.905L669.098 400.47C670.217 401.406 671.174 402.566 671.967 403.95C672.761 405.314 673.372 406.81 673.799 408.438C674.227 410.066 674.44 411.755 674.44 413.506C674.44 415.256 674.227 416.945 673.799 418.573C673.372 420.202 672.761 421.697 671.967 423.061C671.174 424.445 670.217 425.605 669.098 426.541Z" fill="#602D23"/>
<g filter="url(#filter3_d_2141_15810)">
<path d="M47 258.694C47 258.694 78.3894 297.797 101.744 329.15L886.187 330.97L938.532 258.694L872.073 189H111.375L47 258.694Z" fill="#FFD5CD"/>
</g>
<path d="M326.592 271V250.424H329.462V271H326.592ZM319.387 252.439V249.813H336.636V252.439H319.387ZM341.581 271V249.813H344.451V271H341.581ZM355.258 271V249.813H358.128V271H355.258ZM343.535 261.353V258.728H355.96V261.353H343.535ZM364.662 271V249.813H367.532V271H364.662ZM366.616 271V268.375H378.766V271H366.616ZM366.616 261.414V258.911H377.759V261.414H366.616ZM366.616 252.439V249.813H378.614V252.439H366.616ZM393.995 271V268.497H400.406C401.627 268.497 402.584 268.141 403.276 267.428C403.968 266.696 404.314 265.82 404.314 264.803C404.314 264.111 404.161 263.49 403.856 262.941C403.551 262.371 403.103 261.923 402.513 261.597C401.943 261.272 401.271 261.109 400.498 261.109H393.995V258.606H400.07C401.088 258.606 401.892 258.341 402.482 257.812C403.093 257.262 403.398 256.479 403.398 255.461C403.398 254.444 403.083 253.67 402.452 253.141C401.821 252.592 400.986 252.317 399.948 252.317H393.995V249.813H400.009C401.393 249.813 402.543 250.068 403.459 250.577C404.395 251.065 405.097 251.716 405.566 252.53C406.054 253.345 406.298 254.24 406.298 255.217C406.298 256.357 405.983 257.354 405.352 258.209C404.741 259.063 403.836 259.735 402.635 260.224L402.879 259.308C404.243 259.796 405.301 260.539 406.054 261.536C406.827 262.513 407.214 263.673 407.214 265.016C407.214 266.136 406.939 267.143 406.39 268.039C405.84 268.934 405.047 269.657 404.009 270.206C402.991 270.735 401.739 271 400.254 271H393.995ZM392.072 271V249.813H394.942V271H392.072ZM414.542 261.78V259.369H420.282C421.523 259.369 422.48 259.053 423.151 258.422C423.823 257.791 424.159 256.937 424.159 255.858C424.159 254.84 423.823 253.996 423.151 253.324C422.5 252.653 421.554 252.317 420.312 252.317H414.542V249.813H420.404C421.747 249.813 422.917 250.078 423.914 250.607C424.912 251.116 425.675 251.818 426.204 252.714C426.754 253.609 427.028 254.637 427.028 255.797C427.028 256.998 426.754 258.046 426.204 258.941C425.675 259.837 424.912 260.539 423.914 261.048C422.917 261.536 421.747 261.78 420.404 261.78H414.542ZM412.619 271V249.813H415.489V271H412.619ZM424.83 271L417.137 261.506L419.854 260.559L428.463 271H424.83ZM432.957 271V249.813H435.827V271H432.957ZM442.354 271V249.813H445.224V271H442.354ZM444.308 271V268.375H455.664V271H444.308ZM460.725 271V249.813H463.594V271H460.725ZM462.679 271V268.375H474.035V271H462.679ZM479.095 271V249.813H481.965V271H479.095ZM486.935 271L495.605 249.813H497.681L506.321 271H503.207L496.094 253.08H497.162L489.988 271H486.935ZM491.057 266.207V263.704H502.199V266.207H491.057ZM511.037 271V249.813H513.051L513.906 253.141V271H511.037ZM525.69 271L512.685 253.629L513.051 249.813L526.087 267.153L525.69 271ZM525.69 271L524.835 267.856V249.813H527.705V271H525.69ZM543.853 271.305C542.327 271.305 540.912 271.031 539.61 270.481C538.307 269.911 537.167 269.128 536.191 268.13C535.234 267.133 534.491 265.973 533.962 264.65C533.433 263.327 533.168 261.913 533.168 260.407C533.168 258.88 533.433 257.456 533.962 256.133C534.491 254.81 535.234 253.66 536.191 252.683C537.167 251.686 538.297 250.912 539.579 250.363C540.882 249.793 542.296 249.508 543.823 249.508C545.492 249.508 546.957 249.793 548.219 250.363C549.481 250.933 550.6 251.706 551.577 252.683L549.592 254.667C548.921 253.914 548.097 253.324 547.12 252.897C546.163 252.469 545.064 252.256 543.823 252.256C542.703 252.256 541.675 252.459 540.739 252.866C539.803 253.253 538.989 253.813 538.297 254.545C537.605 255.278 537.066 256.143 536.679 257.14C536.313 258.137 536.13 259.226 536.13 260.407C536.13 261.587 536.313 262.676 536.679 263.673C537.066 264.67 537.605 265.535 538.297 266.268C538.989 267.001 539.803 267.571 540.739 267.978C541.675 268.364 542.703 268.558 543.823 268.558C545.146 268.558 546.295 268.344 547.272 267.917C548.249 267.469 549.073 266.869 549.745 266.115L551.729 268.069C550.753 269.087 549.603 269.881 548.28 270.45C546.977 271.02 545.502 271.305 543.853 271.305ZM556.781 271V249.813H559.651V271H556.781ZM558.735 271V268.375H570.885V271H558.735ZM558.735 261.414V258.911H569.878V261.414H558.735ZM558.735 252.439V249.813H570.733V252.439H558.735ZM588.434 274.541C587.315 273.605 586.358 272.445 585.565 271.061C584.771 269.697 584.16 268.202 583.733 266.573C583.306 264.945 583.092 263.256 583.092 261.506C583.092 259.755 583.306 258.066 583.733 256.438C584.16 254.81 584.771 253.314 585.565 251.95C586.358 250.566 587.315 249.406 588.434 248.47L590.022 249.905C588.577 251.167 587.457 252.795 586.664 254.79C585.89 256.784 585.504 259.023 585.504 261.506C585.504 263.968 585.89 266.197 586.664 268.191C587.457 270.186 588.577 271.824 590.022 273.106L588.434 274.541ZM604.218 271.305C602.691 271.305 601.277 271.031 599.974 270.481C598.672 269.911 597.532 269.128 596.555 268.13C595.599 267.133 594.856 265.973 594.327 264.65C593.798 263.327 593.533 261.913 593.533 260.407C593.533 258.88 593.798 257.456 594.327 256.133C594.856 254.81 595.599 253.66 596.555 252.683C597.532 251.686 598.662 250.912 599.944 250.363C601.246 249.793 602.661 249.508 604.187 249.508C605.856 249.508 607.322 249.793 608.583 250.363C609.845 250.933 610.965 251.706 611.941 252.683L609.957 254.667C609.286 253.914 608.461 253.324 607.484 252.897C606.528 252.469 605.429 252.256 604.187 252.256C603.068 252.256 602.04 252.459 601.104 252.866C600.168 253.253 599.354 253.813 598.662 254.545C597.97 255.278 597.43 256.143 597.044 257.14C596.677 258.137 596.494 259.226 596.494 260.407C596.494 261.587 596.677 262.676 597.044 263.673C597.43 264.67 597.97 265.535 598.662 266.268C599.354 267.001 600.168 267.571 601.104 267.978C602.04 268.364 603.068 268.558 604.187 268.558C605.51 268.558 606.66 268.344 607.637 267.917C608.614 267.469 609.438 266.869 610.11 266.115L612.094 268.069C611.117 269.087 609.967 269.881 608.644 270.45C607.342 271.02 605.866 271.305 604.218 271.305ZM625.083 271.305C623.516 271.305 622.112 270.959 620.87 270.267C619.649 269.555 618.682 268.588 617.97 267.367C617.258 266.126 616.902 264.721 616.902 263.154V249.813H619.771V263.093C619.771 264.213 620.005 265.179 620.473 265.993C620.941 266.807 621.572 267.438 622.366 267.886C623.18 268.334 624.086 268.558 625.083 268.558C626.121 268.558 627.027 268.334 627.8 267.886C628.594 267.438 629.215 266.807 629.662 265.993C630.13 265.179 630.365 264.223 630.365 263.124V249.813H633.265V263.185C633.265 264.752 632.909 266.146 632.196 267.367C631.484 268.588 630.517 269.555 629.296 270.267C628.075 270.959 626.671 271.305 625.083 271.305ZM644.83 271V250.424H647.7V271H644.83ZM637.626 252.439V249.813H654.874V252.439H637.626ZM659.82 274.541L658.232 273.106C659.677 271.824 660.786 270.186 661.56 268.191C662.333 266.197 662.72 263.968 662.72 261.506C662.72 259.023 662.333 256.784 661.56 254.79C660.786 252.795 659.677 251.167 658.232 249.905L659.82 248.47C660.939 249.406 661.896 250.566 662.689 251.95C663.483 253.314 664.094 254.81 664.521 256.438C664.948 258.066 665.162 259.755 665.162 261.506C665.162 263.256 664.948 264.945 664.521 266.573C664.094 268.202 663.483 269.697 662.689 271.061C661.896 272.445 660.939 273.605 659.82 274.541Z" fill="#602D23"/>
<g filter="url(#filter4_d_2141_15810)">
<path d="M866.584 178.963H120L226.012 36H755.4L866.584 178.963Z" fill="#FEE2B3"/>
</g>
<path d="M268.275 118V97.424H271.144V118H268.275ZM261.07 99.4389V96.8134H278.318V99.4389H261.07ZM283.264 118V96.8134H286.134V118H283.264ZM296.941 118V96.8134H299.81V118H296.941ZM285.218 108.353V105.728H297.643V108.353H285.218ZM306.345 118V96.8134H309.215V118H306.345ZM308.299 118V115.375H320.449V118H308.299ZM308.299 108.414V105.911H319.441V108.414H308.299ZM308.299 99.4389V96.8134H320.296V99.4389H308.299ZM335.678 118V115.497H342.089C343.31 115.497 344.267 115.141 344.959 114.428C345.65 113.696 345.996 112.82 345.996 111.803C345.996 111.111 345.844 110.49 345.539 109.941C345.233 109.371 344.786 108.923 344.195 108.597C343.625 108.272 342.954 108.109 342.18 108.109H335.678V105.606H341.753C342.771 105.606 343.575 105.341 344.165 104.812C344.775 104.262 345.081 103.479 345.081 102.461C345.081 101.444 344.765 100.67 344.134 100.141C343.503 99.5915 342.669 99.3168 341.631 99.3168H335.678V96.8134H341.692C343.076 96.8134 344.226 97.0678 345.142 97.5766C346.078 98.0651 346.78 98.7164 347.248 99.5305C347.737 100.345 347.981 101.24 347.981 102.217C347.981 103.357 347.665 104.354 347.034 105.209C346.424 106.063 345.518 106.735 344.317 107.224L344.562 106.308C345.925 106.796 346.984 107.539 347.737 108.536C348.51 109.513 348.897 110.673 348.897 112.016C348.897 113.136 348.622 114.143 348.072 115.039C347.523 115.934 346.729 116.657 345.691 117.206C344.674 117.735 343.422 118 341.936 118H335.678ZM333.755 118V96.8134H336.624V118H333.755ZM354.302 118V96.8134H357.171V118H354.302ZM356.255 118V115.375H368.406V118H356.255ZM356.255 108.414V105.911H367.398V108.414H356.255ZM356.255 99.4389V96.8134H368.253V99.4389H356.255ZM373.835 118V96.8134H375.85L376.704 100.141V118H373.835ZM388.488 118L375.483 100.629L375.85 96.8134L388.885 114.153L388.488 118ZM388.488 118L387.634 114.856V96.8134H390.503V118H388.488ZM397.035 118V96.8134H399.905V118H397.035ZM398.989 118V115.375H411.139V118H398.989ZM398.989 108.414V105.911H410.132V108.414H398.989ZM398.989 99.4389V96.8134H410.986V99.4389H398.989ZM423.081 118L414.594 96.8134H417.708L424.699 114.733H423.569L430.621 96.8134H433.705L425.157 118H423.081ZM447.15 118.305C445.644 118.305 444.239 118.031 442.937 117.481C441.634 116.911 440.495 116.128 439.518 115.13C438.541 114.113 437.778 112.942 437.228 111.62C436.699 110.297 436.434 108.882 436.434 107.376C436.434 105.85 436.699 104.435 437.228 103.133C437.778 101.81 438.531 100.65 439.487 99.6526C440.464 98.6553 441.594 97.8819 442.876 97.3324C444.178 96.7829 445.583 96.5082 447.089 96.5082C448.595 96.5082 449.989 96.7829 451.271 97.3324C452.574 97.8819 453.713 98.6553 454.69 99.6526C455.667 100.65 456.43 101.81 456.98 103.133C457.529 104.456 457.804 105.88 457.804 107.407C457.804 108.913 457.529 110.327 456.98 111.65C456.43 112.973 455.667 114.133 454.69 115.13C453.734 116.128 452.604 116.911 451.301 117.481C450.019 118.031 448.635 118.305 447.15 118.305ZM447.089 115.558C448.615 115.558 449.948 115.212 451.088 114.52C452.248 113.807 453.164 112.841 453.835 111.62C454.507 110.378 454.843 108.964 454.843 107.376C454.843 106.196 454.649 105.117 454.263 104.14C453.876 103.143 453.337 102.278 452.645 101.545C451.953 100.813 451.139 100.253 450.202 99.8663C449.266 99.4592 448.228 99.2557 447.089 99.2557C445.583 99.2557 444.249 99.6017 443.089 100.294C441.95 100.986 441.044 101.942 440.372 103.163C439.721 104.384 439.396 105.789 439.396 107.376C439.396 108.557 439.579 109.656 439.945 110.673C440.332 111.67 440.861 112.535 441.532 113.268C442.224 113.98 443.039 114.54 443.975 114.947C444.931 115.354 445.969 115.558 447.089 115.558ZM463.267 118V96.8134H466.137V118H463.267ZM465.221 118V115.375H476.577V118H465.221ZM481.637 118V96.8134H484.507V118H481.637ZM483.591 118V115.375H495.741V118H483.591ZM483.591 108.414V105.911H494.734V108.414H483.591ZM483.591 99.4389V96.8134H495.589V99.4389H483.591ZM501.171 118V96.8134H503.186L504.04 100.141V118H501.171ZM515.824 118L502.819 100.629L503.186 96.8134L516.221 114.153L515.824 118ZM515.824 118L514.969 114.856V96.8134H517.839V118H515.824ZM533.987 118.305C532.461 118.305 531.046 118.031 529.744 117.481C528.441 116.911 527.302 116.128 526.325 115.13C525.368 114.133 524.625 112.973 524.096 111.65C523.567 110.327 523.302 108.913 523.302 107.407C523.302 105.88 523.567 104.456 524.096 103.133C524.625 101.81 525.368 100.66 526.325 99.6831C527.302 98.6858 528.431 97.9125 529.713 97.363C531.016 96.7931 532.43 96.5082 533.957 96.5082C535.626 96.5082 537.091 96.7931 538.353 97.363C539.615 97.9328 540.734 98.7062 541.711 99.6831L539.727 101.667C539.055 100.914 538.231 100.324 537.254 99.8968C536.297 99.4694 535.198 99.2557 533.957 99.2557C532.837 99.2557 531.81 99.4592 530.873 99.8663C529.937 100.253 529.123 100.813 528.431 101.545C527.739 102.278 527.2 103.143 526.813 104.14C526.447 105.137 526.264 106.226 526.264 107.407C526.264 108.587 526.447 109.676 526.813 110.673C527.2 111.67 527.739 112.535 528.431 113.268C529.123 114.001 529.937 114.571 530.873 114.978C531.81 115.364 532.837 115.558 533.957 115.558C535.28 115.558 536.43 115.344 537.406 114.917C538.383 114.469 539.208 113.869 539.879 113.115L541.864 115.069C540.887 116.087 539.737 116.881 538.414 117.45C537.111 118.02 535.636 118.305 533.987 118.305ZM546.915 118V96.8134H549.785V118H546.915ZM548.869 118V115.375H561.019V118H548.869ZM548.869 108.414V105.911H560.012V108.414H548.869ZM548.869 99.4389V96.8134H560.867V99.4389H548.869ZM578.568 121.541C577.449 120.605 576.493 119.445 575.699 118.061C574.905 116.697 574.294 115.202 573.867 113.573C573.44 111.945 573.226 110.256 573.226 108.506C573.226 106.755 573.44 105.066 573.867 103.438C574.294 101.81 574.905 100.314 575.699 98.9504C576.493 97.5665 577.449 96.4064 578.568 95.4702L580.156 96.905C578.711 98.1669 577.592 99.795 576.798 101.79C576.024 103.784 575.638 106.023 575.638 108.506C575.638 110.968 576.024 113.197 576.798 115.191C577.592 117.186 578.711 118.824 580.156 120.106L578.568 121.541ZM594.352 118.305C592.826 118.305 591.411 118.031 590.109 117.481C588.806 116.911 587.666 116.128 586.689 115.13C585.733 114.133 584.99 112.973 584.461 111.65C583.932 110.327 583.667 108.913 583.667 107.407C583.667 105.88 583.932 104.456 584.461 103.133C584.99 101.81 585.733 100.66 586.689 99.6831C587.666 98.6858 588.796 97.9125 590.078 97.363C591.381 96.7931 592.795 96.5082 594.321 96.5082C595.99 96.5082 597.456 96.7931 598.718 97.363C599.979 97.9328 601.099 98.7062 602.076 99.6831L600.091 101.667C599.42 100.914 598.595 100.324 597.619 99.8968C596.662 99.4694 595.563 99.2557 594.321 99.2557C593.202 99.2557 592.174 99.4592 591.238 99.8663C590.302 100.253 589.488 100.813 588.796 101.545C588.104 102.278 587.565 103.143 587.178 104.14C586.812 105.137 586.628 106.226 586.628 107.407C586.628 108.587 586.812 109.676 587.178 110.673C587.565 111.67 588.104 112.535 588.796 113.268C589.488 114.001 590.302 114.571 591.238 114.978C592.174 115.364 593.202 115.558 594.321 115.558C595.644 115.558 596.794 115.344 597.771 114.917C598.748 114.469 599.572 113.869 600.244 113.115L602.228 115.069C601.251 116.087 600.101 116.881 598.779 117.45C597.476 118.02 596.001 118.305 594.352 118.305ZM605.186 118L613.856 96.8134H615.932L624.572 118H621.458L614.345 100.08H615.413L608.239 118H605.186ZM609.308 113.207V110.704H620.451V113.207H609.308ZM631.211 108.78V106.369H636.95C638.192 106.369 639.148 106.053 639.82 105.422C640.492 104.791 640.827 103.937 640.827 102.858C640.827 101.84 640.492 100.996 639.82 100.324C639.169 99.6526 638.222 99.3168 636.981 99.3168H631.211V96.8134H637.072C638.416 96.8134 639.586 97.078 640.583 97.6072C641.58 98.116 642.344 98.8181 642.873 99.7136C643.422 100.609 643.697 101.637 643.697 102.797C643.697 103.998 643.422 105.046 642.873 105.941C642.344 106.837 641.58 107.539 640.583 108.048C639.586 108.536 638.416 108.78 637.072 108.78H631.211ZM629.288 118V96.8134H632.157V118H629.288ZM641.499 118L633.806 108.506L636.523 107.559L645.132 118H641.499ZM651.549 118V115.497H657.96C659.181 115.497 660.138 115.141 660.83 114.428C661.522 113.696 661.868 112.82 661.868 111.803C661.868 111.111 661.715 110.49 661.41 109.941C661.104 109.371 660.657 108.923 660.067 108.597C659.497 108.272 658.825 108.109 658.052 108.109H651.549V105.606H657.624C658.642 105.606 659.446 105.341 660.036 104.812C660.647 104.262 660.952 103.479 660.952 102.461C660.952 101.444 660.636 100.67 660.005 100.141C659.375 99.5915 658.54 99.3168 657.502 99.3168H651.549V96.8134H657.563C658.947 96.8134 660.097 97.0678 661.013 97.5766C661.949 98.0651 662.651 98.7164 663.119 99.5305C663.608 100.345 663.852 101.24 663.852 102.217C663.852 103.357 663.537 104.354 662.906 105.209C662.295 106.063 661.389 106.735 660.189 107.224L660.433 106.308C661.796 106.796 662.855 107.539 663.608 108.536C664.381 109.513 664.768 110.673 664.768 112.016C664.768 113.136 664.493 114.143 663.944 115.039C663.394 115.934 662.6 116.657 661.562 117.206C660.545 117.735 659.293 118 657.807 118H651.549ZM649.626 118V96.8134H652.496V118H649.626ZM679.82 118.305C678.314 118.305 676.909 118.031 675.607 117.481C674.304 116.911 673.165 116.128 672.188 115.13C671.211 114.113 670.448 112.942 669.898 111.62C669.369 110.297 669.104 108.882 669.104 107.376C669.104 105.85 669.369 104.435 669.898 103.133C670.448 101.81 671.201 100.65 672.157 99.6526C673.134 98.6553 674.264 97.8819 675.546 97.3324C676.848 96.7829 678.253 96.5082 679.759 96.5082C681.265 96.5082 682.659 96.7829 683.941 97.3324C685.244 97.8819 686.383 98.6553 687.36 99.6526C688.337 100.65 689.1 101.81 689.65 103.133C690.199 104.456 690.474 105.88 690.474 107.407C690.474 108.913 690.199 110.327 689.65 111.65C689.1 112.973 688.337 114.133 687.36 115.13C686.404 116.128 685.274 116.911 683.972 117.481C682.689 118.031 681.305 118.305 679.82 118.305ZM679.759 115.558C681.285 115.558 682.618 115.212 683.758 114.52C684.918 113.807 685.834 112.841 686.505 111.62C687.177 110.378 687.513 108.964 687.513 107.376C687.513 106.196 687.319 105.117 686.933 104.14C686.546 103.143 686.007 102.278 685.315 101.545C684.623 100.813 683.809 100.253 682.873 99.8663C681.936 99.4592 680.898 99.2557 679.759 99.2557C678.253 99.2557 676.92 99.6017 675.759 100.294C674.62 100.986 673.714 101.942 673.042 103.163C672.391 104.384 672.066 105.789 672.066 107.376C672.066 108.557 672.249 109.656 672.615 110.673C673.002 111.67 673.531 112.535 674.203 113.268C674.894 113.98 675.709 114.54 676.645 114.947C677.601 115.354 678.639 115.558 679.759 115.558ZM695.937 118V96.8134H697.952L698.807 100.141V118H695.937ZM710.59 118L697.585 100.629L697.952 96.8134L710.987 114.153L710.59 118ZM710.59 118L709.736 114.856V96.8134H712.605V118H710.59ZM719.137 121.541L717.55 120.106C718.995 118.824 720.104 117.186 720.877 115.191C721.651 113.197 722.037 110.968 722.037 108.506C722.037 106.023 721.651 103.784 720.877 101.79C720.104 99.795 718.995 98.1669 717.55 96.905L719.137 95.4702C720.256 96.4064 721.213 97.5665 722.007 98.9504C722.8 100.314 723.411 101.81 723.838 103.438C724.266 105.066 724.48 106.755 724.48 108.506C724.48 110.256 724.266 111.945 723.838 113.573C723.411 115.202 722.8 116.697 722.007 118.061C721.213 119.445 720.256 120.605 719.137 121.541Z" fill="#602D23"/>
<g filter="url(#filter5_d_2141_15810)">
<path d="M651.677 650.473H343.91L496.216 853.996L651.677 650.473Z" fill="#F8E2CF"/>
</g>
<path d="M425.17 696V675.424H428.039V696H425.17ZM417.965 677.439V674.813H435.213V677.439H417.965ZM440.159 696V674.813H443.029V696H440.159ZM453.836 696V674.813H456.705V696H453.836ZM442.113 686.353V683.728H454.538V686.353H442.113ZM463.24 696V674.813H466.11V696H463.24ZM465.194 696V693.375H477.344V696H465.194ZM465.194 686.414V683.911H476.337V686.414H465.194ZM465.194 677.439V674.813H477.191V677.439H465.194ZM492.573 696V693.497H498.984C500.205 693.497 501.162 693.141 501.854 692.428C502.546 691.696 502.892 690.82 502.892 689.803C502.892 689.111 502.739 688.49 502.434 687.941C502.128 687.371 501.681 686.923 501.09 686.597C500.521 686.272 499.849 686.109 499.076 686.109H492.573V683.606H498.648C499.666 683.606 500.47 683.341 501.06 682.812C501.67 682.262 501.976 681.479 501.976 680.461C501.976 679.444 501.66 678.67 501.029 678.141C500.398 677.592 499.564 677.317 498.526 677.317H492.573V674.813H498.587C499.971 674.813 501.121 675.068 502.037 675.577C502.973 676.065 503.675 676.716 504.143 677.53C504.632 678.345 504.876 679.24 504.876 680.217C504.876 681.357 504.56 682.354 503.93 683.209C503.319 684.063 502.413 684.735 501.213 685.224L501.457 684.308C502.82 684.796 503.879 685.539 504.632 686.536C505.405 687.513 505.792 688.673 505.792 690.016C505.792 691.136 505.517 692.143 504.968 693.039C504.418 693.934 503.624 694.657 502.586 695.206C501.569 695.735 500.317 696 498.831 696H492.573ZM490.65 696V674.813H493.519V696H490.65ZM519.134 696.305C517.567 696.305 516.163 695.959 514.921 695.267C513.7 694.555 512.733 693.588 512.021 692.367C511.309 691.126 510.952 689.721 510.952 688.154V674.813H513.822V688.093C513.822 689.213 514.056 690.179 514.524 690.993C514.992 691.807 515.623 692.438 516.417 692.886C517.231 693.334 518.137 693.558 519.134 693.558C520.172 693.558 521.078 693.334 521.851 692.886C522.645 692.438 523.265 691.807 523.713 690.993C524.181 690.179 524.415 689.223 524.415 688.124V674.813H527.316V688.185C527.316 689.752 526.959 691.146 526.247 692.367C525.535 693.588 524.568 694.555 523.347 695.267C522.126 695.959 520.721 696.305 519.134 696.305ZM533.562 696V674.813H536.432V696H533.562ZM542.959 696V674.813H545.829V696H542.959ZM544.913 696V693.375H556.269V696H544.913ZM563.222 696V693.375H569.114C570.681 693.375 572.055 693.039 573.236 692.367C574.416 691.675 575.332 690.729 575.983 689.528C576.655 688.327 576.991 686.943 576.991 685.376C576.991 683.829 576.655 682.456 575.983 681.255C575.312 680.054 574.386 679.118 573.205 678.446C572.025 677.775 570.661 677.439 569.114 677.439H563.253V674.813H569.175C570.722 674.813 572.147 675.078 573.449 675.607C574.772 676.136 575.912 676.879 576.869 677.836C577.845 678.792 578.598 679.912 579.128 681.194C579.677 682.476 579.952 683.88 579.952 685.407C579.952 686.913 579.677 688.317 579.128 689.62C578.598 690.902 577.856 692.021 576.899 692.978C575.943 693.934 574.803 694.677 573.48 695.206C572.177 695.735 570.763 696 569.236 696H563.222ZM561.33 696V674.813H564.199V696H561.33ZM444.689 737.541C443.569 736.605 442.613 735.445 441.819 734.061C441.025 732.697 440.415 731.202 439.987 729.573C439.56 727.945 439.346 726.256 439.346 724.506C439.346 722.755 439.56 721.066 439.987 719.438C440.415 717.81 441.025 716.314 441.819 714.95C442.613 713.566 443.569 712.406 444.689 711.47L446.276 712.905C444.831 714.167 443.712 715.795 442.918 717.79C442.145 719.784 441.758 722.023 441.758 724.506C441.758 726.968 442.145 729.197 442.918 731.191C443.712 733.186 444.831 734.824 446.276 736.106L444.689 737.541ZM460.472 734.305C458.946 734.305 457.531 734.031 456.229 733.481C454.926 732.911 453.787 732.128 452.81 731.13C451.853 730.133 451.11 728.973 450.581 727.65C450.052 726.327 449.787 724.913 449.787 723.407C449.787 721.88 450.052 720.456 450.581 719.133C451.11 717.81 451.853 716.66 452.81 715.683C453.787 714.686 454.916 713.912 456.198 713.363C457.501 712.793 458.915 712.508 460.442 712.508C462.111 712.508 463.576 712.793 464.838 713.363C466.1 713.933 467.219 714.706 468.196 715.683L466.212 717.667C465.54 716.914 464.716 716.324 463.739 715.897C462.782 715.469 461.683 715.256 460.442 715.256C459.322 715.256 458.295 715.459 457.358 715.866C456.422 716.253 455.608 716.813 454.916 717.545C454.224 718.278 453.685 719.143 453.298 720.14C452.932 721.137 452.749 722.226 452.749 723.407C452.749 724.587 452.932 725.676 453.298 726.673C453.685 727.67 454.224 728.535 454.916 729.268C455.608 730.001 456.422 730.571 457.358 730.978C458.295 731.364 459.322 731.558 460.442 731.558C461.765 731.558 462.914 731.344 463.891 730.917C464.868 730.469 465.693 729.869 466.364 729.115L468.348 731.069C467.372 732.087 466.222 732.881 464.899 733.45C463.596 734.02 462.121 734.305 460.472 734.305ZM471.307 734L479.977 712.813H482.053L490.692 734H487.578L480.465 716.08H481.534L474.359 734H471.307ZM475.428 729.207V726.704H486.571V729.207H475.428ZM497.331 724.78V722.369H503.07C504.312 722.369 505.268 722.053 505.94 721.422C506.612 720.791 506.948 719.937 506.948 718.858C506.948 717.84 506.612 716.996 505.94 716.324C505.289 715.653 504.342 715.317 503.101 715.317H497.331V712.813H503.193C504.536 712.813 505.706 713.078 506.703 713.607C507.701 714.116 508.464 714.818 508.993 715.714C509.542 716.609 509.817 717.637 509.817 718.797C509.817 719.998 509.542 721.046 508.993 721.941C508.464 722.837 507.701 723.539 506.703 724.048C505.706 724.536 504.536 724.78 503.193 724.78H497.331ZM495.408 734V712.813H498.278V734H495.408ZM507.619 734L499.926 724.506L502.643 723.559L511.252 734H507.619ZM513.503 734L522.173 712.813H524.249L532.889 734H529.775L522.662 716.08H523.73L516.556 734H513.503ZM517.625 729.207V726.704H528.768V729.207H517.625ZM540.36 734V713.424H543.23V734H540.36ZM533.155 715.439V712.813H550.404V715.439H533.155ZM555.349 737.541L553.762 736.106C555.207 734.824 556.316 733.186 557.089 731.191C557.863 729.197 558.249 726.968 558.249 724.506C558.249 722.023 557.863 719.784 557.089 717.79C556.316 715.795 555.207 714.167 553.762 712.905L555.349 711.47C556.469 712.406 557.425 713.566 558.219 714.95C559.013 716.314 559.623 717.81 560.051 719.438C560.478 721.066 560.692 722.755 560.692 724.506C560.692 726.256 560.478 727.945 560.051 729.573C559.623 731.202 559.013 732.697 558.219 734.061C557.425 735.445 556.469 736.605 555.349 737.541Z" fill="#602D23"/>
<defs>
<filter id="filter0_i_2141_15810" x="0.00390625" y="0.187988" width="992.164" height="907.618" filterUnits="userSpaceOnUse" color-interpolation-filters="sRGB">
<feFlood flood-opacity="0" result="BackgroundImageFix"/>
<feBlend mode="normal" in="SourceGraphic" in2="BackgroundImageFix" result="shape"/>
<feColorMatrix in="SourceAlpha" type="matrix" values="0 0 0 0 0 0 0 0 0 0 0 0 0 0 0 0 0 0 127 0" result="hardAlpha"/>
<feOffset dy="4.0746"/>
<feGaussianBlur stdDeviation="3.56528"/>
<feComposite in2="hardAlpha" operator="arithmetic" k2="-1" k3="1"/>
<feColorMatrix type="matrix" values="0 0 0 0 0.376471 0 0 0 0 0.121569 0 0 0 0 0.176471 0 0 0 0.5 0"/>
<feBlend mode="normal" in2="shape" result="effect1_innerShadow_2141_15810"/>
</filter>
<filter id="filter1_d_2141_15810" x="226.029" y="494" width="550.009" height="154.876" filterUnits="userSpaceOnUse" color-interpolation-filters="sRGB">
<feFlood flood-opacity="0" result="BackgroundImageFix"/>
<feColorMatrix in="SourceAlpha" type="matrix" values="0 0 0 0 0 0 0 0 0 0 0 0 0 0 0 0 0 0 127 0" result="hardAlpha"/>
<feOffset dy="3.97119"/>
<feGaussianBlur stdDeviation="1.9856"/>
<feComposite in2="hardAlpha" operator="out"/>
<feColorMatrix type="matrix" values="0 0 0 0 0.764706 0 0 0 0 0.427451 0 0 0 0 0.372549 0 0 0 0.5 0"/>
<feBlend mode="normal" in2="BackgroundImageFix" result="effect1_dropShadow_2141_15810"/>
<feBlend mode="normal" in="SourceGraphic" in2="effect1_dropShadow_2141_15810" result="shape"/>
</filter>
<filter id="filter2_d_2141_15810" x="109.029" y="341" width="778.353" height="150.905" filterUnits="userSpaceOnUse" color-interpolation-filters="sRGB">
<feFlood flood-opacity="0" result="BackgroundImageFix"/>
<feColorMatrix in="SourceAlpha" type="matrix" values="0 0 0 0 0 0 0 0 0 0 0 0 0 0 0 0 0 0 127 0" result="hardAlpha"/>
<feOffset dy="3.97119"/>
<feGaussianBlur stdDeviation="1.9856"/>
<feComposite in2="hardAlpha" operator="out"/>
<feColorMatrix type="matrix" values="0 0 0 0 0.764706 0 0 0 0 0.427451 0 0 0 0 0.372549 0 0 0 0.5 0"/>
<feBlend mode="normal" in2="BackgroundImageFix" result="effect1_dropShadow_2141_15810"/>
<feBlend mode="normal" in="SourceGraphic" in2="effect1_dropShadow_2141_15810" result="shape"/>
</filter>
<filter id="filter3_d_2141_15810" x="43.0288" y="189" width="899.474" height="149.912" filterUnits="userSpaceOnUse" color-interpolation-filters="sRGB">
<feFlood flood-opacity="0" result="BackgroundImageFix"/>
<feColorMatrix in="SourceAlpha" type="matrix" values="0 0 0 0 0 0 0 0 0 0 0 0 0 0 0 0 0 0 127 0" result="hardAlpha"/>
<feOffset dy="3.97119"/>
<feGaussianBlur stdDeviation="1.9856"/>
<feComposite in2="hardAlpha" operator="out"/>
<feColorMatrix type="matrix" values="0 0 0 0 0.764706 0 0 0 0 0.427451 0 0 0 0 0.372549 0 0 0 0.5 0"/>
<feBlend mode="normal" in2="BackgroundImageFix" result="effect1_dropShadow_2141_15810"/>
<feBlend mode="normal" in="SourceGraphic" in2="effect1_dropShadow_2141_15810" result="shape"/>
</filter>
<filter id="filter4_d_2141_15810" x="116.029" y="36" width="754.524" height="150.905" filterUnits="userSpaceOnUse" color-interpolation-filters="sRGB">
<feFlood flood-opacity="0" result="BackgroundImageFix"/>
<feColorMatrix in="SourceAlpha" type="matrix" values="0 0 0 0 0 0 0 0 0 0 0 0 0 0 0 0 0 0 127 0" result="hardAlpha"/>
<feOffset dy="3.97119"/>
<feGaussianBlur stdDeviation="1.9856"/>
<feComposite in2="hardAlpha" operator="out"/>
<feColorMatrix type="matrix" values="0 0 0 0 0.764706 0 0 0 0 0.427451 0 0 0 0 0.372549 0 0 0 0.5 0"/>
<feBlend mode="normal" in2="BackgroundImageFix" result="effect1_dropShadow_2141_15810"/>
<feBlend mode="normal" in="SourceGraphic" in2="effect1_dropShadow_2141_15810" result="shape"/>
</filter>
<filter id="filter5_d_2141_15810" x="339.939" y="650.473" width="315.708" height="211.466" filterUnits="userSpaceOnUse" color-interpolation-filters="sRGB">
<feFlood flood-opacity="0" result="BackgroundImageFix"/>
<feColorMatrix in="SourceAlpha" type="matrix" values="0 0 0 0 0 0 0 0 0 0 0 0 0 0 0 0 0 0 127 0" result="hardAlpha"/>
<feOffset dy="3.97119"/>
<feGaussianBlur stdDeviation="1.9856"/>
<feComposite in2="hardAlpha" operator="out"/>
<feColorMatrix type="matrix" values="0 0 0 0 0.764706 0 0 0 0 0.427451 0 0 0 0 0.372549 0 0 0 0.5 0"/>
<feBlend mode="normal" in2="BackgroundImageFix" result="effect1_dropShadow_2141_15810"/>
<feBlend mode="normal" in="SourceGraphic" in2="effect1_dropShadow_2141_15810" result="shape"/>
</filter>
</defs>
</svg>
