<svg width="105" height="105" viewBox="0 0 105 105" fill="none" xmlns="http://www.w3.org/2000/svg">
<path d="M52.0017 92.1133C66.4013 92.1133 78.1133 80.4012 78.1133 66C78.1133 51.5988 66.4005 39.8867 52.0017 39.8867C37.603 39.8867 25.8867 51.5988 25.8867 66C25.8867 80.4012 37.6028 92.1133 52.0017 92.1133ZM52.0017 41.9284C65.2747 41.9284 76.075 52.7286 76.075 66.0035C76.075 79.2755 65.2773 90.0751 52.0017 90.0751C38.7262 90.0751 27.9285 79.2748 27.9285 66.0035C27.9285 52.7288 38.7295 41.9284 52.0017 41.9284Z" fill="#EEC9C2" stroke="#EEC9C2" stroke-width="0.226667"/>
<path d="M45.0144 35.4162C31.1506 38.6066 20.7733 51.0654 20.7733 65.9174C20.7699 83.1819 34.7778 97.2267 51.998 97.2267H51.9986C69.2194 97.2267 83.2267 83.1812 83.2267 65.9175C83.2267 51.0652 72.849 38.6066 58.9856 35.4162L71.3972 22.0536L71.3979 22.0528C71.7983 21.6176 71.8017 20.9474 71.4014 20.508L71.4007 20.5073L63.7102 12.138L63.7092 12.1369C63.4942 11.9061 63.1916 11.7733 62.8742 11.7733H41.1224C40.8048 11.7733 40.5014 11.9064 40.2861 12.1418L32.5959 20.5107L32.5953 20.5113C32.1979 20.947 32.1978 21.6179 32.6028 22.0536C32.6028 22.0536 32.6028 22.0537 32.6029 22.0537L45.0144 35.4162ZM44.9761 22.4136L48.8108 34.8026C48.4317 34.8456 48.0544 34.8945 47.6787 34.948L36.0409 22.4136H44.9761ZM56.3183 34.9448C55.9436 34.8923 55.5673 34.8441 55.1892 34.8016L59.0236 22.4136H67.9587L56.3183 34.9448ZM51.9986 34.6102C51.7089 34.6102 51.4207 34.6155 51.1339 34.6255L47.3552 22.4136H56.6477L52.8659 34.6256C52.5782 34.6155 52.2891 34.6102 51.9986 34.6102ZM60.1215 20.1416L63.0976 14.8323L67.9749 20.1416H60.1215ZM60.9346 14.0471L58.0549 19.1897L54.2525 14.0471H60.9346ZM51.9986 14.8209L55.9333 20.1416H48.0638L51.9986 14.8209ZM49.7445 14.0471L45.9421 19.1897L43.0624 14.0471H49.7445ZM36.0225 20.1416L40.8995 14.8323L43.8758 20.1416H36.0225ZM51.9984 36.8849C67.9655 36.8849 80.9565 49.9098 80.9565 65.9159C80.9565 81.9262 67.9647 94.9538 51.9984 94.9538C36.0321 94.9538 23.0404 81.9289 23.0404 65.9159C23.0404 49.9057 36.032 36.8849 51.9984 36.8849Z" fill="#EEC9C2" stroke="#EEC9C2" stroke-width="0.453333"/>
</svg>
