<svg width="105" height="105" viewBox="0 0 105 105" fill="none" xmlns="http://www.w3.org/2000/svg">
<path d="M88.4324 43.2989L79.0012 27.8703C78.2711 26.7309 77.0242 26.0304 75.6741 26H30.7489C29.4763 26.0006 28.283 26.6234 27.5529 27.6687L16.7094 43.193C16.2316 43.8737 15.9834 44.6893 16.0009 45.5218C16.0189 46.3539 16.3009 47.1583 16.8073 47.8181L49.3728 90.4662C50.1081 91.4367 51.2548 92.0046 52.4703 92C53.6852 92.0041 54.8319 91.4362 55.5673 90.4662L88.1969 47.7224C88.6747 47.0937 88.9526 46.3359 88.9946 45.5465C89.0359 44.7578 88.8408 43.9748 88.4324 43.2989ZM85.9211 44.1992H71.8647L77.3814 30.2257L85.9211 44.1992ZM55.6065 28.6166H75.2171L69.5564 42.9371L55.6065 28.6166ZM67.134 44.1992H38.8227L52.5359 29.2119L67.134 44.1992ZM36.5255 42.8373L31.2739 28.6173H49.5376L36.5255 42.8373ZM68.023 46.8173L52.5055 86.1105L37.9958 46.8173H68.023ZM29.039 30.1039L34.2469 44.1995L19.1963 44.1989L29.039 30.1039ZM19.3311 46.8158H35.2126L50.0981 87.1111L19.3311 46.8158ZM55.0067 86.8943L70.8315 46.8158H85.6086L55.0067 86.8943Z" fill="#EEC9C2"/>
<path d="M52.5 19C52.8984 19 53.2795 18.8614 53.5607 18.6148C53.842 18.3682 54 18.0336 54 17.6848V14.3152C54 13.5889 53.329 13 52.5 13C51.6717 13 51 13.5889 51 14.3152V17.6848C51 18.0336 51.158 18.3682 51.44 18.6148C51.7212 18.8614 52.1022 19 52.5 19Z" fill="#EEC9C2"/>
<path d="M64.3084 17.9999C64.6551 17.9999 64.9878 17.8621 65.233 17.617L67.6012 15.2479C67.8534 15.0039 67.997 14.6694 67.9999 14.3186C68.0034 13.9678 67.8651 13.6304 67.617 13.383C67.3689 13.1349 67.0321 12.9966 66.6813 13.0001C66.3305 13.003 65.996 13.1466 65.752 13.3987L63.3843 15.7668C63.0096 16.1404 62.8969 16.7036 63.0995 17.1928C63.302 17.6813 63.7789 18.0005 64.3084 17.9999Z" fill="#EEC9C2"/>
<path d="M39.7674 17.6175C40.2782 18.1277 41.1067 18.1277 41.6169 17.6163C42.1278 17.1056 42.1278 16.2778 41.6164 15.767L39.2484 13.3988C39.0043 13.1466 38.6698 13.003 38.3189 13.0001C37.968 12.9966 37.6306 13.1349 37.383 13.383C37.1349 13.6305 36.9966 13.9679 37.0001 14.3187C37.003 14.6696 37.1466 15.004 37.3988 15.248L39.7674 17.6175Z" fill="#EEC9C2"/>
</svg>
