<svg width="54" height="54" viewBox="0 0 54 54" fill="none" xmlns="http://www.w3.org/2000/svg">
<path d="M4 10.7757L10.9006 4H44.138L50 9.97947V43.6448L44.1208 50H10.6126L4 43.7961V10.7757Z" stroke="black" stroke-width="2" stroke-miterlimit="10"/>
<path d="M8.57129 13.946L14.0449 8.57143H40.7935L45.4284 13.2993V40.3998L40.7763 45.4286H13.8093L8.57129 40.5144V13.946Z" stroke="black" stroke-width="2" stroke-miterlimit="10"/>
<path d="M13.1431 17.1163L17.1897 13.1429H37.4494L40.8574 16.6191V37.1547L37.4323 40.8571H17.0064L13.1431 37.2326V17.1163Z" stroke="black" stroke-width="2" stroke-miterlimit="10"/>
<path d="M44.1427 3.57143L36.7141 13.8571M10.4284 3.57143L17.857 14.4286M3.57129 10.4286L13.857 17.2857" stroke="black" stroke-width="2"/>
<path d="M39.5713 17.2857L50.4284 9.85714" stroke="black" stroke-width="2"/>
<path d="M44.1427 50.4286L36.7141 40.1429M10.4284 50.4286L17.857 39.5714M3.57129 43.5714L13.857 36.7143" stroke="black" stroke-width="2"/>
<path d="M39.5713 36.7143L50.4284 44.1429" stroke="black" stroke-width="2"/>
</svg>
