<svg width="54" height="54" viewBox="0 0 54 54" fill="none" xmlns="http://www.w3.org/2000/svg">
<path d="M43 26.5C43 6.23109 27.5002 1.46194 27.5002 1.46194C27.5002 1.46194 12.0005 8.61567 12.0005 26.5C12.0005 46.7689 27.5002 51.5381 27.5002 51.5381C27.5002 51.5381 43 46.7689 43 26.5Z" stroke="black" stroke-width="2.03416" stroke-linecap="round" stroke-linejoin="round"/>
<path d="M27.4999 51.5381L21.5332 37.1326V17.2346L27.4999 1.46194L33.8429 16.8239L33.4322 37.5432L27.4999 51.5381Z" stroke="black" stroke-width="2.03416" stroke-linecap="round" stroke-linejoin="round"/>
<path d="M15 39.798L21.5331 37.1326L27.688 41.8514L33.4322 37.5432L39.9951 39.798" stroke="black" stroke-width="2.03416" stroke-linecap="round" stroke-linejoin="round"/>
<path d="M14.5596 14.7732L21.5331 17.4413L27.688 12.7224L33.4322 17.0306L40.6097 15.1839" stroke="black" stroke-width="2.03416" stroke-linecap="round" stroke-linejoin="round"/>
<path d="M27.5 51.5381L27.6881 41.8514" stroke="black" stroke-width="2.03416" stroke-linecap="round" stroke-linejoin="round"/>
<path d="M27.6881 12.7224L27.5 1.46194" stroke="black" stroke-width="2.03416" stroke-linecap="round" stroke-linejoin="round"/>
<path d="M21.533 37.1326L12.3047 27.4909L20.7143 17.4413" stroke="black" stroke-width="2.03416" stroke-linecap="round" stroke-linejoin="round"/>
<path d="M33.4321 37.5432L42.6604 27.6976L33.4321 17.0306" stroke="black" stroke-width="2.03416" stroke-linecap="round" stroke-linejoin="round"/>
<path d="M12.3022 27.4909H21.5332" stroke="black" stroke-width="2.03416" stroke-linecap="round" stroke-linejoin="round"/>
<path d="M34 27.6976H42.6631" stroke="black" stroke-width="2.03416" stroke-linecap="round" stroke-linejoin="round"/>
</svg>
