<svg width="54" height="54" viewBox="0 0 54 54" fill="none" xmlns="http://www.w3.org/2000/svg">
<path d="M27.3165 51.9159C37.9307 51.9159 46.5353 40.9657 46.5353 27.4579C46.5353 13.9502 37.9307 3 27.3165 3C16.7022 3 8.09766 13.9502 8.09766 27.4579C8.09766 40.9657 16.7022 51.9159 27.3165 51.9159Z" stroke="black" stroke-width="2" stroke-miterlimit="10"/>
<path d="M27.3992 12.0265L18.5796 19.304L16.8345 27.4579L18.5796 36.7777L27.3164 43.4724" stroke="black" stroke-width="2" stroke-miterlimit="10"/>
<path d="M27.3996 11.9888L36.0988 19.304L37.8477 27.4579L36.0988 36.7777L27.3657 43.4724" stroke="black" stroke-width="2" stroke-miterlimit="10"/>
<path d="M27.3169 3L27.4598 12.2935" stroke="black" stroke-width="2" stroke-miterlimit="10"/>
<path d="M27.3169 43.4385L27.3658 51.9535" stroke="black" stroke-width="2" stroke-miterlimit="10"/>
<path d="M42.3946 12.2446L36.0986 19.304" stroke="black" stroke-width="2" stroke-miterlimit="10"/>
<path d="M37.8477 27.4579H46.7011" stroke="black" stroke-width="2" stroke-miterlimit="10"/>
<path d="M8 27.4579H16.8572" stroke="black" stroke-width="2" stroke-miterlimit="10"/>
<path d="M18.5798 36.7777L12.2236 42.8179" stroke="black" stroke-width="2" stroke-miterlimit="10"/>
<path d="M36.2192 36.9207L42.2858 42.5998" stroke="black" stroke-width="2" stroke-miterlimit="10"/>
<path d="M18.5799 19.304L12.1147 12.3537" stroke="black" stroke-width="2" stroke-miterlimit="10"/>
</svg>
