<svg width="54" height="54" viewBox="0 0 54 54" fill="none" xmlns="http://www.w3.org/2000/svg">
<path d="M43.7456 35.9253C43.7456 38.1494 43.3075 40.3516 42.4564 42.4064C41.6053 44.4611 40.3578 46.3281 38.7852 47.9007C37.2126 49.4734 35.3456 50.7209 33.2908 51.572C31.2361 52.4231 29.0338 52.8611 26.8098 52.8611C24.5858 52.8611 22.3835 52.4231 20.3288 51.572C18.274 50.7209 16.407 49.4734 14.8344 47.9007C13.2618 46.3281 12.0143 44.4611 11.1632 42.4064C10.3121 40.3516 9.87402 38.1494 9.87402 35.9253C9.87402 16.605 26.8098 2.13512 26.8098 2.13512C26.8098 2.13512 43.7456 16.239 43.7456 35.9253Z" stroke="black" stroke-width="2" stroke-miterlimit="10"/>
<path d="M27.0692 23.6315L22.6002 25.35L18.126 33.9476L20.3631 40.4809L26.8964 43.9179L33.4297 40.8266L35.8397 34.2933L31.5383 25.35L27.0692 23.6315Z" stroke="black" stroke-width="2" stroke-miterlimit="10"/>
<path d="M26.8101 2.13513V23.6315" stroke="black" stroke-width="2" stroke-miterlimit="10"/>
<path d="M38.5697 16.9203L31.5381 25.35" stroke="black" stroke-width="2" stroke-miterlimit="10"/>
<path d="M35.8394 34.2933L43.7454 35.9254" stroke="black" stroke-width="2" stroke-miterlimit="10"/>
<path d="M33.4297 40.8266L39.6224 47.0142" stroke="black" stroke-width="2" stroke-miterlimit="10"/>
<path d="M26.8965 43.9179L26.8101 52.8611" stroke="black" stroke-width="2" stroke-miterlimit="10"/>
<path d="M20.3629 40.4809L14.0889 47.1616" stroke="black" stroke-width="2" stroke-miterlimit="10"/>
<path d="M18.1258 33.9476L9.87402 35.9254" stroke="black" stroke-width="2" stroke-miterlimit="10"/>
<path d="M22.6003 25.35L15.2026 16.5796" stroke="black" stroke-width="2" stroke-miterlimit="10"/>
</svg>
