<svg width="54" height="54" viewBox="0 0 54 54" fill="none" xmlns="http://www.w3.org/2000/svg">
<path d="M50.9999 2.81249H2.8125V50.9999H50.9999V2.81249Z" stroke="black" stroke-width="2" stroke-miterlimit="10"/>
<path d="M7 14.1009V39.8711L14.1289 47H39.8432L47 39.8432V14.1288L39.8711 7H14.101L7 14.1009Z" stroke="black" stroke-width="1.90476" stroke-miterlimit="10"/>
<path d="M7 14L3.5 3.5L14 7" stroke="black" stroke-width="2" stroke-linejoin="bevel"/>
<path d="M7 40L3.5 50.5L14 47" stroke="black" stroke-width="2" stroke-linejoin="bevel"/>
<path d="M40 7L50.5 3.5L47 14" stroke="black" stroke-width="2" stroke-linejoin="bevel"/>
<path d="M40 47L50.5 50.5L47 40" stroke="black" stroke-width="2" stroke-linejoin="bevel"/>
<path d="M8 15L39 8" stroke="black" stroke-width="2"/>
<path d="M15 8L46.5 14.5" stroke="black" stroke-width="2"/>
<path d="M8 39L39 46M46 39L14.5 46" stroke="black" stroke-width="2"/>
<path d="M15 8L8 39" stroke="black" stroke-width="2"/>
<path d="M8 15L15 46" stroke="black" stroke-width="2"/>
<path d="M39 8L46 39" stroke="black" stroke-width="2"/>
<path d="M46 14.5L39 46" stroke="black" stroke-width="2"/>
</svg>
