<svg width="54" height="54" viewBox="0 0 54 54" fill="none" xmlns="http://www.w3.org/2000/svg">
<path d="M7 9.48051L14.6736 2H40.4503L47.3367 8.88635V44.6992L40.439 51.8676H14.4568L7 44.8155V9.48051Z" stroke="black" stroke-width="2" stroke-miterlimit="10"/>
<path d="M16.8672 6.61613L12.2031 11.1362V42.8754L17.2805 47.9528H37.3448L42.3528 42.9501V11.2802L38.3981 6.54682L16.8672 6.61613Z" stroke="black" stroke-width="2" stroke-miterlimit="10"/>
<path d="M47.5 9L42.5 11.5L27 7L13 11.5L8 9M47.5 44.5L42.5 43L27 48L13 43L8 44.5" stroke="black" stroke-width="2" stroke-linecap="round" stroke-linejoin="round"/>
<path d="M8 9.5L12 27.5L8 43.5" stroke="black" stroke-width="2" stroke-linecap="round" stroke-linejoin="round"/>
<path d="M47.5 9.5L42.5 27L46.5 45M26.5 7V2" stroke="black" stroke-width="2" stroke-linecap="round" stroke-linejoin="round"/>
<path d="M27 48V51.5" stroke="black" stroke-width="2" stroke-linecap="round" stroke-linejoin="round"/>
<path d="M37.5 48L39.5 51.5" stroke="black" stroke-width="2" stroke-linecap="round" stroke-linejoin="round"/>
<path d="M17 48L14.5 51.5" stroke="black" stroke-width="2" stroke-linecap="round" stroke-linejoin="round"/>
<path d="M14.5 2.5L16.5 6.5M40.5 2.5L38.5 6.5" stroke="black" stroke-width="2" stroke-linecap="round" stroke-linejoin="round"/>
</svg>
