<svg width="54" height="54" viewBox="0 0 54 54" fill="none" xmlns="http://www.w3.org/2000/svg">
<path d="M27.31 49.9999C39.8413 49.9999 50 39.8413 50 27.31C50 14.7787 39.8413 4.62008 27.31 4.62008C14.7787 4.62008 4.62012 14.7787 4.62012 27.31C4.62012 39.8413 14.7787 49.9999 27.31 49.9999Z" stroke="black" stroke-width="2" stroke-miterlimit="10"/>
<path d="M11.3491 11.3493L21.8727 16.6111H32.3962L42.9197 11.3493" stroke="black" stroke-width="2" stroke-miterlimit="10"/>
<path d="M42.9197 42.9199L32.3962 37.6581H21.8727L11.3491 42.9199" stroke="black" stroke-width="2" stroke-miterlimit="10"/>
<path d="M42.9195 11.3493L37.6577 21.8728V32.3964L42.9195 42.9199" stroke="black" stroke-width="2" stroke-miterlimit="10"/>
<path d="M11.3491 11.3493L16.6109 21.8728V32.3964L11.3491 42.9199" stroke="black" stroke-width="2" stroke-miterlimit="10"/>
<path d="M27.1348 4.81301L30.8589 15.9738L38.2956 23.4163L49.4564 27.1346" stroke="black" stroke-width="2" stroke-miterlimit="10"/>
<path d="M27.1351 49.4562L23.4168 38.2954L15.9743 30.8588L4.81348 27.1346" stroke="black" stroke-width="2" stroke-miterlimit="10"/>
<path d="M49.4564 27.1346L38.2956 30.8588L30.8589 38.2954L27.1348 49.4562" stroke="black" stroke-width="2" stroke-miterlimit="10"/>
<path d="M27.1351 4.81301L23.4168 15.9738L15.9743 23.4163L4.81348 27.1346" stroke="black" stroke-width="2" stroke-miterlimit="10"/>
</svg>
