<svg width="54" height="54" viewBox="0 0 54 54" fill="none" xmlns="http://www.w3.org/2000/svg">
<path d="M27.6848 5.18632C27.4113 4.93687 26.9923 4.93808 26.72 5.18887C16.1525 14.923 8.56768 27.4706 4.86508 41.3528L4.02611 44.4984C3.91881 44.9007 4.15174 45.3152 4.55117 45.4328C19.3378 49.7844 35.065 49.7844 49.8517 45.4328L50.2072 45.3281C50.4092 45.2687 50.5275 45.0597 50.4745 44.8559L49.6052 41.5142C45.9693 27.5382 38.3544 14.9182 27.6848 5.18632Z" stroke="black" stroke-width="2" stroke-miterlimit="10"/>
<path d="M27 11.5L4.5 45L27 41L50 45L27 11.5ZM27 11.5L23.5 7.5M27 11.5L31 7.5" stroke="black" stroke-width="2" stroke-linejoin="round"/>
<path d="M13.5 43.5L27 48.5L41 43.5L30.5 7.5" stroke="black" stroke-width="2" stroke-linejoin="round"/>
<path d="M24 8.5L14.5 44" stroke="black" stroke-width="2" stroke-linejoin="round"/>
</svg>
