<svg width="238" height="66" viewBox="0 0 238 66" fill="none" xmlns="http://www.w3.org/2000/svg">
<path d="M34.3924 31.8739C32.3323 31.8739 30.377 32.2755 28.5788 32.9913C28.4043 33.0611 28.2471 33.1309 28.0726 33.2008C27.3393 33.515 26.6584 33.8816 25.995 34.3006C25.8728 34.3704 25.7506 34.4403 25.6459 34.5276C19.9022 38.2112 16.655 44.6881 16.655 53.2251C16.655 41.4235 10.4574 33.8642 0 31.8565V64.7475H21.5607C25.0174 64.7475 28.4915 64.5205 31.9482 64.0666C34.1654 63.7698 36.2429 63.2984 38.1633 62.6699C40.2932 62.1462 42.266 61.1686 43.9419 59.8592C47.6256 56.9961 49.9999 52.5268 49.9999 47.4989C50.0348 38.8746 43.0341 31.8739 34.3924 31.8739Z" fill="black"/>
<path d="M0.0175029 30.5472C10.4749 28.557 16.6725 20.6834 16.6725 8.88175C16.6725 18.0996 20.4434 25.3447 27.0775 28.8363C27.6362 29.1506 28.1948 29.4124 28.7884 29.6394C30.3247 30.233 32.0181 30.5647 33.7639 30.5647C41.3756 30.5647 47.5383 24.402 47.5383 16.7902C47.5383 16.7553 47.5383 16.703 47.5383 16.6506C47.5383 15.4285 47.3638 13.8049 47.0495 12.6876C47.0495 12.6527 47.032 12.6352 47.032 12.6003C46.4908 10.6799 45.5307 8.93412 44.2911 7.45019C44.2388 7.39781 44.2038 7.34544 44.1515 7.29307C44.0118 7.11849 43.8547 6.94391 43.6976 6.78678C43.5928 6.69949 43.4881 6.59474 43.3659 6.49C43.0865 6.22813 42.8072 5.96625 42.5279 5.72184C41.1138 4.51724 39.5076 3.55704 37.7094 2.80635C34.8638 1.6192 31.7563 0.868502 28.3519 0.536799C24.9476 0.222554 21.7179 0.0479736 18.6453 0.0479736H0.0175029V30.5472Z" fill="black"/>
<path fill-rule="evenodd" clip-rule="evenodd" d="M99.9084 0.0479856C97.3372 0.0479856 94.942 0.575573 92.7109 1.66251C90.5309 2.72459 88.6181 4.14741 87.004 5.9483C85.3784 7.74287 84.1328 9.79339 83.2277 12.1022C82.314 14.4332 81.8678 16.8569 81.8678 19.3794C81.8678 21.7971 82.2961 24.1565 83.1459 26.4674C83.9855 28.7977 85.2174 30.8487 86.7778 32.6506C88.3551 34.4721 90.253 35.9371 92.4605 37.0229C94.7175 38.1505 97.1864 38.6937 99.8395 38.6937C102.393 38.6937 104.804 38.1663 107.067 37.0641C109.257 36.0152 111.153 34.5881 112.747 32.8066C114.333 31.0343 115.579 29.0039 116.486 26.6911L116.489 26.6814C117.38 24.3633 117.846 21.9438 117.846 19.4139C117.846 17.0267 117.416 14.6817 116.564 12.3861C115.711 10.0865 114.503 8.04204 112.964 6.22403C111.396 4.37371 109.498 2.91298 107.31 1.78178C105.048 0.612585 102.571 0.0479856 99.9084 0.0479856ZM95.1514 7.29849C96.511 6.58215 98.0732 6.21496 99.8395 6.21496C101.537 6.21496 103.055 6.56507 104.407 7.25557C105.823 7.97918 107.04 8.92513 108.059 10.1258C109.098 11.3509 109.918 12.7436 110.493 14.3443C111.072 15.9565 111.369 17.6267 111.369 19.3622C111.369 21.009 111.091 22.6148 110.541 24.2198C109.974 25.8065 109.194 27.2211 108.188 28.4751C107.204 29.7012 105.989 30.6923 104.54 31.4631C103.155 32.1998 101.609 32.5783 99.8567 32.5783C98.1042 32.5783 96.5868 32.2268 95.2379 31.5377C93.8292 30.8181 92.6126 29.859 91.5919 28.6401L91.5858 28.633C90.5553 27.4179 89.7508 26.0138 89.1901 24.4095L89.1857 24.3973C88.6097 22.7938 88.3274 21.1243 88.3274 19.3794C88.3274 17.734 88.6053 16.1274 89.1562 14.5026C89.7222 12.9182 90.5012 11.5054 91.5056 10.2529C92.4916 9.04039 93.706 8.052 95.1456 7.30155L95.1514 7.29849Z" fill="black"/>
<path d="M187.689 0.0996432C184.847 0.0996432 182.258 0.676748 179.948 1.82206C177.699 2.93724 175.778 4.40068 174.224 6.21926C172.695 8.00965 171.517 10.0292 170.714 12.3059C169.922 14.553 169.51 16.8212 169.51 19.1213C169.51 21.5638 169.959 23.9468 170.847 26.2795C171.716 28.5894 172.939 30.6658 174.497 32.5015C176.072 34.3576 177.964 35.855 180.145 36.9919C182.382 38.1582 184.824 38.7453 187.465 38.7453C188.965 38.7453 190.469 38.5364 191.972 38.1465C193.491 37.7527 194.932 37.1721 196.292 36.4265L196.3 36.4223C197.656 35.6691 198.901 34.7449 200.031 33.6332L200.04 33.6244C201.186 32.4784 202.088 31.167 202.734 29.6606L203.284 28.376L197.81 25.5568L197.135 26.9267C196.631 27.9503 196.037 28.787 195.348 29.4609C194.621 30.1734 193.813 30.769 192.951 31.2613C192.113 31.7405 191.233 32.0828 190.343 32.2906L190.334 32.2926L190.325 32.2947C189.388 32.5252 188.51 32.63 187.637 32.63C185.98 32.63 184.475 32.2823 183.098 31.5864C181.671 30.8651 180.437 29.904 179.399 28.6834C178.345 27.4429 177.502 26.0104 176.889 24.3927C176.281 22.7698 175.97 21.0899 175.97 19.3278C175.97 17.7134 176.22 16.115 176.739 14.5269L176.743 14.5141C177.237 12.9567 177.992 11.5679 178.986 10.3093C179.953 9.08597 181.149 8.09836 182.593 7.33018C183.963 6.60126 185.573 6.21498 187.482 6.21498C188.317 6.21498 189.172 6.3187 190.092 6.50837C190.958 6.7036 191.772 7.00068 192.573 7.43063C193.371 7.85907 194.118 8.40987 194.832 9.10887C195.494 9.75668 196.073 10.5885 196.584 11.6256L197.315 13.1093L202.567 9.85141L202.011 8.64687C200.834 6.10079 198.983 4.02738 196.535 2.47054C194.028 0.858525 191.049 0.0996432 187.689 0.0996432Z" fill="black"/>
<path fill-rule="evenodd" clip-rule="evenodd" d="M69.9192 0.0479856H51.5V38.1773H69.575C71.0864 38.1773 72.5404 37.9249 73.9077 37.4097C75.2595 36.9003 76.4567 36.1858 77.5 35.2428C78.5477 34.2957 79.3665 33.1727 79.9784 31.9095C80.6209 30.5829 80.9202 29.1509 80.9202 27.6239C80.9202 25.1954 80.2475 23.0064 78.8618 21.0981C78.0666 19.9991 77.1067 19.1051 75.9917 18.4128C76.7218 17.7663 77.3514 17.0109 77.877 16.1519C78.9219 14.4438 79.4399 12.5532 79.4399 10.4981C79.4399 9.23675 79.2193 7.98301 78.7856 6.76069C78.353 5.54157 77.7374 4.42442 76.9332 3.43937L76.9275 3.43233L76.9216 3.42535C76.0907 2.43226 75.1133 1.63956 73.9482 1.01683C72.7104 0.355255 71.3618 0.0479856 69.9192 0.0479856ZM57.9596 16.0206V6.06005H68.8521C69.4573 6.06005 69.9785 6.18321 70.4405 6.41171C70.9853 6.69945 71.4311 7.03754 71.8065 7.463L71.8139 7.47134L71.8214 7.47958C72.1749 7.86845 72.4664 8.37438 72.7119 9.03875C72.936 9.64515 73.0492 10.3101 73.0492 11.0489C73.0492 11.7233 72.9289 12.353 72.6985 12.9629C72.4737 13.5579 72.1599 14.0703 71.7467 14.5386C71.3338 14.9897 70.87 15.3468 70.3058 15.6161C69.7418 15.8853 69.1701 16.0206 68.5423 16.0206H57.9596ZM57.9768 32.1652V21.8605H69.9364C70.5509 21.8605 71.1246 21.9973 71.6457 22.2639C72.2095 22.5523 72.7002 22.933 73.1345 23.4044C73.5515 23.8924 73.8793 24.436 74.1025 25.0532C74.3401 25.7099 74.4606 26.3638 74.4606 27.0387C74.4606 27.7141 74.34 28.3446 74.0922 28.9445L74.088 28.955C73.823 29.6106 73.4745 30.1621 73.043 30.6063L73.0356 30.6139L73.0284 30.6215C72.5751 31.1015 72.0593 31.4725 71.4536 31.7552L71.4413 31.7609L71.4291 31.7669C70.8832 32.0338 70.2865 32.1652 69.5922 32.1652H57.9768Z" fill="black"/>
<path d="M126.391 0H121.5V38.1465H127.96V12.2219L148.646 38.1465H153.881V0.0516354H147.421V26.4464L126.391 0Z" fill="black"/>
<path d="M165.96 0.0479736H159.5V38.1945H165.96V0.0479736Z" fill="black"/>
<path fill-rule="evenodd" clip-rule="evenodd" d="M221.787 0H216.861L200.889 38.1465H207.867L212.376 27.1654H226.153L230.714 38.1465H237.628L221.787 0ZM224.131 21.4287H214.354L219.278 9.51357L224.131 21.4287Z" fill="black"/>
<path d="M51.5088 62.583C51.8772 62.8287 52.3333 63.0392 52.8947 63.2146C53.4561 63.3901 54.0877 63.4778 54.7895 63.4778C55.6667 63.4778 56.386 63.3199 56.9123 63.0041C57.4386 62.6883 57.8421 62.2146 58.1228 61.6006C58.4035 60.9865 58.5789 60.2146 58.6667 59.3023C58.7544 58.3901 58.7895 57.355 58.7895 56.1971V47.3374H60.5088V56.1971C60.5088 57.5304 60.4561 58.7234 60.3333 59.8111C60.2105 60.9164 59.9474 61.8462 59.5614 62.6181C59.1754 63.3901 58.5965 63.9865 57.8421 64.4076C57.0877 64.8287 56.0702 65.0392 54.7895 65.0392C53.3158 65.0392 52.0526 64.6708 51 63.9515L51.5088 62.583Z" fill="black"/>
<path d="M94.5614 63.2497V64.776H82.8421V47.3374H94.3333V48.8637H84.5614V55.1444H93.0877V56.6006H84.5614V63.2497H94.5614Z" fill="black"/>
<path d="M122.544 47.4602H124.158L126.614 53.6532L129.088 47.4602H130.737L127.684 54.8988L131.018 62.776L137.333 47.3199H139.193L131.807 64.7585H130.281L126.614 56.1444L122.93 64.7585H121.439L114.07 47.3199H115.912L122.246 62.776L125.561 54.8988L122.544 47.4602Z" fill="black"/>
<path d="M171.561 63.2497V64.776H159.842V47.3374H171.333V48.8637H161.561V55.1444H170.088V56.6006H161.561V63.2497H171.561Z" fill="black"/>
<path d="M192.982 64.776V47.3374H194.702V63.2497H204.772V64.776H192.982Z" fill="black"/>
<path d="M235.667 50.6006C235.175 50.0392 234.526 49.6006 233.702 49.2497C232.877 48.8988 231.947 48.7409 230.895 48.7409C229.351 48.7409 228.228 49.0392 227.526 49.6181C226.825 50.1971 226.474 50.9865 226.474 51.9865C226.474 52.5129 226.561 52.9339 226.754 53.2848C226.947 53.6181 227.228 53.9164 227.632 54.162C228.018 54.4076 228.526 54.6181 229.14 54.7936C229.754 54.969 230.474 55.162 231.316 55.3374C232.246 55.5304 233.088 55.7585 233.825 56.0041C234.561 56.2497 235.211 56.548 235.719 56.9164C236.228 57.2848 236.649 57.7234 236.93 58.2497C237.211 58.776 237.351 59.4251 237.351 60.2146C237.351 61.0216 237.193 61.7058 236.877 62.3023C236.561 62.8988 236.14 63.3901 235.579 63.776C235.018 64.162 234.351 64.4602 233.596 64.6532C232.842 64.8462 231.982 64.9339 231.07 64.9339C228.368 64.9339 226.035 64.0918 224.07 62.4076L224.93 61.0041C225.246 61.3374 225.614 61.6357 226.053 61.9339C226.491 62.2322 226.965 62.4953 227.509 62.7058C228.035 62.9339 228.614 63.0918 229.211 63.2146C229.807 63.3374 230.456 63.3901 231.123 63.3901C232.509 63.3901 233.596 63.1444 234.386 62.6357C235.158 62.1444 235.561 61.3725 235.561 60.3725C235.561 59.8287 235.456 59.3725 235.228 59.0041C235 58.6357 234.684 58.3199 234.228 58.0392C233.789 57.776 233.228 57.5304 232.579 57.3374C231.93 57.1444 231.158 56.9515 230.298 56.7409C229.386 56.5304 228.579 56.3023 227.895 56.0743C227.211 55.8462 226.632 55.5655 226.158 55.2146C225.684 54.8637 225.333 54.4602 225.088 53.969C224.86 53.4778 224.737 52.8988 224.737 52.1795C224.737 51.3725 224.895 50.6532 225.193 50.0392C225.491 49.4076 225.93 48.8813 226.474 48.4602C227.018 48.0392 227.684 47.7234 228.439 47.4953C229.193 47.2673 230.035 47.162 230.947 47.162C232.105 47.162 233.14 47.3374 234.053 47.6883C234.965 48.0392 235.789 48.5304 236.526 49.1795L235.667 50.6006Z" fill="black"/>
</svg>
