<svg width="200" height="71" viewBox="0 0 200 71" fill="none" xmlns="http://www.w3.org/2000/svg">
<rect width="200" height="70.1755" fill="none"/>
<path d="M35.1685 29.8429C35.1685 31.1682 34.9103 32.373 34.3767 33.4745C33.8431 34.5761 33.1375 35.54 32.2425 36.3489C31.3474 37.1579 30.3147 37.7775 29.1271 38.225C27.9395 38.6725 26.6658 38.8963 25.3233 38.8963H8.74831V3.76694H25.6675C26.8896 3.76694 27.9911 4.02512 28.9894 4.55868C29.9877 5.09225 30.8139 5.76351 31.5196 6.60689C32.208 7.45027 32.7416 8.41413 33.1203 9.48127C33.4989 10.5484 33.6882 11.6327 33.6882 12.7171C33.6882 14.5071 33.2407 16.125 32.3457 17.588C31.4507 19.051 30.2115 20.1526 28.628 20.8755C30.6417 21.4779 32.2252 22.5795 33.3956 24.1974C34.5833 25.8325 35.1685 27.7086 35.1685 29.8429ZM12.2079 6.77901V19.7395H24.2906C25.1512 19.7395 25.9429 19.5502 26.7002 19.1887C27.4576 18.8273 28.0772 18.3454 28.6108 17.7602C29.1443 17.1577 29.5574 16.4865 29.85 15.7119C30.1426 14.9374 30.2975 14.1285 30.2975 13.2679C30.2975 12.3729 30.1598 11.5295 29.8672 10.7377C29.5746 9.94598 29.196 9.25751 28.6796 8.68952C28.1632 8.10432 27.5608 7.65681 26.8724 7.29536C26.1839 6.95113 25.4266 6.77901 24.6004 6.77901H12.2079ZM31.7089 29.2576C31.7089 28.3971 31.554 27.5709 31.2614 26.7619C30.9688 25.953 30.5385 25.2473 30.0049 24.6277C29.4541 24.0253 28.8173 23.5261 28.0772 23.1475C27.3371 22.7688 26.5281 22.5795 25.6847 22.5795H12.2251V35.8842H25.3405C26.2355 35.8842 27.0617 35.7121 27.8362 35.3334C28.6108 34.972 29.282 34.49 29.8672 33.8704C30.4524 33.268 30.8999 32.5451 31.227 31.7362C31.554 30.9444 31.7089 30.1182 31.7089 29.2576Z" fill="#000000"/>
<path d="M55.8571 39.1544C53.413 39.1544 51.1755 38.6553 49.1445 37.6398C47.1135 36.6415 45.3751 35.299 43.9293 33.6294C42.4835 31.9599 41.3475 30.0666 40.573 27.9151C39.7812 25.7636 39.3854 23.5777 39.3854 21.3402C39.3854 18.9994 39.7984 16.7619 40.6418 14.6104C41.4852 12.4589 42.6384 10.5656 44.1358 8.91327C45.616 7.26094 47.3717 5.95284 49.3854 4.97176C51.3992 3.99069 53.5679 3.50876 55.9259 3.50876C58.37 3.50876 60.6075 4.02511 62.6385 5.07503C64.6695 6.12496 66.4079 7.46748 67.8365 9.15424C69.2651 10.841 70.3839 12.7343 71.1756 14.8686C71.9673 17.0028 72.3632 19.1715 72.3632 21.3746C72.3632 23.7154 71.9329 25.953 71.1067 28.1045C70.2634 30.2559 69.1102 32.132 67.6472 33.7671C66.1842 35.4023 64.4458 36.7104 62.432 37.6742C60.3838 38.6725 58.1979 39.1544 55.8571 39.1544ZM42.8449 21.3402C42.8449 23.2507 43.1548 25.0924 43.7916 26.8652C44.4112 28.638 45.3062 30.2043 46.4594 31.564C47.6126 32.941 48.9896 34.0253 50.573 34.8343C52.1565 35.6432 53.9121 36.0391 55.8743 36.0391C57.8536 36.0391 59.6437 35.6088 61.2616 34.7482C62.8795 33.8876 64.2564 32.7689 65.3752 31.3747C66.494 29.9805 67.3546 28.4143 67.9742 26.6759C68.5766 24.9203 68.8864 23.1474 68.8864 21.323C68.8864 19.4125 68.5594 17.5708 67.9226 15.798C67.2857 14.0252 66.3735 12.4761 65.2203 11.1164C64.0671 9.75665 62.6902 8.68952 61.1067 7.88056C59.5232 7.07161 57.7676 6.67573 55.8571 6.67573C53.8777 6.67573 52.0705 7.08882 50.4698 7.9322C48.8519 8.77558 47.4749 9.89434 46.3562 11.2713C45.2374 12.6654 44.3768 14.2317 43.7572 15.9701C43.1548 17.7429 42.8449 19.5158 42.8449 21.3402Z" fill="#000000"/>
<path d="M82.3461 10.2042V38.9135H78.8865V3.76694H81.5543L104.808 33.0098V3.81858H108.267V38.9135H105.255L82.3461 10.2042Z" fill="#000000"/>
<path d="M117.08 38.9135V3.76694H120.539V38.9135H117.08Z" fill="#000000"/>
<path d="M127.028 21.0821C127.028 18.965 127.407 16.8652 128.147 14.7653C128.887 12.6655 129.971 10.8066 131.383 9.15426C132.794 7.50192 134.55 6.1594 136.632 5.12669C138.715 4.09398 141.073 3.56042 143.706 3.56042C146.839 3.56042 149.524 4.2661 151.744 5.69468C153.964 7.10605 155.617 8.96493 156.667 11.2369L153.947 12.9236C153.379 11.7705 152.708 10.7894 151.899 9.99764C151.09 9.20589 150.23 8.56906 149.3 8.06991C148.371 7.57077 147.424 7.22653 146.426 7.00278C145.427 6.79624 144.464 6.67576 143.5 6.67576C141.383 6.67576 139.524 7.10605 137.906 7.96664C136.288 8.82723 134.928 9.946 133.827 11.3402C132.725 12.7343 131.882 14.2834 131.331 16.0218C130.763 17.7602 130.488 19.5158 130.488 21.2886C130.488 23.2335 130.832 25.0924 131.503 26.8824C132.174 28.6553 133.104 30.2387 134.274 31.6157C135.445 32.9926 136.839 34.077 138.439 34.8859C140.04 35.6949 141.779 36.0908 143.655 36.0908C144.653 36.0908 145.651 35.9703 146.701 35.7121C147.734 35.4711 148.749 35.0753 149.713 34.5245C150.677 33.9737 151.589 33.3024 152.415 32.4935C153.242 31.6845 153.93 30.7035 154.498 29.5503L157.372 31.0305C156.804 32.3558 156.013 33.509 154.997 34.5245C153.964 35.54 152.828 36.3834 151.589 37.0718C150.333 37.7603 149.007 38.2939 147.613 38.6553C146.219 39.0168 144.842 39.2061 143.482 39.2061C141.073 39.2061 138.87 38.6725 136.856 37.6226C134.842 36.5727 133.104 35.1957 131.658 33.4918C130.212 31.7878 129.076 29.8601 128.267 27.7086C127.441 25.5399 127.028 23.3368 127.028 21.0821Z" fill="#000000"/>
<path d="M173.706 3.76694H176.632L191.228 38.9135H187.562L183.001 27.9323H167.218L162.708 38.9135H158.99L173.706 3.76694ZM182.209 25.1957L175.135 7.82893L167.958 25.1957H182.209Z" fill="#000000"/>
<path d="M35.1685 29.8429C35.1685 31.1682 34.9103 32.373 34.3767 33.4745C33.8431 34.5761 33.1375 35.54 32.2425 36.3489C31.3474 37.1579 30.3147 37.7775 29.1271 38.225C27.9395 38.6725 26.6658 38.8963 25.3233 38.8963H8.74831V3.76694H25.6675C26.8896 3.76694 27.9911 4.02512 28.9894 4.55868C29.9877 5.09225 30.8139 5.76351 31.5196 6.60689C32.208 7.45027 32.7416 8.41413 33.1203 9.48127C33.4989 10.5484 33.6882 11.6327 33.6882 12.7171C33.6882 14.5071 33.2407 16.125 32.3457 17.588C31.4507 19.051 30.2115 20.1526 28.628 20.8755C30.6417 21.4779 32.2252 22.5795 33.3956 24.1974C34.5833 25.8325 35.1685 27.7086 35.1685 29.8429ZM12.2079 6.77901V19.7395H24.2906C25.1512 19.7395 25.9429 19.5502 26.7002 19.1887C27.4576 18.8273 28.0772 18.3454 28.6108 17.7602C29.1443 17.1577 29.5574 16.4865 29.85 15.7119C30.1426 14.9374 30.2975 14.1285 30.2975 13.2679C30.2975 12.3729 30.1598 11.5295 29.8672 10.7377C29.5746 9.94598 29.196 9.25751 28.6796 8.68952C28.1632 8.10432 27.5608 7.65681 26.8724 7.29536C26.1839 6.95113 25.4266 6.77901 24.6004 6.77901H12.2079ZM31.7089 29.2576C31.7089 28.3971 31.554 27.5709 31.2614 26.7619C30.9688 25.953 30.5385 25.2473 30.0049 24.6277C29.4541 24.0253 28.8173 23.5261 28.0772 23.1475C27.3371 22.7688 26.5281 22.5795 25.6847 22.5795H12.2251V35.8842H25.3405C26.2355 35.8842 27.0617 35.7121 27.8362 35.3334C28.6108 34.972 29.282 34.49 29.8672 33.8704C30.4524 33.268 30.8999 32.5451 31.227 31.7362C31.554 30.9444 31.7089 30.1182 31.7089 29.2576Z" stroke="#000000" stroke-width="3"/>
<path d="M55.8571 39.1544C53.413 39.1544 51.1755 38.6553 49.1445 37.6398C47.1135 36.6415 45.3751 35.299 43.9293 33.6294C42.4835 31.9599 41.3475 30.0666 40.573 27.9151C39.7812 25.7636 39.3854 23.5777 39.3854 21.3402C39.3854 18.9994 39.7984 16.7619 40.6418 14.6104C41.4852 12.4589 42.6384 10.5656 44.1358 8.91327C45.616 7.26094 47.3717 5.95284 49.3854 4.97176C51.3992 3.99069 53.5679 3.50876 55.9259 3.50876C58.37 3.50876 60.6075 4.02511 62.6385 5.07503C64.6695 6.12496 66.4079 7.46748 67.8365 9.15424C69.2651 10.841 70.3839 12.7343 71.1756 14.8686C71.9673 17.0028 72.3632 19.1715 72.3632 21.3746C72.3632 23.7154 71.9329 25.953 71.1067 28.1045C70.2634 30.2559 69.1102 32.132 67.6472 33.7671C66.1842 35.4023 64.4458 36.7104 62.432 37.6742C60.3838 38.6725 58.1979 39.1544 55.8571 39.1544ZM42.8449 21.3402C42.8449 23.2507 43.1548 25.0924 43.7916 26.8652C44.4112 28.638 45.3062 30.2043 46.4594 31.564C47.6126 32.941 48.9896 34.0253 50.573 34.8343C52.1565 35.6432 53.9121 36.0391 55.8743 36.0391C57.8536 36.0391 59.6437 35.6088 61.2616 34.7482C62.8795 33.8876 64.2564 32.7689 65.3752 31.3747C66.494 29.9805 67.3546 28.4143 67.9742 26.6759C68.5766 24.9203 68.8864 23.1474 68.8864 21.323C68.8864 19.4125 68.5594 17.5708 67.9226 15.798C67.2857 14.0252 66.3735 12.4761 65.2203 11.1164C64.0671 9.75665 62.6902 8.68952 61.1067 7.88056C59.5232 7.07161 57.7676 6.67573 55.8571 6.67573C53.8777 6.67573 52.0705 7.08882 50.4698 7.9322C48.8519 8.77558 47.4749 9.89434 46.3562 11.2713C45.2374 12.6654 44.3768 14.2317 43.7572 15.9701C43.1548 17.7429 42.8449 19.5158 42.8449 21.3402Z" stroke="#000000" stroke-width="3"/>
<path d="M82.3461 10.2042V38.9135H78.8865V3.76694H81.5543L104.808 33.0098V3.81858H108.267V38.9135H105.255L82.3461 10.2042Z" stroke="#000000" stroke-width="3"/>
<path d="M117.08 38.9135V3.76694H120.539V38.9135H117.08Z" stroke="#000000" stroke-width="3"/>
<path d="M127.028 21.0821C127.028 18.965 127.407 16.8652 128.147 14.7653C128.887 12.6655 129.971 10.8066 131.383 9.15426C132.794 7.50192 134.55 6.1594 136.632 5.12669C138.715 4.09398 141.073 3.56042 143.706 3.56042C146.839 3.56042 149.524 4.2661 151.744 5.69468C153.964 7.10605 155.617 8.96493 156.667 11.2369L153.947 12.9236C153.379 11.7705 152.708 10.7894 151.899 9.99764C151.09 9.20589 150.23 8.56906 149.3 8.06991C148.371 7.57077 147.424 7.22653 146.426 7.00278C145.427 6.79624 144.464 6.67576 143.5 6.67576C141.383 6.67576 139.524 7.10605 137.906 7.96664C136.288 8.82723 134.928 9.946 133.827 11.3402C132.725 12.7343 131.882 14.2834 131.331 16.0218C130.763 17.7602 130.488 19.5158 130.488 21.2886C130.488 23.2335 130.832 25.0924 131.503 26.8824C132.174 28.6553 133.104 30.2387 134.274 31.6157C135.445 32.9926 136.839 34.077 138.439 34.8859C140.04 35.6949 141.779 36.0908 143.655 36.0908C144.653 36.0908 145.651 35.9703 146.701 35.7121C147.734 35.4711 148.749 35.0753 149.713 34.5245C150.677 33.9737 151.589 33.3024 152.415 32.4935C153.242 31.6845 153.93 30.7035 154.498 29.5503L157.372 31.0305C156.804 32.3558 156.013 33.509 154.997 34.5245C153.964 35.54 152.828 36.3834 151.589 37.0718C150.333 37.7603 149.007 38.2939 147.613 38.6553C146.219 39.0168 144.842 39.2061 143.482 39.2061C141.073 39.2061 138.87 38.6725 136.856 37.6226C134.842 36.5727 133.104 35.1957 131.658 33.4918C130.212 31.7878 129.076 29.8601 128.267 27.7086C127.441 25.5399 127.028 23.3368 127.028 21.0821Z" stroke="#000000" stroke-width="3"/>
<path d="M173.706 3.76694H176.632L191.228 38.9135H187.562L183.001 27.9323H167.218L162.708 38.9135H158.99L173.706 3.76694ZM182.209 25.1957L175.135 7.82893L167.958 25.1957H182.209Z" stroke="#000000" stroke-width="3"/>
<path d="M7.52632 64.5439C7.89474 64.7895 8.35088 65 8.91229 65.1754C9.47369 65.3509 10.1053 65.4386 10.807 65.4386C11.6842 65.4386 12.4035 65.2807 12.9298 64.9649C13.4561 64.6491 13.8597 64.1754 14.1404 63.5614C14.4211 62.9474 14.5965 62.1754 14.6842 61.2632C14.7719 60.3509 14.807 59.3158 14.807 58.1579V49.2982H16.5263V58.1579C16.5263 59.4912 16.4737 60.6842 16.3509 61.7719C16.2281 62.8772 15.9649 63.807 15.579 64.5789C15.193 65.3509 14.614 65.9474 13.8597 66.3684C13.1053 66.7895 12.0877 67 10.807 67C9.33334 67 8.07018 66.6316 7.01755 65.9123L7.52632 64.5439Z" fill="#000000"/>
<path d="M50.579 65.2105V66.7368H38.8597V49.2982H50.3509V50.8246H40.5789V57.1053H49.1053V58.5614H40.5789V65.2105H50.579Z" fill="#000000"/>
<path d="M78.5614 49.4211H80.1754L82.6316 55.614L85.1053 49.4211H86.7544L83.7018 56.8596L87.0351 64.7368L93.3509 49.2807H95.2105L87.8246 66.7193H86.2983L82.6316 58.1053L78.9474 66.7193H77.4561L70.0877 49.2807H71.9298L78.2632 64.7368L81.579 56.8596L78.5614 49.4211Z" fill="#000000"/>
<path d="M127.579 65.2105V66.7368H115.86V49.2982H127.351V50.8246H117.579V57.1053H126.105V58.5614H117.579V65.2105H127.579Z" fill="#000000"/>
<path d="M149 66.7368V49.2982H150.719V65.2105H160.789V66.7368H149Z" fill="#000000"/>
<path d="M191.684 52.5614C191.193 52 190.544 51.5614 189.719 51.2105C188.895 50.8596 187.965 50.7017 186.912 50.7017C185.368 50.7017 184.246 51 183.544 51.5789C182.842 52.1579 182.491 52.9474 182.491 53.9474C182.491 54.4737 182.579 54.8947 182.772 55.2456C182.965 55.5789 183.246 55.8772 183.649 56.1228C184.035 56.3684 184.544 56.5789 185.158 56.7544C185.772 56.9298 186.491 57.1228 187.333 57.2982C188.263 57.4912 189.105 57.7193 189.842 57.9649C190.579 58.2105 191.228 58.5088 191.737 58.8772C192.246 59.2456 192.667 59.6842 192.947 60.2105C193.228 60.7368 193.368 61.386 193.368 62.1754C193.368 62.9825 193.211 63.6667 192.895 64.2632C192.579 64.8596 192.158 65.3509 191.597 65.7368C191.035 66.1228 190.368 66.421 189.614 66.614C188.86 66.807 188 66.8947 187.088 66.8947C184.386 66.8947 182.053 66.0526 180.088 64.3684L180.947 62.9649C181.263 63.2982 181.632 63.5965 182.07 63.8947C182.509 64.193 182.982 64.4561 183.526 64.6667C184.053 64.8947 184.632 65.0526 185.228 65.1754C185.825 65.2982 186.474 65.3509 187.14 65.3509C188.526 65.3509 189.614 65.1053 190.404 64.5965C191.175 64.1053 191.579 63.3333 191.579 62.3333C191.579 61.7895 191.474 61.3333 191.246 60.9649C191.018 60.5965 190.702 60.2807 190.246 60C189.807 59.7368 189.246 59.4912 188.596 59.2982C187.947 59.1053 187.175 58.9123 186.316 58.7018C185.404 58.4912 184.596 58.2632 183.912 58.0351C183.228 57.807 182.649 57.5263 182.175 57.1754C181.702 56.8246 181.351 56.421 181.105 55.9298C180.877 55.4386 180.754 54.8596 180.754 54.1403C180.754 53.3333 180.912 52.614 181.211 52C181.509 51.3684 181.947 50.8421 182.491 50.421C183.035 50 183.702 49.6842 184.456 49.4561C185.211 49.2281 186.053 49.1228 186.965 49.1228C188.123 49.1228 189.158 49.2982 190.07 49.6491C190.982 50 191.807 50.4912 192.544 51.1403L191.684 52.5614Z" fill="#000000"/>
</svg>
