<svg width="254" height="70" viewBox="0 0 254 70" fill="none" xmlns="http://www.w3.org/2000/svg">
<rect width="254" height="70" fill="white"/>
<path d="M37.8343 34.0195C35.8265 34.0195 33.9207 34.4108 32.1681 35.1085C31.9979 35.1765 31.8448 35.2446 31.6746 35.3126C30.96 35.6189 30.2964 35.9763 29.6498 36.3846C29.5307 36.4527 29.4116 36.5208 29.3095 36.6058C23.7113 40.1961 20.5464 46.5089 20.5464 54.8296C20.5464 43.327 14.5058 35.9592 4.31348 34.0024V66.0599H25.3278C28.6969 66.0599 32.083 65.8387 35.4521 65.3963C37.6131 65.107 39.638 64.6476 41.5097 64.0351C43.5856 63.5246 45.5084 62.5717 47.1419 61.2955C50.7322 58.505 53.0463 54.149 53.0463 49.2485C53.0803 40.8427 46.257 34.0195 37.8343 34.0195Z" fill="black"/>
<path d="M4.33054 32.7263C14.5229 30.7866 20.5635 23.1125 20.5635 11.6099C20.5635 20.5942 24.2388 27.6557 30.7048 31.0588C31.2493 31.3651 31.7938 31.6203 32.3723 31.8415C33.8697 32.4201 35.5202 32.7434 37.2218 32.7434C44.6406 32.7434 50.6471 26.7368 50.6471 19.318C50.6471 19.284 50.6471 19.2329 50.6471 19.1819C50.6471 17.9908 50.477 16.4083 50.1707 15.3193C50.1707 15.2853 50.1537 15.2683 50.1537 15.2343C49.6262 13.3625 48.6903 11.661 47.4822 10.2146C47.4312 10.1636 47.3971 10.1125 47.3461 10.0615C47.21 9.89134 47.0568 9.72118 46.9037 9.56804C46.8016 9.48296 46.6995 9.38087 46.5804 9.27877C46.3081 9.02354 46.0359 8.7683 45.7636 8.53009C44.3854 7.35601 42.8199 6.42015 41.0673 5.68847C38.2938 4.53141 35.265 3.79974 31.9469 3.47644C28.6289 3.17016 25.481 3 22.4862 3H4.33054V15.4214V32.7263Z" fill="black"/>
<path d="M87.1509 29.3341C87.1509 30.6594 86.8927 31.8642 86.3592 32.9658C85.8256 34.0673 85.1199 35.0312 84.2249 35.8402C83.3299 36.6491 82.2972 37.2687 81.1096 37.7163C79.922 38.1638 78.6483 38.3875 77.3058 38.3875H60.7308V3.25818H77.65C78.872 3.25818 79.9736 3.51636 80.9719 4.04993C81.9702 4.58349 82.7963 5.25475 83.502 6.09813C84.1905 6.94151 84.7241 7.90537 85.1027 8.97251C85.4814 10.0396 85.6707 11.124 85.6707 12.2083C85.6707 13.9984 85.2232 15.6163 84.3282 17.0793C83.4332 18.5423 82.1939 19.6438 80.6104 20.3667C82.6242 20.9691 84.2077 22.0707 85.3781 23.6886C86.5657 25.3237 87.1509 27.1998 87.1509 29.3341ZM64.1904 6.27025V19.2308H76.2731C77.1336 19.2308 77.9254 19.0414 78.6827 18.68C79.44 18.3185 80.0597 17.8366 80.5932 17.2514C81.1268 16.649 81.5399 15.9777 81.8325 15.2032C82.1251 14.4287 82.28 13.6197 82.28 12.7591C82.28 11.8641 82.1423 11.0207 81.8497 10.229C81.5571 9.43723 81.1784 8.74875 80.6621 8.18076C80.1457 7.59556 79.5433 7.14805 78.8548 6.78661C78.1664 6.44237 77.409 6.27025 76.5829 6.27025H64.1904ZM83.6913 28.7489C83.6913 27.8883 83.5364 27.0621 83.2438 26.2532C82.9512 25.4442 82.521 24.7385 81.9874 24.1189C81.4366 23.5165 80.7998 23.0174 80.0597 22.6387C79.3195 22.26 78.5106 22.0707 77.6672 22.0707H64.2076V35.3754H77.323C78.218 35.3754 79.0442 35.2033 79.8187 34.8247C80.5932 34.4632 81.2645 33.9813 81.8497 33.3617C82.4349 32.7592 82.8824 32.0364 83.2094 31.2274C83.5364 30.4356 83.6913 29.6095 83.6913 28.7489Z" fill="black"/>
<path d="M107.84 38.6457C105.395 38.6457 103.158 38.1465 101.127 37.131C99.0959 36.1328 97.3575 34.7902 95.9117 33.1207C94.466 31.4511 93.33 29.5578 92.5554 27.4064C91.7637 25.2549 91.3678 23.069 91.3678 20.8314C91.3678 18.4906 91.7809 16.2531 92.6243 14.1016C93.4677 11.9501 94.6209 10.0568 96.1183 8.40451C97.5985 6.75218 99.3541 5.44408 101.368 4.463C103.382 3.48193 105.55 3 107.908 3C110.352 3 112.59 3.51635 114.621 4.56628C116.652 5.6162 118.39 6.95872 119.819 8.64548C121.248 10.3322 122.366 12.2255 123.158 14.3598C123.95 16.4941 124.346 18.6628 124.346 20.8659C124.346 23.2067 123.915 25.4442 123.089 27.5957C122.246 29.7472 121.093 31.6233 119.63 33.2584C118.167 34.8935 116.428 36.2016 114.414 37.1655C112.366 38.1637 110.18 38.6457 107.84 38.6457ZM94.8274 20.8314C94.8274 22.742 95.1372 24.5836 95.7741 26.3564C96.3937 28.1293 97.2887 29.6955 98.4419 31.0553C99.5951 32.4322 100.972 33.5166 102.556 34.3255C104.139 35.1345 105.895 35.5303 107.857 35.5303C109.836 35.5303 111.626 35.1 113.244 34.2395C114.862 33.3789 116.239 32.2601 117.358 30.8659C118.476 29.4718 119.337 27.9055 119.957 26.1671C120.559 24.4115 120.869 22.6387 120.869 20.8142C120.869 18.9037 120.542 17.0621 119.905 15.2892C119.268 13.5164 118.356 11.9674 117.203 10.6076C116.05 9.24789 114.673 8.18076 113.089 7.3718C111.506 6.56285 109.75 6.16698 107.84 6.16698C105.86 6.16698 104.053 6.58006 102.452 7.42344C100.834 8.26682 99.4574 9.38559 98.3386 10.7625C97.2199 12.1567 96.3593 13.723 95.7396 15.4614C95.1372 17.2342 94.8274 19.007 94.8274 20.8314Z" fill="black"/>
<path d="M134.329 9.6954V38.4047H130.869V3.25818H133.537L156.79 32.5011V3.30982H160.25V38.4047H157.237L134.329 9.6954Z" fill="black"/>
<path d="M169.062 38.4047V3.25818H172.522V38.4047H169.062Z" fill="black"/>
<path d="M179.01 20.5733C179.01 18.4562 179.389 16.3564 180.129 14.2566C180.869 12.1567 181.954 10.2978 183.365 8.6455C184.776 6.99316 186.532 5.65064 188.615 4.61793C190.697 3.58522 193.055 3.05166 195.689 3.05166C198.821 3.05166 201.506 3.75734 203.727 5.18592C205.947 6.59729 207.599 8.45617 208.649 10.7281L205.93 12.4149C205.362 11.2617 204.69 10.2806 203.882 9.48888C203.073 8.69714 202.212 8.0603 201.283 7.56116C200.353 7.06201 199.406 6.71778 198.408 6.49402C197.41 6.28748 196.446 6.167 195.482 6.167C193.365 6.167 191.506 6.59729 189.888 7.45788C188.27 8.31848 186.911 9.43724 185.809 10.8314C184.708 12.2256 183.864 13.7746 183.313 15.513C182.745 17.2514 182.47 19.007 182.47 20.7798C182.47 22.7248 182.814 24.5836 183.486 26.3737C184.157 28.1465 185.086 29.73 186.257 31.1069C187.427 32.4839 188.821 33.5682 190.422 34.3772C192.023 35.1861 193.761 35.582 195.637 35.582C196.635 35.582 197.634 35.4615 198.684 35.2033C199.716 34.9624 200.732 34.5665 201.696 34.0157C202.659 33.4649 203.572 32.7937 204.398 31.9847C205.224 31.1758 205.913 30.1947 206.48 29.0415L209.355 30.5217C208.787 31.847 207.995 33.0002 206.98 34.0157C205.947 35.0312 204.811 35.8746 203.572 36.5631C202.315 37.2515 200.99 37.7851 199.596 38.1466C198.202 38.508 196.825 38.6973 195.465 38.6973C193.055 38.6973 190.852 38.1638 188.838 37.1138C186.825 36.0639 185.086 34.687 183.64 32.983C182.195 31.279 181.059 29.3513 180.25 27.1998C179.424 25.0312 179.01 22.828 179.01 20.5733Z" fill="black"/>
<path d="M225.689 3.25818H228.615L243.211 38.4047H239.544L234.983 27.4236H219.2L214.691 38.4047H210.973L225.689 3.25818ZM234.192 24.6869L227.118 7.32017L219.94 24.6869H234.192Z" fill="black"/>
<path d="M87.1509 29.3341C87.1509 30.6594 86.8927 31.8642 86.3592 32.9658C85.8256 34.0673 85.1199 35.0312 84.2249 35.8402C83.3299 36.6491 82.2972 37.2687 81.1096 37.7163C79.922 38.1638 78.6483 38.3875 77.3058 38.3875H60.7308V3.25818H77.65C78.872 3.25818 79.9736 3.51636 80.9719 4.04993C81.9702 4.58349 82.7963 5.25475 83.502 6.09813C84.1905 6.94151 84.7241 7.90537 85.1027 8.97251C85.4814 10.0396 85.6707 11.124 85.6707 12.2083C85.6707 13.9984 85.2232 15.6163 84.3282 17.0793C83.4332 18.5423 82.1939 19.6438 80.6104 20.3667C82.6242 20.9691 84.2077 22.0707 85.3781 23.6886C86.5657 25.3237 87.1509 27.1998 87.1509 29.3341ZM64.1904 6.27025V19.2308H76.2731C77.1336 19.2308 77.9254 19.0414 78.6827 18.68C79.44 18.3185 80.0597 17.8366 80.5932 17.2514C81.1268 16.649 81.5399 15.9777 81.8325 15.2032C82.1251 14.4287 82.28 13.6197 82.28 12.7591C82.28 11.8641 82.1423 11.0207 81.8497 10.229C81.5571 9.43723 81.1784 8.74875 80.6621 8.18076C80.1457 7.59556 79.5433 7.14805 78.8548 6.78661C78.1664 6.44237 77.409 6.27025 76.5829 6.27025H64.1904ZM83.6913 28.7489C83.6913 27.8883 83.5364 27.0621 83.2438 26.2532C82.9512 25.4442 82.521 24.7385 81.9874 24.1189C81.4366 23.5165 80.7998 23.0174 80.0597 22.6387C79.3195 22.26 78.5106 22.0707 77.6672 22.0707H64.2076V35.3754H77.323C78.218 35.3754 79.0442 35.2033 79.8187 34.8247C80.5932 34.4632 81.2645 33.9813 81.8497 33.3617C82.4349 32.7592 82.8824 32.0364 83.2094 31.2274C83.5364 30.4356 83.6913 29.6095 83.6913 28.7489Z" stroke="black" stroke-width="3"/>
<path d="M107.84 38.6457C105.395 38.6457 103.158 38.1465 101.127 37.131C99.0959 36.1328 97.3575 34.7902 95.9117 33.1207C94.466 31.4511 93.33 29.5578 92.5554 27.4064C91.7637 25.2549 91.3678 23.069 91.3678 20.8314C91.3678 18.4906 91.7809 16.2531 92.6243 14.1016C93.4677 11.9501 94.6209 10.0568 96.1183 8.40451C97.5985 6.75218 99.3541 5.44408 101.368 4.463C103.382 3.48193 105.55 3 107.908 3C110.352 3 112.59 3.51635 114.621 4.56628C116.652 5.6162 118.39 6.95872 119.819 8.64548C121.248 10.3322 122.366 12.2255 123.158 14.3598C123.95 16.4941 124.346 18.6628 124.346 20.8659C124.346 23.2067 123.915 25.4442 123.089 27.5957C122.246 29.7472 121.093 31.6233 119.63 33.2584C118.167 34.8935 116.428 36.2016 114.414 37.1655C112.366 38.1637 110.18 38.6457 107.84 38.6457ZM94.8274 20.8314C94.8274 22.742 95.1372 24.5836 95.7741 26.3564C96.3937 28.1293 97.2887 29.6955 98.4419 31.0553C99.5951 32.4322 100.972 33.5166 102.556 34.3255C104.139 35.1345 105.895 35.5303 107.857 35.5303C109.836 35.5303 111.626 35.1 113.244 34.2395C114.862 33.3789 116.239 32.2601 117.358 30.8659C118.476 29.4718 119.337 27.9055 119.957 26.1671C120.559 24.4115 120.869 22.6387 120.869 20.8142C120.869 18.9037 120.542 17.0621 119.905 15.2892C119.268 13.5164 118.356 11.9674 117.203 10.6076C116.05 9.24789 114.673 8.18076 113.089 7.3718C111.506 6.56285 109.75 6.16698 107.84 6.16698C105.86 6.16698 104.053 6.58006 102.452 7.42344C100.834 8.26682 99.4574 9.38559 98.3386 10.7625C97.2199 12.1567 96.3593 13.723 95.7396 15.4614C95.1372 17.2342 94.8274 19.007 94.8274 20.8314Z" stroke="black" stroke-width="3"/>
<path d="M134.329 9.6954V38.4047H130.869V3.25818H133.537L156.79 32.5011V3.30982H160.25V38.4047H157.237L134.329 9.6954Z" stroke="black" stroke-width="3"/>
<path d="M169.062 38.4047V3.25818H172.522V38.4047H169.062Z" stroke="black" stroke-width="3"/>
<path d="M179.01 20.5733C179.01 18.4562 179.389 16.3564 180.129 14.2566C180.869 12.1567 181.954 10.2978 183.365 8.6455C184.776 6.99316 186.532 5.65064 188.615 4.61793C190.697 3.58522 193.055 3.05166 195.689 3.05166C198.821 3.05166 201.506 3.75734 203.727 5.18592C205.947 6.59729 207.599 8.45617 208.649 10.7281L205.93 12.4149C205.362 11.2617 204.69 10.2806 203.882 9.48888C203.073 8.69714 202.212 8.0603 201.283 7.56116C200.353 7.06201 199.406 6.71778 198.408 6.49402C197.41 6.28748 196.446 6.167 195.482 6.167C193.365 6.167 191.506 6.59729 189.888 7.45788C188.27 8.31848 186.911 9.43724 185.809 10.8314C184.708 12.2256 183.864 13.7746 183.313 15.513C182.745 17.2514 182.47 19.007 182.47 20.7798C182.47 22.7248 182.814 24.5836 183.486 26.3737C184.157 28.1465 185.086 29.73 186.257 31.1069C187.427 32.4839 188.821 33.5682 190.422 34.3772C192.023 35.1861 193.761 35.582 195.637 35.582C196.635 35.582 197.634 35.4615 198.684 35.2033C199.716 34.9624 200.732 34.5665 201.696 34.0157C202.659 33.4649 203.572 32.7937 204.398 31.9847C205.224 31.1758 205.913 30.1947 206.48 29.0415L209.355 30.5217C208.787 31.847 207.995 33.0002 206.98 34.0157C205.947 35.0312 204.811 35.8746 203.572 36.5631C202.315 37.2515 200.99 37.7851 199.596 38.1466C198.202 38.508 196.825 38.6973 195.465 38.6973C193.055 38.6973 190.852 38.1638 188.838 37.1138C186.825 36.0639 185.086 34.687 183.64 32.983C182.195 31.279 181.059 29.3513 180.25 27.1998C179.424 25.0312 179.01 22.828 179.01 20.5733Z" stroke="black" stroke-width="3"/>
<path d="M225.689 3.25818H228.615L243.211 38.4047H239.544L234.983 27.4236H219.2L214.691 38.4047H210.973L225.689 3.25818ZM234.192 24.6869L227.118 7.32017L219.94 24.6869H234.192Z" stroke="black" stroke-width="3"/>
<path d="M59.5088 64.035C59.8772 64.2807 60.3333 64.4912 60.8947 64.6666C61.4561 64.8421 62.0877 64.9298 62.7895 64.9298C63.6667 64.9298 64.386 64.7719 64.9123 64.4561C65.4386 64.1403 65.8421 63.6666 66.1228 63.0526C66.4035 62.4385 66.5789 61.6666 66.6667 60.7543C66.7544 59.8421 66.7895 58.807 66.7895 57.6491V48.7894H68.5088V57.6491C68.5088 58.9824 68.4561 60.1754 68.3333 61.2631C68.2105 62.3684 67.9474 63.2982 67.5614 64.0701C67.1754 64.8421 66.5965 65.4385 65.8421 65.8596C65.0877 66.2807 64.0702 66.4912 62.7895 66.4912C61.3158 66.4912 60.0526 66.1228 59 65.4035L59.5088 64.035Z" fill="black"/>
<path d="M102.561 64.7017V66.228H90.8421V48.7894H102.333V50.3157H92.5614V56.5964H101.088V58.0526H92.5614V64.7017H102.561Z" fill="black"/>
<path d="M130.544 48.9123H132.158L134.614 55.1052L137.088 48.9123H138.737L135.684 56.3509L139.018 64.2281L145.333 48.7719H147.193L139.807 66.2105H138.281L134.614 57.5965L130.93 66.2105H129.439L122.07 48.7719H123.912L130.246 64.2281L133.561 56.3509L130.544 48.9123Z" fill="black"/>
<path d="M179.561 64.7017V66.228H167.842V48.7894H179.333V50.3157H169.561V56.5964H178.088V58.0526H169.561V64.7017H179.561Z" fill="black"/>
<path d="M200.982 66.228V48.7894H202.702V64.7017H212.772V66.228H200.982Z" fill="black"/>
<path d="M243.667 52.0526C243.175 51.4912 242.526 51.0526 241.702 50.7017C240.877 50.3509 239.947 50.193 238.895 50.193C237.351 50.193 236.228 50.4912 235.526 51.0702C234.825 51.6491 234.474 52.4386 234.474 53.4386C234.474 53.9649 234.561 54.3859 234.754 54.7368C234.947 55.0702 235.228 55.3684 235.632 55.614C236.018 55.8596 236.526 56.0702 237.14 56.2456C237.754 56.421 238.474 56.614 239.316 56.7894C240.246 56.9824 241.088 57.2105 241.825 57.4561C242.561 57.7017 243.211 58 243.719 58.3684C244.228 58.7368 244.649 59.1754 244.93 59.7017C245.211 60.228 245.351 60.8772 245.351 61.6666C245.351 62.4737 245.193 63.1579 244.877 63.7544C244.561 64.3509 244.14 64.8421 243.579 65.228C243.018 65.614 242.351 65.9123 241.597 66.1052C240.842 66.2982 239.982 66.3859 239.07 66.3859C236.368 66.3859 234.035 65.5438 232.07 63.8596L232.93 62.4561C233.246 62.7895 233.614 63.0877 234.053 63.3859C234.491 63.6842 234.965 63.9473 235.509 64.1579C236.035 64.3859 236.614 64.5438 237.211 64.6666C237.807 64.7895 238.456 64.8421 239.123 64.8421C240.509 64.8421 241.597 64.5965 242.386 64.0877C243.158 63.5965 243.561 62.8245 243.561 61.8245C243.561 61.2807 243.456 60.8245 243.228 60.4561C243 60.0877 242.684 59.7719 242.228 59.4912C241.79 59.228 241.228 58.9824 240.579 58.7895C239.93 58.5965 239.158 58.4035 238.298 58.193C237.386 57.9824 236.579 57.7544 235.895 57.5263C235.211 57.2982 234.632 57.0175 234.158 56.6666C233.684 56.3158 233.333 55.9123 233.088 55.421C232.86 54.9298 232.737 54.3509 232.737 53.6316C232.737 52.8245 232.895 52.1052 233.193 51.4912C233.491 50.8596 233.93 50.3333 234.474 49.9123C235.018 49.4912 235.684 49.1754 236.439 48.9473C237.193 48.7193 238.035 48.614 238.947 48.614C240.105 48.614 241.14 48.7895 242.053 49.1403C242.965 49.4912 243.79 49.9824 244.526 50.6316L243.667 52.0526Z" fill="black"/>
</svg>
