<svg width="250" height="66" viewBox="0 0 250 66" fill="none" xmlns="http://www.w3.org/2000/svg">
	<path d="M34.3924 31.8739C32.3323 31.8739 30.377 32.2755 28.5788 32.9913C28.4043 33.0611 28.2471 33.1309 28.0726 33.2008C27.3393 33.515 26.6584 33.8816 25.995 34.3006C25.8728 34.3704 25.7506 34.4403 25.6459 34.5276C19.9022 38.2112 16.655 44.6881 16.655 53.2251C16.655 41.4235 10.4574 33.8642 0 31.8565V64.7475H21.5607C25.0174 64.7475 28.4915 64.5205 31.9482 64.0666C34.1654 63.7698 36.2429 63.2984 38.1633 62.6699C40.2932 62.1462 42.266 61.1686 43.9419 59.8592C47.6256 56.9961 49.9999 52.5268 49.9999 47.4989C50.0348 38.8746 43.0341 31.8739 34.3924 31.8739Z" fill="#601f2d"/>
<path d="M0.0175028 30.5472C10.4749 28.557 16.6725 20.6834 16.6725 8.88175C16.6725 18.0996 20.4434 25.3447 27.0775 28.8363C27.6361 29.1506 28.1948 29.4124 28.7884 29.6394C30.3247 30.233 32.0181 30.5647 33.7639 30.5647C41.3756 30.5647 47.5383 24.402 47.5383 16.7902C47.5383 16.7553 47.5383 16.703 47.5383 16.6506C47.5383 15.4285 47.3638 13.8049 47.0495 12.6876C47.0495 12.6527 47.032 12.6352 47.032 12.6003C46.4908 10.6799 45.5307 8.93412 44.2911 7.45019C44.2388 7.39781 44.2038 7.34544 44.1515 7.29307C44.0118 7.11849 43.8547 6.94391 43.6976 6.78678C43.5928 6.69949 43.4881 6.59474 43.3659 6.49C43.0865 6.22813 42.8072 5.96625 42.5279 5.72184C41.1138 4.51724 39.5076 3.55704 37.7094 2.80635C34.8638 1.6192 31.7562 0.868502 28.3519 0.536799C24.9476 0.222554 21.7179 0.0479736 18.6453 0.0479736H0.0175028V30.5472Z" fill="#601f2d"/>
<path fill-rule="evenodd" clip-rule="evenodd" d="M111.908 0.0479856C109.337 0.0479856 106.942 0.575573 104.711 1.66251C102.531 2.72459 100.618 4.14741 99.004 5.9483C97.3784 7.74287 96.1328 9.79339 95.2277 12.1022C94.314 14.4332 93.8678 16.8569 93.8678 19.3794C93.8678 21.7971 94.2961 24.1565 95.1459 26.4674C95.9855 28.7977 97.2174 30.8487 98.7778 32.6506C100.355 34.4721 102.253 35.9371 104.461 37.0229C106.717 38.1505 109.186 38.6937 111.84 38.6937C114.393 38.6937 116.804 38.1663 119.067 37.0641C121.257 36.0152 123.153 34.5881 124.747 32.8066C126.333 31.0343 127.579 29.0039 128.486 26.6911L128.489 26.6814C129.38 24.3633 129.846 21.9438 129.846 19.4139C129.846 17.0267 129.416 14.6817 128.564 12.3861C127.711 10.0865 126.503 8.04204 124.964 6.22403C123.396 4.37371 121.498 2.91298 119.31 1.78178C117.048 0.612585 114.571 0.0479856 111.908 0.0479856ZM107.151 7.29849C108.511 6.58215 110.073 6.21496 111.84 6.21496C113.537 6.21496 115.055 6.56507 116.407 7.25557C117.823 7.97918 119.04 8.92513 120.059 10.1258C121.098 11.3509 121.918 12.7436 122.493 14.3443C123.072 15.9565 123.369 17.6267 123.369 19.3622C123.369 21.009 123.091 22.6148 122.541 24.2198C121.974 25.8065 121.194 27.2211 120.188 28.4751C119.204 29.7012 117.989 30.6923 116.54 31.4631C115.155 32.1998 113.609 32.5783 111.857 32.5783C110.104 32.5783 108.587 32.2268 107.238 31.5377C105.829 30.8181 104.613 29.859 103.592 28.6401L103.586 28.633C102.555 27.4179 101.751 26.0138 101.19 24.4095L101.186 24.3973C100.61 22.7938 100.327 21.1243 100.327 19.3794C100.327 17.734 100.605 16.1274 101.156 14.5026C101.722 12.9182 102.501 11.5054 103.506 10.2529C104.492 9.04039 105.706 8.052 107.146 7.30155L107.151 7.29849Z" fill="#601f2d"/>
<path d="M199.689 0.0996432C196.847 0.0996432 194.258 0.676748 191.948 1.82206C189.699 2.93724 187.778 4.40068 186.224 6.21926C184.695 8.00965 183.517 10.0292 182.714 12.3059C181.922 14.553 181.51 16.8212 181.51 19.1213C181.51 21.5638 181.959 23.9468 182.847 26.2795C183.716 28.5894 184.939 30.6658 186.497 32.5015C188.072 34.3576 189.964 35.855 192.145 36.9919C194.382 38.1582 196.824 38.7453 199.465 38.7453C200.965 38.7453 202.469 38.5364 203.972 38.1465C205.491 37.7527 206.932 37.1721 208.292 36.4265L208.3 36.4223C209.656 35.6691 210.901 34.7449 212.031 33.6332L212.04 33.6244C213.186 32.4784 214.088 31.167 214.734 29.6606L215.284 28.376L209.81 25.5568L209.135 26.9267C208.631 27.9503 208.037 28.787 207.348 29.4609C206.621 30.1734 205.813 30.769 204.951 31.2613C204.113 31.7405 203.233 32.0828 202.343 32.2906L202.334 32.2926L202.325 32.2947C201.388 32.5252 200.51 32.63 199.637 32.63C197.98 32.63 196.475 32.2823 195.098 31.5864C193.671 30.8651 192.437 29.904 191.399 28.6834C190.345 27.4429 189.502 26.0104 188.889 24.3927C188.281 22.7698 187.97 21.0899 187.97 19.3278C187.97 17.7134 188.22 16.115 188.739 14.5269L188.743 14.5141C189.237 12.9567 189.992 11.5679 190.986 10.3093C191.953 9.08597 193.149 8.09836 194.593 7.33018C195.963 6.60126 197.573 6.21498 199.482 6.21498C200.317 6.21498 201.172 6.3187 202.092 6.50837C202.958 6.7036 203.772 7.00068 204.573 7.43063C205.371 7.85907 206.118 8.40987 206.832 9.10887C207.494 9.75668 208.073 10.5885 208.584 11.6256L209.315 13.1093L214.567 9.85141L214.011 8.64687C212.834 6.10079 210.983 4.02738 208.535 2.47054C206.028 0.858525 203.049 0.0996432 199.689 0.0996432Z" fill="#601f2d"/>
<path fill-rule="evenodd" clip-rule="evenodd" d="M81.9192 0.0479856H63.5V38.1773H81.575C83.0864 38.1773 84.5404 37.9249 85.9077 37.4097C87.2595 36.9003 88.4567 36.1858 89.5 35.2428C90.5477 34.2957 91.3665 33.1727 91.9784 31.9095C92.6209 30.5829 92.9202 29.1509 92.9202 27.6239C92.9202 25.1954 92.2475 23.0064 90.8618 21.0981C90.0666 19.9991 89.1067 19.1051 87.9917 18.4128C88.7218 17.7663 89.3514 17.0109 89.877 16.1519C90.9219 14.4438 91.4399 12.5532 91.4399 10.4981C91.4399 9.23675 91.2193 7.98301 90.7856 6.76069C90.353 5.54157 89.7374 4.42442 88.9332 3.43937L88.9275 3.43233L88.9216 3.42535C88.0907 2.43226 87.1133 1.63956 85.9482 1.01683C84.7104 0.355255 83.3618 0.0479856 81.9192 0.0479856ZM69.9596 16.0206V6.06005H80.8521C81.4573 6.06005 81.9785 6.18321 82.4405 6.41171C82.9853 6.69945 83.4311 7.03754 83.8065 7.463L83.8139 7.47134L83.8214 7.47958C84.1749 7.86845 84.4664 8.37438 84.7119 9.03875C84.936 9.64515 85.0492 10.3101 85.0492 11.0489C85.0492 11.7233 84.9289 12.353 84.6985 12.9629C84.4737 13.5579 84.1599 14.0703 83.7467 14.5386C83.3338 14.9897 82.87 15.3468 82.3058 15.6161C81.7418 15.8853 81.1701 16.0206 80.5423 16.0206H69.9596ZM69.9768 32.1652V21.8605H81.9364C82.5509 21.8605 83.1246 21.9973 83.6457 22.2639C84.2095 22.5523 84.7002 22.933 85.1345 23.4044C85.5515 23.8924 85.8793 24.436 86.1025 25.0532C86.3401 25.7099 86.4606 26.3638 86.4606 27.0387C86.4606 27.7141 86.34 28.3446 86.0922 28.9445L86.088 28.955C85.823 29.6106 85.4745 30.1621 85.043 30.6063L85.0356 30.6139L85.0284 30.6215C84.5751 31.1015 84.0593 31.4725 83.4536 31.7552L83.4413 31.7609L83.4291 31.7669C82.8832 32.0338 82.2865 32.1652 81.5922 32.1652H69.9768Z" fill="#601f2d"/>
<path d="M138.391 0H133.5V38.1465H139.96V12.2219L160.646 38.1465H165.881V0.0516354H159.421V26.4464L138.391 0Z" fill="#601f2d"/>
<path d="M177.96 0.0479736H171.5V38.1945H177.96V0.0479736Z" fill="#601f2d"/>
<path fill-rule="evenodd" clip-rule="evenodd" d="M233.787 0H228.861L212.889 38.1465H219.867L224.376 27.1654H238.153L242.714 38.1465H249.628L233.787 0ZM236.131 21.4287H226.354L231.278 9.51357L236.131 21.4287Z" fill="#601f2d"/>
<path d="M63.5088 62.583C63.8772 62.8287 64.3333 63.0392 64.8947 63.2146C65.4561 63.3901 66.0877 63.4778 66.7895 63.4778C67.6667 63.4778 68.386 63.3199 68.9123 63.0041C69.4386 62.6883 69.8421 62.2146 70.1228 61.6006C70.4035 60.9865 70.5789 60.2146 70.6667 59.3023C70.7544 58.3901 70.7895 57.355 70.7895 56.1971V47.3374H72.5088V56.1971C72.5088 57.5304 72.4561 58.7234 72.3333 59.8111C72.2105 60.9164 71.9474 61.8462 71.5614 62.6181C71.1754 63.3901 70.5965 63.9865 69.8421 64.4076C69.0877 64.8287 68.0702 65.0392 66.7895 65.0392C65.3158 65.0392 64.0526 64.6708 63 63.9515L63.5088 62.583Z" fill="#601f2d"/>
<path d="M106.561 63.2497V64.776H94.8421V47.3374H106.333V48.8637H96.5614V55.1444H105.088V56.6006H96.5614V63.2497H106.561Z" fill="#601f2d"/>
<path d="M134.544 47.4602H136.158L138.614 53.6532L141.088 47.4602H142.737L139.684 54.8988L143.018 62.776L149.333 47.3199H151.193L143.807 64.7585H142.281L138.614 56.1444L134.93 64.7585H133.439L126.07 47.3199H127.912L134.246 62.776L137.561 54.8988L134.544 47.4602Z" fill="#601f2d"/>
<path d="M183.561 63.2497V64.776H171.842V47.3374H183.333V48.8637H173.561V55.1444H182.088V56.6006H173.561V63.2497H183.561Z" fill="#601f2d"/>
<path d="M204.982 64.776V47.3374H206.702V63.2497H216.772V64.776H204.982Z" fill="#601f2d"/>
<path d="M247.667 50.6006C247.175 50.0392 246.526 49.6006 245.702 49.2497C244.877 48.8988 243.947 48.7409 242.895 48.7409C241.351 48.7409 240.228 49.0392 239.526 49.6181C238.825 50.1971 238.474 50.9865 238.474 51.9865C238.474 52.5129 238.561 52.9339 238.754 53.2848C238.947 53.6181 239.228 53.9164 239.632 54.162C240.018 54.4076 240.526 54.6181 241.14 54.7936C241.754 54.969 242.474 55.162 243.316 55.3374C244.246 55.5304 245.088 55.7585 245.825 56.0041C246.561 56.2497 247.211 56.548 247.719 56.9164C248.228 57.2848 248.649 57.7234 248.93 58.2497C249.211 58.776 249.351 59.4251 249.351 60.2146C249.351 61.0216 249.193 61.7058 248.877 62.3023C248.561 62.8988 248.14 63.3901 247.579 63.776C247.018 64.162 246.351 64.4602 245.596 64.6532C244.842 64.8462 243.982 64.9339 243.07 64.9339C240.368 64.9339 238.035 64.0918 236.07 62.4076L236.93 61.0041C237.246 61.3374 237.614 61.6357 238.053 61.9339C238.491 62.2322 238.965 62.4953 239.509 62.7058C240.035 62.9339 240.614 63.0918 241.211 63.2146C241.807 63.3374 242.456 63.3901 243.123 63.3901C244.509 63.3901 245.596 63.1444 246.386 62.6357C247.158 62.1444 247.561 61.3725 247.561 60.3725C247.561 59.8287 247.456 59.3725 247.228 59.0041C247 58.6357 246.684 58.3199 246.228 58.0392C245.789 57.776 245.228 57.5304 244.579 57.3374C243.93 57.1444 243.158 56.9515 242.298 56.7409C241.386 56.5304 240.579 56.3023 239.895 56.0743C239.211 55.8462 238.632 55.5655 238.158 55.2146C237.684 54.8637 237.333 54.4602 237.088 53.969C236.86 53.4778 236.737 52.8988 236.737 52.1795C236.737 51.3725 236.895 50.6532 237.193 50.0392C237.491 49.4076 237.93 48.8813 238.474 48.4602C239.018 48.0392 239.684 47.7234 240.439 47.4953C241.193 47.2672 242.035 47.162 242.947 47.162C244.105 47.162 245.14 47.3374 246.053 47.6883C246.965 48.0392 247.789 48.5304 248.526 49.1795L247.667 50.6006Z" fill="#601f2d"/>
</svg>
