<svg width="659" height="47" viewBox="0 0 659 47" fill="none" xmlns="http://www.w3.org/2000/svg">
<path d="M336.893 23.1195C335.396 23.1195 333.976 23.4112 332.669 23.9312C332.543 23.9819 332.428 24.0326 332.302 24.0833C331.769 24.3116 331.274 24.5779 330.792 24.8823C330.704 24.933 330.615 24.9838 330.539 25.0472C326.366 27.7231 324.008 32.4282 324.008 38.6297C324.008 30.0566 319.505 24.5653 311.909 23.1068V47H327.571C330.082 47 332.606 46.8351 335.117 46.5054C336.728 46.2898 338.237 45.9473 339.632 45.4908C341.179 45.1103 342.612 44.4001 343.83 43.449C346.506 41.3691 348.23 38.1225 348.23 34.47C348.256 28.205 343.17 23.1195 336.893 23.1195Z" fill="#602D23"/>
<path d="M311.921 22.1557C319.518 20.7099 324.02 14.9903 324.02 6.41716C324.02 13.1133 326.76 18.3764 331.579 20.9128C331.985 21.1411 332.39 21.3314 332.822 21.4962C333.938 21.9274 335.168 22.1684 336.436 22.1684C341.965 22.1684 346.442 17.6916 346.442 12.1622C346.442 12.1368 346.442 12.0988 346.442 12.0607C346.442 11.173 346.315 9.99352 346.087 9.18187C346.087 9.1565 346.074 9.14382 346.074 9.11846C345.681 7.72342 344.984 6.45521 344.083 5.37723C344.045 5.33918 344.02 5.30113 343.982 5.26309C343.88 5.13627 343.766 5.00944 343.652 4.8953C343.576 4.83189 343.5 4.7558 343.411 4.67971C343.208 4.48948 343.005 4.29924 342.802 4.12169C341.775 3.24663 340.608 2.54911 339.302 2.00378C337.235 1.14139 334.978 0.59606 332.505 0.3551C330.032 0.126821 327.685 0 325.453 0H311.921V9.25796V22.1557Z" fill="#602D23"/>
<path d="M374 24H659" stroke="#C36D5F" stroke-miterlimit="1"/>
<path d="M0 24H285" stroke="#C36D5F" stroke-miterlimit="1"/>
<path d="M374 29H517" stroke="#C36D5F" stroke-miterlimit="1"/>
<path d="M129 29L285 29" stroke="#C36D5F" stroke-miterlimit="1"/>
</svg>
