<?xml version="1.0" encoding="utf-8"?>
<!-- Generator: Adobe Illustrator 25.3.0, SVG Export Plug-In . SVG Version: 6.00 Build 0)  -->
<svg width="196" height="49" version="1.1" id="Layer_1" xmlns="http://www.w3.org/2000/svg" xmlns:xlink="http://www.w3.org/1999/xlink" x="0px" y="0px"
	viewBox="0 0 196 49" style="enable-background:new 0 0 196 49;" xml:space="preserve">
	<style type="text/css">
		.st0{clip-path:url(#SVGID_2_);}
	</style>
	<g>
		<defs>
			<rect id="SVGID_1_" x="49.8" y="13" width="95.7" height="23.7"/>
		</defs>
		<clipPath id="SVGID_2_">
			<use xlink:href="#SVGID_1_"  style="overflow:visible;"/>
		</clipPath>
		<g class="st0">
			<path d="M59,32.2c-0.4,0.1-0.9,0.2-1.4,0.3c-0.5,0.1-1.2,0.1-2.1,0.1h-3.8c0.2,0,0.4-0.2,0.6-0.5c0.2-0.3,0.3-0.9,0.3-1.7V19.1
				c0-0.8-0.1-1.3-0.3-1.6c-0.2-0.3-0.4-0.5-0.6-0.5h3.8c1,0,1.7,0,2.2,0.1c0.5,0.1,1,0.2,1.4,0.4c0.7,0.3,1.2,0.8,1.6,1.4
				c0.4,0.6,0.6,1.2,0.5,1.9c0,1-0.3,1.9-0.9,2.7c-0.6,0.7-1.4,1.2-2.4,1.4c0.7,0.1,1.3,0.3,1.9,0.6c0.6,0.3,1.1,0.8,1.5,1.3
				c0.4,0.5,0.6,1.2,0.6,1.9c0,1-0.3,1.8-0.8,2.4C60.6,31.5,59.9,31.9,59,32.2L59,32.2z M58.4,18.5c-0.3-0.2-0.6-0.4-1-0.5
				c-0.4-0.1-0.8-0.2-1.4-0.2h-1.6v6.5h1.9c0.5,0,1-0.1,1.4-0.3c0.4-0.2,0.7-0.4,1-0.7c0.3-0.3,0.5-0.7,0.7-1.1
				c0.2-0.4,0.3-0.8,0.3-1.3c0-0.5-0.1-1-0.3-1.5C59.1,19.2,58.8,18.8,58.4,18.5z M58.9,25.9c-0.3-0.2-0.6-0.4-1.1-0.5
				c-0.4-0.1-1-0.2-1.7-0.2h-1.6v6.5h2.2c1.1,0,2-0.3,2.6-0.8c0.6-0.5,0.9-1.3,0.9-2.5C60.1,27.4,59.7,26.6,58.9,25.9L58.9,25.9z
				M66,24.9c0-1.6,0.3-3.1,1-4.3c0.7-1.3,1.7-2.3,2.9-3c1.3-0.7,2.7-1.1,4.4-1.1c1.4,0,2.7,0.3,3.8,0.9c1.2,0.6,2.2,1.5,2.9,2.7
				c0.7,1.2,1.1,2.7,1.1,4.3c0,1.6-0.4,3.1-1.1,4.3c-0.7,1.3-1.7,2.3-2.9,3c-1.3,0.7-2.7,1.1-4.3,1.1c-1.4,0-2.7-0.3-3.9-0.9
				c-1.2-0.6-2.2-1.5-2.9-2.7C66.3,28.1,66,26.6,66,24.9L66,24.9z M80.3,24.9c0-1.4-0.3-2.6-0.9-3.8c-0.6-1.1-1.4-2-2.4-2.6
				c-1-0.6-2.1-1-3.4-1c-1.1,0-2.2,0.3-3.1,0.9c-0.9,0.6-1.6,1.4-2.1,2.5c-0.5,1.1-0.8,2.3-0.8,3.7c0,1.4,0.3,2.6,0.8,3.8
				c0.6,1.1,1.4,2,2.4,2.6c1,0.6,2.1,0.9,3.4,0.9c1.1,0,2.2-0.3,3-0.9c0.9-0.6,1.6-1.4,2.1-2.4C80.1,27.6,80.3,26.3,80.3,24.9z
				M101.1,16.9c-0.2,0-0.4,0.2-0.6,0.5c-0.2,0.3-0.3,0.8-0.3,1.6v14.3L88.4,19.6v11c0,0.7,0.1,1.3,0.4,1.6c0.3,0.3,0.5,0.5,0.8,0.5
				h-3.2c0.2,0,0.4-0.2,0.6-0.5c0.2-0.3,0.3-0.8,0.3-1.6V19.1c0-0.5-0.2-1-0.5-1.4c-0.3-0.4-0.8-0.7-1.3-0.8h2.8L99,29.4V19
				c0-1.2-0.4-1.9-1.2-2.1C97.8,16.9,101.1,16.9,101.1,16.9z M105.8,32.6c0,0,0.1,0,0.3-0.1c0.2-0.1,0.4-0.3,0.5-0.6
				c0.2-0.3,0.2-0.8,0.2-1.4V19c0-0.6-0.1-1.1-0.2-1.4c-0.1-0.3-0.3-0.5-0.5-0.6c-0.2-0.1-0.3-0.1-0.3-0.1h3.6c0,0-0.1,0-0.3,0.1
				c-0.2,0.1-0.4,0.3-0.5,0.6c-0.2,0.3-0.2,0.8-0.2,1.4v11.5c0,0.6,0.1,1.1,0.2,1.4c0.2,0.3,0.3,0.5,0.5,0.6c0.2,0.1,0.3,0.1,0.3,0.1
				C109.4,32.6,105.8,32.6,105.8,32.6z M126.7,31.2c-0.6,0.5-1.3,0.9-2.3,1.2c-0.9,0.3-1.9,0.5-2.8,0.5c-1.4,0-2.7-0.3-4-1
				c-1.2-0.7-2.2-1.6-3-2.8c-0.7-1.2-1.1-2.7-1.1-4.3c0-1.6,0.3-3,1-4.2c0.7-1.2,1.7-2.2,2.9-2.9c1.3-0.7,2.7-1.1,4.4-1.1
				c1.8,0,3.4,0.4,4.8,1.2v2.5c-0.5-0.8-1.2-1.5-2.1-2c-0.9-0.5-1.9-0.8-2.9-0.8c-1.3,0-2.4,0.3-3.4,0.9c-0.9,0.6-1.7,1.5-2.2,2.5
				c-0.5,1.1-0.8,2.2-0.8,3.5c0,1.5,0.3,2.8,0.8,3.9c0.6,1.1,1.4,1.9,2.3,2.5c1,0.6,2.1,0.9,3.3,0.9c1.9,0,3.5-0.6,4.8-1.7
				L126.7,31.2L126.7,31.2z M134.2,26.5l-1.5,3.6c-0.2,0.6-0.3,1-0.3,1.4c0,0.5,0.2,0.9,0.7,1.1h-3.3c0.2,0,0.4-0.2,0.7-0.5
				c0.3-0.3,0.6-0.9,1-1.8l6-14.2l5.9,14.3c0.3,0.8,0.7,1.4,1,1.7c0.3,0.3,0.6,0.5,0.8,0.5h-3.8c0.4-0.2,0.6-0.5,0.6-0.8
				c0-0.3-0.1-0.8-0.4-1.4l-1.6-3.9H134.2z M139.5,25.6l-2.5-6.1l-2.4,6.1L139.5,25.6L139.5,25.6z"/>
				<path d="M59,32.2l0-0.1L59,32.2z M57.7,32.5l0-0.1h0L57.7,32.5z M51.8,32.6l0-0.1l0,0.3V32.6z M52.4,32.1l0.1,0.1l0,0
					C52.5,32.2,52.4,32.1,52.4,32.1z M52.4,17.4l-0.1,0.1l0,0C52.3,17.5,52.4,17.4,52.4,17.4z M51.8,16.9v-0.1l0,0.3L51.8,16.9z
					M57.8,17l0,0.1l0,0C57.7,17.2,57.8,17,57.8,17z M59.1,17.4l0.1-0.1l0,0L59.1,17.4L59.1,17.4z M60.7,18.7l0.1-0.1L60.7,18.7z
					M60.3,23.3l-0.1-0.1L60.3,23.3z M57.9,24.7l0-0.1l0,0.3L57.9,24.7z M59.8,25.3l-0.1,0.1l0,0L59.8,25.3z M61.3,26.6l-0.1,0.1l0,0
					L61.3,26.6z M61.1,30.9l0.1,0.1l0,0L61.1,30.9L61.1,30.9z M58.4,18.5l0.1-0.1l0,0C58.5,18.4,58.4,18.5,58.4,18.5z M57.4,18l0,0.1
					l0,0C57.4,18.1,57.4,18,57.4,18z M54.4,17.8v-0.1h-0.1v0.1H54.4z M54.4,24.3h-0.1v0.1h0.1V24.3z M57.6,24l-0.1-0.1L57.6,24z
					M59.2,19.6l-0.1,0.1l0,0L59.2,19.6L59.2,19.6z M58.9,25.9l0.1-0.1l0,0L58.9,25.9L58.9,25.9z M54.4,25.2v-0.1h-0.1v0.1H54.4z
					M54.4,31.7h-0.1v0.1h0.1V31.7z M59.1,30.9L59,30.8l0,0L59.1,30.9z M59,32.1c-0.4,0.1-0.8,0.2-1.3,0.3l0,0.3
					c0.5-0.1,1-0.2,1.4-0.3L59,32.1z M57.6,32.4c-0.5,0.1-1.2,0.1-2.1,0.1v0.3c0.9,0,1.6,0,2.1-0.1C57.7,32.7,57.6,32.4,57.6,32.4z
					M55.5,32.5h-3.8v0.3h3.8C55.5,32.8,55.5,32.5,55.5,32.5z M51.8,32.8c0.2-0.1,0.5-0.3,0.7-0.6L52.3,32c-0.2,0.3-0.4,0.4-0.6,0.5
					C51.7,32.5,51.8,32.8,51.8,32.8z M52.5,32.2c0.1-0.2,0.2-0.4,0.3-0.7c0.1-0.3,0.1-0.7,0.1-1.1h-0.3c0,0.4,0,0.8-0.1,1
					c-0.1,0.3-0.1,0.5-0.2,0.6L52.5,32.2z M52.9,30.4V19.1h-0.3v11.3L52.9,30.4L52.9,30.4z M52.9,19.1c0-0.4,0-0.7-0.1-1
					c-0.1-0.3-0.1-0.5-0.3-0.7l-0.2,0.2c0.1,0.1,0.2,0.3,0.2,0.6c0.1,0.3,0.1,0.6,0.1,1L52.9,19.1L52.9,19.1z M52.6,17.3
					c-0.2-0.3-0.5-0.5-0.7-0.6L51.8,17c0.2,0,0.4,0.2,0.6,0.5C52.3,17.5,52.6,17.3,52.6,17.3z M51.8,17h3.8v-0.3h-3.8
					C51.8,16.7,51.8,17,51.8,17z M55.5,17c1,0,1.7,0,2.2,0.1l0.1-0.3c-0.5-0.1-1.3-0.1-2.2-0.1C55.5,16.7,55.5,17,55.5,17z M57.7,17.2
					c0.5,0.1,0.9,0.2,1.3,0.4l0.1-0.3c-0.4-0.2-0.9-0.3-1.4-0.4C57.8,16.9,57.7,17.2,57.7,17.2z M59.1,17.5c0.6,0.3,1.1,0.7,1.5,1.3
					l0.2-0.2c-0.4-0.6-0.9-1.1-1.6-1.4L59.1,17.5L59.1,17.5z M60.5,18.8c0.3,0.5,0.5,1.2,0.5,1.8h0.3c0-0.7-0.2-1.4-0.6-2
					C60.8,18.7,60.5,18.8,60.5,18.8z M61.1,20.6c0,1-0.3,1.8-0.9,2.6l0.2,0.2c0.6-0.8,1-1.7,1-2.7C61.4,20.6,61.1,20.6,61.1,20.6z
					M60.2,23.2c-0.6,0.7-1.4,1.2-2.3,1.4l0.1,0.3c1-0.2,1.9-0.7,2.5-1.5L60.2,23.2L60.2,23.2z M57.8,24.8c0.7,0.1,1.3,0.3,1.9,0.6
					l0.1-0.3c-0.6-0.3-1.3-0.5-2-0.6C57.9,24.5,57.8,24.8,57.8,24.8z M59.7,25.4c0.6,0.3,1.1,0.7,1.5,1.3l0.2-0.2
					c-0.4-0.6-0.9-1-1.6-1.4L59.7,25.4L59.7,25.4z M61.2,26.7c0.4,0.5,0.6,1.1,0.6,1.8h0.3c0-0.7-0.2-1.4-0.6-2L61.2,26.7z M61.8,28.5
					c0,0.9-0.3,1.7-0.7,2.3l0.2,0.2c0.5-0.7,0.8-1.5,0.8-2.5L61.8,28.5L61.8,28.5z M61,30.8c-0.5,0.6-1.2,1-2,1.3l0.1,0.3
					c0.9-0.3,1.6-0.8,2.2-1.4C61.2,31,61,30.8,61,30.8z M58.5,18.4c-0.3-0.2-0.7-0.4-1-0.5l-0.1,0.3c0.3,0.1,0.7,0.3,0.9,0.5
					L58.5,18.4z M57.4,17.8c-0.4-0.1-0.9-0.2-1.5-0.2v0.3c0.6,0,1,0.1,1.4,0.2L57.4,17.8z M56,17.7h-1.6v0.3H56L56,17.7L56,17.7z
					M54.3,17.8v6.5h0.3v-6.5L54.3,17.8L54.3,17.8z M54.4,24.4h1.9v-0.3h-1.9L54.4,24.4L54.4,24.4z M56.3,24.4c0.6,0,1-0.1,1.4-0.3
					l-0.1-0.3c-0.3,0.2-0.8,0.2-1.3,0.2L56.3,24.4L56.3,24.4z M57.7,24.2c0.4-0.2,0.7-0.4,1-0.7l-0.2-0.2c-0.3,0.3-0.6,0.5-0.9,0.6
					L57.7,24.2z M58.7,23.5c0.3-0.3,0.6-0.7,0.7-1.1l-0.3-0.1c-0.1,0.4-0.4,0.7-0.7,1L58.7,23.5L58.7,23.5z M59.4,22.4
					c0.2-0.4,0.3-0.9,0.3-1.3h-0.3c0,0.4-0.1,0.8-0.2,1.2L59.4,22.4z M59.7,21.1c0-0.5-0.1-1-0.3-1.5l-0.3,0.1
					c0.2,0.4,0.3,0.9,0.3,1.4H59.7L59.7,21.1z M59.4,19.6c-0.2-0.5-0.5-0.9-0.9-1.2l-0.2,0.2c0.4,0.3,0.6,0.6,0.8,1.1
					C59.1,19.7,59.4,19.6,59.4,19.6z M59,25.8c-0.3-0.2-0.7-0.4-1.1-0.5l-0.1,0.3c0.4,0.1,0.7,0.3,1,0.5L59,25.8z M57.8,25.2
					c-0.4-0.1-1-0.2-1.8-0.2v0.3c0.7,0,1.3,0.1,1.7,0.2L57.8,25.2z M56,25.1h-1.6v0.3h1.6L56,25.1L56,25.1z M54.3,25.2v6.5h0.3v-6.5
					C54.5,25.2,54.3,25.2,54.3,25.2z M54.4,31.9h2.2v-0.3h-2.2L54.4,31.9L54.4,31.9z M56.6,31.9c1.1,0,2-0.3,2.7-0.8L59,30.8
					c-0.6,0.5-1.4,0.7-2.5,0.7C56.6,31.6,56.6,31.9,56.6,31.9z M59.2,31.1c0.7-0.6,1-1.4,1-2.6h-0.3c0,1.1-0.3,1.9-0.9,2.4L59.2,31.1z
					M60.2,28.5c0-1.1-0.4-2-1.3-2.7L58.8,26c0.8,0.6,1.2,1.5,1.2,2.5H60.2L60.2,28.5z M67,20.6l-0.1-0.1l0,0L67,20.6L67,20.6z
					M69.9,17.7l-0.1-0.1h0L69.9,17.7z M78.2,17.5l-0.1,0.1l0,0L78.2,17.5z M81,20.2l-0.1,0.1l0,0L81,20.2z M81.1,28.9L81,28.8l0,0
					L81.1,28.9z M78.2,31.9l-0.1-0.1h0L78.2,31.9z M69.9,32l-0.1,0.1l0,0C69.9,32.1,69.9,32,69.9,32z M67.1,29.3l-0.1,0.1l0,0
					L67.1,29.3z M79.4,21.2l-0.1,0.1l0,0C79.3,21.2,79.4,21.2,79.4,21.2z M77.1,18.5L77,18.7l0,0C77,18.7,77.1,18.5,77.1,18.5z
					M70.6,18.4l-0.1-0.1h0C70.6,18.3,70.6,18.4,70.6,18.4z M68.6,20.9l0.1,0.1l0,0C68.7,21,68.6,20.9,68.6,20.9z M68.7,28.4l-0.1,0.1
					l0,0L68.7,28.4L68.7,28.4z M71,31l-0.1,0.1l0,0C70.9,31.1,71,31,71,31z M77.4,31.1L77.4,31h0C77.4,31,77.4,31.1,77.4,31.1z
					M79.6,28.6l0.1,0.1v0L79.6,28.6L79.6,28.6z M66.1,24.9c0-1.6,0.3-3,1-4.3l-0.3-0.1c-0.7,1.3-1,2.8-1,4.4
					C65.8,24.9,66.1,24.9,66.1,24.9z M67.1,20.7c0.7-1.2,1.6-2.2,2.9-2.9l-0.1-0.3c-1.3,0.7-2.3,1.7-3,3
					C66.9,20.5,67.1,20.7,67.1,20.7z M70,17.8c1.2-0.7,2.7-1,4.3-1v-0.3c-1.7,0-3.2,0.4-4.4,1.1L70,17.8z M74.3,16.8
					c1.4,0,2.6,0.3,3.8,0.9l0.1-0.3c-1.2-0.6-2.5-0.9-3.9-0.9L74.3,16.8L74.3,16.8z M78.1,17.7c1.2,0.6,2.1,1.5,2.8,2.6l0.3-0.2
					c-0.7-1.2-1.7-2.1-2.9-2.8C78.2,17.4,78.1,17.7,78.1,17.7z M80.9,20.3c0.7,1.2,1.1,2.6,1.1,4.3h0.3c0-1.7-0.4-3.2-1.1-4.4
					C81.2,20.1,80.9,20.3,80.9,20.3z M82,24.6c0,1.6-0.3,3-1,4.3l0.3,0.1c0.7-1.3,1.1-2.8,1.1-4.4H82L82,24.6z M81,28.8
					c-0.7,1.2-1.6,2.2-2.9,2.9l0.1,0.3c1.3-0.7,2.3-1.7,3-3L81,28.8L81,28.8z M78.1,31.7c-1.2,0.7-2.7,1-4.3,1v0.3
					c1.7,0,3.1-0.4,4.4-1.1L78.1,31.7z M73.8,32.8c-1.4,0-2.6-0.3-3.8-0.9l-0.1,0.3c1.2,0.6,2.5,0.9,3.9,0.9V32.8z M70,31.9
					c-1.2-0.6-2.1-1.5-2.8-2.7l-0.3,0.2c0.7,1.2,1.7,2.2,2.9,2.8C69.9,32.1,70,31.9,70,31.9z M67.2,29.2c-0.7-1.2-1.1-2.6-1.1-4.3
					h-0.3c0,1.7,0.4,3.2,1.1,4.4L67.2,29.2z M80.5,24.9c0-1.4-0.3-2.7-0.9-3.8l-0.3,0.1c0.6,1.1,0.9,2.3,0.9,3.7L80.5,24.9L80.5,24.9z
					M79.6,21.1c-0.6-1.2-1.4-2.1-2.4-2.7L77,18.7c1,0.6,1.7,1.5,2.3,2.6C79.3,21.2,79.6,21.1,79.6,21.1z M77.2,18.4
					c-1-0.7-2.2-1-3.4-1v0.3c1.2,0,2.3,0.3,3.3,0.9C77,18.7,77.2,18.4,77.2,18.4z M73.7,17.4c-1.2,0-2.2,0.3-3.1,0.9l0.2,0.2
					c0.9-0.6,1.9-0.8,3-0.8C73.7,17.7,73.7,17.4,73.7,17.4z M70.6,18.3c-0.9,0.6-1.6,1.4-2.1,2.5l0.3,0.1c0.5-1,1.2-1.8,2-2.4
					C70.7,18.6,70.6,18.3,70.6,18.3z M68.4,20.8c-0.5,1.1-0.8,2.3-0.8,3.7H68c0-1.4,0.2-2.6,0.7-3.6L68.4,20.8L68.4,20.8z M67.7,24.6
					c0,1.4,0.3,2.7,0.9,3.8l0.3-0.1C68.2,27.2,68,26,68,24.6H67.7L67.7,24.6z M68.5,28.4c0.6,1.1,1.4,2,2.4,2.7l0.2-0.2
					c-1-0.6-1.7-1.5-2.3-2.6L68.5,28.4z M70.9,31.1c1,0.6,2.2,1,3.5,1v-0.3c-1.2,0-2.3-0.3-3.3-0.9C71.1,30.9,70.9,31.1,70.9,31.1z
					M74.4,32.1c1.2,0,2.2-0.3,3.1-0.9L77.4,31c-0.9,0.6-1.8,0.8-3,0.8V32.1z M77.5,31.2c0.9-0.6,1.6-1.4,2.2-2.5l-0.3-0.1
					c-0.5,1-1.2,1.8-2.1,2.4C77.4,31,77.5,31.2,77.5,31.2z M79.7,28.7c0.5-1.1,0.8-2.3,0.8-3.8h-0.3c0,1.4-0.2,2.6-0.7,3.6L79.7,28.7z
					M101.1,16.9l0,0.1l0-0.3V16.9z M100.4,17.4l-0.1-0.1l0,0L100.4,17.4L100.4,17.4z M100.1,33.3l-0.1,0.1l0.3,0.3v-0.4L100.1,33.3
					L100.1,33.3z M88.4,19.6l0.1-0.1l-0.3-0.3v0.4L88.4,19.6L88.4,19.6z M88.8,32.1l-0.1,0.1l0,0L88.8,32.1z M89.6,32.6v0.1l0-0.3
					C89.6,32.5,89.6,32.6,89.6,32.6z M86.3,32.6l0-0.1l0,0.3V32.6z M87,32.1L86.9,32l0,0L87,32.1z M86.8,17.7l0.1-0.1L86.8,17.7z
					M85.5,16.9v-0.1l0,0.3L85.5,16.9z M88.3,16.9l0.1-0.1l0-0.1h-0.1C88.3,16.7,88.3,16.9,88.3,16.9z M99,29.4l-0.1,0.1l0.3,0.3v-0.4
					L99,29.4L99,29.4z M97.8,16.9v-0.1l0,0.3L97.8,16.9z M101,16.7c-0.3,0.1-0.5,0.3-0.7,0.6l0.2,0.2c0.2-0.3,0.4-0.4,0.6-0.5
					L101,16.7z M100.3,17.3c-0.2,0.3-0.3,0.9-0.3,1.6h0.3c0-0.7,0.1-1.2,0.3-1.5L100.3,17.3L100.3,17.3z M100,19v14.3h0.3V19
					C100.3,19,100,19,100,19z M100.3,33.2L88.5,19.5l-0.2,0.2L100,33.4L100.3,33.2z M88.3,19.6v11h0.3v-11
					C88.6,19.6,88.3,19.6,88.3,19.6z M88.3,30.6c0,0.7,0.1,1.3,0.4,1.7l0.2-0.2c-0.2-0.3-0.4-0.7-0.4-1.5H88.3z M88.7,32.2
					c0.3,0.3,0.5,0.5,0.8,0.6l0.1-0.3c-0.2,0-0.4-0.2-0.7-0.5C88.9,32,88.7,32.2,88.7,32.2z M89.6,32.5h-3.2v0.3h3.2V32.5z M86.4,32.8
					c0.3-0.1,0.5-0.3,0.7-0.6L86.9,32c-0.2,0.3-0.4,0.4-0.6,0.4L86.4,32.8z M87.1,32.2c0.3-0.3,0.4-0.9,0.4-1.7h-0.3
					c0,0.7-0.1,1.2-0.3,1.5C86.9,32,87.1,32.2,87.1,32.2z M87.5,30.5V19.1h-0.3v11.4C87.2,30.5,87.5,30.5,87.5,30.5z M87.5,19.1
					c0-0.6-0.2-1.1-0.6-1.5l-0.2,0.2c0.3,0.4,0.5,0.8,0.5,1.3H87.5L87.5,19.1z M86.9,17.6c-0.4-0.5-0.8-0.7-1.4-0.9L85.4,17
					c0.5,0.1,0.9,0.3,1.2,0.8L86.9,17.6z M85.5,17h2.8v-0.3h-2.8V17z M88.2,17l10.7,12.5l0.2-0.2L88.4,16.8C88.4,16.8,88.2,17,88.2,17
					z M99.2,29.4V19h-0.3v10.4H99.2z M99.2,19c0-0.6-0.1-1.1-0.3-1.5c-0.2-0.4-0.5-0.6-1-0.8L97.8,17c0.4,0.1,0.6,0.3,0.8,0.6
					c0.2,0.3,0.3,0.8,0.3,1.3C98.9,19,99.2,19,99.2,19z M97.8,17h3.2v-0.3h-3.2V17z M105.8,32.6v-0.1h-0.1v0.1H105.8z M106,32.5
					l0.1,0.1l0,0l0,0C106.1,32.7,106,32.5,106,32.5z M106.5,31.9l0.1,0.1l0,0C106.7,32,106.5,31.9,106.5,31.9z M106.5,17.6l-0.1,0.1
					l0,0l0,0C106.4,17.7,106.5,17.6,106.5,17.6z M106.1,17l-0.1,0.1L106.1,17z M105.8,16.9h-0.1V17h0.1V16.9z M109.4,16.9V17h0.1v-0.1
					H109.4z M109.2,17l0.1,0.1L109.2,17z M108.6,17.6l0.1,0.1l0,0L108.6,17.6L108.6,17.6z M108.6,31.9l-0.1,0.1l0,0
					C108.5,32,108.6,31.9,108.6,31.9z M109.2,32.5l-0.1,0.1L109.2,32.5L109.2,32.5z M109.4,32.6h0.1v-0.1h-0.1V32.6z M105.6,32.6
					c0,0,0,0.1,0,0.1c0,0,0.1,0,0.1,0.1c0,0,0.1,0,0.1,0c0.1,0,0.1-0.1,0.2-0.1l-0.1-0.3c-0.1,0-0.1,0.1-0.2,0.1c0,0,0,0,0,0
					c0.1,0,0.1,0.1,0.1,0.1C105.9,32.6,105.6,32.6,105.6,32.6z M106.1,32.7c0.2-0.1,0.4-0.4,0.6-0.7l-0.3-0.1
					c-0.1,0.3-0.3,0.5-0.5,0.6L106.1,32.7z M106.7,32c0.2-0.3,0.2-0.8,0.2-1.5h-0.3c0,0.6-0.1,1-0.2,1.3C106.4,31.8,106.7,32,106.7,32
					z M106.9,30.5V19h-0.3v11.5L106.9,30.5L106.9,30.5z M106.9,19c0-0.6-0.1-1.1-0.2-1.4l-0.3,0.1c0.1,0.3,0.2,0.7,0.2,1.3
					C106.6,19,106.9,19,106.9,19z M106.7,17.6c-0.1-0.3-0.3-0.6-0.5-0.7l-0.1,0.3c0.1,0.1,0.3,0.3,0.4,0.6L106.7,17.6z M106.1,16.9
					c-0.1,0-0.1-0.1-0.2-0.1c0,0-0.1,0-0.1,0c0,0-0.1,0-0.1,0c0,0-0.1,0.1-0.1,0.1h0.3c0,0,0,0.1-0.1,0.1c0,0-0.1,0-0.1,0c0,0,0,0,0,0
					c0,0,0.1,0,0.2,0.1L106.1,16.9z M105.8,17h3.6v-0.3h-3.6V17z M109.6,16.9c0-0.1,0-0.1-0.1-0.1c0,0-0.1,0-0.1,0c0,0-0.1,0-0.1,0
					c-0.1,0-0.1,0.1-0.2,0.1l0.1,0.3c0.1-0.1,0.2-0.1,0.2-0.1c0,0,0,0,0,0c0,0,0,0-0.1,0c0,0-0.1-0.1-0.1-0.1
					C109.3,16.9,109.6,16.9,109.6,16.9z M109.1,16.9c-0.2,0.1-0.4,0.4-0.6,0.7l0.3,0.1c0.1-0.3,0.3-0.5,0.4-0.6
					C109.2,17.1,109.1,16.9,109.1,16.9z M108.5,17.6c-0.2,0.3-0.2,0.8-0.2,1.4h0.3c0-0.6,0.1-1,0.2-1.3
					C108.8,17.7,108.5,17.6,108.5,17.6z M108.3,19v11.5h0.3V19C108.6,19,108.3,19,108.3,19z M108.3,30.5c0,0.6,0.1,1.1,0.2,1.5
					l0.3-0.1c-0.1-0.3-0.2-0.7-0.2-1.3C108.6,30.5,108.3,30.5,108.3,30.5z M108.5,32c0.2,0.3,0.3,0.6,0.6,0.7l0.1-0.3
					c-0.1-0.1-0.3-0.3-0.4-0.6L108.5,32z M109.1,32.6c0.1,0.1,0.2,0.1,0.2,0.1c0,0,0.1,0,0.1,0c0,0,0.1,0,0.1,0c0,0,0.1-0.1,0.1-0.1
					h-0.3c0,0,0-0.1,0.1-0.1c0,0,0.1,0,0.1,0c0,0,0,0,0,0c-0.1,0-0.1-0.1-0.2-0.1C109.2,32.4,109.1,32.6,109.1,32.6z M109.4,32.5h-3.7
					v0.3h3.7C109.4,32.8,109.4,32.5,109.4,32.5z M126.7,31.2l0.1,0.1l0.1,0v-0.1H126.7L126.7,31.2z M124.4,32.4l0-0.1L124.4,32.4z
					M117.6,31.9l0.1-0.1L117.6,31.9z M114.7,29.1l-0.1,0.1l0,0L114.7,29.1z M114.6,20.5l-0.1-0.1l0,0L114.6,20.5z M117.5,17.7
					l0.1,0.1h0L117.5,17.7z M126.7,17.8h0.1v-0.1l-0.1,0C126.7,17.6,126.7,17.8,126.7,17.8z M126.7,20.3l-0.1,0.1l0.3,0.5v-0.6
					L126.7,20.3L126.7,20.3z M124.6,18.3l-0.1,0.1l0,0L124.6,18.3z M118.3,18.5l-0.1-0.1h0L118.3,18.5z M116.2,21l0.1,0.1l0,0
					C116.3,21.1,116.2,21,116.2,21z M116.3,28.4l-0.1,0.1l0,0L116.3,28.4L116.3,28.4z M118.6,31l-0.1,0.1l0,0L118.6,31z M126.7,30.1
					h0.1v-0.3l-0.2,0.2L126.7,30.1z M126.6,31.1c-0.6,0.5-1.3,0.8-2.2,1.2l0.1,0.3c0.9-0.3,1.7-0.7,2.3-1.2L126.6,31.1z M124.4,32.3
					c-0.9,0.3-1.8,0.5-2.8,0.5v0.3c1,0,1.9-0.2,2.9-0.5L124.4,32.3L124.4,32.3z M121.6,32.8c-1.4,0-2.7-0.3-3.9-1l-0.1,0.3
					c1.2,0.7,2.6,1,4,1V32.8z M117.7,31.8c-1.2-0.6-2.2-1.6-2.9-2.8l-0.3,0.2c0.8,1.3,1.8,2.2,3,2.9L117.7,31.8L117.7,31.8z M114.8,29
					c-0.7-1.2-1.1-2.6-1.1-4.3h-0.3c0,1.7,0.4,3.2,1.1,4.4L114.8,29z M113.7,24.7c0-1.5,0.3-2.9,1-4.1l-0.3-0.1c-0.7,1.3-1,2.7-1,4.3
					H113.7L113.7,24.7z M114.7,20.6c0.7-1.2,1.6-2.2,2.8-2.8l-0.1-0.3c-1.3,0.7-2.3,1.7-3,2.9L114.7,20.6L114.7,20.6z M117.6,17.8
					c1.2-0.7,2.7-1,4.3-1v-0.3c-1.7,0-3.2,0.4-4.5,1.1L117.6,17.8z M121.9,16.8c1.8,0,3.3,0.4,4.7,1.1l0.1-0.3c-1.4-0.8-3-1.2-4.8-1.2
					V16.8z M126.5,17.8v2.5h0.3v-2.5H126.5z M126.8,20.2c-0.5-0.9-1.2-1.5-2.1-2l-0.1,0.3c0.9,0.5,1.5,1.1,2,1.9L126.8,20.2
					L126.8,20.2z M124.7,18.2c-0.9-0.5-1.9-0.8-3-0.8v0.3c1,0,1.9,0.2,2.8,0.7L124.7,18.2z M121.7,17.4c-1.3,0-2.5,0.3-3.5,0.9
					l0.2,0.2c0.9-0.6,2-0.9,3.3-0.9L121.7,17.4L121.7,17.4z M118.3,18.4c-1,0.6-1.7,1.5-2.2,2.6l0.3,0.1c0.5-1,1.2-1.9,2.1-2.5
					L118.3,18.4L118.3,18.4z M116,20.9c-0.5,1.1-0.8,2.3-0.8,3.6h0.3c0-1.3,0.2-2.5,0.7-3.5L116,20.9L116,20.9z M115.3,24.6
					c0,1.5,0.3,2.8,0.9,3.9l0.3-0.1c-0.6-1.1-0.8-2.3-0.8-3.8C115.6,24.6,115.3,24.6,115.3,24.6z M116.1,28.5c0.6,1.1,1.4,2,2.4,2.6
					l0.2-0.3c-1-0.6-1.7-1.4-2.3-2.5L116.1,28.5L116.1,28.5z M118.5,31.1c1,0.6,2.1,0.9,3.3,0.9v-0.3c-1.2,0-2.2-0.3-3.2-0.8
					L118.5,31.1L118.5,31.1z M121.9,32c2,0,3.6-0.6,4.9-1.7l-0.2-0.2c-1.2,1.1-2.8,1.7-4.7,1.7V32z M126.5,30.1v1.1h0.3v-1.1H126.5z
					M134.2,26.5v-0.1h-0.1l0,0.1L134.2,26.5z M132.7,30.2l0.1,0.1L132.7,30.2z M133.1,32.6v0.1l0.1-0.3L133.1,32.6L133.1,32.6z
					M130.5,32.2l-0.1-0.1L130.5,32.2z M131.5,30.4l0.1,0.1L131.5,30.4z M137.5,16.2l0.1-0.1l-0.1-0.3l-0.1,0.3
					C137.3,16.1,137.5,16.2,137.5,16.2z M143.4,30.4l0.1-0.1l0,0C143.5,30.4,143.4,30.4,143.4,30.4z M144.3,32.1l-0.1,0.1l0,0
					C144.2,32.2,144.3,32.1,144.3,32.1z M145.1,32.6v0.1l0-0.3L145.1,32.6z M141.3,32.6l-0.1-0.1l0.1,0.3V32.6z M141.5,30.4l0.1-0.1
					L141.5,30.4z M139.9,26.5l0.1-0.1l0-0.1h-0.1C139.9,26.4,139.9,26.5,139.9,26.5z M139.5,25.6v0.1h0.2l-0.1-0.2L139.5,25.6
					L139.5,25.6z M137,19.5l0.1-0.1l-0.1-0.3l-0.1,0.3L137,19.5z M134.6,25.6l-0.1-0.1l-0.1,0.2h0.2C134.6,25.7,134.6,25.6,134.6,25.6
					z M134.1,26.5l-1.5,3.6l0.3,0.1l1.5-3.6C134.3,26.6,134.1,26.5,134.1,26.5z M132.6,30.1c-0.2,0.6-0.4,1.1-0.4,1.5h0.3
					c0-0.3,0.1-0.8,0.3-1.3L132.6,30.1L132.6,30.1z M132.3,31.6c0,0.3,0.1,0.5,0.2,0.7c0.1,0.2,0.3,0.4,0.6,0.5l0.1-0.3
					c-0.2-0.1-0.4-0.2-0.5-0.4c-0.1-0.2-0.1-0.3-0.1-0.6L132.3,31.6L132.3,31.6z M133.1,32.5h-3.3v0.3h3.3V32.5z M129.8,32.8
					c0.1,0,0.2-0.1,0.4-0.1c0.1-0.1,0.3-0.2,0.4-0.4l-0.2-0.2c-0.1,0.1-0.2,0.2-0.4,0.3c-0.1,0.1-0.2,0.1-0.2,0.1V32.8L129.8,32.8z
					M130.6,32.3c0.3-0.3,0.7-1,1-1.9l-0.3-0.1c-0.4,0.9-0.7,1.5-1,1.8C130.4,32.1,130.6,32.3,130.6,32.3z M131.6,30.4l6-14.2
					l-0.3-0.1l-6,14.2L131.6,30.4L131.6,30.4z M137.3,16.2l5.9,14.3l0.3-0.1l-5.9-14.3L137.3,16.2L137.3,16.2z M143.2,30.5
					c0.3,0.8,0.7,1.4,1,1.7l0.2-0.2c-0.3-0.3-0.6-0.8-0.9-1.6L143.2,30.5z M144.2,32.2c0.2,0.2,0.3,0.3,0.4,0.4
					c0.1,0.1,0.3,0.2,0.4,0.2l0-0.3c-0.1,0-0.2,0-0.3-0.1c-0.1-0.1-0.3-0.2-0.4-0.3L144.2,32.2L144.2,32.2z M145.1,32.5h-3.8v0.3h3.8
					V32.5z M141.4,32.8c0.2-0.1,0.4-0.2,0.5-0.4c0.1-0.2,0.2-0.4,0.2-0.6h-0.3c0,0.2,0,0.3-0.1,0.4c-0.1,0.1-0.2,0.2-0.4,0.3
					L141.4,32.8L141.4,32.8z M142,31.8c0-0.4-0.1-0.8-0.4-1.4l-0.3,0.1c0.2,0.6,0.4,1,0.4,1.3H142L142,31.8z M141.6,30.4l-1.6-3.9
					l-0.3,0.1l1.6,3.9L141.6,30.4z M139.9,26.4h-5.7v0.3h5.7V26.4z M139.7,25.5l-2.5-6.1l-0.3,0.1l2.5,6.1
					C139.4,25.6,139.7,25.5,139.7,25.5z M136.9,19.4l-2.4,6.1l0.3,0.1l2.4-6.1C137.2,19.5,136.9,19.4,136.9,19.4z M134.6,25.7h4.9
					v-0.3h-4.9V25.7z"/>
				</g>
			</g>
		</svg>
