<svg width="136" height="40" viewBox="0 0 136 40" fill="none" xmlns="http://www.w3.org/2000/svg">
<path d="M50.5217 17.1818C50.5217 17.8767 50.3863 18.5084 50.1065 19.086C49.8268 19.6636 49.4568 20.1689 48.9875 20.5931C48.5182 21.0172 47.9768 21.3421 47.3541 21.5768C46.7314 21.8114 46.0636 21.9287 45.3597 21.9287H36.6691V3.50977H45.5402C46.1809 3.50977 46.7585 3.64513 47.2819 3.92489C47.8053 4.20465 48.2385 4.5566 48.6085 4.9988C48.9695 5.441 49.2492 5.94637 49.4478 6.50589C49.6463 7.06541 49.7456 7.63395 49.7456 8.20249C49.7456 9.14104 49.5109 9.98934 49.0417 10.7564C48.5724 11.5235 47.9226 12.1011 47.0924 12.4801C48.1482 12.7959 48.9785 13.3735 49.5921 14.2218C50.2148 15.0791 50.5217 16.0628 50.5217 17.1818ZM38.483 5.08905V11.8845H44.8182C45.2694 11.8845 45.6846 11.7852 46.0816 11.5957C46.4787 11.4062 46.8036 11.1535 47.0833 10.8467C47.3631 10.5308 47.5797 10.1789 47.7331 9.77275C47.8865 9.36665 47.9677 8.9425 47.9677 8.49128C47.9677 8.022 47.8955 7.5798 47.7421 7.16468C47.5887 6.74955 47.3902 6.38857 47.1194 6.09076C46.8487 5.78393 46.5329 5.5493 46.1719 5.35978C45.8109 5.17929 45.4138 5.08905 44.9806 5.08905H38.483ZM48.7077 16.875C48.7077 16.4238 48.6265 15.9906 48.4731 15.5665C48.3197 15.1423 48.0941 14.7723 47.8143 14.4474C47.5255 14.1316 47.1916 13.8699 46.8036 13.6713C46.4155 13.4728 45.9914 13.3735 45.5492 13.3735H38.492V20.3494H45.3687C45.838 20.3494 46.2711 20.2592 46.6772 20.0607C47.0833 19.8711 47.4353 19.6185 47.7421 19.2936C48.049 18.9777 48.2836 18.5987 48.4551 18.1745C48.6265 17.7594 48.7077 17.3262 48.7077 16.875Z" fill="black" stroke="black" stroke-width="0.569002"/>
<path d="M61.3691 22.0637C60.0876 22.0637 58.9144 21.802 57.8495 21.2696C56.7847 20.7461 55.8732 20.0422 55.1151 19.1669C54.3571 18.2915 53.7615 17.2988 53.3554 16.1707C52.9402 15.0427 52.7327 13.8966 52.7327 12.7234C52.7327 11.496 52.9493 10.3229 53.3915 9.19481C53.8337 8.06675 54.4383 7.07406 55.2234 6.20771C55.9995 5.34136 56.92 4.6555 57.9759 4.1411C59.0318 3.62671 60.1688 3.37402 61.4052 3.37402C62.6867 3.37402 63.8598 3.64476 64.9247 4.19525C65.9896 4.74574 66.9011 5.44965 67.6501 6.33405C68.3992 7.21845 68.9857 8.21114 69.4009 9.33018C69.816 10.4492 70.0236 11.5863 70.0236 12.7414C70.0236 13.9688 69.7979 15.1419 69.3648 16.27C68.9226 17.3981 68.3179 18.3817 67.5509 19.239C66.7838 20.0964 65.8723 20.7822 64.8164 21.2876C63.7425 21.811 62.5964 22.0637 61.3691 22.0637ZM54.5466 12.7234C54.5466 13.7251 54.709 14.6907 55.0429 15.6202C55.3678 16.5498 55.8371 17.371 56.4417 18.0839C57.0464 18.8059 57.7683 19.3744 58.5986 19.7986C59.4288 20.2227 60.3493 20.4303 61.3781 20.4303C62.4159 20.4303 63.3545 20.2047 64.2028 19.7534C65.0511 19.3022 65.773 18.7156 66.3596 17.9846C66.9462 17.2537 67.3974 16.4324 67.7223 15.521C68.0382 14.6005 68.2006 13.6709 68.2006 12.7144C68.2006 11.7126 68.0292 10.747 67.6952 9.8175C67.3613 8.88798 66.883 8.07577 66.2784 7.36284C65.6738 6.64991 64.9518 6.09039 64.1216 5.66624C63.2913 5.24209 62.3708 5.03453 61.3691 5.03453C60.3313 5.03453 59.3837 5.25111 58.5444 5.69331C57.6961 6.13551 56.9742 6.7221 56.3876 7.44406C55.801 8.17504 55.3498 8.99627 55.0249 9.90774C54.709 10.8373 54.5466 11.7668 54.5466 12.7234Z" fill="black" stroke="black" stroke-width="0.569002"/>
<path d="M75.2578 6.88492V21.9377H73.4438V3.50977H74.8426L87.0347 18.8423V3.53684H88.8486V21.9377H87.2693L75.2578 6.88492Z" fill="black" stroke="black" stroke-width="0.569002"/>
<path d="M93.4691 21.9377V3.50977H95.2831V21.9377H93.4691Z" fill="black" stroke="black" stroke-width="0.569002"/>
<path d="M98.6853 12.5883C98.6853 11.4783 98.8838 10.3773 99.2719 9.2763C99.6599 8.17531 100.228 7.20067 100.968 6.33432C101.708 5.46797 102.629 4.76406 103.721 4.22259C104.813 3.68113 106.049 3.40137 107.43 3.40137C109.072 3.40137 110.48 3.77137 111.644 4.5204C112.809 5.26041 113.675 6.23505 114.225 7.42628L112.8 8.31068C112.502 7.70604 112.15 7.19165 111.726 6.77652C111.302 6.36139 110.85 6.02749 110.363 5.76578C109.876 5.50407 109.379 5.32358 108.856 5.20626C108.332 5.09797 107.827 5.0348 107.322 5.0348C106.212 5.0348 105.237 5.26041 104.389 5.71163C103.54 6.16286 102.828 6.74945 102.25 7.48043C101.672 8.21141 101.23 9.02361 100.941 9.93509C100.644 10.8466 100.499 11.7671 100.499 12.6966C100.499 13.7163 100.68 14.691 101.032 15.6295C101.384 16.559 101.871 17.3893 102.485 18.1113C103.098 18.8332 103.829 19.4018 104.669 19.8259C105.508 20.2501 106.419 20.4576 107.403 20.4576C107.926 20.4576 108.45 20.3944 109 20.2591C109.542 20.1327 110.074 19.9252 110.58 19.6364C111.085 19.3476 111.563 18.9957 111.996 18.5715C112.43 18.1474 112.791 17.633 113.088 17.0283L114.595 17.8044C114.298 18.4993 113.883 19.104 113.35 19.6364C112.809 20.1688 112.213 20.611 111.563 20.972C110.904 21.333 110.21 21.6128 109.479 21.8023C108.748 21.9918 108.026 22.0911 107.313 22.0911C106.049 22.0911 104.894 21.8113 103.838 21.2608C102.782 20.7103 101.871 19.9883 101.113 19.0949C100.355 18.2015 99.7592 17.1908 99.3351 16.0627C98.9019 14.9256 98.6853 13.7705 98.6853 12.5883Z" fill="black" stroke="black" stroke-width="0.569002"/>
<path d="M123.16 3.50977H124.694L132.347 21.9377H130.424L128.033 16.1801H119.757L117.393 21.9377H115.444L123.16 3.50977ZM127.618 14.7452L123.909 5.63954L120.145 14.7452H127.618Z" fill="black" stroke="black" stroke-width="0.569002"/>
<path d="M36.9308 35.4653C37.1203 35.5917 37.355 35.7 37.6437 35.7902C37.9325 35.8804 38.2574 35.9256 38.6184 35.9256C39.0696 35.9256 39.4396 35.8443 39.7103 35.6819C39.9811 35.5195 40.1886 35.2758 40.333 34.9599C40.4774 34.6441 40.5677 34.247 40.6128 33.7777C40.6579 33.3085 40.676 32.776 40.676 32.1804V27.623H41.5604V32.1804C41.5604 32.8663 41.5333 33.4799 41.4701 34.0394C41.407 34.608 41.2716 35.0863 41.073 35.4834C40.8745 35.8804 40.5767 36.1873 40.1886 36.4039C39.8006 36.6204 39.2772 36.7287 38.6184 36.7287C37.8603 36.7287 37.2106 36.5392 36.6691 36.1692L36.9308 35.4653Z" fill="black"/>
<path d="M59.0769 35.8082V36.5934H53.0485V27.623H58.9595V28.4082H53.9329V31.6389H58.3188V32.388H53.9329V35.8082H59.0769Z" fill="black"/>
<path d="M73.4709 27.686H74.3012L75.5646 30.8716L76.837 27.686H77.6853L76.1151 31.5123L77.8297 35.5643L81.0785 27.6138H82.0351L78.2358 36.5841H77.4507L75.5646 32.1531L73.6694 36.5841H72.9024L69.1121 27.6138H70.0597L73.3175 35.5643L75.0231 31.5123L73.4709 27.686Z" fill="black"/>
<path d="M98.6853 35.8082V36.5934H92.6569V27.623H98.568V28.4082H93.5413V31.6389H97.9272V32.388H93.5413V35.8082H98.6853Z" fill="black"/>
<path d="M109.704 36.5934V27.623H110.589V35.8082H115.769V36.5934H109.704Z" fill="black"/>
<path d="M131.661 29.3015C131.408 29.0127 131.074 28.7871 130.65 28.6066C130.226 28.4261 129.748 28.3449 129.206 28.3449C128.412 28.3449 127.834 28.4983 127.473 28.7961C127.112 29.0939 126.932 29.5 126.932 30.0144C126.932 30.2852 126.977 30.5018 127.076 30.6823C127.176 30.8537 127.32 31.0071 127.528 31.1335C127.726 31.2598 127.988 31.3681 128.304 31.4584C128.619 31.5486 128.989 31.6479 129.423 31.7381C129.901 31.8374 130.334 31.9547 130.713 32.081C131.092 32.2074 131.426 32.3608 131.688 32.5503C131.949 32.7398 132.166 32.9654 132.31 33.2362C132.455 33.5069 132.527 33.8408 132.527 34.2469C132.527 34.662 132.446 35.014 132.283 35.3208C132.121 35.6277 131.904 35.8804 131.616 36.0789C131.327 36.2774 130.984 36.4308 130.596 36.5301C130.208 36.6294 129.766 36.6745 129.296 36.6745C127.907 36.6745 126.706 36.2413 125.696 35.375L126.138 34.653C126.3 34.8245 126.49 34.9779 126.715 35.1313C126.941 35.2847 127.185 35.4201 127.464 35.5284C127.735 35.6457 128.033 35.7269 128.34 35.7901C128.647 35.8533 128.98 35.8804 129.323 35.8804C130.036 35.8804 130.596 35.754 131.002 35.4923C131.399 35.2396 131.607 34.8425 131.607 34.3281C131.607 34.0484 131.552 33.8137 131.435 33.6242C131.318 33.4347 131.155 33.2723 130.921 33.1279C130.695 32.9925 130.406 32.8662 130.072 32.7669C129.739 32.6676 129.341 32.5684 128.899 32.4601C128.43 32.3518 128.015 32.2345 127.663 32.1171C127.311 31.9998 127.013 31.8554 126.769 31.6749C126.526 31.4945 126.345 31.2869 126.219 31.0342C126.102 30.7815 126.038 30.4837 126.038 30.1137C126.038 29.6986 126.12 29.3286 126.273 29.0127C126.427 28.6878 126.652 28.4171 126.932 28.2005C127.212 27.9839 127.555 27.8215 127.943 27.7042C128.331 27.5869 128.764 27.5327 129.233 27.5327C129.829 27.5327 130.361 27.623 130.83 27.8034C131.3 27.9839 131.724 28.2366 132.103 28.5705L131.661 29.3015Z" fill="black"/>
<path d="M20.6364 19.3001C19.5636 19.3001 18.5455 19.5092 17.6091 19.8819C17.5182 19.9183 17.4364 19.9547 17.3455 19.991C16.9636 20.1547 16.6091 20.3456 16.2636 20.5637C16.2 20.6001 16.1364 20.6365 16.0818 20.6819C13.0909 22.6001 11.4 25.9728 11.4 30.4183C11.4 24.2728 8.17273 20.3365 2.72727 19.291V36.4183H13.9545C15.7545 36.4183 17.5636 36.3001 19.3636 36.0637C20.5182 35.9092 21.6 35.6637 22.6 35.3365C23.7091 35.0637 24.7364 34.5547 25.6091 33.8728C27.5273 32.3819 28.7636 30.0547 28.7636 27.4365C28.7818 22.9456 25.1364 19.3001 20.6364 19.3001Z" fill="black"/>
<path d="M2.73637 18.6094C8.18182 17.573 11.4091 13.473 11.4091 7.32754C11.4091 12.1275 13.3727 15.9003 16.8273 17.7184C17.1182 17.8821 17.4091 18.0184 17.7182 18.1366C18.5182 18.4457 19.4 18.6184 20.3091 18.6184C24.2727 18.6184 27.4818 15.4094 27.4818 11.4457C27.4818 11.4275 27.4818 11.4003 27.4818 11.373C27.4818 10.7366 27.3909 9.89117 27.2273 9.30936C27.2273 9.29117 27.2182 9.28208 27.2182 9.2639C26.9364 8.2639 26.4364 7.35481 25.7909 6.58208C25.7636 6.55481 25.7455 6.52754 25.7182 6.50027C25.6455 6.40936 25.5636 6.31845 25.4818 6.23663C25.4273 6.19118 25.3727 6.13663 25.3091 6.08208C25.1636 5.94572 25.0182 5.80936 24.8727 5.68208C24.1364 5.05481 23.3 4.55481 22.3636 4.1639C20.8818 3.54572 19.2636 3.15481 17.4909 2.98208C15.7182 2.81845 14.0364 2.72754 12.4364 2.72754H2.73637V9.3639V18.6094Z" fill="black"/>
</svg>
