<svg width="24" height="24" viewBox="0 0 24 24" fill="none" xmlns="http://www.w3.org/2000/svg">
<path d="M19.5661 8.30269H16.4831V7.88874C16.4831 7.50365 16.1706 7.19122 15.7855 7.19122C15.4002 7.19122 15.088 7.50365 15.088 7.88874V8.30269H14.0928C13.7075 8.30269 13.3953 8.61491 13.3953 9.00021C13.3953 9.38551 13.7075 9.69773 14.0928 9.69773H17.1154C17.0134 11.1021 16.4918 12.4436 15.618 13.548C15.4945 13.6904 15.4336 13.8766 15.4496 14.0645C15.4656 14.2524 15.5567 14.4257 15.7027 14.5451C15.8484 14.6646 16.0365 14.7199 16.2237 14.6985C16.411 14.6771 16.5816 14.5808 16.6968 14.4315C17.7734 13.0776 18.4068 11.4245 18.5104 9.69774H19.5521C19.9372 9.70168 20.2528 9.39236 20.2565 9.00728C20.2605 8.62199 19.9511 8.30663 19.5661 8.3027L19.5661 8.30269Z" fill="#602D23"/>
<path d="M19.264 15.4129C18.5084 15.4129 17.7666 15.2105 17.1156 14.8269C16.7872 14.6496 16.3772 14.7623 16.1856 15.0826C15.5439 16.3427 18.4829 16.8264 19.2873 16.8078V16.808C19.6724 16.8015 19.9796 16.4839 19.9731 16.0988C19.9667 15.7135 19.6491 15.4065 19.264 15.4129L19.264 15.4129Z" fill="#602D23"/>
<path d="M20.3706 4.95886H11.1538L10.1075 2.42908V2.42929C10.05 2.30411 9.96012 2.19637 9.84719 2.11769C9.73155 2.04441 9.59807 2.00414 9.46127 2.00144H3.62973C3.21828 1.98379 2.81657 2.12911 2.51184 2.40604C2.20709 2.68297 2.02378 3.06891 2.0022 3.48014V17.5793C2.02856 17.9873 2.21374 18.3686 2.51807 18.6416C2.8222 18.9146 3.22138 19.0574 3.62974 19.0396H11.3537L11.5258 21.3646C11.5589 21.7273 11.8592 22.0076 12.2234 22.0156H20.3704C20.7819 22.0333 21.1836 21.888 21.4883 21.611C21.793 21.3341 21.9763 20.948 21.9979 20.5367V6.41892C21.9716 6.01099 21.7864 5.62962 21.4821 5.35667C21.1779 5.08368 20.7787 4.94086 20.3704 4.95871L20.3706 4.95886ZM7.91307 15.9146C2.72363 15.7192 2.7282 8.27879 7.91307 8.08375C8.79202 8.02334 11.4426 8.87427 10.5824 10.0787C10.4578 10.2157 10.284 10.2975 10.0991 10.3063C9.9141 10.315 9.73329 10.2498 9.59648 10.1252C9.11133 9.69843 8.48087 9.47401 7.83501 9.49872C7.18941 9.52363 6.57783 9.79537 6.12668 10.2581C5.67558 10.7208 5.4196 11.3391 5.41131 11.9853C5.4439 14.8962 9.536 15.4403 10.3498 12.6828H8.16424C7.77894 12.6828 7.46672 12.3704 7.46672 11.9853C7.46672 11.6 7.77894 11.2878 8.16424 11.2878H11.1497C11.5348 11.2878 11.8472 11.6 11.8472 11.9853C11.8497 13.0289 11.4357 14.0305 10.6973 14.7681C9.95887 15.5057 8.95684 15.9184 7.91303 15.9146L7.91307 15.9146ZM20.3706 20.6019H14.2277C14.2929 20.546 16.3622 18.9232 16.4226 18.8626H16.4224C16.4417 18.8481 16.4589 18.8308 16.4737 18.8115L16.5202 18.7605C16.5341 18.7428 16.5465 18.7241 16.5573 18.7046C16.5573 18.7046 16.5806 18.6627 16.5899 18.6394C16.6005 18.6222 16.6082 18.6033 16.6132 18.5836V18.5184V18.5186C16.6387 18.4084 16.6387 18.294 16.6132 18.1838C16.6028 18.1443 16.5903 18.1055 16.576 18.0675L11.7351 6.35395H20.3705C20.4565 6.34752 20.541 6.37803 20.603 6.43782V20.5046C20.547 20.5741 20.4596 20.6109 20.3705 20.6022L20.3706 20.6019Z" fill="#602D23"/>
</svg>
