<svg width="29" height="38" viewBox="0 0 29 38" fill="none" xmlns="http://www.w3.org/2000/svg">
<path d="M19.7 18.23C18.52 18.23 17.4 18.46 16.37 18.87C16.27 18.91 16.18 18.95 16.08 18.99C15.66 19.17 15.27 19.38 14.89 19.62C14.82 19.66 14.75 19.7 14.69 19.75C11.4 21.86 9.54 25.57 9.54 30.46C9.54 23.7 5.99 19.37 0 18.22V37.06H12.35C14.33 37.06 16.32 36.93 18.3 36.67C19.57 36.5 20.76 36.23 21.86 35.87C23.08 35.57 24.21 35.01 25.17 34.26C27.28 32.62 28.64 30.06 28.64 27.18C28.66 22.24 24.65 18.23 19.7 18.23Z" fill="#601F2D"/>
<path d="M0.0100098 17.47C6.00001 16.33 9.55001 11.82 9.55001 5.06C9.55001 10.34 11.71 14.49 15.51 16.49C15.83 16.67 16.15 16.82 16.49 16.95C17.37 17.29 18.34 17.48 19.34 17.48C23.7 17.48 27.23 13.95 27.23 9.59C27.23 9.57 27.23 9.54 27.23 9.51C27.23 8.81 27.13 7.88 26.95 7.24C26.95 7.22 26.94 7.21 26.94 7.19C26.63 6.09 26.08 5.09 25.37 4.24C25.34 4.21 25.32 4.18 25.29 4.15C25.21 4.05 25.12 3.95 25.03 3.86C24.97 3.81 24.91 3.75 24.84 3.69C24.68 3.54 24.52 3.39 24.36 3.25C23.55 2.56 22.63 2.01 21.6 1.58C19.97 0.9 18.19 0.47 16.24 0.28C14.29 0.1 12.44 0 10.68 0H0.0100098V7.3V17.47Z" fill="#601F2D"/>
</svg>
