<svg width="56" height="38" viewBox="0 0 56 38" fill="none" xmlns="http://www.w3.org/2000/svg">
<g style="mix-blend-mode:luminosity">
<path fill-rule="evenodd" clip-rule="evenodd" d="M13.1897 14.042C13.9286 14.1043 14.6675 13.668 15.1293 13.1148C15.5834 12.5461 15.8835 11.7826 15.8066 11.0035C15.1524 11.0346 14.3442 11.4398 13.8824 12.0085C13.4591 12.4993 13.0974 13.294 13.1897 14.042ZM21.9792 24.0767V11.9306H26.4817C28.8061 11.9306 30.4301 13.5511 30.4301 15.9196C30.4301 18.288 28.7753 19.9241 26.4202 19.9241H23.8418V24.0767H21.9792ZM15.7988 14.19C15.1479 14.1521 14.5539 14.3881 14.0742 14.5788C13.7654 14.7015 13.504 14.8055 13.3051 14.8055C13.0819 14.8055 12.8097 14.696 12.504 14.5731C12.1035 14.412 11.6456 14.2279 11.1655 14.2367C10.0649 14.2523 9.04121 14.8834 8.47936 15.8884C7.32487 17.8985 8.17919 20.8746 9.29519 22.5107C9.84165 23.321 10.4959 24.2091 11.3579 24.178C11.7371 24.1635 12.0099 24.0463 12.2922 23.9251C12.6173 23.7854 12.9549 23.6404 13.4821 23.6404C13.9911 23.6404 14.314 23.7817 14.6239 23.9173C14.9186 24.0462 15.2016 24.17 15.6218 24.1624C16.5146 24.1468 17.0764 23.3521 17.6229 22.5419C18.2126 21.6723 18.4718 20.8235 18.5111 20.6947L18.5157 20.6798C18.5148 20.6789 18.5075 20.6755 18.4946 20.6696C18.2975 20.5782 16.7907 19.8799 16.7763 18.0075C16.7618 16.4359 17.9714 15.6397 18.1618 15.5143C18.1734 15.5067 18.1812 15.5015 18.1847 15.4989C17.4151 14.3458 16.2144 14.2211 15.7988 14.19ZM33.832 24.1702C35.0019 24.1702 36.0871 23.5703 36.5797 22.6198H36.6182V24.0767H38.3422V18.0309C38.3422 16.278 36.9568 15.1483 34.8249 15.1483C32.8469 15.1483 31.3845 16.2935 31.3306 17.8673H33.0085C33.147 17.1194 33.832 16.6285 34.771 16.6285C35.9101 16.6285 36.5489 17.1661 36.5489 18.1556V18.8256L34.2246 18.9658C32.0618 19.0983 30.8919 19.9942 30.8919 21.5524C30.8919 23.1262 32.1003 24.1702 33.832 24.1702ZM34.3322 22.7289C33.3393 22.7289 32.7082 22.2458 32.7082 21.5057C32.7082 20.7422 33.3162 20.2981 34.4784 20.228L36.5488 20.0955V20.7811C36.5488 21.9186 35.5944 22.7289 34.3322 22.7289ZM44.0607 24.552C43.3141 26.6789 42.4598 27.3801 40.6434 27.3801C40.5049 27.3801 40.0431 27.3645 39.9353 27.3333V25.8764C40.0508 25.892 40.3355 25.9076 40.4818 25.9076C41.3053 25.9076 41.7671 25.557 42.0519 24.6455L42.2212 24.1079L39.0656 15.2651H41.0128L43.2064 22.4406H43.2449L45.4384 15.2651H47.3317L44.0607 24.552ZM23.8416 13.5199H25.989C27.6052 13.5199 28.5288 14.3925 28.5288 15.9273C28.5288 17.4622 27.6052 18.3425 25.9813 18.3425H23.8416V13.5199Z" fill="#B5B5B5"/>
</g>
</svg>
