<svg width="196" height="49" viewBox="0 0 196 49" fill="none" xmlns="http://www.w3.org/2000/svg">
    <g clip-path="url(#r68r2o40ua)" fill="#000">
        <path d="M19.026 39.942c-.807.28-1.738.481-2.794.605-1.024.124-2.452.186-4.284.186H4.264c.404-.093.839-.434 1.304-1.024.466-.621.699-1.8.699-3.54V13.12c0-1.614-.218-2.716-.652-3.306-.435-.621-.87-.994-1.304-1.118h7.637c1.987 0 3.492.093 4.517.28 1.055.155 1.971.403 2.747.745 1.366.652 2.422 1.567 3.167 2.747a7.02 7.02 0 0 1 1.118 3.819c0 2.08-.637 3.88-1.91 5.401-1.241 1.49-2.887 2.453-4.936 2.888 1.397.155 2.717.558 3.958 1.21 1.273.652 2.298 1.537 3.074 2.655.807 1.117 1.21 2.39 1.21 3.818 0 1.987-.527 3.617-1.583 4.89-1.055 1.241-2.483 2.173-4.284 2.794zm-1.304-27.987a6.448 6.448 0 0 0-2.002-1.025c-.714-.248-1.677-.372-2.887-.372H9.62v13.225h3.772c1.117 0 2.049-.17 2.794-.512a6.668 6.668 0 0 0 1.955-1.35 6.406 6.406 0 0 0 1.397-2.143 6.733 6.733 0 0 0 .513-2.561 7.414 7.414 0 0 0-.606-2.98 5.261 5.261 0 0 0-1.723-2.282zm.978 15.041c-.59-.466-1.32-.807-2.188-1.024-.87-.218-2.05-.326-3.54-.326H9.62V38.87h4.424c2.235 0 3.973-.528 5.215-1.584 1.273-1.055 1.91-2.731 1.91-5.029 0-2.142-.823-3.896-2.469-5.262zm14.473-1.91c0-3.29.699-6.224 2.096-8.8 1.428-2.577 3.415-4.58 5.96-6.008 2.577-1.428 5.542-2.142 8.895-2.142 2.794 0 5.401.621 7.823 1.863 2.452 1.21 4.408 3.042 5.867 5.495 1.49 2.453 2.235 5.402 2.235 8.848 0 3.29-.714 6.224-2.142 8.801-1.397 2.577-3.383 4.58-5.96 6.007-2.546 1.428-5.495 2.142-8.848 2.142-2.794 0-5.417-.605-7.87-1.816-2.421-1.242-4.377-3.089-5.867-5.541-1.46-2.453-2.189-5.402-2.189-8.848zm29.151-.046c0-2.825-.59-5.37-1.77-7.637-1.148-2.297-2.747-4.082-4.796-5.355-2.018-1.304-4.3-1.956-6.845-1.956-2.329 0-4.409.59-6.24 1.77-1.8 1.18-3.213 2.856-4.238 5.029-1.024 2.142-1.537 4.641-1.537 7.497 0 2.825.575 5.387 1.723 7.684 1.18 2.266 2.779 4.051 4.797 5.355 2.049 1.273 4.346 1.91 6.892 1.91 2.328 0 4.393-.59 6.193-1.77 1.832-1.18 3.26-2.84 4.284-4.983 1.025-2.173 1.537-4.688 1.537-7.544zm42.253-16.345c-.434.093-.869.45-1.304 1.071-.403.59-.605 1.646-.605 3.167v29.104l-23.842-27.8v22.305c0 1.49.264 2.546.791 3.167.528.59 1.04.931 1.537 1.024h-6.566c.435-.093.87-.434 1.304-1.024.466-.621.698-1.692.698-3.213V13.212c0-1.055-.357-2.018-1.07-2.887a4.56 4.56 0 0 0-2.702-1.63h5.775l21.84 25.472V12.933c0-2.39-.807-3.803-2.422-4.238h6.566zm9.537 32.038c0 .094.187.031.559-.186.373-.248.714-.683 1.025-1.304.31-.652.465-1.599.465-2.84V13.026c0-1.242-.155-2.173-.465-2.794-.28-.652-.606-1.087-.978-1.304-.373-.217-.559-.295-.559-.233h7.404c0-.062-.186.016-.559.233-.372.217-.714.652-1.024 1.304-.311.62-.466 1.552-.466 2.794v23.377c0 1.241.155 2.188.466 2.84.31.621.652 1.04 1.024 1.258.373.217.559.294.559.232h-7.451zm42.541-2.84c-1.18.962-2.717 1.77-4.611 2.421a17.488 17.488 0 0 1-5.727.978c-2.887 0-5.573-.667-8.056-2.002-2.484-1.335-4.486-3.26-6.008-5.774-1.49-2.515-2.235-5.464-2.235-8.848 0-3.167.683-6.007 2.049-8.522 1.397-2.515 3.368-4.47 5.914-5.868 2.577-1.428 5.573-2.142 8.988-2.142 3.632 0 6.86.792 9.686 2.375v5.17c-.963-1.708-2.36-3.059-4.191-4.052a11.836 11.836 0 0 0-5.868-1.537c-2.639 0-4.936.621-6.892 1.863-1.925 1.242-3.399 2.95-4.424 5.122-1.024 2.142-1.536 4.548-1.536 7.218 0 3.011.574 5.635 1.723 7.87 1.179 2.235 2.763 3.958 4.749 5.169 1.987 1.18 4.207 1.77 6.659 1.77 3.943 0 7.203-1.15 9.78-3.446v2.235zM171.98 28.3 169 35.704c-.466 1.149-.699 2.096-.699 2.84 0 1.025.466 1.755 1.397 2.19h-6.659c.31 0 .761-.311 1.35-.932.59-.62 1.273-1.847 2.049-3.679l12.154-28.918 12.061 29.058c.683 1.676 1.335 2.825 1.956 3.446.652.62 1.164.962 1.537 1.024h-7.73c.776-.372 1.164-.947 1.164-1.723 0-.651-.248-1.583-.745-2.794l-3.26-7.916H171.98zm10.85-1.91-5.076-12.433-4.982 12.434h10.058z"/>
        <path d="m19.026 39.942-.098-.284.098.284zm-2.794.605-.035-.298h-.001l.036.298zm-11.968.186-.067-.292.067.592v-.3zm1.304-1.024.236.186.004-.006-.24-.18zm.047-29.896-.246.172.004.006.242-.178zM4.31 8.695v-.3l-.082.589.082-.289zm12.154.28-.054.295.01.001.044-.296zm2.747.745.13-.271-.009-.004-.12.275zm3.167 2.747.254-.16-.254.16zm-.792 9.22-.23-.192.23.192zm-4.936 2.888-.062-.294.03.592.032-.298zm3.958 1.21-.139.266.003.001.136-.267zm3.074 2.655-.247.17.004.005.243-.175zm-.373 8.708.229.194.002-.003-.23-.191zm-5.588-25.193.182-.239-.002-.001-.18.24zM15.72 10.93l-.099.284.011.003.088-.287zm-6.1-.372v-.3h-.3v.3h.3zm0 13.225h-.3v.3h.3v-.3zm6.566-.512-.125-.273.125.273zm3.26-9.034-.28.111.004.008.275-.12zm-.746 12.76.192-.232-.006-.004-.186.235zm-9.08-1.351v-.3h-.3v.3h.3zm0 13.225h-.3v.3h.3v-.3zm9.639-1.584-.192-.23-.002.002.194.228zm-.331 2.371c-.783.271-1.692.469-2.73.591l.07.596c1.071-.126 2.024-.332 2.856-.62l-.196-.567zm-2.732.591c-1.007.122-2.42.184-4.248.184v.6c1.836 0 3.278-.062 4.32-.188l-.072-.596zm-4.248.184H4.264v.6h7.684v-.6zm-7.616.593c.506-.117.994-.526 1.472-1.131l-.471-.372c-.454.575-.835.848-1.136.918l.135.585zm1.476-1.137c.27-.361.458-.86.578-1.472.122-.616.18-1.366.18-2.247h-.6c0 .857-.057 1.566-.168 2.13-.112.568-.275.969-.47 1.229l.48.36zm.759-3.72V13.12h-.6v23.05h.6zm0-23.05c0-.819-.055-1.519-.169-2.095-.113-.574-.288-1.045-.542-1.39l-.483.357c.181.245.332.62.436 1.149.104.525.158 1.184.158 1.98h.6zM5.86 9.641c-.45-.643-.935-1.082-1.468-1.234l-.164.577c.336.096.72.401 1.14 1l.492-.343zm-1.55-.646h7.637v-.6H4.31v.6zm7.637 0c1.982 0 3.466.093 4.463.275l.108-.59c-1.052-.192-2.58-.285-4.571-.285v.6zm4.473.276c1.036.153 1.925.395 2.67.723l.242-.549c-.806-.355-1.749-.609-2.824-.767l-.088.593zm2.662.72c1.32.63 2.33 1.508 3.042 2.636l.508-.32c-.778-1.232-1.879-2.184-3.291-2.858l-.259.541zm3.042 2.636a6.72 6.72 0 0 1 1.072 3.659h.6a7.32 7.32 0 0 0-1.164-3.98l-.508.321zm1.072 3.659c0 2.013-.614 3.744-1.84 5.209l.46.385c1.32-1.578 1.98-3.448 1.98-5.594h-.6zm-1.84 5.21c-1.195 1.434-2.78 2.363-4.768 2.785l.125.587c2.109-.447 3.815-1.442 5.104-2.988l-.461-.385zm-4.739 3.377a10.77 10.77 0 0 1 3.852 1.178l.279-.531a11.375 11.375 0 0 0-4.065-1.244l-.066.597zm3.855 1.18c1.23.63 2.217 1.483 2.963 2.558l.493-.342c-.805-1.16-1.868-2.077-3.183-2.75l-.273.533zm2.967 2.562c.768 1.065 1.154 2.276 1.154 3.643h.6c0-1.489-.422-2.823-1.268-3.994l-.486.351zm1.154 3.643c0 1.932-.512 3.49-1.515 4.698l.462.383c1.109-1.337 1.653-3.039 1.653-5.08h-.6zm-1.512 4.695c-1.015 1.195-2.395 2.099-4.154 2.705l.196.567c1.843-.635 3.32-1.594 4.415-2.883l-.457-.389zm-5.18-25.238a6.748 6.748 0 0 0-2.095-1.072l-.175.574a6.15 6.15 0 0 1 1.91.978l.36-.48zm-2.084-1.068c-.758-.264-1.759-.39-2.985-.39v.6c1.195 0 2.12.124 2.788.357l.197-.567zm-2.985-.39H9.62v.6h3.213v-.6zm-3.513.3v13.226h.6V10.558h-.6zm.3 13.526h3.772v-.6H9.62v.6zm3.772 0c1.146 0 2.123-.175 2.919-.54l-.25-.545c-.695.318-1.58.485-2.67.485v.6zm2.919-.54a6.965 6.965 0 0 0 2.043-1.41l-.425-.425a6.366 6.366 0 0 1-1.868 1.29l.25.545zm2.043-1.41a6.705 6.705 0 0 0 1.462-2.242l-.555-.226a6.105 6.105 0 0 1-1.332 2.043l.425.424zm1.462-2.242a7.033 7.033 0 0 0 .535-2.674h-.6c0 .829-.163 1.644-.49 2.448l.555.226zm.535-2.674c0-1.095-.21-2.13-.63-3.1l-.551.239c.387.892.58 1.845.58 2.861h.6zm-.627-3.092a5.56 5.56 0 0 0-1.82-2.409l-.363.478a4.96 4.96 0 0 1 1.626 2.154l.557-.223zm-.838 12.636c-.629-.497-1.4-.855-2.302-1.08l-.145.582c.836.209 1.525.534 2.075.969l.372-.471zm-2.302-1.08c-.903-.226-2.11-.335-3.612-.335v.6c1.48 0 2.632.108 3.467.317l.145-.582zm-3.612-.335H9.62v.6h3.352v-.6zm-3.652.3V38.87h.6V25.646h-.6zm.3 13.525h4.424v-.6H9.62v.6zm4.424 0c2.28 0 4.096-.539 5.41-1.655l-.39-.457c-1.17.995-2.83 1.512-5.02 1.512v.6zm5.407-1.653c1.365-1.132 2.017-2.91 2.017-5.26h-.6c0 2.245-.62 3.82-1.8 4.798l.383.462zm2.017-5.26c0-2.231-.862-4.07-2.576-5.493l-.383.462c1.576 1.309 2.36 2.978 2.36 5.031h.6zm13.8-15.972-.262-.146-.001.003.264.143zm5.961-6.008-.145-.262h-.002l.147.262zM57.947 10l-.137.267.004.002.133-.269zm5.867 5.495-.258.153.002.003.256-.156zm.093 17.649-.262-.145-.001.002.263.143zm-5.96 6.007-.146-.262H57.8l.147.262zm-16.718.326-.137.267.004.002.133-.269zm-5.867-5.541-.258.153.001.002.257-.155zm25.193-16.532-.269.134.002.005.267-.139zm-4.797-5.355-.163.252.005.003.158-.255zm-13.085-.186-.163-.252h-.002l.165.252zm-4.238 5.029.27.13.002-.002-.272-.128zm.186 15.18-.268.135.002.004.266-.138zm4.797 5.356-.163.252.005.003.158-.255zm13.085.14-.162-.252h-.002l.164.252zm4.284-4.983.271.13v-.002l-.27-.128zm-27.314-7.497c0-3.247.689-6.13 2.06-8.658l-.528-.286c-1.424 2.625-2.132 5.61-2.132 8.944h.6zm2.058-8.656c1.401-2.528 3.348-4.49 5.845-5.89l-.294-.524c-2.594 1.455-4.621 3.498-6.076 6.123l.525.291zm5.844-5.89c2.526-1.4 5.44-2.105 8.748-2.105v-.6c-3.396 0-6.412.724-9.04 2.18l.292.525zm8.748-2.105c2.748 0 5.309.61 7.687 1.83l.274-.534c-2.465-1.264-5.12-1.896-7.96-1.896v.6zm7.691 1.832c2.398 1.184 4.312 2.974 5.742 5.38l.516-.307c-1.487-2.5-3.486-4.373-5.992-5.61l-.266.537zm5.744 5.382c1.456 2.397 2.191 5.29 2.191 8.692h.6c0-3.49-.754-6.496-2.278-9.004l-.513.312zm2.191 8.692c0 3.246-.703 6.128-2.104 8.656l.525.29c1.455-2.626 2.18-5.61 2.18-8.946h-.6zM63.645 33c-1.37 2.526-3.316 4.487-5.843 5.888l.291.525c2.627-1.456 4.655-3.5 6.08-6.127L63.643 33zM57.8 38.889c-2.494 1.399-5.392 2.103-8.701 2.103v.6c3.397 0 6.398-.724 8.995-2.18l-.294-.523zm-8.701 2.103c-2.749 0-5.327-.595-7.737-1.785l-.266.538c2.495 1.232 5.164 1.847 8.003 1.847v-.6zm-7.733-1.783c-2.37-1.215-4.285-3.022-5.748-5.43l-.513.311c1.518 2.498 3.514 4.384 5.987 5.653l.274-.534zm-5.746-5.428c-1.427-2.397-2.147-5.291-2.147-8.694h-.6c0 3.489.739 6.493 2.23 9.001l.517-.307zm27.004-8.74c0-2.869-.6-5.463-1.803-7.776l-.532.277c1.155 2.219 1.735 4.716 1.735 7.498h.6zm-1.801-7.772c-1.172-2.343-2.807-4.172-4.907-5.476l-.316.51c1.999 1.241 3.56 2.983 4.686 5.234l.537-.268zm-4.902-5.473c-2.07-1.337-4.408-2.004-7.008-2.004v.6c2.491 0 4.716.637 6.682 1.908l.326-.504zm-7.008-2.004c-2.382 0-4.52.604-6.403 1.818l.325.504c1.78-1.146 3.803-1.722 6.078-1.722v-.6zm-6.405 1.819c-1.852 1.213-3.299 2.935-4.344 5.152l.542.256c1.004-2.13 2.382-3.76 4.131-4.906l-.329-.502zm-4.344 5.15c-1.047 2.19-1.566 4.735-1.566 7.627h.6c0-2.82.506-5.273 1.508-7.368l-.542-.258zm-1.566 7.627c0 2.867.584 5.475 1.755 7.818l.537-.268c-1.126-2.252-1.691-4.766-1.691-7.55h-.6zm1.757 7.822c1.203 2.31 2.836 4.135 4.9 5.47l.326-.505c-1.972-1.274-3.536-3.018-4.694-5.242l-.532.277zm4.905 5.472c2.099 1.304 4.451 1.954 7.05 1.954v-.6c-2.493 0-4.735-.622-6.734-1.864l-.316.51zm7.05 1.954c2.382 0 4.504-.604 6.358-1.818l-.33-.502c-1.747 1.145-3.753 1.72-6.028 1.72v.6zm6.356-1.817c1.882-1.212 3.346-2.918 4.392-5.105l-.541-.26c-1.003 2.097-2.396 3.714-4.176 4.86l.325.505zm4.393-5.107c1.046-2.22 1.565-4.78 1.565-7.672h-.6c0 2.82-.506 5.29-1.508 7.416l.543.256zm43.518-24.017.063.294-.063-.594v.3zm-1.304 1.071-.245-.172-.002.003.247.17zm-.605 32.271-.228.196.528.615v-.81h-.3zm-23.842-27.8.227-.196-.527-.615v.81h.3zm.791 25.472-.228.194.005.006.223-.2zm1.537 1.024v.3l.055-.595-.055.295zm-6.566 0-.063-.293.063.593v-.3zm1.304-1.024-.24-.18-.002.002.242.178zm-.373-29.384.232-.19-.232.19zm-2.7-1.63v-.3l-.06.594.06-.294zm5.774 0 .227-.195-.09-.105h-.137v.3zm21.84 25.472-.228.196.528.615v-.81h-.3zM98.011 8.695v-.3l-.078.59.078-.29zm6.503-.293c-.546.117-1.037.55-1.486 1.192l.491.344c.42-.6.798-.88 1.121-.95l-.126-.586zm-1.488 1.195c-.459.671-.658 1.809-.658 3.336h.6c0-1.516.205-2.489.553-2.997l-.495-.34zm-.658 3.336v29.104h.6V12.933h-.6zm.528 28.909-23.843-27.8-.455.39 23.842 27.8.456-.39zm-24.37-27.605v22.305h.6V14.237h-.6zm0 22.305c0 1.51.264 2.656.863 3.361l.457-.388c-.457-.537-.72-1.501-.72-2.973h-.6zm.868 3.367c.548.613 1.115 1.009 1.705 1.12l.11-.59c-.404-.076-.861-.363-1.368-.93l-.447.4zm1.76.524h-6.566v.6h6.566v-.6zm-6.503.594c.54-.116 1.03-.527 1.482-1.14l-.483-.356c-.417.566-.796.839-1.125.91l.126.586zm1.48-1.138c.528-.703.76-1.86.76-3.393h-.6c0 1.509-.235 2.494-.64 3.033l.48.36zm.76-3.393V13.212h-.6v23.284h.6zm0-23.284c0-1.13-.385-2.158-1.14-3.077l-.464.38c.674.82 1.003 1.716 1.003 2.697h.6zm-1.14-3.077c-.757-.922-1.718-1.503-2.874-1.734l-.117.588c1.017.204 1.857.71 2.527 1.526l.464-.38zm-2.933-1.14h5.775v-.6h-5.775v.6zm5.547-.105 21.84 25.473.456-.39L78.821 8.5l-.456.39zm22.368 25.277V12.933h-.6v21.234h.6zm0-21.234c0-1.225-.206-2.233-.645-3.001-.445-.778-1.117-1.289-1.999-1.526l-.156.579c.733.197 1.271.61 1.634 1.244.368.645.566 1.538.566 2.704h.6zm-2.722-3.938h6.566v-.6h-6.566v.6zm16.103 31.738v-.3h-.3v.3h.3zm.559-.186.151.26.008-.005.008-.005-.167-.25zm1.025-1.304.268.134.003-.005-.271-.129zm0-29.011-.276.118.003.008.004.008.269-.134zm-.978-1.304-.151.26.151-.26zm-.559-.233h-.3v.3h.3v-.3zm7.404 0v.3h.3v-.3h-.3zm-.559.233.151.26-.151-.26zm-1.024 1.304.268.134.003-.005-.271-.13zm0 29.011-.271.13.003.004.268-.134zm1.024 1.258-.151.259.151-.26zm.559.232h.3v-.3h-.3v.3zm-7.751 0a.34.34 0 0 0 .081.223.343.343 0 0 0 .205.114.526.526 0 0 0 .249-.029c.125-.041.287-.125.475-.235l-.302-.518a2.276 2.276 0 0 1-.363.184c-.04.013-.014-.003.04.006a.26.26 0 0 1 .215.255h-.6zm1.026.064c.433-.29.804-.775 1.126-1.42l-.537-.268c-.298.598-.611.98-.922 1.188l.333.5zm1.129-1.425c.338-.711.494-1.71.494-2.97h-.6c0 1.225-.154 2.12-.436 2.712l.542.258zm.494-2.97V13.027h-.6v23.377h.6zm0-23.376c0-1.257-.155-2.245-.497-2.928l-.537.268c.279.558.434 1.434.434 2.66h.6zm-.49-2.912c-.289-.676-.648-1.18-1.102-1.445l-.302.518c.291.17.584.535.853 1.163l.551-.236zm-1.102-1.445a4.204 4.204 0 0 0-.455-.24.673.673 0 0 0-.195-.053.342.342 0 0 0-.202.043.317.317 0 0 0-.158.276h.6a.281.281 0 0 1-.14.242c-.074.044-.14.038-.15.037-.027-.002-.029-.008.014.01.074.03.199.095.384.203l.302-.518zm-.71.326h7.404v-.6h-7.404v.6zm7.704-.3a.318.318 0 0 0-.157-.276.346.346 0 0 0-.203-.043.673.673 0 0 0-.195.054c-.113.047-.267.13-.455.239l.302.518c.185-.108.31-.173.384-.203.043-.018.041-.012.014-.01-.01 0-.076.007-.15-.036a.288.288 0 0 1-.14-.243h.6zm-1.01-.026c-.449.262-.823.76-1.144 1.434l.542.258c.3-.63.609-1.001.904-1.174l-.302-.518zm-1.141 1.429c-.342.683-.498 1.67-.498 2.928h.6c0-1.226.155-2.102.434-2.66l-.536-.268zm-.498 2.928v23.377h.6V13.026h-.6zm0 23.377c0 1.258.156 2.258.495 2.97l.542-.259c-.282-.592-.437-1.486-.437-2.711h-.6zm.498 2.974c.322.645.696 1.123 1.141 1.383l.302-.519c-.3-.175-.608-.534-.907-1.132l-.536.268zm1.141 1.383c.188.11.342.192.455.239.05.02.122.048.195.054a.346.346 0 0 0 .203-.044.318.318 0 0 0 .157-.276h-.6a.288.288 0 0 1 .14-.242c.074-.043.14-.037.15-.036.027.002.029.008-.014-.01a3.686 3.686 0 0 1-.384-.204l-.302.519zm.71-.327h-7.451v.6h7.451v-.6zm35.09-2.54.189.232.111-.09v-.142h-.3zm-4.611 2.421-.097-.283.097.283zm-13.783-1.024.142-.264-.142.264zm-6.008-5.774-.258.152.002.003.256-.155zm-.186-17.37-.262-.146-.001.003.263.143zm5.914-5.868.144.263h.002l-.146-.263zm18.674.233h.3v-.175l-.154-.086-.146.261zm0 5.17-.262.147.562.995V15.68h-.3zm-4.191-4.052-.147.262.003.002.144-.264zm-12.76.326-.161-.253h-.002l.163.253zm-4.424 5.122.271.13.001-.002-.272-.128zm.187 15.088-.267.137.001.003.266-.14zm4.749 5.169-.156.256.003.002.153-.258zm16.439-1.676h.3v-.67l-.5.446.2.224zm-.19 2.002c-1.145.935-2.648 1.727-4.518 2.37l.195.568c1.917-.66 3.488-1.482 4.702-2.473l-.379-.465zm-4.518 2.37c-1.864.642-3.74.962-5.63.962v.6c1.959 0 3.901-.332 5.825-.994l-.195-.567zm-5.63.962c-2.839 0-5.476-.656-7.914-1.966l-.284.528c2.528 1.359 5.262 2.038 8.198 2.038v-.6zm-7.914-1.966c-2.435-1.309-4.398-3.195-5.893-5.666l-.513.31c1.547 2.56 3.589 4.523 6.122 5.884l.284-.528zm-5.892-5.663c-1.458-2.462-2.193-5.357-2.193-8.695h-.6c0 3.429.756 6.433 2.277 9l.516-.305zm-2.193-8.695c0-3.122.673-5.913 2.013-8.379l-.527-.286c-1.393 2.563-2.086 5.454-2.086 8.665h.6zm2.011-8.376c1.37-2.465 3.3-4.38 5.796-5.75l-.288-.527c-2.595 1.424-4.607 3.42-6.032 5.985l.524.292zm5.798-5.751c2.525-1.4 5.469-2.105 8.842-2.105v-.6c-3.458 0-6.505.724-9.133 2.18l.291.525zm8.842-2.105c3.587 0 6.764.782 9.539 2.337l.293-.523c-2.875-1.612-6.155-2.414-9.832-2.414v.6zm9.386 2.075v5.17h.6v-5.17h-.6zm.561 5.022c-.992-1.76-2.431-3.15-4.309-4.168l-.287.528c1.786.968 3.14 2.28 4.073 3.935l.523-.295zm-4.306-4.166a12.132 12.132 0 0 0-6.014-1.575v.6c2.028 0 3.934.5 5.721 1.499l.293-.524zm-6.014-1.575c-2.688 0-5.042.633-7.053 1.91l.322.506c1.901-1.207 4.141-1.816 6.731-1.816v-.6zm-7.055 1.91c-1.974 1.274-3.485 3.026-4.532 5.247l.543.256c1.001-2.125 2.439-3.788 4.315-4.998l-.326-.504zm-4.531 5.246c-1.046 2.187-1.566 4.638-1.566 7.347h.6c0-2.63.504-4.991 1.507-7.088l-.541-.26zm-1.566 7.347c0 3.05.581 5.722 1.756 8.007l.533-.274c-1.123-2.185-1.689-4.76-1.689-7.733h-.6zm1.757 8.01c1.203 2.279 2.822 4.044 4.859 5.285l.312-.512c-1.936-1.18-3.483-2.861-4.64-5.053l-.531.28zm4.862 5.287c2.036 1.209 4.309 1.812 6.812 1.812v-.6c-2.402 0-4.568-.578-6.505-1.728l-.307.516zm6.812 1.812c4.006 0 7.34-1.17 9.979-3.523l-.399-.447c-2.514 2.241-5.699 3.37-9.58 3.37v.6zm9.48-3.746v2.235h.6v-2.235h-.6zM171.98 28.3V28h-.203l-.075.188.278.112zM169 35.704l.278.113-.278-.113zm.698 5.03v.3l.127-.572-.127.271zm-5.309-.932-.217-.207.217.207zm2.049-3.679.277.117-.277-.117zm12.154-28.918.277-.115-.275-.663-.278.662.276.116zm12.061 29.058.278-.113-.001-.002-.277.115zm1.956 3.446-.212.212.005.005.207-.217zm1.537 1.024v.3l.049-.596-.049.296zm-7.73 0-.13-.27.13.57v-.3zm.419-4.517.277-.114-.277.114zm-3.26-7.916.278-.114-.077-.186h-.201v.3zm-.745-1.91v.3h.447l-.169-.413-.278.114zm-5.076-12.433.278-.113-.28-.687-.276.689.278.111zm-4.982 12.434-.279-.112-.165.412h.444v-.3zm-1.07 1.797-2.981 7.404.557.224 2.98-7.404-.556-.224zm-2.98 7.403c-.472 1.164-.721 2.153-.721 2.954h.6c0-.69.217-1.595.677-2.728l-.556-.226zm-.721 2.954c0 .558.128 1.055.396 1.477.269.42.667.746 1.174.983l.254-.544c-.424-.197-.725-.454-.922-.762-.197-.308-.302-.689-.302-1.154h-.6zm1.697 1.888h-6.659v.6h6.659v-.6zm-6.659.6c.247 0 .499-.119.741-.285.249-.172.525-.421.827-.74l-.435-.413a4.98 4.98 0 0 1-.733.659c-.208.143-.337.18-.4.18v.6zm1.568-1.024c.631-.664 1.331-1.936 2.108-3.769l-.553-.234c-.776 1.831-1.441 3.012-1.99 3.59l.435.413zm2.108-3.77 12.154-28.918-.553-.232-12.154 28.918.553.233zm11.6-28.919 12.061 29.058.554-.23L178.869 7.09l-.554.23zm12.06 29.056c.686 1.683 1.356 2.88 2.022 3.545l.424-.424c-.576-.576-1.209-1.677-1.89-3.347l-.556.226zm2.027 3.55c.334.318.638.57.914.754.272.182.534.308.781.35l.098-.593c-.126-.02-.306-.096-.546-.256a6.451 6.451 0 0 1-.833-.69l-.414.435zm1.744.507h-7.73v.6h7.73v-.6zm-7.6.57c.424-.203.761-.471.991-.812.232-.342.343-.74.343-1.18h-.6c0 .335-.083.613-.24.844-.158.234-.403.44-.754.608l.26.54zm1.334-1.993c0-.713-.268-1.69-.768-2.907l-.555.227c.494 1.204.723 2.09.723 2.68h.6zm-.768-2.908-3.259-7.916-.555.228 3.259 7.917.555-.229zM183.575 28H171.98v.6h11.595V28zm-.467-1.723-5.076-12.433-.556.227 5.076 12.433.556-.227zm-5.632-12.431-4.983 12.433.557.223 4.983-12.433-.557-.223zm-4.704 12.845h10.058v-.6h-10.058v.6z"/>
    </g>
    <defs>
        <clipPath id="r68r2o40ua">
            <path fill="#fff" transform="translate(.306 .733)" d="M0 0h194.776v48.134H0z"/>
        </clipPath>
    </defs>
</svg>
