<svg width="82" height="82" viewBox="0 0 82 82" fill="none" xmlns="http://www.w3.org/2000/svg">
<path d="M41.9044 20.9851C41.9044 21.3797 41.5843 21.7014 41.1881 21.7014C40.792 21.7014 40.4719 21.3796 40.4719 20.9835V14.5221C40.4719 14.1276 40.7936 13.8059 41.1881 13.8059C41.5827 13.8059 41.9044 14.126 41.9044 14.5221V20.9851Z" fill="black"/>
<path d="M28.5139 35.6596L39.8093 24.8056H26.2419L28.5139 35.6596Z" fill="black"/>
<path d="M56.1342 24.8056H42.5668L53.8622 35.6596L56.1342 24.8056Z" fill="black"/>
<path d="M52.0697 36.5876L41.1881 26.1301L30.3065 36.5876H52.0697Z" fill="black"/>
<path d="M41.1881 67.7933L29.3487 38.4981H53.0274L41.1881 67.7933Z" fill="black"/>
<path d="M57.9166 25.6118L68.8914 36.5877H55.6202L57.9166 25.6118Z" fill="black"/>
<path d="M13.3755 38.4981L38.9595 67.3774L27.2902 38.4981H13.3755Z" fill="black"/>
<path d="M43.416 67.3774L55.0853 38.4981H69L43.416 67.3774Z" fill="black"/>
<path d="M24.4605 25.6118L13.4857 36.5877H26.7571L24.4605 25.6118Z" fill="black"/>
<path d="M27.2693 21.2581C27.3858 21.5346 27.6534 21.7014 27.9331 21.7014C28.0236 21.7014 28.1156 21.6842 28.206 21.6474C28.573 21.4962 28.7466 21.0772 28.5954 20.7123L26.2245 14.9619C26.0717 14.597 25.6527 14.425 25.2874 14.5726C24.9225 14.7239 24.7468 15.1428 24.8981 15.5077L27.2693 21.2581Z" fill="black"/>
<path d="M54.4424 21.6998C54.352 21.6998 54.26 21.6822 54.1695 21.6458C53.8026 21.4961 53.629 21.0756 53.7802 20.7087L56.1514 14.9583C56.3046 14.5934 56.7252 14.4229 57.0885 14.569C57.4534 14.7202 57.6291 15.1412 57.4778 15.5061L55.1067 21.2565C54.9898 21.5329 54.7221 21.6998 54.4424 21.6998Z" fill="black"/>
<path d="M69.6583 61.6283L69.6582 61.6286C69.4825 62.1549 69.1353 62.537 68.8012 62.8139C68.4703 63.0882 68.0893 63.3098 67.7647 63.4901C67.671 63.5422 67.5826 63.5905 67.4985 63.6366C67.2648 63.7645 67.0635 63.8746 66.8725 63.9961C66.616 64.1594 66.4823 64.2812 66.4178 64.3692C66.3597 64.4485 66.2872 64.6058 66.2138 64.9027C66.1603 65.1194 66.1212 65.3406 66.0756 65.5985C66.0578 65.6992 66.039 65.8055 66.0179 65.9193C65.9496 66.289 65.8584 66.7294 65.6951 67.1369C65.5314 67.5457 65.2664 67.9959 64.8041 68.3201C64.3513 68.6536 63.8463 68.7702 63.4027 68.8019C62.9628 68.8333 62.5175 68.7851 62.147 68.7367C62.0338 68.722 61.9285 68.7074 61.8289 68.6936C61.5709 68.6579 61.3508 68.6275 61.1295 68.6123C60.8298 68.5919 60.655 68.6125 60.5535 68.6463L69.6583 61.6283ZM69.6583 61.6283C69.8366 61.0933 69.7798 60.5758 69.6689 60.1533C69.5598 59.7376 69.3762 59.3349 69.2173 59.0013C69.1786 58.92 69.1414 58.8427 69.1056 58.7685C68.9815 58.511 68.8749 58.2899 68.7868 58.0657C68.6755 57.7823 68.6348 57.5896 68.6348 57.4553C68.6348 57.321 68.6755 57.1284 68.7868 56.845C68.8749 56.6209 68.9814 56.3999 69.1055 56.1425C69.1413 56.0682 69.1786 55.9909 69.2173 55.9096C69.3762 55.5759 69.5598 55.1733 69.6689 54.7575C69.7793 54.337 69.836 53.8223 69.6608 53.29M69.6583 61.6283L69.6608 53.29M69.6608 53.29C69.4892 52.7531 69.148 52.3612 68.8067 52.0744C68.4703 51.7916 68.0839 51.57 67.7564 51.3921C67.65 51.3343 67.5512 51.2817 67.458 51.2321C67.2361 51.1141 67.0461 51.0131 66.8622 50.8991C66.6189 50.7484 66.4907 50.6352 66.4266 50.5531C66.3567 50.4459 66.2845 50.2697 66.2143 49.9831C66.1611 49.7661 66.1223 49.5484 66.0776 49.2973C66.0591 49.1932 66.0396 49.0835 66.0175 48.9656C65.949 48.5988 65.8574 48.1634 65.693 47.7596C65.5268 47.3514 65.2599 46.9084 64.7995 46.5873C64.3522 46.2641 63.8475 46.1619 63.4211 46.135C62.9936 46.108 62.553 46.1525 62.1827 46.1963C62.0869 46.2076 61.9959 46.2188 61.9087 46.2296C61.6298 46.2641 61.3895 46.2938 61.1533 46.3063C60.8463 46.3227 60.6617 46.3004 60.5535 46.2644L69.6608 53.29ZM44.1144 53.2824L44.1145 53.2821C44.2902 52.7557 44.6374 52.3736 44.9715 52.0967C45.3024 51.8225 45.6834 51.6009 46.008 51.4205C46.1017 51.3685 46.1901 51.3201 46.2743 51.2741C46.5079 51.1462 46.7092 51.0361 46.9002 50.9145C47.1567 50.7513 47.2903 50.6294 47.3549 50.5414L44.1144 53.2824ZM44.1144 53.2824C43.9361 53.8174 43.9929 54.3349 44.1038 54.7573M44.1144 53.2824L44.1038 54.7573M60.0539 45.941C60.2879 46.1371 60.4461 46.2286 60.5534 46.2644L60.0539 45.941ZM60.0539 45.941C59.8834 45.798 59.7229 45.6444 59.5361 45.4658M60.0539 45.941L59.5361 45.4658M59.5361 45.4658C59.4607 45.3936 59.381 45.3174 59.2947 45.2361M59.5361 45.4658L59.2947 45.2361M59.2947 45.2361C59.0204 44.978 58.6873 44.6782 58.3134 44.4445M59.2947 45.2361L58.3134 44.4445M58.3134 44.4445C57.933 44.2067 57.4525 44 56.8863 44M58.3134 44.4445L56.8863 44M56.8863 44C56.3203 44 55.8398 44.2067 55.4594 44.4444M56.8863 44L55.4594 44.4444M55.4594 44.4444C55.0855 44.678 54.7524 44.9777 54.4781 45.2359M55.4594 44.4444L54.4781 45.2359M54.4781 45.2359C54.3916 45.3173 54.3118 45.3936 54.2363 45.4658M54.4781 45.2359L54.2363 45.4658M54.2363 45.4658C54.0497 45.6443 53.8892 45.7978 53.7188 45.9408M54.2363 45.4658L53.7188 45.9408M53.7188 45.9408C53.49 46.1326 53.3335 46.2245 53.2262 46.262M53.7188 45.9408L53.2262 46.262M53.2262 46.262C53.0921 46.3026 52.8925 46.3222 52.5923 46.3063C52.352 46.2936 52.1094 46.2634 51.8289 46.2285C51.7455 46.2181 51.6588 46.2073 51.5677 46.1964C51.202 46.1527 50.766 46.1079 50.3419 46.1351C49.9165 46.1623 49.4179 46.266 48.9732 46.5873C48.5081 46.9117 48.2419 47.3636 48.0776 47.7737C47.9143 48.1813 47.8231 48.6216 47.7548 48.9914C47.7337 49.1052 47.7149 49.2115 47.6971 49.3122C47.6515 49.5701 47.6124 49.7913 47.5589 50.008C47.4855 50.3048 47.413 50.4622 47.3549 50.5414L53.2262 46.262ZM44.1038 54.7573C44.2129 55.1731 44.3965 55.5757 44.5554 55.9094M44.1038 54.7573L44.5554 55.9094M44.5554 55.9094C44.5941 55.9907 44.6313 56.0679 44.6671 56.1421M44.5554 55.9094L44.6671 56.1421M44.6671 56.1421C44.7912 56.3997 44.8978 56.6207 44.9858 56.8449M44.6671 56.1421L44.9858 56.8449M44.9858 56.8449C45.0972 57.1284 45.1379 57.321 45.1379 57.4553M44.9858 56.8449L45.1379 57.4553M45.1379 57.4553C45.1379 57.5896 45.0972 57.7822 44.9859 58.0656M45.1379 57.4553L44.9859 58.0656M44.9859 58.0656C44.8978 58.2898 44.7913 58.5107 44.6672 58.7682M44.9859 58.0656L44.6672 58.7682M44.6672 58.7682C44.6314 58.8425 44.5941 58.9198 44.5554 59.0011M44.6672 58.7682L44.5554 59.0011M44.5554 59.0011C44.3965 59.3347 44.2129 59.7374 44.1038 60.1531M44.5554 59.0011L44.1038 60.1531M44.1038 60.1531C43.9934 60.5737 43.9367 61.0883 44.1119 61.6206M44.1038 60.1531L44.1119 61.6206M44.1119 61.6206C44.2834 62.1575 44.6246 62.5494 44.966 62.8363C45.3024 63.119 45.6888 63.3407 46.0163 63.5186C46.1227 63.5764 46.2215 63.6289 46.3148 63.6785C46.5366 63.7965 46.7266 63.8976 46.9105 64.0115C47.1538 64.1623 47.282 64.2754 47.3461 64.3576C47.416 64.4647 47.4882 64.641 47.5584 64.9276C47.6116 65.1446 47.6503 65.3623 47.6951 65.6134C47.7136 65.7174 47.7331 65.8272 47.7551 65.9451C47.8237 66.3118 47.9152 66.7473 48.0797 67.1511C48.2459 67.5593 48.5129 68.0023 48.9733 68.3234C49.4206 68.6466 49.9252 68.7488 50.3516 68.7757C50.7791 68.8026 51.2197 68.7582 51.59 68.7144C51.6858 68.7031 51.7768 68.6918 51.864 68.6811C52.1429 68.6466 52.3832 68.6169 52.6194 68.6043C52.9265 68.588 53.1111 68.6102 53.2193 68.6463C53.3266 68.6821 53.4848 68.7736 53.7188 68.9697C53.8893 69.1127 54.0498 69.2663 54.2365 69.4449C54.312 69.517 54.3917 69.5933 54.478 69.6745C54.7523 69.9327 55.0854 70.2325 55.4593 70.4662C55.8397 70.7039 56.3202 70.9107 56.8863 70.9107C57.4524 70.9107 57.9329 70.704 58.3133 70.4663C58.6872 70.2327 59.0203 69.9329 59.2946 69.6748C59.3811 69.5934 59.4608 69.5171 59.5364 69.4448C59.723 69.2664 59.8835 69.1128 60.0539 68.9699C60.2877 68.7739 60.4459 68.6823 60.5534 68.6463L44.1119 61.6206ZM54.7251 59.1737L55.4322 59.8808L56.1393 59.1737L60.5649 54.7481C60.7893 54.5237 61.2544 54.4778 61.5877 54.7808L61.5877 54.7808C61.7835 54.9589 61.8652 55.3785 61.5339 55.7559L55.9266 61.3635C55.7901 61.5 55.5991 61.5765 55.4323 61.5765C55.2656 61.5765 55.0746 61.5 54.938 61.3635C54.938 61.3635 54.938 61.3635 54.938 61.3635L52.156 58.5815C51.9359 58.3614 51.8875 57.9096 52.1718 57.5779C52.3983 57.3698 52.84 57.3308 53.1644 57.613L54.7251 59.1737Z" fill="black" stroke="white" stroke-width="2"/>
</svg>
