<svg width="82" height="82" viewBox="0 0 82 82" fill="none" xmlns="http://www.w3.org/2000/svg">
<path fill-rule="evenodd" clip-rule="evenodd" d="M40.8126 20.8955C41.2088 20.8955 41.5289 20.5738 41.5289 20.1792V13.7162C41.5289 13.3201 41.2072 13 40.8126 13C40.4181 13 40.0964 13.3217 40.0964 13.7162V20.1776C40.0964 20.5737 40.4165 20.8955 40.8126 20.8955ZM39.4339 23.9997L28.1384 34.8537L25.8664 23.9997H39.4339ZM55.7587 23.9997H42.1913L53.4867 34.8537L55.7587 23.9997ZM40.8126 25.3242L51.6942 35.7817H29.931L40.8126 25.3242ZM40.8126 66.9874L28.9732 37.6922H52.6519L49.9704 44.3273C49.9478 44.3284 49.9251 44.3297 49.9024 44.3312C49.3744 44.365 48.6704 44.4977 48.0188 44.9659C47.342 45.4405 46.9793 46.0828 46.7737 46.5959C46.5706 47.1028 46.4653 47.6278 46.3958 48.0037C46.3706 48.1404 46.3497 48.2586 46.331 48.3643L46.331 48.3644L46.3309 48.3648C46.2886 48.6044 46.2575 48.7799 46.2125 48.9622C46.1904 49.0514 46.1719 49.1101 46.1596 49.1453C46.1287 49.1697 46.0745 49.2097 45.9877 49.2649C45.8264 49.3676 45.6644 49.4563 45.4444 49.5766C45.3559 49.6251 45.2579 49.6787 45.1468 49.7405C44.8176 49.9234 44.3657 50.1828 43.9578 50.5208C43.5435 50.8642 43.0465 51.392 42.7902 52.1602C42.5284 52.9457 42.6222 53.6765 42.761 54.2053C42.8963 54.7207 43.1172 55.1979 43.2769 55.5334C43.3222 55.6284 43.3634 55.7139 43.4012 55.7925C43.5204 56.04 43.6062 56.2181 43.6795 56.4046C43.7336 56.5424 43.7527 56.6191 43.7593 56.6494C43.7527 56.6797 43.7336 56.7563 43.6795 56.894C43.6063 57.0805 43.5205 57.2586 43.4013 57.506C43.3635 57.5845 43.3222 57.6701 43.277 57.7652C43.1172 58.1006 42.8963 58.5779 42.761 59.0933C42.6231 59.6188 42.5296 60.3435 42.7851 61.1231C42.841 61.2973 42.9089 61.4597 42.9855 61.6108L40.8126 66.9874ZM43.0405 66.5715L44.4226 63.151C44.6916 63.3311 44.9528 63.477 45.1634 63.5914C45.2923 63.6614 45.4021 63.7198 45.4995 63.7716L45.514 63.7793L43.0405 66.5715ZM61.6897 44.3972C61.9778 44.3632 62.3535 44.3224 62.7521 44.321L68.6245 37.6922H54.7098L51.9683 44.4768C52.0735 44.4881 52.1709 44.4966 52.2695 44.5018C52.4024 44.5088 52.4836 44.5053 52.5265 44.5018C52.5582 44.4807 52.6152 44.4402 52.7007 44.3685C52.845 44.2475 52.9727 44.1254 53.1457 43.9598L53.1465 43.9591L53.1473 43.9583C53.226 43.883 53.314 43.7989 53.4172 43.7017C53.6971 43.4383 54.0907 43.0799 54.5539 42.7904C55.0301 42.4928 55.6947 42.1941 56.5108 42.1941C57.327 42.1941 57.9916 42.4929 58.4679 42.7906C58.9311 43.0801 59.3246 43.4386 59.6045 43.702C59.7083 43.7997 59.7967 43.8843 59.8756 43.9598C60.0488 44.1256 60.1765 44.2477 60.3208 44.3687C60.4084 44.4421 60.466 44.4828 60.4971 44.5033C60.5348 44.5057 60.6071 44.5081 60.7246 44.5018C60.9231 44.4913 61.1181 44.4672 61.3845 44.4343L61.3847 44.4343L61.3848 44.4343C61.4769 44.4229 61.5775 44.4105 61.6897 44.3972ZM68.516 35.7818L57.5411 24.8059L55.2448 35.7818H68.516ZM13 37.6922L38.584 66.5715L26.9147 37.6922H13ZM24.085 24.8059L13.1102 35.7818H26.3816L24.085 24.8059ZM27.5577 20.8955C27.278 20.8955 27.0103 20.7287 26.8938 20.4522L24.5226 14.7018C24.3714 14.3369 24.547 13.918 24.9119 13.7667C25.2773 13.6191 25.6962 13.7911 25.849 14.156L28.2199 19.9064C28.3711 20.2713 28.1975 20.6902 27.8306 20.8415C27.7401 20.8783 27.6481 20.8955 27.5577 20.8955ZM54.067 20.8939C53.9765 20.8939 53.8845 20.8763 53.7941 20.8399C53.4271 20.6902 53.2535 20.2697 53.4047 19.9028L55.7759 14.1524C55.9291 13.7875 56.3497 13.617 56.713 13.7631C57.0779 13.9143 57.2536 14.3353 57.1023 14.7002L54.7312 20.4505C54.6143 20.727 54.3466 20.8939 54.067 20.8939ZM64.7099 64.6483C64.5642 65.4728 64.4163 66.3092 63.845 66.702C63.2743 67.1301 62.4421 67.0149 61.6208 66.9012C60.9861 66.8133 60.3579 66.7263 59.8617 66.8916C59.3684 67.0563 58.9106 67.4942 58.4473 67.9374C57.8419 68.5165 57.227 69.1047 56.5108 69.1047C55.7947 69.1047 55.1798 68.5165 54.5746 67.9375C54.1111 67.4941 53.6533 67.0561 53.1599 66.8916C52.654 66.7231 51.9983 66.8043 51.3426 66.8854C50.523 66.9869 49.7034 67.0884 49.1766 66.702C48.6024 66.3073 48.456 65.4849 48.3096 64.6625C48.198 64.0359 48.0864 63.4093 47.7857 62.9719C47.4852 62.5622 46.937 62.2705 46.3805 61.9745C45.6488 61.5852 44.903 61.1885 44.6876 60.5061C44.4781 59.8774 44.8279 59.1524 45.183 58.4162C45.4709 57.8195 45.7623 57.2154 45.7623 56.6494C45.7623 56.0833 45.4709 55.4791 45.183 54.8823C44.8278 54.1461 44.4781 53.4211 44.6876 52.7927C44.9007 52.1539 45.6318 51.7541 46.3551 51.3585C46.9202 51.0493 47.4806 50.7428 47.7857 50.3269C48.0884 49.9143 48.1994 49.2859 48.3117 48.6505C48.4574 47.826 48.6053 46.9896 49.1766 46.5968C49.7018 46.2118 50.498 46.3112 51.3081 46.4123C51.9614 46.4938 52.6236 46.5765 53.1599 46.4072C53.6532 46.2425 54.111 45.8046 54.5743 45.3613C55.1797 44.7823 55.7946 44.1941 56.5108 44.1941C57.2269 44.1941 57.8418 44.7823 58.447 45.3613C58.9104 45.8047 59.3683 46.2427 59.8617 46.4072C60.3676 46.5757 61.0233 46.4945 61.679 46.4133C62.4986 46.3119 63.3182 46.2104 63.845 46.5968C64.4192 46.9915 64.5656 47.8139 64.712 48.6363C64.8236 49.2629 64.9352 49.8895 65.2359 50.3269C65.5364 50.7366 66.0846 51.0283 66.6411 51.3243C67.3728 51.7135 68.1186 52.1103 68.334 52.7927C68.5435 53.4214 68.1937 54.1464 67.8386 54.8826C67.5507 55.4793 67.2593 56.0834 67.2593 56.6494C67.2593 57.2155 67.5507 57.8197 67.8386 58.4165C68.1938 59.1527 68.5435 59.8777 68.334 60.5061C68.1209 61.1449 67.3898 61.5447 66.6665 61.9403C66.1014 62.2494 65.541 62.556 65.2359 62.9719C64.9332 63.3845 64.8222 64.0128 64.7099 64.6483ZM55.0567 61.7705C55.4996 61.7705 55.9419 61.5809 56.2581 61.2647L61.8849 55.6377C62.5173 54.9422 62.5804 53.8675 61.8849 53.235C61.1894 52.6026 60.1147 52.6026 59.4822 53.235L55.0566 57.6606L53.476 56.08C52.7805 55.4476 51.7058 55.4476 51.0734 56.08C50.4409 56.7755 50.4409 57.8503 51.0734 58.4827L53.8554 61.2647C54.1716 61.5809 54.6139 61.7705 55.0567 61.7705Z" fill="black"/>
</svg>
