<svg width="24" height="24" viewBox="0 0 24 24" fill="none" xmlns="http://www.w3.org/2000/svg">
<rect width="24" height="24" fill="white"/>
<path d="M4.84975 2.617C2.17739 2.617 0 4.79499 0 7.46812C0 9.3084 1.03743 10.907 2.55249 11.7288V17.4256H2.04207L2.0419 17.4258C2.02604 17.4249 2.01002 17.4249 1.99399 17.4258C1.85863 17.432 1.73129 17.4919 1.64011 17.5921C1.54874 17.6924 1.50101 17.8249 1.50742 17.9603C1.51365 18.0958 1.57367 18.2231 1.67394 18.3145C1.77403 18.4057 1.90654 18.4534 2.04189 18.447H4.1317C4.37409 19.8946 5.63327 21.0002 7.14673 21.0002C8.66038 21.0002 9.91934 19.8946 10.1618 18.447H15.6174C15.8598 19.8946 17.119 21.0002 18.6325 21.0002C20.1461 21.0002 21.4051 19.8946 21.6475 18.447H23.4823C23.6189 18.449 23.7507 18.3961 23.8479 18.3001C23.9453 18.2041 24 18.073 24 17.9364C24 17.7996 23.9453 17.6687 23.8479 17.5727C23.7507 17.4767 23.6189 17.4238 23.4823 17.4258H23.2271V11.8087C23.2281 11.671 23.1734 11.5387 23.0755 11.4418L19.5021 7.86723C19.4058 7.77408 19.277 7.72261 19.1431 7.72351H14.5487V5.68089V5.68106C14.5487 5.39896 14.3202 5.17047 14.0382 5.17028H9.1087C8.28711 3.65467 6.68907 2.61706 4.8493 2.61706L4.84975 2.617ZM4.33933 3.6703V3.89363C4.33737 4.03023 4.39027 4.16203 4.48626 4.25944C4.58208 4.35669 4.71316 4.41154 4.84977 4.41154C4.98637 4.41154 5.11745 4.35669 5.21327 4.25944C5.30926 4.16203 5.36216 4.03023 5.3602 3.89363V3.6703C7.06958 3.8972 8.41973 5.24773 8.64647 6.95766H8.42313V6.95748C8.40728 6.95677 8.39125 6.95677 8.3754 6.95748C8.23987 6.96389 8.11253 7.02373 8.02134 7.124C7.92998 7.22427 7.88225 7.3566 7.88866 7.49213C7.89507 7.62749 7.95491 7.75482 8.05518 7.84619C8.15545 7.93737 8.28777 7.98511 8.42313 7.97869H8.64646C8.41974 9.68844 7.06958 11.0391 5.3602 11.2661V11.0427C5.3634 10.8956 5.30303 10.7544 5.19456 10.655C5.0861 10.5556 4.94006 10.5079 4.79384 10.5241C4.53097 10.5529 4.33362 10.7781 4.33933 11.0427V11.2661C2.62995 11.0392 1.2798 9.68844 1.05307 7.97869H1.2764C1.413 7.98065 1.54462 7.92775 1.64203 7.83176C1.73928 7.73576 1.79413 7.60468 1.79413 7.46808C1.79413 7.3313 1.73928 7.2004 1.64203 7.1044C1.54462 7.0084 1.413 6.95551 1.2764 6.95747H1.05307C1.27979 5.24754 2.62995 3.89702 4.33933 3.67011V3.6703ZM4.79402 5.41761H4.79384C4.53097 5.44646 4.33362 5.67158 4.33933 5.93623V7.46826V7.46808C4.3404 7.60308 4.3949 7.7322 4.49089 7.82713L5.51195 8.84832L5.51177 8.8485C5.60741 8.94681 5.7385 9.00255 5.87563 9.00309C6.01277 9.00362 6.14438 8.94912 6.24091 8.85153C6.33726 8.75393 6.39051 8.62178 6.38838 8.48464C6.38624 8.34751 6.32907 8.21696 6.22969 8.12239L5.36023 7.25275V5.93624C5.36343 5.78913 5.30306 5.6479 5.1946 5.54852C5.08613 5.44914 4.94009 5.40141 4.79387 5.41762L4.79402 5.41761ZM9.52386 6.19165H13.528V17.4258H10.162C9.91638 15.982 8.65777 14.8726 7.14695 14.8726C5.63613 14.8726 4.37753 15.982 4.13192 17.4258H3.57358V12.1438C3.98071 12.2553 4.40798 12.3194 4.84983 12.3194C7.52218 12.3194 9.69957 10.1415 9.69957 7.46833C9.69957 7.02629 9.63546 6.59905 9.52414 6.19172L9.52386 6.19165ZM14.5487 8.74487H18.9358L22.2061 12.0162V17.4258H21.6477C21.4021 15.982 20.1435 14.8726 18.6327 14.8726C17.1219 14.8726 15.8633 15.982 15.6177 17.4258H14.5489V8.74487H14.5487ZM16.0322 9.76606H16.0324C15.7692 9.79082 15.5685 10.0124 15.5697 10.2767V13.3405C15.5697 13.6224 15.7982 13.8511 16.0802 13.8511H20.4193C20.7013 13.8511 20.9298 13.6224 20.9298 13.3405V12.3193C20.9308 12.1814 20.8762 12.0491 20.7782 11.9522L18.7363 9.9096C18.6401 9.81645 18.5112 9.76498 18.3774 9.76605H16.0801C16.0643 9.76516 16.0483 9.76516 16.0324 9.76605L16.0322 9.76606ZM16.5906 10.7873H18.17L19.9088 12.5265V12.8297H16.5906V10.787L16.5906 10.7873ZM7.1464 15.8937C8.28017 15.8937 9.18829 16.8022 9.18829 17.9363C9.18829 19.0704 8.28017 19.9789 7.1464 19.9789C6.01263 19.9789 5.10451 19.0704 5.10451 17.9363C5.10451 16.8022 6.01263 15.8937 7.1464 15.8937ZM18.6322 15.8937C19.766 15.8937 20.6741 16.8022 20.6741 17.9363C20.6741 19.0704 19.766 19.9789 18.6322 19.9789C17.4985 19.9789 16.5903 19.0704 16.5903 17.9363C16.5903 16.8022 17.4985 15.8937 18.6322 15.8937ZM7.1464 17.1703C6.72342 17.1703 6.38075 17.5131 6.38075 17.9363C6.38075 18.3593 6.72359 18.7023 7.1464 18.7023C7.56938 18.7023 7.91205 18.3593 7.91205 17.9363C7.91205 17.5133 7.56921 17.1703 7.1464 17.1703ZM18.6322 17.1703C18.2093 17.1703 17.8666 17.5131 17.8666 17.9363C17.8666 18.3593 18.2094 18.7023 18.6322 18.7023C19.0552 18.7023 19.3979 18.3593 19.3979 17.9363C19.3979 17.5133 19.055 17.1703 18.6322 17.1703Z" fill="black"/>
</svg>
