<svg width="34" height="34" viewBox="0 0 34 34" fill="none" xmlns="http://www.w3.org/2000/svg">
<rect width="34" height="34" fill="white"/>
<path d="M30.4628 14.5594H3.95364C3.65929 14.5594 3.41846 14.3186 3.41846 14.0242C3.41846 13.7299 3.65929 13.489 3.95364 13.489H29.4549L25.6016 7.77153H8.52942C8.23507 7.77153 7.99424 7.5307 7.99424 7.23635C7.99424 6.942 8.23507 6.70117 8.52942 6.70117H25.8871C26.0655 6.70117 26.2349 6.79037 26.333 6.93308L30.9088 13.7209C31.0159 13.8815 31.0337 14.0956 30.9356 14.274C30.8375 14.4524 30.6591 14.5594 30.4628 14.5594Z" fill="#C36D5F" stroke="#C36D5F" stroke-width="0.5"/>
<path d="M4.03965 14.6603C3.93262 14.6603 3.8345 14.6335 3.7453 14.5711C3.50447 14.4016 3.43312 14.0716 3.60259 13.8308L8.17837 7.04291C8.34785 6.80208 8.67787 6.73072 8.9187 6.9002C9.15953 7.06967 9.23089 7.3997 9.06142 7.64053L4.48564 14.4284C4.3786 14.58 4.20913 14.6603 4.03965 14.6603Z" fill="#C36D5F" stroke="#C36D5F" stroke-width="0.5"/>
<path d="M11.3298 14.5594C11.2585 14.5594 11.1871 14.5415 11.1158 14.5148C10.8482 14.3988 10.7233 14.0777 10.8393 13.8101L13.8273 7.02226C13.9433 6.75467 14.2644 6.62979 14.532 6.74575C14.7996 6.8617 14.9245 7.18281 14.8085 7.4504L11.8204 14.2383C11.7312 14.4434 11.535 14.5594 11.3298 14.5594Z" fill="#C36D5F" stroke="#C36D5F" stroke-width="0.5"/>
<path d="M23.0862 14.5593C22.881 14.5593 22.6848 14.4434 22.5956 14.2382L19.6164 7.45928C19.5005 7.19169 19.6164 6.87058 19.893 6.75463C20.1605 6.63867 20.4817 6.75463 20.5976 7.03114L23.5768 13.819C23.6927 14.0866 23.5768 14.4077 23.3003 14.5236C23.2378 14.5504 23.1575 14.5593 23.0862 14.5593Z" fill="#C36D5F" stroke="#C36D5F" stroke-width="0.5"/>
<path d="M17.208 28.0459C17.0653 28.0459 16.9225 27.9924 16.8244 27.8853L3.56982 14.3988C3.41819 14.2472 3.37359 14.0153 3.45387 13.819C3.53415 13.6228 3.73038 13.489 3.94445 13.489H30.4537C30.6677 13.489 30.864 13.6228 30.9442 13.819C31.0245 14.0153 30.9799 14.2472 30.8283 14.3988L17.5915 27.8853C17.4934 27.9924 17.3507 28.0459 17.208 28.0459ZM5.22888 14.5594L17.208 26.7436L29.1871 14.5594H5.22888Z" fill="#C36D5F" stroke="#C36D5F" stroke-width="0.5"/>
<path d="M17.2078 28.0459C17.1364 28.0459 17.065 28.028 16.9937 28.0013C16.7261 27.8853 16.6012 27.5642 16.7172 27.2966L22.5952 13.8101C22.7112 13.5425 23.0323 13.4176 23.2999 13.5336C23.5675 13.6495 23.6924 13.9707 23.5764 14.2382L17.6983 27.7248C17.6091 27.9299 17.4129 28.0459 17.2078 28.0459Z" fill="#C36D5F" stroke="#C36D5F" stroke-width="0.5"/>
<path d="M17.2079 28.0459C17.0027 28.0459 16.8065 27.9299 16.7173 27.7248L10.8393 14.2382C10.7233 13.9707 10.8482 13.6495 11.1158 13.5336C11.3834 13.4176 11.7045 13.5425 11.8204 13.8101L17.6985 27.2966C17.8144 27.5642 17.6895 27.8853 17.422 28.0013C17.3506 28.028 17.2792 28.0459 17.2079 28.0459Z" fill="#C36D5F" stroke="#C36D5F" stroke-width="0.5"/>
</svg>
