<svg width="54" height="54" viewBox="0 0 54 54" fill="none" xmlns="http://www.w3.org/2000/svg">
<path d="M10 9.48051L17.6736 2H37.4503L44.3367 8.88635V44.6992L37.439 51.8676H17.4568L10 44.8155V9.48051Z" stroke="black" stroke-width="2" stroke-miterlimit="10"/>
<path d="M20.8672 8.61613L17.2031 12.1362V41.8754L20.2805 44.9528H34.3448L37.3528 41.9501V12.2802L34.3981 8.54682L20.8672 8.61613Z" stroke="black" stroke-width="2" stroke-miterlimit="10"/>
<path d="M37.5 1.5L34.4458 8.42413" stroke="black" stroke-width="2" stroke-miterlimit="10"/>
<path d="M17.5 1.5L20.7712 8.62147" stroke="black" stroke-width="2" stroke-miterlimit="10"/>
<path d="M45.1877 27.2245H37.4009" stroke="black" stroke-width="2" stroke-miterlimit="10"/>
<path d="M9.14404 27.0805H17.3735" stroke="black" stroke-width="2" stroke-miterlimit="10"/>
<path d="M17.2028 41.8807L9.5 45" stroke="black" stroke-width="2" stroke-miterlimit="10"/>
<path d="M37.3525 41.9501L44.5 44.5" stroke="black" stroke-width="2" stroke-miterlimit="10"/>
<path d="M20.2805 44.9528L17.5 52" stroke="black" stroke-width="2" stroke-miterlimit="10"/>
<path d="M34.3501 44.9528L37.5 52.5" stroke="black" stroke-width="2" stroke-miterlimit="10"/>
<path d="M37.3525 12.2802L44.5 9" stroke="black" stroke-width="2" stroke-miterlimit="10"/>
<path d="M9.5 9.5L17.2028 12.1362" stroke="black" stroke-width="2" stroke-miterlimit="10"/>
</svg>
