<svg width="82" height="82" viewBox="0 0 82 82" fill="none" xmlns="http://www.w3.org/2000/svg">
<path d="M52.5127 22.2563C52.5127 28.6773 47.3074 33.883 40.886 33.883C34.4645 33.883 29.2593 28.6778 29.2593 22.2563C29.2593 15.8349 34.4645 10.6296 40.886 10.6296C47.3074 10.6296 52.5127 15.8349 52.5127 22.2563Z" fill="black"/>
<path d="M18.3467 56.6667C18.4268 56.5803 18.5123 56.4989 18.6024 56.4233C18.5779 56.332 18.5651 56.2377 18.5638 56.1426V45.4078C18.5638 38.6841 23.6976 33.4176 30.2511 33.4176H33.3241C32.5302 32.8765 31.7961 32.2533 31.1339 31.5574H30.2511C22.7684 31.5574 16.7037 37.5287 16.7037 45.4078V56.1426C16.6991 56.9631 17.0412 57.7475 17.6454 58.3017C17.6944 57.6951 17.9406 57.1205 18.3467 56.6666L18.3467 56.6667Z" fill="black"/>
<path d="M51.5207 31.5571H50.638C49.9757 32.253 49.2416 32.8763 48.4478 33.4173H51.5208C58.0746 33.4173 63.2081 38.684 63.2081 45.4075V56.1424C63.2068 56.2375 63.1939 56.3317 63.1694 56.4231C63.7321 56.8919 64.0779 57.5708 64.1265 58.3016C64.7307 57.7468 65.0728 56.9629 65.0682 56.1425V45.4076C65.0682 37.5284 59.0023 31.5572 51.5208 31.5572L51.5207 31.5571Z" fill="black"/>
<path d="M51.5811 69.2255C51.5811 68.7119 51.1646 68.2954 50.651 68.2954H31.1191C30.6054 68.2954 30.189 68.7119 30.189 69.2255C30.189 69.7391 30.6054 70.1556 31.1191 70.1556H50.651C51.1646 70.1556 51.5811 69.7391 51.5811 69.2255Z" fill="black"/>
<path d="M20.4238 57.5999C20.1597 57.5999 19.9077 57.7125 19.7312 57.9088C19.5552 58.1057 19.4705 58.3681 19.4991 58.6309C19.742 60.6709 20.7307 62.5493 22.2748 63.9042C23.819 65.2595 25.81 65.9952 27.8645 65.9707C29.919 65.9952 31.9101 65.2594 33.4542 63.9042C34.9984 62.5493 35.9871 60.6709 36.23 58.6309C36.2586 58.3681 36.1739 58.1057 35.9978 57.9088C35.8214 57.7124 35.5693 57.5999 35.3053 57.5999H34.6189L29.1006 44.1131H39.945V65.5052H36.2358C35.7222 65.5052 35.3057 65.9217 35.3057 66.4353C35.3057 66.9489 35.7222 67.3654 36.2358 67.3654H45.5367C46.0503 67.3654 46.4668 66.9489 46.4668 66.4353C46.4668 65.9217 46.0503 65.5052 45.5367 65.5052H41.8052V44.1131H52.6718L47.1536 57.5999H46.4672C46.2031 57.5999 45.9511 57.7125 45.7746 57.9088C45.5986 58.1057 45.5139 58.3681 45.5425 58.6309C45.9009 61.361 47.5687 63.7447 50.0111 65.017C52.4535 66.2888 55.3625 66.2888 57.8048 65.017C60.2471 63.7447 61.915 61.3609 62.2734 58.6309C62.302 58.3681 62.2173 58.1057 62.0412 57.9088C61.8648 57.7124 61.6127 57.5999 61.3487 57.5999H60.6623L55.144 44.1131H57.1632C57.6769 44.1131 58.0933 43.6966 58.0933 43.183C58.0933 42.6693 57.6769 42.2529 57.1632 42.2529H41.8056V40.6667C42.4666 40.384 42.9594 39.8114 43.1413 39.1163C43.3236 38.4208 43.1741 37.6804 42.7368 37.1099C42.2996 36.5398 41.6232 36.2031 40.9045 36.1985C40.1858 36.194 39.5052 36.5216 39.0605 37.0863C38.6158 37.651 38.4568 38.3893 38.6299 39.0868C38.8026 39.7843 39.2884 40.3632 39.9453 40.6546V42.2528H24.6099C24.0963 42.2528 23.6799 42.6693 23.6799 43.1829C23.6799 43.6965 24.0963 44.113 24.6099 44.113H26.6292L21.1109 57.5999L20.4238 57.5999ZM54.8372 48.2783L58.6519 57.5999H54.8372V48.2783ZM52.9771 57.5999H49.1624L52.9771 48.2783V57.5999ZM40.8859 38.068C41.0739 38.068 41.2434 38.1813 41.3156 38.3549C41.3874 38.5289 41.3476 38.729 41.2147 38.8619C41.0818 38.9948 40.8817 39.0346 40.7077 38.9628C40.5342 38.8905 40.4208 38.7211 40.4208 38.533C40.4212 38.2764 40.6293 38.0684 40.8859 38.068L40.8859 38.068ZM28.7947 48.2783L32.6093 57.5999H28.7947V48.2783ZM26.9345 48.2783V57.5999H23.1198L26.9345 48.2783Z" fill="black"/>
<path d="M23.2139 24.581C23.2139 26.1219 21.9644 27.3713 20.4236 27.3713C18.8827 27.3713 17.6333 26.1219 17.6333 24.581C17.6333 23.0402 18.8827 21.7908 20.4236 21.7908C21.9644 21.7908 23.2139 23.0402 23.2139 24.581Z" fill="black"/>
<path d="M64.1382 24.581C64.1382 26.1219 62.8888 27.3713 61.3479 27.3713C59.807 27.3713 58.5576 26.1219 58.5576 24.581C58.5576 23.0402 59.807 21.7908 61.3479 21.7908C62.8888 21.7908 64.1382 23.0402 64.1382 24.581Z" fill="black"/>
</svg>
