<svg width="34" height="34" viewBox="0 0 34 34" fill="none" xmlns="http://www.w3.org/2000/svg">
<rect width="34" height="34" fill="white"/>
<path fill-rule="evenodd" clip-rule="evenodd" d="M25.259 3L32.2415 8.28483L16.6216 22.5253L1 8.28483L7.98245 3H25.259ZM24.3524 3.82837H8.88901L3.48508 7.9702L16.9771 20.1984L30.151 8.24573L24.3524 3.82837ZM21.1172 6.66899H12.9135L9.63916 9.15409L16.6216 15.5037L23.9969 8.79856L21.1172 6.66899ZM10.9404 9.1132L13.4255 7.22005H20.6444L23.0121 8.99588L16.8972 14.558L10.9404 9.1132ZM10.704 5.09047H23.3268L27.7459 8.40393L16.5825 18.5025L5.85286 8.71857L10.704 5.09047ZM11.3741 5.72152L7.62694 8.56214L16.9772 17.1213L26.4038 8.56214L22.6175 5.72152H11.3741ZM11.7688 28.8375L9.63918 30.7307V24.6157L11.7688 22.6835V28.8375ZM21.2754 30.7307L23.405 28.8375V22.6835L21.2754 24.6157V30.7307ZM12.2043 26.5498L14.3339 24.5962V28.7184H18.6321L16.6021 30.5725H12.2043V26.5498ZM16.4439 22.6835L14.4512 24.5375H18.8508L16.7994 26.3916H18.8294V28.5407L20.9608 26.628V24.5375L18.8508 24.5375L20.9412 22.6835H16.4439Z" fill="#C36D5F"/>
</svg>
