<svg width="80" height="80" viewBox="0 0 80 80" fill="none" xmlns="http://www.w3.org/2000/svg">
<g clip-path="url(#clip0_677_3220)">
<path d="M62.4168 47.5252C63.8938 44.3074 63.8777 40.9544 63.4851 37.6883C61.9663 25.0035 52.3707 16.103 39.8532 14.6517C28.668 13.3356 17.811 19.8743 13.2288 30.21C7.06662 44.1175 13.5699 59.9139 27.767 65.5323C28.314 65.7479 28.8707 65.9506 29.3985 66.2112C30.042 66.533 30.1643 67.0865 29.968 67.7108C29.9344 67.8563 29.8722 67.9936 29.785 68.1149C29.6978 68.2361 29.5873 68.3388 29.4601 68.417C29.3328 68.4951 29.1912 68.5472 29.0437 68.5702C28.8961 68.5931 28.7454 68.5864 28.6004 68.5506C27.9731 68.4103 27.3602 68.2121 26.7695 67.9585C7.37875 60.4416 1.91807 35.616 16.3791 20.727C26.3801 10.4299 42.7364 8.82097 54.2885 17.2743C61.7732 22.7446 65.9403 30.2261 66.3779 39.664C66.5227 42.7499 66.1109 45.7297 65.3804 48.8864C66.6675 48.8124 67.575 48.1109 68.5983 47.7794C69.5443 47.4576 70.4582 47.2903 70.9473 48.3651C71.4621 49.5042 70.6255 50.0351 69.7438 50.4181C67.7262 51.2869 65.6925 52.1171 63.6717 52.9923C62.5294 53.4814 61.6702 53.224 61.1715 52.0688C60.2383 49.9064 59.3309 47.7279 58.4202 45.5527C58.0502 44.6678 58.2754 43.9437 59.1667 43.5576C60.1128 43.1425 60.7274 43.6638 61.0975 44.4586C61.593 45.4529 61.9856 46.5084 62.4168 47.5252Z" fill="black"/>
<path d="M38.0256 46.1642C38.0256 48.8962 38.0063 51.6346 38.0256 54.3537C38.0256 55.4155 37.6266 55.5378 36.7578 55.1066C32.6818 53.0751 28.5962 51.0618 24.501 49.0667C24.1276 48.9111 23.8179 48.6336 23.6222 48.2796C23.4264 47.9255 23.3563 47.5157 23.423 47.1167C23.7448 42.8917 23.6322 38.657 23.6804 34.4255C23.6804 33.2832 24.1856 33.1384 25.0898 33.634C25.1832 33.6854 25.2829 33.7241 25.3795 33.7723C30.1129 36.1889 29.1701 34.8117 29.2827 39.8862C29.302 40.8516 29.4179 41.8395 29.257 42.7823C28.9094 44.7902 29.9681 45.6783 31.6317 46.3219C32.5005 46.6437 32.6614 46.4281 32.6518 45.6236C32.6325 43.4806 32.6807 41.3343 32.6325 39.188C32.6067 37.9169 32.8095 37.4053 34.2414 38.0714C38.2862 39.9602 38.3088 39.912 38.2991 44.3816C38.2991 44.9704 38.2991 45.5593 38.2991 46.1514L38.0256 46.1642Z" fill="black"/>
<path d="M51.1123 42.0358C51.1123 44.0662 51.1123 46.0999 51.1123 48.1304C51.1123 49.1794 50.7648 49.9452 49.7544 50.4537C46.7918 51.936 43.8497 53.4613 40.9279 55.0294C39.8756 55.5893 39.438 55.3705 39.5378 54.1767C39.8949 49.9066 39.6826 45.6237 39.7694 41.3504C39.7507 40.9776 39.8477 40.6081 40.0469 40.2924C40.2462 39.9768 40.5382 39.7304 40.8828 39.587C43.8432 38.1004 46.7929 36.5912 49.7319 35.0595C50.7938 34.4996 51.2732 34.5961 51.2314 35.9412C51.167 37.9684 51.2153 40.0021 51.2153 42.0358H51.1123Z" fill="black"/>
<path d="M49.9927 32.8938C49.9363 33.057 49.8436 33.2052 49.7215 33.3273C49.5994 33.4494 49.4511 33.5421 49.288 33.5985C46.186 35.1688 43.0807 36.7327 39.982 38.3159C39.7456 38.4413 39.4821 38.5068 39.2145 38.5068C38.9469 38.5068 38.6834 38.4413 38.447 38.3159C37.1878 37.7152 35.9296 37.121 34.6725 36.5332C33.8648 36.147 33.6782 35.7159 34.6178 35.2461C37.8356 33.6715 41.0535 32.1011 44.2713 30.5351C44.4615 30.4343 44.6726 30.3795 44.8877 30.3751C45.1029 30.3706 45.3161 30.4166 45.5102 30.5094C46.8102 31.1358 48.1059 31.7794 49.3974 32.4401C49.6123 32.5683 49.8121 32.7205 49.9927 32.8938Z" fill="black"/>
<path d="M29.9553 34.2807C28.5556 33.5921 27.0013 32.8874 25.5083 32.0668C24.8647 31.7129 25.3635 31.3428 25.7432 31.1433C28.961 29.4636 32.1928 27.7935 35.4385 26.1331C35.606 26.046 35.792 26.0005 35.9807 26.0005C36.1695 26.0005 36.3555 26.046 36.5229 26.1331C37.8101 26.7606 39.1294 27.3849 40.4198 28.0317C41.044 28.3534 41.2564 28.7685 40.497 29.1611C37.2577 30.8237 34.0173 32.4755 30.7759 34.1166C30.5092 34.2012 30.234 34.2562 29.9553 34.2807Z" fill="black"/>
</g>
<defs>
<clipPath id="clip0_677_3220">
<rect width="62.9185" height="56.721" fill="white" transform="translate(8.19287 11.8396)"/>
</clipPath>
</defs>
</svg>
