<svg width="34" height="34" viewBox="0 0 34 34" fill="none" xmlns="http://www.w3.org/2000/svg">
<rect width="34" height="34" fill="white"/>
<path fill-rule="evenodd" clip-rule="evenodd" d="M9.79892 19.32H8.74496C8.49338 19.32 8.2621 19.4561 8.14656 19.6805L3.08056 29.2005C2.95135 29.4453 2.97849 29.7377 3.15532 29.9484C3.33215 30.1592 3.61087 30.2477 3.87612 30.1661L10.4721 28.1874L16.3881 30.1595C16.531 30.2071 16.6805 30.2071 16.8165 30.1595L22.7325 28.1874L29.3285 30.1661C29.5938 30.2477 29.8793 30.1592 30.0493 29.9484C30.2262 29.7377 30.2533 29.4384 30.1241 29.2005L25.0581 19.6805C24.9425 19.4561 24.7113 19.32 24.4597 19.32H23.4057C23.0318 19.32 22.7257 19.6261 22.7257 20C22.7257 20.374 23.0318 20.68 23.4057 20.68H24.0518L28.1589 28.3981L22.9229 26.8272C22.7869 26.7865 22.6442 26.7865 22.515 26.8272L16.6126 28.7925L10.7102 26.8272C10.5742 26.7796 10.4315 26.7796 10.3023 26.8272L5.0663 28.3981L9.17345 20.68H9.8195C10.1935 20.68 10.4995 20.374 10.4995 20C10.4995 19.6261 10.1935 19.32 9.8195 19.32H9.79892ZM13.3553 21.9448C12.7366 22.1488 12.24 22.4003 11.8866 22.6861C11.3971 23.0874 11.159 23.57 11.159 24.0732C11.159 24.7193 11.5737 25.372 12.4034 25.8616C13.3418 26.4124 14.8582 26.7932 16.599 26.7932C18.3398 26.7932 19.8561 26.4125 20.7945 25.8616C21.624 25.3721 22.039 24.7192 22.039 24.0732C22.039 23.5701 21.8077 23.1008 21.3318 22.7064C20.9782 22.414 20.475 22.1488 19.8426 21.9448C22.1818 19.388 24.759 14.8592 24.759 11.398C24.759 6.75375 21.1006 3 16.599 3C12.0974 3 8.43901 6.75365 8.43901 11.398C8.43901 14.8593 11.0095 19.388 13.3554 21.9448H13.3553ZM14.4908 23.0464C13.8516 23.1824 13.3213 23.3727 12.9403 23.6108C12.709 23.7537 12.5256 23.8829 12.5256 24.0801C12.5256 24.1616 12.5664 24.2296 12.6208 24.3045C12.7295 24.4474 12.8995 24.5766 13.0968 24.6921C13.8789 25.1545 15.1505 25.44 16.5989 25.44C18.0474 25.44 19.3189 25.1545 20.101 24.6921C20.305 24.5698 20.4682 24.4474 20.5771 24.3045C20.6315 24.2298 20.6723 24.1616 20.6723 24.0801C20.6723 23.8896 20.4955 23.7606 20.2779 23.6245C19.8971 23.3798 19.3531 23.1893 18.7071 23.0466C18.3876 23.3187 18.0815 23.5361 17.8026 23.6995C17.3471 23.9579 16.939 24.0802 16.599 24.0802C16.259 24.0802 15.8442 23.9579 15.3953 23.6995C15.1166 23.5363 14.8106 23.3187 14.4909 23.0466L14.4908 23.0464ZM23.3988 11.398C23.3988 14.6756 20.8217 18.9732 18.6252 21.2648C18.088 21.8224 17.5712 22.2643 17.1291 22.5227C16.9252 22.6383 16.7552 22.7198 16.6055 22.7198C16.456 22.7198 16.2791 22.6383 16.0818 22.5227C15.6331 22.2643 15.1231 21.8291 14.5858 21.2648C12.3894 18.9732 9.81213 14.6756 9.81213 11.398C9.79885 7.5153 12.8384 4.36 16.599 4.36C20.3597 4.36 23.399 7.51525 23.399 11.398H23.3988ZM20.6788 11.8401C20.6788 9.58928 18.8496 7.76008 16.5988 7.76008C14.348 7.76008 12.5188 9.58928 12.5188 11.8401C12.5188 14.0909 14.348 15.9201 16.5988 15.9201C18.8496 15.9201 20.6788 14.0909 20.6788 11.8401ZM19.3188 11.8401C19.3188 13.3429 18.1017 14.5601 16.5988 14.5601C15.096 14.5601 13.8788 13.3429 13.8788 11.8401C13.8788 10.3372 15.096 9.12008 16.5988 9.12008C18.1017 9.12008 19.3188 10.3372 19.3188 11.8401Z" fill="#C36D5F"/>
</svg>
