<svg width="24" height="24" viewBox="0 0 24 24" fill="none" xmlns="http://www.w3.org/2000/svg">
<rect width="24" height="24" fill="white"/>
<path d="M17.1984 7.56301C17.1984 7.97004 16.3483 8.30041 15.2999 8.30041C14.2514 8.30041 13.4014 7.97004 13.4014 7.56301C13.4014 7.15569 14.2514 6.82532 15.2999 6.82532C16.3483 6.82532 17.1984 7.15569 17.1984 7.56301Z" fill="black"/>
<path d="M15.2252 4.11487C11.9865 4.11487 9.45007 5.68446 9.45007 7.69242C9.45007 7.84195 9.44012 9.13736 9.45504 9.97949L2.35965 9.98447C1.99095 9.98447 1.69189 10.2835 1.69189 10.6522V19.2174C1.69189 19.5861 1.99095 19.8852 2.35965 19.8852H18.0653C19.6797 19.8852 20.9551 18.5848 20.9751 16.9253C20.9751 16.9253 20.9999 7.72715 20.9999 7.69269C21.0002 5.68473 18.4641 4.11514 15.2251 4.11514L15.2252 4.11487ZM18.0656 18.55H17.2384V15.9788C17.2384 15.7945 17.0889 15.6449 16.9045 15.6449H16.2318C16.0474 15.6449 15.8979 15.7945 15.8979 15.9788V18.55H14.5624V14.3396C14.5624 14.1552 14.4129 14.0057 14.2285 14.0057H13.5558C13.3715 14.0057 13.2219 14.1552 13.2219 14.3396L13.2222 18.55H11.897V15.9788C11.897 15.7945 11.7475 15.6449 11.5631 15.6449H10.8904C10.706 15.6449 10.5565 15.7945 10.5565 15.9788V18.55H9.22103V14.3396C9.22103 14.1552 9.0715 14.0057 8.88715 14.0057H8.21442C8.03008 14.0057 7.88055 14.1552 7.88055 14.3396L7.88084 18.55H6.54535V15.9788C6.54535 15.7945 6.39582 15.6449 6.21147 15.6449H5.53875C5.3544 15.6449 5.20487 15.7945 5.20487 15.9788L5.20516 18.55H3.02783V11.32L15.4599 11.3101C17.5228 11.2703 18.6687 10.9513 19.6355 10.2836L19.6405 16.9154C19.6303 17.8474 18.9528 18.55 18.0659 18.55L18.0656 18.55ZM15.2252 9.93462C12.6092 9.93462 10.7856 8.75359 10.7856 7.69227C10.7856 6.63094 12.6092 5.44991 15.2252 5.44991C17.8412 5.44991 19.6648 6.63094 19.6648 7.69227C19.6651 8.75359 17.8412 9.93462 15.2252 9.93462Z" fill="black"/>
</svg>
