<svg width="34" height="34" viewBox="0 0 34 34" fill="none" xmlns="http://www.w3.org/2000/svg">
<rect width="34" height="34" fill="white"/>
<path d="M31.9454 20.0433C31.9526 20.0222 31.9586 20.0008 31.9634 19.9791C31.972 19.9613 31.9781 19.9422 31.9813 19.9227C31.9851 19.8808 31.9851 19.8387 31.9813 19.7969V12.8805C31.9851 12.8387 31.9851 12.7966 31.9813 12.7548C31.9781 12.7352 31.972 12.7162 31.9634 12.6983C31.9586 12.6775 31.9526 12.6569 31.9454 12.6367C31.9454 12.6136 31.9223 12.5931 31.912 12.57C31.9018 12.5469 31.8966 12.5392 31.8864 12.5264C31.8403 12.455 31.78 12.3939 31.7093 12.3467L31.6631 12.3236L31.5964 12.2877L31.5348 12.2697L31.4783 12.2518C31.4369 12.2437 31.3948 12.2394 31.3526 12.2389H28.2729L29.4868 11.025C29.517 10.995 29.5445 10.9624 29.5689 10.9275C29.5689 10.9121 29.5843 10.8967 29.5946 10.8813L29.628 10.8172C29.6351 10.7961 29.6411 10.7747 29.6459 10.753C29.6546 10.7351 29.6606 10.7161 29.6639 10.6965C29.6677 10.6547 29.6677 10.6126 29.6639 10.5708V3.64159C29.6677 3.59976 29.6677 3.55768 29.6639 3.51584C29.6639 3.49788 29.6639 3.47991 29.6485 3.45938C29.6331 3.43885 29.6357 3.41832 29.628 3.39778C29.6203 3.37725 29.6049 3.35416 29.5946 3.33363C29.5843 3.31309 29.5792 3.30026 29.5689 3.28743C29.5221 3.21663 29.462 3.15562 29.3919 3.10779L29.3457 3.08469L29.2789 3.04876L29.2174 3.0308L29.1609 3.01283C29.1194 3.00476 29.0774 3.00047 29.0351 3H22.1059C22.0637 3.00047 22.0216 3.00476 21.9802 3.01283L21.9237 3.0308L21.8596 3.04876L21.7954 3.08469L21.7492 3.10779C21.7143 3.13222 21.6817 3.1597 21.6517 3.18991L10.103 14.7386C10.0722 14.7689 10.0446 14.8025 10.0209 14.8387C10.0209 14.8515 10.0055 14.8669 9.99522 14.8823C9.98495 14.8977 9.97212 14.9259 9.96186 14.949C9.95159 14.9721 9.96186 14.9901 9.94133 15.0106C9.9208 15.0311 9.9285 15.0491 9.92593 15.0671C9.91786 15.1085 9.91357 15.1506 9.9131 15.1928V17.5565C9.83046 17.5863 9.75518 17.6336 9.69239 17.695L3.18151 23.9698C3.16133 23.9909 3.14247 24.0132 3.12505 24.0365L3.09938 24.0673C3.08504 24.0896 3.07218 24.1127 3.06089 24.1366C3.06089 24.1495 3.04549 24.1623 3.04036 24.1751C3.03407 24.191 3.02891 24.2073 3.02495 24.2239C3.01572 24.2473 3.00801 24.2713 3.00186 24.2958C3.00059 24.3086 3.00059 24.3214 3.00186 24.3342C2.99938 24.3633 2.99938 24.3925 3.00186 24.4215V31.3507C3.00186 31.5209 3.06946 31.6841 3.18978 31.8044C3.3101 31.9247 3.47329 31.9923 3.64345 31.9923H10.5727C10.614 31.9918 10.6553 31.9875 10.6958 31.9795H10.7446C10.7682 31.9733 10.7913 31.9656 10.8139 31.9564L10.8678 31.9307C10.8871 31.9214 10.906 31.9112 10.9242 31.8999L10.9756 31.8589L11.0166 31.8281L12.2408 30.6552V31.3584C12.2408 31.5286 12.3084 31.6918 12.4287 31.8121C12.549 31.9324 12.7122 32 12.8824 32H19.8116C19.8538 31.9995 19.8959 31.9952 19.9373 31.9872L19.9938 31.9718L20.058 31.9512L20.1221 31.9179L20.1683 31.8922C20.2026 31.8679 20.2351 31.8413 20.2658 31.8127L31.8145 20.264C31.8447 20.234 31.8722 20.2013 31.8966 20.1665C31.8966 20.1511 31.912 20.1357 31.9223 20.1203L31.9454 20.0433ZM20.4455 24.6858L30.711 14.4204V19.5351L20.4455 29.8006V24.6858ZM29.8025 13.5119L19.537 23.7773H14.4248L15.3872 22.8124C15.4065 22.7922 15.4245 22.7708 15.4411 22.7482H17.4942C17.5364 22.7478 17.5785 22.7435 17.6199 22.7354L17.6764 22.72L17.7405 22.6995L17.8047 22.6661L17.8509 22.6404C17.8851 22.6161 17.9177 22.5895 17.9484 22.5609L26.9974 13.5093L29.8025 13.5119ZM11.2065 21.4676V15.8216H16.8526V21.4676H11.2065ZM22.378 4.27292H27.4927L17.2273 14.5384H12.115L22.378 4.27292ZM28.4012 10.2962L26.2789 12.416L18.1358 20.5591V15.4469L28.4012 5.18142V10.2962ZM9.92336 19.2503V22.1195C9.92336 22.2896 9.99096 22.4528 10.1113 22.5731C10.2316 22.6935 10.3948 22.7611 10.565 22.7611H11.3939L10.3109 23.7876H5.22691L9.92336 19.2503ZM9.92336 30.7066H4.27734V25.0605H9.92336V30.7066ZM12.1048 28.9871L11.2065 29.8468V24.6858L13.1493 22.8483C13.1834 22.8161 13.2136 22.7799 13.2391 22.7405H13.6369L12.4204 23.9544C12.3912 23.9855 12.3646 24.019 12.3409 24.0545C12.3409 24.0673 12.3255 24.0827 12.3152 24.0981C12.305 24.1135 12.2921 24.1418 12.2819 24.1649C12.2716 24.188 12.2819 24.2059 12.2613 24.2265C12.2408 24.247 12.2485 24.265 12.2459 24.2829C12.2379 24.3244 12.2336 24.3665 12.2331 24.4087V28.8844C12.1857 28.9114 12.1425 28.9451 12.1048 28.9845V28.9871ZM13.5163 25.0605H19.1623V30.7066H13.5163V25.0605Z" fill="#C36D5F" stroke="#C36D5F" stroke-width="0.3"/>
</svg>
