<svg width="54" height="54" viewBox="0 0 54 54" fill="none" xmlns="http://www.w3.org/2000/svg">
<path d="M50.9999 2.81249H2.8125V50.9999H50.9999V2.81249Z" stroke="black" stroke-width="2" stroke-miterlimit="10"/>
<path d="M26 3V8.5" stroke="black" stroke-width="2"/>
<path d="M26 45V50.5" stroke="black" stroke-width="2"/>
<path d="M44.9765 8.83592H8.83594V44.9765H44.9765V8.83592Z" stroke="black" stroke-width="2" stroke-miterlimit="10"/>
<path d="M45 9L51 3M45 44.5L51 51M9 9L3 3M9 44.5L3 51" stroke="black" stroke-width="2"/>
<path d="M45.5 26H51" stroke="black" stroke-width="2"/>
<path d="M3 26H8.5" stroke="black" stroke-width="2"/>
<path d="M26 3L45 8.5" stroke="black" stroke-width="2"/>
<path d="M45 8.5L50.5 26L45 44.5L26 51L9 45L3 26L8.5 9L26 3" stroke="black" stroke-width="2"/>
</svg>
