<svg width="34" height="34" viewBox="0 0 34 34" fill="none" xmlns="http://www.w3.org/2000/svg">
<rect width="34" height="34" fill="white"/>
<path d="M7.79183 24.0834H4.25016C3.46776 24.0834 2.8335 23.4491 2.8335 22.6667V4.25004C2.8335 3.46764 3.46776 2.83337 4.25016 2.83337H17.0002C17.7826 2.83337 18.4168 3.46764 18.4168 4.25004V7.08337" stroke="#C36D5F" stroke-width="2.125" stroke-linecap="round"/>
<path d="M19.8333 28.3334H9.91667C9.13426 28.3334 8.5 27.6991 8.5 26.9167V8.50004C8.5 7.71764 9.13426 7.08337 9.91667 7.08337H22.6667C23.4491 7.08337 24.0833 7.71764 24.0833 8.50004V17.7084" stroke="#C36D5F" stroke-width="2.125" stroke-linecap="round"/>
<path d="M28.1238 28.1239C30.3445 25.9033 30.3445 22.3028 28.1238 20.0821C25.9031 17.8615 22.3027 17.8615 20.082 20.0821C17.8613 22.3028 17.8613 25.9033 20.082 28.1239C22.3027 30.3446 25.9031 30.3446 28.1238 28.1239ZM28.1238 28.1239L31.1665 31.1666" stroke="#C36D5F" stroke-width="2.125" stroke-linecap="round"/>
<path d="M12.0415 11.3334H19.1248" stroke="#C36D5F" stroke-width="1.41667" stroke-linecap="round"/>
<path d="M12.0415 14.1666H19.1248" stroke="#C36D5F" stroke-width="1.41667" stroke-linecap="round"/>
<path d="M12.0415 17H19.1248" stroke="#C36D5F" stroke-width="1.41667" stroke-linecap="round"/>
</svg>
