<svg width="34" height="34" viewBox="0 0 34 34" fill="none" xmlns="http://www.w3.org/2000/svg">
<rect width="34" height="34" fill="white"/>
<path d="M30.3237 26.5431L27.7473 23.9668C27.4113 23.6308 26.8792 23.6308 26.5432 23.9668C26.2072 24.3028 26.2072 24.8349 26.5432 25.1708L27.6633 26.2909L8.25656 26.2911V6.91237L9.37661 8.03242C9.54461 8.20042 9.76866 8.28441 9.9927 8.28441C10.2168 8.28441 10.4408 8.20042 10.6088 8.03242C10.9448 7.69644 10.9448 7.16435 10.6088 6.82835L8.03242 4.25199C7.69644 3.916 7.16435 3.916 6.82835 4.25199L4.25199 6.82835C3.916 7.16434 3.916 7.69643 4.25199 8.03242C4.58798 8.36842 5.12006 8.36841 5.45606 8.03242L6.57612 6.91237V27.1592C6.57612 27.6353 6.96816 28.0273 7.44419 28.0273H27.635L26.515 29.1474C26.179 29.4833 26.179 30.0154 26.515 30.3514C26.683 30.5194 26.907 30.6034 27.1311 30.6034C27.3551 30.6034 27.5792 30.5194 27.7472 30.3514L30.3235 27.7751C30.6595 27.4111 30.6595 26.879 30.3235 26.543L30.3237 26.5431Z" fill="#C36D5F"/>
<path d="M13.6612 6.68829H14.5293C15.0054 6.68829 15.3974 6.29625 15.3974 5.82022C15.3974 5.34418 15.0053 4.95215 14.5293 4.95215H13.6612C13.185 4.95215 12.793 5.34419 12.793 5.82022C12.793 6.29626 13.185 6.68829 13.6612 6.68829Z" fill="#C36D5F"/>
<path d="M18.0302 6.68829H19.4304C19.9064 6.68829 20.2985 6.29625 20.2985 5.82022C20.2985 5.34418 19.9064 4.95215 19.4304 4.95215H18.0302C17.5541 4.95215 17.1621 5.34419 17.1621 5.82022C17.1621 6.29626 17.5542 6.68829 18.0302 6.68829Z" fill="#C36D5F"/>
<path d="M22.9584 6.68829H24.3586C24.8346 6.68829 25.2267 6.29625 25.2267 5.82022C25.2267 5.34418 24.8346 4.95215 24.3586 4.95215H22.9584C22.4824 4.95215 22.0903 5.34419 22.0903 5.82022C22.0903 6.29626 22.4824 6.68829 22.9584 6.68829Z" fill="#C36D5F"/>
<path d="M27.8593 6.68829C27.8593 7.16434 28.2513 7.55637 28.7274 7.55637C29.2034 7.55637 29.5954 7.16432 29.5954 6.68829V5.82022C29.5954 5.34418 29.2034 4.95215 28.7274 4.95215H27.8593C27.3832 4.95215 26.9912 5.34419 26.9912 5.82022C26.9912 6.29626 27.4112 6.68829 27.8593 6.68829Z" fill="#C36D5F"/>
<path d="M29.5955 10.1889C29.5955 9.71283 29.2035 9.3208 28.7274 9.3208C28.2514 9.3208 27.8594 9.71285 27.8594 10.1889V11.5891C27.8594 12.0651 28.2514 12.4571 28.7274 12.4571C29.2035 12.4571 29.5955 12.0651 29.5955 11.5891V10.1889Z" fill="#C36D5F"/>
<path d="M29.5955 15.1175C29.5955 14.6414 29.2035 14.2494 28.7274 14.2494C28.2514 14.2494 27.8594 14.6414 27.8594 15.1175V16.5177C27.8594 16.9937 28.2514 17.3857 28.7274 17.3857C29.2035 17.3857 29.5955 16.9937 29.5955 16.5177V15.1175Z" fill="#C36D5F"/>
<path d="M28.7274 19.1781C28.2514 19.1781 27.8594 19.5701 27.8594 20.0462V20.9142C27.8594 21.3903 28.2514 21.7823 28.7274 21.7823C29.2035 21.7823 29.5955 21.3903 29.5955 20.9142V20.0462C29.5955 19.5422 29.2035 19.1781 28.7274 19.1781Z" fill="#C36D5F"/>
<path d="M13.2973 22.1185H22.8466C23.3227 22.1185 23.7147 21.7265 23.7147 21.2504V11.7011C23.7147 11.225 23.3226 10.833 22.8466 10.833H13.2973C12.8212 10.833 12.4292 11.2251 12.4292 11.7011V21.2504C12.4292 21.7265 12.8212 22.1185 13.2973 22.1185ZM14.1374 12.5692H21.9785V20.4103H14.1374V12.5692Z" fill="#C36D5F"/>
</svg>
