<svg width="34" height="34" viewBox="0 0 34 34" fill="none" xmlns="http://www.w3.org/2000/svg">
<rect width="34" height="34" fill="white"/>
<path d="M31.5857 14.7438C31.5842 14.7403 31.5834 14.7355 31.5814 14.732L28.5837 9.14092L28.5822 9.13916C28.5779 9.13313 28.5737 9.12911 28.5699 9.12409C28.5566 9.09973 28.5365 9.0819 28.5187 9.06105C28.4973 9.03368 28.4787 9.00731 28.4529 8.98546C28.4453 8.97792 28.4418 8.96712 28.4335 8.96059C28.428 8.95708 28.4237 8.95708 28.4205 8.95406C28.3979 8.93598 28.369 8.92643 28.3441 8.91237C28.3218 8.90057 28.3067 8.88098 28.2833 8.87168L16.4134 4.04159C16.3621 4.02075 16.3101 4.00995 16.2564 4.00367C16.2521 4.00342 16.2489 4.00091 16.2438 4.00015C16.2353 3.99915 16.2275 4.00342 16.219 4.00191C16.1534 3.99965 16.0876 4.00468 16.0241 4.02326C16.0176 4.02602 16.011 4.02502 16.0048 4.02728C15.9583 4.04235 15.9128 4.06244 15.8709 4.08956L4.50177 11.2526C4.4975 11.2548 4.49499 11.2573 4.49072 11.2591L4.47666 11.2681C4.46109 11.2767 4.4523 11.2945 4.43848 11.3053C4.39353 11.3405 4.34882 11.3766 4.31542 11.4241C4.29457 11.4532 4.28478 11.4864 4.26895 11.518C4.25263 11.5519 4.22978 11.5801 4.21973 11.6162L1.91189 20.1699C1.90637 20.1892 1.91189 20.2063 1.90788 20.2262C1.90135 20.2633 1.89808 20.2992 1.89858 20.3364C1.89883 20.3558 1.89507 20.3748 1.89708 20.3962C1.89934 20.4178 1.90863 20.4359 1.91365 20.4575C1.92119 20.4896 1.93098 20.522 1.94454 20.5544C1.95283 20.5732 1.95635 20.5941 1.9669 20.6117C1.97795 20.634 1.99603 20.6488 2.01009 20.6667C2.02014 20.6835 2.02416 20.7018 2.03747 20.7159L9.72061 29.5351C9.74246 29.56 9.76933 29.5768 9.79395 29.5971C9.81278 29.613 9.82986 29.6313 9.85196 29.6461C9.90922 29.6813 9.97076 29.7102 10.0353 29.724L10.0361 29.725C10.0584 29.7298 10.0818 29.734 10.1056 29.7358L21.4992 30.9559C21.5082 30.9576 21.518 30.9524 21.5275 30.9531C21.5507 30.9541 21.574 30.9589 21.5959 30.9559C21.6142 30.9559 21.634 30.9511 21.6529 30.9479C21.6755 30.9428 21.6993 30.9403 21.7217 30.9355C21.7267 30.9338 21.7322 30.9348 21.7365 30.932C21.744 30.931 21.7513 30.9263 21.7579 30.9237C21.7795 30.9157 21.7988 30.9054 21.8209 30.8941C21.8493 30.8805 21.8789 30.8657 21.907 30.8461C21.9153 30.8386 21.9259 30.8351 21.9344 30.8273C21.9392 30.8245 21.9409 30.8208 21.9434 30.8173C21.951 30.8107 21.9558 30.8047 21.9618 30.7972C21.9766 30.7831 21.9949 30.7741 22.0085 30.7582L28.8616 23.0044L28.8644 23.0009C28.8857 22.975 28.8983 22.9426 28.9161 22.9142C28.9324 22.8866 28.952 22.861 28.9636 22.8313C28.9668 22.823 28.9741 22.8165 28.9779 22.8065L28.9796 22.8017L31.6199 15.2088C31.6207 15.2041 31.6199 15.2006 31.6207 15.1958C31.6363 15.1516 31.637 15.1026 31.6405 15.0544C31.642 15.0248 31.6523 14.9964 31.6496 14.967C31.6468 14.9338 31.6323 14.9014 31.6237 14.8683C31.6124 14.8251 31.6048 14.7827 31.5857 14.7438ZM16.7061 5.44559L25.6398 9.08097L16.2734 10.0723L16.7061 5.44559ZM15.8849 11.3104L27.2868 10.1029L25.1576 19.1067L10.6284 22.0012L9.5633 17.6357L15.8849 11.3104ZM15.4838 5.74019L15.0405 10.4724L8.97727 16.5368L5.64832 11.9368L15.4838 5.74019ZM5.04373 13.1308L8.3559 17.7054L9.35902 21.821L3.20961 19.9261L5.04373 13.1308ZM10.4645 28.5787L4.30506 21.5083L9.92526 23.2407L19.2408 29.5177L10.4645 28.5787ZM21.4613 29.5803L11.7015 23.0017L25.4366 20.2662L27.6141 22.6195L21.4613 29.5803ZM28.1807 21.4805L26.3014 19.4462L28.277 11.088L30.41 15.0639L28.1807 21.4805Z" fill="#C36D5F" stroke="#C36D5F" stroke-width="0.5"/>
</svg>
