<svg width="80" height="80" viewBox="0 0 80 80" fill="none" xmlns="http://www.w3.org/2000/svg">
<path d="M34.1518 17.6548C36.0946 17.113 38.1434 16.8232 40.2593 16.8232C46.3013 16.8232 51.7922 19.186 55.8565 23.0382L54.219 24.6757L61.199 26.4207L59.454 19.4407L58.3224 20.5723C53.6238 16.0894 47.2652 13.3333 40.2593 13.3333C37.8424 13.3333 35.5014 13.6612 33.2793 14.2739V17.6957L34.1518 17.6548Z" fill="black"/>
<path d="M15.0252 46.488H18.4469L18.406 45.6155C17.8642 43.6727 17.5745 41.6239 17.5745 39.5081C17.5745 33.466 19.9372 27.9752 23.7894 23.9108L25.4269 25.5483L27.1719 18.5684L20.1919 20.3134L21.3235 21.4449C16.8407 26.1435 14.0845 32.5022 14.0845 39.5081C14.0845 41.9249 14.4124 44.2659 15.0251 46.488H15.0252Z" fill="black"/>
<path d="M62.9441 36.8906C62.9441 42.9327 60.5814 48.4235 56.7292 52.4878L55.0917 50.8503L53.3467 57.8303L60.3266 56.0853L59.1951 54.9538C63.6779 50.2551 66.4341 43.8965 66.4341 36.8906C66.4341 34.4737 66.1061 32.1328 65.4935 29.9106H62.0717L62.1126 30.7831C62.6544 32.726 62.9442 34.7748 62.9442 36.8906H62.9441Z" fill="black"/>
<path d="M50.7292 59.5755V48.233H53.3467C56.238 48.233 58.5817 45.8894 58.5817 42.9981H55.0917C53.2699 42.9981 51.6671 43.9298 50.7292 45.3417V39.5081H53.3467C56.238 39.5081 58.5817 37.1644 58.5817 34.2731H55.0917C53.2699 34.2731 51.6671 35.2048 50.7292 36.6168V36.0181C50.7292 33.1268 48.3855 30.7831 45.4942 30.7831H42.0043C42.0043 33.6744 44.3479 36.0181 47.2392 36.0181H48.9842V41.8518C48.0463 40.4398 46.4435 39.5081 44.6218 39.5081H41.1318C41.1318 42.3994 43.4754 44.7431 46.3667 44.7431H48.9842V59.5755H40.2593V29.9106H24.5544V42.1256H36.7693V59.5755H35.0243V43.8706H22.8094V59.5755H13.2119V66.5555H67.3066V59.5755L50.7292 59.5755ZM28.0443 40.3806H26.2993V38.6356H28.0443V40.3806ZM28.0443 36.8906H26.2993V35.1456H28.0443V36.8906ZM28.0443 33.4006H26.2993V31.6556H28.0443V33.4006ZM31.5343 40.3806H29.7893V38.6356H31.5343V40.3806ZM31.5343 36.8906H29.7893V35.1456H31.5343V36.8906ZM31.5343 33.4006H29.7893V31.6556H31.5343V33.4006ZM35.0243 40.3806H33.2793V38.6356H35.0243V40.3806ZM35.0243 36.8906H33.2793V35.1456H35.0243V36.8906ZM35.0243 33.4006H33.2793V31.6556H35.0243V33.4006ZM36.7693 31.6556H38.5143V33.4006H36.7693V31.6556ZM36.7693 35.1456H38.5143V36.8906H36.7693V35.1456ZM36.7693 38.6356H38.5143V40.3806H36.7693V38.6356ZM31.5343 45.6156H33.2793V47.3605H31.5343V45.6156ZM31.5343 49.1055H33.2793V50.8505H31.5343V49.1055ZM31.5343 52.5955H33.2793V54.3405H31.5343V52.5955ZM28.0443 45.6156H29.7893V47.3605H28.0443V45.6156ZM28.0443 49.1055H29.7893V50.8505H28.0443V49.1055ZM28.0443 52.5955H29.7893V54.3405H28.0443V52.5955ZM24.5544 45.6156H26.2993V47.3605H24.5544V45.6156ZM24.5544 49.1055H26.2993V50.8505H24.5544V49.1055ZM24.5544 52.5955H26.2993V54.3405H24.5544V52.5955Z" fill="black"/>
</svg>
