<svg width="24" height="24" viewBox="0 0 24 24" fill="none" xmlns="http://www.w3.org/2000/svg">
<g clip-path="url(#clip0_2791_17506)">
<path d="M15.2943 8.70579L8.70574 15.2943M9.29682 5.24107L7.88831 5.04185C7.30185 4.95889 6.75528 5.356 6.65294 5.93939L6.40716 7.34053C6.34865 7.67414 6.13945 7.96207 5.84025 8.12082L4.58364 8.78755C4.06042 9.06515 3.85165 9.70768 4.11177 10.2398L4.7365 11.5178C4.88525 11.8221 4.88525 12.178 4.7365 12.4823L4.11177 13.7603C3.85165 14.2924 4.06042 14.935 4.58364 15.2126L5.84025 15.8793C6.13945 16.038 6.34865 16.326 6.40716 16.6596L6.65294 18.0607C6.75528 18.6441 7.30185 19.0412 7.88831 18.9583L9.29682 18.759C9.63219 18.7116 9.97067 18.8216 10.2141 19.0571L11.2365 20.0462C11.6622 20.458 12.3378 20.458 12.7635 20.0462L13.7859 19.0571C14.0294 18.8216 14.3678 18.7116 14.7032 18.759L16.1117 18.9583C16.6982 19.0412 17.2447 18.6441 17.3471 18.0607L17.5929 16.6596C17.6514 16.326 17.8606 16.038 18.1598 15.8793L19.4164 15.2126C19.9396 14.935 20.1484 14.2924 19.8883 13.7603L19.2635 12.4823C19.1148 12.178 19.1148 11.8221 19.2635 11.5178L19.8883 10.2398C20.1484 9.70768 19.9396 9.06515 19.4164 8.78755L18.1598 8.12082C17.8606 7.96207 17.6514 7.67414 17.5929 7.34053L17.3471 5.93939C17.2447 5.356 16.6982 4.95889 16.1117 5.04185L14.7032 5.24107C14.3678 5.28851 14.0294 5.17853 13.7859 4.94303L12.7635 3.95395C12.3378 3.54213 11.6622 3.54213 11.2365 3.95395L10.2141 4.94303C9.97067 5.17852 9.63219 5.28851 9.29682 5.24107ZM15.1059 15.1059C14.6771 15.5347 13.9818 15.5347 13.553 15.1059C13.1241 14.6771 13.1241 13.9818 13.553 13.553C13.9818 13.1241 14.6771 13.1241 15.1059 13.553C15.5347 13.9818 15.5347 14.6771 15.1059 15.1059ZM10.4471 10.4471C10.0182 10.876 9.32296 10.876 8.89413 10.4471C8.4653 10.0183 8.4653 9.32304 8.89413 8.89421C9.32296 8.46537 10.0182 8.46537 10.4471 8.89421C10.8759 9.32304 10.8759 10.0183 10.4471 10.4471Z" stroke="black" stroke-linecap="round"/>
</g>
<defs>
<clipPath id="clip0_2791_17506">
<rect width="24" height="24" fill="white"/>
</clipPath>
</defs>
</svg>
