<svg width="24" height="24" viewBox="0 0 24 24" fill="none" xmlns="http://www.w3.org/2000/svg">
<circle cx="11" cy="18" r="1" stroke="black"/>
<circle cx="6" cy="13" r="1" stroke="black"/>
<path d="M5.69547 12.45C4.40628 10.4697 3.67901 8.52092 3.63758 6.93559C3.59615 5.35026 4.24313 4.2265 5.46827 3.75579C6.69341 3.28509 8.42092 3.49655 10.3564 4.35416C12.292 5.21177 14.3158 6.66246 16.083 8.45905C17.8502 10.2556 19.2515 12.287 20.0481 14.2069C20.8448 16.1269 20.9874 17.8167 20.4518 18.9884C19.9162 20.1601 18.7355 20.7412 17.1108 20.6327C15.4861 20.5242 13.518 19.7329 11.5418 18.3934" stroke="black"/>
<path d="M18.6999 11.6896C17.9665 10.5657 17.0722 9.46281 16.0681 8.44396C15.064 7.4251 13.9698 6.51023 12.8479 5.75156" stroke="black" stroke-width="3" stroke-linecap="round" stroke-linejoin="round"/>
</svg>
