<svg width="120" height="120" viewBox="0 0 120 120" fill="none" xmlns="http://www.w3.org/2000/svg">
<path d="M59.8233 20C55.5272 20 52.0147 23.5265 52.0147 27.8258C52.0147 31.2358 54.225 34.157 57.2837 35.2199L44.3054 63.6712L22.6736 43.8941C23.8922 42.5129 24.6344 40.7016 24.6344 38.7274C24.6344 34.4281 21.1219 30.9016 16.8258 30.9016C12.5297 30.9016 9 34.4281 9 38.7274C9 43.0267 12.5297 46.5492 16.8258 46.5492C17.5008 46.5492 18.1538 46.4632 18.7795 46.2997L26.3042 80.4493V80.4485C26.5138 81.3886 27.443 81.983 28.3847 81.7796C28.8399 81.6819 29.2372 81.4074 29.489 81.0163C29.7416 80.6252 29.8277 80.1505 29.7291 79.6961L22.9405 48.8902L43.7233 67.8915C44.1355 68.2669 44.7025 68.4233 45.2484 68.3131C45.7951 68.2028 46.2566 67.8391 46.492 67.3339L59.8231 38.1337L73.1439 67.3339H73.1431C73.377 67.8446 73.8416 68.2122 74.3922 68.3225C74.9428 68.4327 75.5129 68.2724 75.9251 67.8915L96.6939 48.891L89.9155 79.6969H89.9163C89.7106 80.6401 90.3073 81.5724 91.2506 81.7804C92.1922 81.9837 93.1214 81.3893 93.331 80.4493L100.856 46.2997C101.481 46.4631 102.138 46.5492 102.813 46.5492C107.109 46.5492 110.635 43.0257 110.635 38.7274C110.635 34.4281 107.109 30.9016 102.813 30.9016C98.5172 30.9016 95.0015 34.4281 95.0015 38.7274C95.0015 40.703 95.743 42.5159 96.9623 43.8979L75.3305 63.686L62.3522 35.2247C65.418 34.1657 67.6354 31.2421 67.6354 27.8268C67.6354 23.5275 64.1192 20.001 59.8236 20.001L59.8233 20ZM59.8233 23.5039C62.2214 23.5039 64.1313 25.4161 64.1313 27.8258C64.1313 30.2355 62.2213 32.1438 59.8233 32.1438C57.4253 32.1438 55.5186 30.2346 55.5186 27.8258C55.5186 25.4162 57.4246 23.5039 59.8233 23.5039V23.5039ZM16.826 34.4056C19.224 34.4056 21.1307 36.3179 21.1307 38.7276C21.1307 40.2246 20.3956 41.5267 19.2623 42.3003L19.2615 42.2995C19.1739 42.3449 19.091 42.3973 19.012 42.4568C18.373 42.8314 17.6277 43.0449 16.8252 43.0449C14.4272 43.0449 12.5033 41.1358 12.5033 38.7269C12.5033 36.3173 14.4265 34.405 16.8252 34.405L16.826 34.4056ZM102.815 34.4056C105.213 34.4056 107.133 36.3179 107.133 38.7276C107.133 41.1373 105.212 43.0456 102.815 43.0456C102.043 43.0456 101.32 42.8469 100.697 42.4981H100.696C100.586 42.4089 100.468 42.333 100.34 42.272C99.2279 41.4962 98.506 40.208 98.506 38.7267C98.506 36.3171 100.416 34.4048 102.814 34.4048L102.815 34.4056ZM60.0115 56.6061H60.0107C59.6478 56.6053 59.299 56.8431 59.0425 57.2662L53.6944 66.0775C53.4379 66.499 53.294 67.0715 53.294 67.6683C53.294 68.2658 53.4379 68.8375 53.6944 69.2599L59.0425 78.0712V78.0704C59.299 78.4935 59.6463 78.7313 60.0092 78.7313C60.3721 78.7313 60.7193 78.4935 60.9759 78.0704L66.3272 69.2599C66.5837 68.8375 66.7284 68.2658 66.7284 67.6683C66.7284 67.0715 66.5837 66.499 66.3272 66.0775L60.9759 57.2662C60.7201 56.8446 60.3729 56.6069 60.0107 56.6061L60.0115 56.6061ZM60.0115 62.0433L63.4263 67.6682L60.0107 73.294L56.593 67.6682L60.0115 62.0433ZM30.7013 87.275C27.2184 87.275 24.3639 90.1516 24.3639 93.639C24.3639 97.1264 27.2178 100 30.7013 100H88.9353C92.4182 100 95.2719 97.1264 95.2719 93.639C95.2719 90.1516 92.418 87.275 88.9353 87.275H30.7013ZM30.7013 90.7789H88.9353C90.5238 90.7789 91.7681 92.0185 91.7681 93.639C91.7681 95.2603 90.5237 96.4961 88.9353 96.4961L30.7013 96.4969C29.1128 96.4969 27.8678 95.2604 27.8678 93.6398C27.8678 92.0185 29.1121 90.7796 30.7013 90.7796V90.7789Z" fill="black"/>
</svg>
