<svg width="120" height="120" viewBox="0 0 120 120" fill="none" xmlns="http://www.w3.org/2000/svg">
<path fill-rule="evenodd" clip-rule="evenodd" d="M102 51.6C102.009 48.9749 101.043 46.4399 99.2895 44.4862C98.0919 43.1423 97.4301 41.405 97.4303 39.6048C97.433 39.0982 97.4841 38.5931 97.5828 38.0962C97.7303 37.3875 97.8087 36.6662 97.8167 35.9424C97.8148 33.6917 97.1027 31.4991 95.7818 29.6768C94.4609 27.8545 92.5986 26.4955 90.4601 25.7936C89.3707 25.4431 88.3804 24.8382 87.5712 24.0289C86.7619 23.2197 86.157 22.2294 85.8065 21.14C85.4197 19.9545 84.8258 18.8469 84.0526 17.8685C83.0495 16.6013 81.774 15.5761 80.3208 14.8689C78.8675 14.1617 77.2737 13.7906 75.6575 13.7833C74.9287 13.7916 74.2023 13.8703 73.4886 14.0185C72.3683 14.2469 71.2102 14.2121 70.1056 13.9169C69.001 13.6216 67.9801 13.0739 67.1231 12.317C65.1789 10.5815 62.668 9.61547 60.062 9.60022C57.4559 9.58497 54.9339 10.5216 52.9695 12.2341C52.9054 12.2773 52.8441 12.3245 52.7859 12.3753C51.9417 13.1276 50.931 13.6687 49.8368 13.9539C48.7426 14.2391 47.5964 14.2603 46.4924 14.0158C45.7849 13.8693 45.0648 13.7914 44.3423 13.7833C42.7273 13.7906 41.1345 14.1612 39.6822 14.8676C38.2298 15.5741 36.9549 16.5983 35.9521 17.8643C35.1771 18.8437 34.5822 19.9529 34.195 21.1403C33.8437 22.231 33.2375 23.2223 32.4266 24.032C31.6158 24.8417 30.6237 25.4466 29.5325 25.7964C27.3957 26.4992 25.5351 27.8582 24.2156 29.6798C22.896 31.5015 22.1848 33.6931 22.1832 35.9424C22.1909 36.6643 22.2684 37.3838 22.4145 38.0908C22.5147 38.5893 22.5666 39.0964 22.5696 39.6048C22.5704 41.4007 21.9119 43.1344 20.719 44.4768C18.9697 46.4347 18.002 48.9679 18.0005 51.5935C17.999 54.2191 18.9637 56.7534 20.7108 58.7133C21.9084 60.0574 22.57 61.795 22.5696 63.5952C22.5668 64.1018 22.5158 64.607 22.417 65.1038C22.2695 65.8125 22.1912 66.5338 22.1832 67.2576C22.1851 69.5088 22.8977 71.702 24.2192 73.5245C25.5408 75.347 27.4039 76.7058 29.5431 77.4073C30.1843 77.6267 30.7899 77.9388 31.3407 78.3337L21.5831 97.092C21.4545 97.3385 21.3892 97.613 21.3929 97.891C21.3967 98.1689 21.4694 98.4416 21.6046 98.6845C21.7397 98.9274 21.9331 99.1329 22.1673 99.2826C22.4015 99.4324 22.6692 99.5216 22.9464 99.5423L34.9985 100.446L42.657 109.786C42.8146 109.978 43.0129 110.132 43.2375 110.239C43.4621 110.345 43.7075 110.4 43.9559 110.4C44.0134 110.4 44.0709 110.397 44.1298 110.391C44.4062 110.362 44.6712 110.266 44.9009 110.109C45.1306 109.953 45.3178 109.742 45.4456 109.495L54.5031 92.0819C56.1643 93.0755 58.0638 93.6002 59.9995 93.6C61.9351 93.5998 63.8345 93.0748 65.4955 92.0809L74.5536 109.495C74.6814 109.742 74.8686 109.953 75.0983 110.109C75.328 110.266 75.593 110.362 75.8694 110.391C75.9283 110.397 75.9858 110.4 76.0432 110.4C76.2918 110.4 76.5372 110.345 76.7619 110.239C76.9865 110.132 77.1849 109.978 77.3426 109.786L85.001 100.446L97.0515 99.5423C97.3287 99.5217 97.5965 99.4326 97.8308 99.2829C98.0651 99.1332 98.2585 98.9276 98.3936 98.6847C98.5288 98.4417 98.6015 98.169 98.6052 97.891C98.6089 97.613 98.5434 97.3385 98.4148 97.092L88.6516 78.3206C89.2114 77.9319 89.8227 77.6234 90.4679 77.4038C92.6046 76.7009 94.4651 75.3419 95.7846 73.5202C97.104 71.6985 97.8151 69.507 97.8167 67.2576C97.8089 66.5357 97.7315 65.8162 97.5854 65.1092C97.4852 64.6107 97.4332 64.1037 97.4303 63.5952C97.4301 61.7959 98.091 60.0593 99.2874 58.7153C101.041 56.7611 102.008 54.2258 102 51.6ZM34.8616 97.0665L25.7392 96.3826L33.7395 81.0027C33.7467 81.0167 33.7545 81.0303 33.7622 81.0439C33.7705 81.0584 33.7789 81.0729 33.7864 81.088C33.9464 81.4036 34.0835 81.7304 34.1967 82.0656C35.0823 84.7229 36.9759 86.9262 39.4698 88.2011L34.8616 97.0665ZM43.6413 105.685L37.8439 98.6153L42.6959 89.2824C43.9573 89.4882 45.2461 89.455 46.4951 89.1844C46.9836 89.0876 47.4802 89.037 47.9782 89.0332C48.0747 89.0323 48.1675 89.0426 48.2602 89.053H48.2603C48.3227 89.0599 48.3851 89.0668 48.4486 89.0704C49.4818 89.1334 50.4898 89.4158 51.4054 89.8988C51.4552 89.9252 51.5063 89.9481 51.5574 89.971C51.625 90.0013 51.6926 90.0316 51.7572 90.0701L51.7624 90.0738L43.6413 105.685ZM76.3586 105.685L68.2375 90.072C68.6063 89.8517 68.9931 89.6631 69.3938 89.5082C70.1009 89.2484 70.8439 89.0995 71.5965 89.0667C71.6557 89.0637 71.7138 89.0572 71.7719 89.0507C71.8542 89.0415 71.9366 89.0323 72.0223 89.0331C72.4615 89.0413 72.8992 89.0859 73.331 89.1665C73.3473 89.1693 73.3633 89.1711 73.3791 89.1725C73.3908 89.1735 73.4025 89.1743 73.4142 89.1751C73.4442 89.1771 73.4742 89.1791 73.5056 89.1853C73.5131 89.1867 73.5201 89.1878 73.5271 89.1887C73.5441 89.1908 73.5601 89.1919 73.5783 89.1954C74.0256 89.2805 74.438 89.3348 74.8308 89.3699C74.9441 89.3802 75.0544 89.3851 75.164 89.3899C75.2007 89.3915 75.2372 89.3931 75.2738 89.3949C75.3244 89.3971 75.3766 89.401 75.4289 89.4049C75.5069 89.4108 75.585 89.4166 75.658 89.4166C75.6891 89.4166 75.7194 89.4131 75.7497 89.4095C75.7668 89.4075 75.7839 89.4055 75.8011 89.4042C75.8121 89.4033 75.8231 89.4027 75.8342 89.4025C76.3176 89.4022 76.8001 89.3638 77.2774 89.2874L77.3063 89.2851L82.1559 98.6161L76.3586 105.685ZM94.2595 96.3819L85.1382 97.0658L80.5443 88.2268C80.6091 88.1934 80.6699 88.1536 80.7308 88.1139C80.7796 88.082 80.8284 88.0502 80.8793 88.0215C81.0308 87.9366 81.1763 87.8439 81.3223 87.751L81.3225 87.7509L81.3739 87.7181L81.4866 87.6465L81.4869 87.6462C81.686 87.5199 81.8843 87.394 82.0728 87.2516C82.4172 86.9931 82.7458 86.714 83.0566 86.4158C83.1548 86.3209 83.246 86.2194 83.3372 86.1177C83.36 86.0923 83.3828 86.0669 83.4057 86.0416C83.4258 86.0194 83.4459 85.9973 83.4663 85.9753C83.6829 85.7426 83.8935 85.5057 84.0889 85.2541C84.2065 85.1015 84.3166 84.9436 84.4266 84.7837C84.622 84.5018 84.8022 84.2101 84.9706 83.9089C84.9926 83.8694 85.0149 83.8302 85.0371 83.791C85.0941 83.6906 85.151 83.5905 85.2031 83.4862C85.4379 83.0266 85.6392 82.5507 85.8054 82.0621L85.8203 82.0261C85.948 81.6848 86.1009 81.3535 86.278 81.0349L94.2595 96.3819ZM96.7877 56.472L96.7795 56.4811C95.0339 58.4396 94.0696 60.9717 94.0703 63.5952C94.0736 64.3182 94.1456 65.0392 94.2852 65.7486C94.3901 66.2449 94.4472 66.75 94.4558 67.2571C94.4542 68.7992 93.9662 70.3015 93.0613 71.5503C92.1564 72.799 90.8808 73.7305 89.4159 74.2123C87.5657 74.8253 85.9193 75.9343 84.6559 77.4184C84.6288 77.4496 84.6009 77.4799 84.5731 77.5102C84.5341 77.5526 84.4952 77.5949 84.4585 77.6397C84.2764 77.8644 84.1124 78.1028 83.949 78.3421C83.9177 78.3876 83.8853 78.4322 83.8528 78.4766L83.8527 78.4769C83.8027 78.5454 83.7527 78.6139 83.7074 78.6861C83.5335 78.9632 83.3815 79.254 83.2335 79.5473C83.2208 79.5724 83.2073 79.5971 83.1936 79.6216C83.1863 79.6345 83.1791 79.6473 83.1718 79.6601C83.1451 79.7071 83.1184 79.7541 83.0954 79.8032C82.9101 80.1946 82.7493 80.5972 82.6137 81.0086C82.5002 81.3418 82.3632 81.6666 82.2038 81.9804C82.1622 82.0636 82.1165 82.144 82.0709 82.2244L82.0324 82.2922C81.9235 82.4868 81.8064 82.675 81.6813 82.8569C81.5973 82.979 81.5133 83.1012 81.4216 83.2178C81.3279 83.3384 81.2266 83.4511 81.125 83.564L81.1248 83.5642L81.0767 83.6178C80.5927 84.1552 80.0319 84.618 79.4125 84.9913C79.3975 85.0003 79.3828 85.0096 79.368 85.0188C79.3473 85.0319 79.3265 85.0449 79.3053 85.0572C79.066 85.195 78.8193 85.3193 78.5661 85.4295L78.5083 85.4537C78.2422 85.5674 77.9698 85.6655 77.6923 85.7475C77.6415 85.7634 77.5916 85.7754 77.5417 85.7874C77.5058 85.796 77.47 85.8046 77.4339 85.8147C77.3741 85.8297 77.3146 85.8459 77.2551 85.862C77.1152 85.9 76.9751 85.9381 76.8305 85.9615L76.8026 85.965C76.4584 86.0177 76.1109 86.0458 75.7627 86.0491C75.6506 86.0491 75.5381 86.0491 75.4198 86.043L75.4194 86.043C75.3135 86.0385 75.2073 86.0339 75.093 86.0232C74.8002 85.9948 74.4936 85.9548 74.1485 85.8876C73.7197 85.8038 73.2864 85.744 72.8509 85.7087C72.7407 85.6997 72.6323 85.699 72.5239 85.6984C72.4852 85.6981 72.4464 85.6979 72.4076 85.6973C72.3803 85.6968 72.3529 85.6962 72.3254 85.6953C72.2627 85.6931 72.1998 85.6905 72.137 85.6878H72.1369C71.9546 85.68 71.7723 85.6722 71.5929 85.6785C71.2515 85.6894 70.9171 85.7263 70.5841 85.769C70.5522 85.7731 70.5198 85.7754 70.4874 85.7776C70.45 85.7802 70.4126 85.7828 70.3759 85.7883C69.1906 85.9643 68.0449 86.3447 66.9897 86.9127L66.9701 86.9221C66.6476 87.0977 66.3345 87.2898 66.0318 87.4976C66.0167 87.5077 66.0011 87.5171 65.9855 87.5264L65.9853 87.5266C65.9681 87.5369 65.9509 87.5473 65.9344 87.5587C65.656 87.7521 65.389 87.9661 65.1261 88.1872C65.1037 88.206 65.0803 88.2233 65.057 88.2405L65.0569 88.2406C65.0305 88.2602 65.0042 88.2797 64.9791 88.3014L64.9724 88.3095C64.9571 88.3228 64.9412 88.3348 64.9253 88.3468C64.9076 88.3603 64.8897 88.3738 64.8724 88.3893C63.5297 89.5824 61.796 90.2415 59.9998 90.2415C58.2036 90.2415 56.4698 89.5824 55.1271 88.3893C55.1 88.3652 55.0731 88.343 55.0461 88.3207L55.0386 88.3145L54.9893 88.2752C54.8751 88.1769 54.7554 88.0878 54.6356 87.9989L54.6354 87.9987C54.5824 87.9593 54.5294 87.9199 54.4769 87.8798C54.4259 87.8406 54.3756 87.8003 54.3252 87.76C54.2309 87.6845 54.1366 87.609 54.0381 87.5409C53.9644 87.4895 53.8876 87.4445 53.8109 87.3994L53.8109 87.3994C53.7622 87.3708 53.7135 87.3422 53.6657 87.3121C53.6213 87.2841 53.5771 87.2559 53.5329 87.2277C53.3594 87.1171 53.1863 87.0067 53.0059 86.91C52.9769 86.8946 52.9469 86.8814 52.917 86.8682C52.8904 86.8564 52.8638 86.8447 52.8379 86.8314C50.6848 85.7311 48.2207 85.3984 45.8528 85.8881C44.6708 86.1748 43.432 86.123 42.278 85.7388C41.1412 85.4055 40.1024 84.8014 39.2505 83.9782C38.3986 83.1551 37.7592 82.1376 37.3872 81.0129C36.8501 79.3624 35.9087 77.8724 34.6488 76.6785L34.6343 76.6659L34.6192 76.6491L34.6098 76.6436C33.4756 75.5349 32.1003 74.7037 30.5914 74.2151C29.1247 73.7344 27.8472 72.803 26.9407 71.5538C26.0343 70.3045 25.5452 68.8011 25.5432 67.2576C25.5518 66.7487 25.6096 66.2419 25.7155 65.7441C25.8543 65.0361 25.9259 64.3166 25.9296 63.5952C25.9296 60.9677 24.9625 58.4321 23.2127 56.472C22.0181 55.1281 21.359 53.3922 21.3605 51.5941C21.362 49.796 22.0241 48.0612 23.2209 46.7193C24.9663 44.7606 25.9304 42.2284 25.9296 39.6048C25.9262 38.8818 25.8543 38.1608 25.7147 37.4514C25.6095 36.955 25.552 36.4498 25.5432 35.9424C25.5448 34.4003 26.0328 32.898 26.9377 31.6493C27.8426 30.4006 29.1182 29.469 30.5832 28.9872C32.1705 28.465 33.613 27.5775 34.7948 26.3961C35.9765 25.2147 36.8644 23.7724 37.3872 22.1853C37.6518 21.3732 38.0591 20.6149 38.5899 19.9458C39.2769 19.0769 40.1508 18.3738 41.1466 17.8887C42.1424 17.4035 43.2346 17.1488 44.3423 17.1433C44.8497 17.152 45.3551 17.2089 45.8517 17.3131C47.4432 17.6508 49.0914 17.6145 50.6666 17.2071C52.2418 16.7997 53.7009 16.0323 54.9292 14.9653C54.999 14.9191 55.0654 14.8679 55.1279 14.8123C56.472 13.6178 58.208 12.9587 60.0061 12.9601C61.8042 12.9614 63.5392 13.6232 64.8815 14.8197C66.1275 15.9244 67.613 16.7246 69.221 17.1574C70.829 17.5902 72.5155 17.6436 74.1477 17.3134C74.6445 17.2093 75.15 17.1523 75.6575 17.1433C76.7659 17.149 77.8587 17.4042 78.855 17.8899C79.8513 18.3756 80.7256 19.0793 81.4128 19.9489C81.9421 20.6174 82.3483 21.3746 82.6127 22.1853C83.1345 23.7713 84.0212 25.2128 85.2014 26.3939C86.3816 27.575 87.8225 28.4627 89.4081 28.9857C90.8747 29.4664 92.1523 30.3976 93.0587 31.6467C93.9652 32.8958 94.4544 34.3991 94.4567 35.9424C94.448 36.4513 94.3903 36.9582 94.2843 37.4559C94.1456 38.1639 94.0739 38.8834 94.0703 39.6048C94.0702 42.2323 95.0373 44.768 96.7872 46.728C97.9804 48.0704 98.6396 49.804 98.6396 51.6C98.6396 53.3961 97.9804 55.1297 96.7872 56.472H96.7877ZM77.1493 43.816L67.5156 41.9318L62.7464 33.3522C62.4744 32.8622 62.0762 32.4538 61.5933 32.1695C61.1103 31.8852 60.56 31.7353 59.9996 31.7353C59.4391 31.7353 58.8889 31.8852 58.4059 32.1695C57.9229 32.4538 57.5248 32.8622 57.2528 33.3522L52.4836 41.9318L42.8505 43.816C42.3007 43.9238 41.7897 44.1765 41.3704 44.548C40.9511 44.9196 40.6387 45.3964 40.4655 45.9293C40.2923 46.4621 40.2647 47.0315 40.3855 47.5786C40.5063 48.1256 40.7711 48.6305 41.1525 49.0408L47.8379 56.2267L46.6535 65.9729C46.5863 66.5291 46.669 67.0932 46.893 67.6067C47.117 68.1203 47.4742 68.5646 47.9276 68.8938C48.381 69.223 48.9141 69.425 49.4717 69.479C50.0294 69.533 50.5914 69.4369 51.0995 69.2008L59.9999 65.0638L68.9019 69.2015C69.41 69.4374 69.9719 69.5333 70.5295 69.4792C71.0871 69.4251 71.6201 69.2229 72.0733 68.8937C72.5266 68.5644 72.8836 68.12 73.1074 67.6064C73.3312 67.0929 73.4137 66.5288 73.3463 65.9727L72.1619 56.2274L78.8483 49.0407C79.2298 48.6303 79.4947 48.1255 79.6156 47.5784C79.7364 47.0312 79.7088 46.4618 79.5356 45.9289C79.3625 45.3961 79.05 44.9192 78.6306 44.5477C78.2112 44.1761 77.7001 43.9235 77.1502 43.8159L77.1493 43.816ZM69.632 54.0136C69.32 54.3485 69.0851 54.7476 68.9436 55.183C68.8022 55.6183 68.7577 56.0793 68.8134 56.5336L69.9635 65.9902L61.3239 61.974C60.9089 61.7809 60.4567 61.681 59.999 61.6811C59.5413 61.6813 59.0891 61.7815 58.6742 61.9748L50.0364 65.99L51.1848 56.5351C51.2413 56.0806 51.1974 55.6193 51.0562 55.1836C50.915 54.7479 50.6801 54.3485 50.3678 54.0135L43.8792 47.0393L53.2295 45.2098C53.6788 45.1223 54.1034 44.9375 54.4735 44.6683C54.8437 44.3992 55.1504 44.0523 55.3722 43.6519L59.9999 35.3267L64.6282 43.6527C64.8501 44.0529 65.1569 44.3996 65.527 44.6686C65.8972 44.9376 66.3217 45.1223 66.7708 45.2098L76.1207 47.0391L69.632 54.0136ZM43.2544 25.7483C48.2111 22.4363 54.0385 20.6685 59.9999 20.6684C67.991 20.6775 75.6523 23.8558 81.3029 29.5063C86.9536 35.1568 90.1322 42.818 90.1414 50.8091C90.1415 56.7705 88.3739 62.598 85.062 67.5547C81.7501 72.5115 77.0427 76.3748 71.5352 78.6562C66.0276 80.9377 59.9673 81.5346 54.1204 80.3717C48.2736 79.2088 42.9029 76.3382 38.6875 72.1229C34.4721 67.9077 31.6014 62.5371 30.4383 56.6903C29.2752 50.8434 29.872 44.783 32.1533 39.2754C34.4345 33.7678 38.2977 29.0603 43.2544 25.7483ZM45.1212 73.077C49.5253 76.0198 54.7031 77.5906 59.9999 77.5906C67.1003 77.5824 73.9074 74.7581 78.9282 69.7374C83.9489 64.7166 86.7732 57.9095 86.7814 50.8091C86.7814 45.5123 85.2106 40.3345 82.2678 35.9304C79.3251 31.5263 75.1424 28.0937 70.2488 26.0668C65.3552 24.0398 59.9704 23.5095 54.7754 24.5429C49.5804 25.5762 44.8085 28.1269 41.0631 31.8723C37.3177 35.6177 34.767 40.3896 33.7337 45.5846C32.7003 50.7796 33.2306 56.1644 35.2576 61.058C37.2845 65.9516 40.7171 70.1343 45.1212 73.077Z" fill="black"/>
</svg>
