<svg width="24" height="24" viewBox="0 0 24 24" fill="none" xmlns="http://www.w3.org/2000/svg">
	<rect width="24" height="24" fill="none"/>
	<path d="M4.06067 4.11738C5.40189 2.77528 7.69005 2.64608 10.3789 3.71577C11.0955 2.94538 12.2315 2.77916 13.1362 3.30352C16.0831 5.01228 18.9209 7.79858 20.6976 10.8653C21.2308 11.7844 21.0312 12.9268 20.2849 13.6232C21.3551 16.3106 21.2263 18.598 19.8836 19.9407C17.7109 22.1133 13.7727 20.7562 11.1388 19.1008C10.8254 19.3193 10.4463 19.4492 10.0365 19.4492C8.96905 19.4492 8.10088 18.581 8.10088 17.5136C8.10088 16.4462 8.96905 15.578 10.0365 15.578C11.279 15.578 12.2627 16.7615 11.8867 18.0513C14.8767 19.9117 17.6841 20.3138 18.9711 19.0284C19.9033 18.0962 19.9458 16.3105 19.1266 14.1942C18.1624 14.3549 17.2673 13.8784 16.8242 13.1122C15.4466 10.7414 13.1853 8.50999 10.8885 7.17729C10.1091 6.7254 9.64807 5.83592 9.80769 4.87518C7.69158 4.05514 5.90408 4.09807 4.97235 5.02986C3.68678 6.31543 4.08977 9.12473 5.94944 12.1143C7.23858 11.7386 8.42303 12.7214 8.42303 13.9645C8.42303 15.0319 7.55486 15.9001 6.48743 15.9001C5.42001 15.9001 4.55184 15.0319 4.55184 13.9645C4.55184 13.555 4.68131 13.1764 4.899 12.8633C2.64413 9.27639 2.30266 5.87533 4.0602 4.11748L4.06067 4.11738ZM10.0367 16.8682C9.68066 16.8682 9.39141 17.1575 9.39141 17.5135C9.39141 17.8695 9.68065 18.1588 10.0367 18.1588C10.3927 18.1588 10.6819 17.8695 10.6819 17.5135C10.6818 17.1575 10.3925 16.8682 10.0367 16.8682ZM11.5369 6.06112C14.0641 7.52881 16.4721 9.93669 17.9404 12.4654C18.1937 12.9019 18.7949 13.0651 19.2364 12.8095C19.6889 12.5471 19.8437 11.9656 19.5812 11.513C17.9891 8.76545 15.3688 6.09042 12.4875 4.42013C12.0355 4.15714 11.4554 4.31091 11.1921 4.76504C10.9288 5.21781 11.0829 5.79782 11.5367 6.0611L11.5369 6.06112ZM6.48801 14.61C6.84402 14.61 7.13327 14.3207 7.13327 13.9647C7.13327 13.6087 6.84403 13.3194 6.48801 13.3194C6.13199 13.3194 5.84275 13.6087 5.84275 13.9647C5.84275 14.3207 6.13215 14.61 6.48801 14.61Z" fill="black" stroke="black" stroke-width="1"/>
</svg>
