<svg width="50" height="50" viewBox="0 0 50 50" fill="none" xmlns="http://www.w3.org/2000/svg">
<path d="M38.1959 27.1917C38.5593 27.2806 38.9724 27.3816 39.3682 27.3862C40.7211 27.63 41.948 28.335 42.8399 29.3816C43.7369 30.4341 44.239 31.7661 44.2601 33.1487V39.3965C44.2601 40.9739 43.6335 42.4867 42.5181 43.6021C41.4027 44.7175 39.8899 45.3442 38.3125 45.3442H38.3009L38.2894 45.345C38.0368 45.3643 37.783 45.3645 37.5303 45.3456C28.8768 44.2553 20.8321 40.316 14.6646 34.1485C8.49537 27.9793 4.55556 19.9318 3.46662 11.2754L3.46663 11.2754L3.46631 11.273C3.35281 10.4256 3.42333 9.56369 3.67309 8.746C3.92278 7.92851 4.34575 7.17444 4.91318 6.53517C5.47187 5.91064 6.15622 5.41121 6.92139 5.06962C7.68672 4.72795 8.51562 4.5519 9.35375 4.553H9.35415H15.6041V4.55303L15.6085 4.55297C17.0255 4.53236 18.4032 5.01834 19.4936 5.92339C20.5825 6.82713 21.3134 8.08945 21.5552 9.48355C21.6189 9.97041 21.7036 10.4353 21.8087 10.9191L21.8093 10.9217C22.0225 11.8611 22.2976 12.7853 22.6329 13.6883C22.9586 14.5844 22.9416 15.5693 22.585 16.4536C22.2283 17.3382 21.557 18.0597 20.7004 18.4791L20.6852 18.4865L20.671 18.4956L19.7543 19.0789L19.5122 19.233L19.6535 19.4828C20.8088 21.5259 22.2253 23.4099 23.8673 25.0872L23.8672 25.0872L23.8713 25.0912C25.55 26.7418 27.4426 28.1595 29.4985 29.3064L29.7772 29.4618L29.9174 29.1751L30.3757 28.2378C30.7951 27.3811 31.5166 26.7099 32.4012 26.3532C33.2852 25.9967 34.2697 25.9795 35.1656 26.3049C36.0673 26.6461 36.9925 26.9215 37.934 27.129C38.0175 27.148 38.1051 27.1695 38.1959 27.1917ZM17.2437 31.7761L17.2449 31.7773C22.8477 37.3613 30.135 40.9425 37.9786 41.9667C38.3195 42.018 38.6675 41.9948 38.9986 41.8987C39.3307 41.8022 39.6379 41.6348 39.8989 41.4078C40.1598 41.1809 40.3683 40.8999 40.51 40.5844C40.6516 40.2689 40.7229 39.9264 40.719 39.5806L40.6565 33.0861C40.6687 32.5364 40.4907 31.9994 40.1525 31.5658C39.8133 31.1309 39.3337 30.8269 38.7956 30.7057L38.7846 30.7032L38.7734 30.7016C38.2166 30.6191 37.6415 30.5163 37.1096 30.3936L37.1086 30.3933C36.0049 30.1429 34.9174 29.8262 33.8518 29.4451L33.5889 29.3511L33.4743 29.6058L32.1627 32.5204C32.1625 32.5207 32.1624 32.5211 32.1622 32.5215C31.9653 32.9495 31.6069 33.2821 31.1653 33.4465L31.1653 33.4463L31.1559 33.4502C30.7244 33.6274 30.2407 33.6283 29.8087 33.4528C23.4539 30.4841 18.3457 25.3748 15.3784 19.0192C15.2796 18.8064 15.2238 18.5763 15.2143 18.3419C15.2047 18.1075 15.2415 17.8736 15.3226 17.6535C15.4037 17.4334 15.5274 17.2315 15.6868 17.0594C15.8461 16.8872 16.0379 16.7483 16.2511 16.6505L16.2523 16.6499L19.169 15.2957L19.4238 15.1774L19.3245 14.9146C18.9323 13.8766 18.6162 12.8115 18.3786 11.7276L18.3783 11.726C18.255 11.178 18.1522 10.623 18.07 10.061L18.0685 10.0512L18.0664 10.0414C17.95 9.49884 17.6481 9.01381 17.2127 8.66982C16.7782 8.32655 16.2378 8.14515 15.6842 8.15666H9.43748V8.15664L9.43406 8.15668C9.09936 8.16047 8.76921 8.23464 8.46505 8.37439C8.16173 8.51375 7.89104 8.71522 7.67048 8.96574C7.43319 9.22679 7.25675 9.53722 7.15386 9.87468C7.05104 10.2119 7.02425 10.5678 7.07542 10.9166C8.07024 18.8013 11.6454 26.1355 17.2437 31.7761ZM43.6353 18.1482C43.3424 18.3439 42.9981 18.4483 42.6458 18.4483C42.1735 18.4483 41.7205 18.2607 41.3865 17.9267C41.0525 17.5927 40.8648 17.1397 40.8648 16.6673C40.8648 16.3151 40.9693 15.9707 41.165 15.6779C41.3607 15.385 41.6388 15.1567 41.9642 15.0219C42.2897 14.8871 42.6478 14.8518 42.9933 14.9206C43.3387 14.9893 43.6561 15.1589 43.9052 15.408C44.1542 15.657 44.3239 15.9744 44.3926 16.3199C44.4613 16.6654 44.426 17.0235 44.2912 17.3489C44.1564 17.6743 43.9282 17.9525 43.6353 18.1482ZM37.3853 18.1482C37.0924 18.3439 36.7481 18.4483 36.3958 18.4483C35.9235 18.4483 35.4705 18.2607 35.1365 17.9267C34.8025 17.5927 34.6148 17.1397 34.6148 16.6673C34.6148 16.3151 34.7193 15.9707 34.915 15.6779C35.1107 15.385 35.3888 15.1567 35.7143 15.0219C36.0397 14.8871 36.3978 14.8518 36.7433 14.9206C37.0887 14.9893 37.4061 15.1589 37.6552 15.408C37.9042 15.657 38.0739 15.9744 38.1426 16.3199C38.2113 16.6654 38.176 17.0235 38.0412 17.3489C37.9064 17.6743 37.6782 17.9525 37.3853 18.1482ZM31.1353 18.1482C30.8424 18.3439 30.4981 18.4483 30.1458 18.4483C29.9119 18.4483 29.6803 18.4023 29.4643 18.3128C29.2482 18.2233 29.0518 18.0921 28.8865 17.9267C28.7211 17.7613 28.5899 17.565 28.5004 17.3489C28.4109 17.1328 28.3648 16.9012 28.3648 16.6673C28.3648 16.3151 28.4693 15.9707 28.665 15.6779C28.8607 15.385 29.1388 15.1567 29.4643 15.0219C29.7897 14.8871 30.1478 14.8518 30.4933 14.9206C30.8387 14.9893 31.1561 15.1589 31.4052 15.408C31.6542 15.657 31.8239 15.9744 31.8926 16.3199C31.9613 16.6654 31.926 17.0235 31.7912 17.3489C31.6564 17.6743 31.4282 17.9525 31.1353 18.1482Z" fill="black" stroke="#FCF5F4" stroke-width="0.604674"/>
</svg>
