<svg width="24" height="24" viewBox="0 0 24 24" fill="none" xmlns="http://www.w3.org/2000/svg">
	<rect width="24" height="24" fill="none"/>
	<path d="M21.4697 22.5304C21.7626 22.8232 22.2374 22.8232 22.5303 22.5304C22.8232 22.2375 22.8232 21.7626 22.5303 21.4697L21.4697 22.5304ZM16.6968 5.1429C19.8874 8.33343 19.8874 13.5063 16.6968 16.6968L17.7575 17.7575C21.5338 13.9812 21.5338 7.85855 17.7575 4.08224L16.6968 5.1429ZM16.6968 16.6968C13.5063 19.8874 8.33342 19.8874 5.1429 16.6968L4.08224 17.7575C7.85855 21.5338 13.9812 21.5338 17.7575 17.7575L16.6968 16.6968ZM5.1429 16.6968C1.95237 13.5063 1.95237 8.33343 5.1429 5.1429L4.08224 4.08224C0.305921 7.85855 0.305921 13.9812 4.08224 17.7575L5.1429 16.6968ZM5.1429 5.1429C8.33342 1.95237 13.5063 1.95237 16.6968 5.1429L17.7575 4.08224C13.9812 0.305921 7.85855 0.305921 4.08224 4.08224L5.1429 5.1429ZM16.6968 17.7575L21.4697 22.5304L22.5303 21.4697L17.7575 16.6968L16.6968 17.7575Z" fill="black"/>
</svg>
