<svg width="24" height="24" viewBox="0 0 24 24" fill="none" xmlns="http://www.w3.org/2000/svg">
<g clip-path="url(#clip0_537_70759)">
	<rect width="24" height="24" fill="none"/>
<path d="M12 22C17.5228 22 22 17.5228 22 12C22 6.47715 17.5228 2 12 2C6.47715 2 2 6.47715 2 12C2 14.8762 3.21425 17.4688 5.15809 19.2931L2 22H12Z" stroke="black" stroke-width="1.5" stroke-linecap="round"/>
<path d="M10 10.195H12.43V15.7H13.675V16.63H10V15.7H11.245V11.125H10V10.195ZM11.68 7C11.96 7 12.185 7.085 12.355 7.255C12.525 7.425 12.61 7.65 12.61 7.93C12.61 8.21 12.525 8.435 12.355 8.605C12.185 8.775 11.96 8.86 11.68 8.86C11.4 8.86 11.175 8.775 11.005 8.605C10.845 8.435 10.765 8.21 10.765 7.93C10.765 7.65 10.845 7.425 11.005 7.255C11.175 7.085 11.4 7 11.68 7Z" fill="black"/>
</g>
<defs>
<clipPath id="clip0_537_70759">
<rect width="24" height="24" fill="white"/>
</clipPath>
</defs>
</svg>
