<svg width="50" height="50" viewBox="0 0 50 50" fill="none" xmlns="http://www.w3.org/2000/svg">
	<rect width="50" height="50" fill="none"/>
	<path fill-rule="evenodd" clip-rule="evenodd" d="M16.1734 5.88235C12.9246 5.88235 10.291 8.51598 10.291 11.7647V30.042C10.291 33.2907 12.9246 35.9244 16.1734 35.9244L28.0452 35.9244C28.0452 30.6458 32.3237 26.3666 37.6019 26.3655V11.7647C37.6019 8.51597 34.9683 5.88235 31.7196 5.88235H16.1734ZM14.6511 12.7101C14.6511 12.1009 15.1449 11.6071 15.754 11.6071H32.1406C32.7497 11.6071 33.2435 12.1009 33.2435 12.7101C33.2435 13.3192 32.7497 13.813 32.1406 13.813H15.754C15.1449 13.813 14.6511 13.3192 14.6511 12.7101ZM14.6511 18.1723C14.6511 17.5631 15.1449 17.0693 15.754 17.0693H32.1406C32.7497 17.0693 33.2435 17.5631 33.2435 18.1723C33.2435 18.7814 32.7497 19.2752 32.1406 19.2752H15.754C15.1449 19.2752 14.6511 18.7814 14.6511 18.1723ZM15.754 22.5315C15.1449 22.5315 14.6511 23.0253 14.6511 23.6344C14.6511 24.2436 15.1449 24.7374 15.754 24.7374H32.1406C32.7497 24.7374 33.2435 24.2436 33.2435 23.6344C33.2435 23.0253 32.7497 22.5315 32.1406 22.5315H15.754ZM14.6511 29.0966C14.6511 28.4875 15.1449 27.9937 15.754 27.9937H28.0439C28.6531 27.9937 29.1469 28.4875 29.1469 29.0966C29.1469 29.7058 28.6531 30.1996 28.0439 30.1996H15.754C15.1449 30.1996 14.6511 29.7058 14.6511 29.0966ZM45.7965 35.9244C45.7965 40.4494 42.1282 44.1177 37.6032 44.1177C33.0782 44.1177 29.4099 40.4494 29.4099 35.9244C29.4099 31.3994 33.0782 27.7311 37.6032 27.7311C42.1282 27.7311 45.7965 31.3994 45.7965 35.9244ZM37.6032 30.042C38.2123 30.042 38.7061 30.5358 38.7061 31.1449V36.6071C38.7061 37.2163 38.2123 37.7101 37.6032 37.7101H34.1893C33.5802 37.7101 33.0864 37.2163 33.0864 36.6071C33.0864 35.998 33.5802 35.5042 34.1893 35.5042H36.5003V31.1449C36.5003 30.5358 36.9941 30.042 37.6032 30.042Z" fill="#EEC9C2"/>
</svg>
