<svg width="49" height="48" viewBox="0 0 49 48" fill="none" xmlns="http://www.w3.org/2000/svg">
<path fill-rule="evenodd" clip-rule="evenodd" d="M29.2409 5C34.7794 5 38.5 8.89292 38.5 14.6862V31.3138C38.5 37.1577 34.8939 40.9584 29.3131 40.9946L15.7609 41C10.2223 41 6.5 37.1071 6.5 31.3138V14.6862C6.5 8.84048 10.1061 5.04159 15.6869 5.00723L29.2391 5H29.2409ZM29.2409 7.7122L15.6957 7.71944C11.5946 7.74475 9.14244 10.3485 9.14244 14.6862V31.3138C9.14244 35.6805 11.6175 38.2878 15.7591 38.2878L29.3043 38.2824C33.4054 38.2571 35.8576 35.6497 35.8576 31.3138V14.6862C35.8576 10.3195 33.3842 7.7122 29.2409 7.7122ZM28.9011 29.3623C29.6304 29.3623 30.2223 29.9698 30.2223 30.7184C30.2223 31.467 29.6304 32.0745 28.9011 32.0745H16.1821C15.4528 32.0745 14.8609 31.467 14.8609 30.7184C14.8609 29.9698 15.4528 29.3623 16.1821 29.3623H28.9011ZM28.9011 21.7925C29.6304 21.7925 30.2223 22.4001 30.2223 23.1486C30.2223 23.8972 29.6304 24.5047 28.9011 24.5047H16.1821C15.4528 24.5047 14.8609 23.8972 14.8609 23.1486C14.8609 22.4001 15.4528 21.7925 16.1821 21.7925H28.9011ZM21.0349 14.2403C21.7642 14.2403 22.3561 14.8478 22.3561 15.5964C22.3561 16.345 21.7642 16.9525 21.0349 16.9525H16.1816C15.4522 16.9525 14.8603 16.345 14.8603 15.5964C14.8603 14.8478 15.4522 14.2403 16.1816 14.2403H21.0349Z" fill="black"/>
</svg>
