<svg width="32" height="32" viewBox="0 0 32 32" fill="none" xmlns="http://www.w3.org/2000/svg">
<path fill-rule="evenodd" clip-rule="evenodd" d="M16 -2.79976e-06C24.8224 -4.34355e-06 32 7.17759 32 16C32 24.8224 24.8224 32 16 32C7.17761 32 4.33663e-06 24.8224 2.7953e-06 16C1.25397e-06 7.1776 7.1776 -1.25597e-06 16 -2.79976e-06ZM16 2.4C8.5008 2.4 2.4 8.5008 2.4 16C2.4 23.4992 8.50081 29.6 16 29.6C23.4992 29.6 29.6 23.4992 29.6 16C29.6 8.50079 23.4992 2.4 16 2.4ZM16.8507 11.8822L22.4043 17.4614C22.8715 17.9318 22.8699 18.6902 22.4011 19.1574C22.1675 19.391 21.8603 19.5078 21.5547 19.5078C21.2475 19.5078 20.9387 19.391 20.7051 19.1542L15.9995 14.4294L11.2971 19.1542C10.8299 19.6246 10.0699 19.6246 9.59952 19.1574C9.13072 18.6902 9.12752 17.9318 9.59632 17.4614L15.1499 11.8822C15.5995 11.4294 16.3995 11.4294 16.8507 11.8822Z" fill="black"/>
</svg>
