<svg width="32" height="32" viewBox="0 0 32 32" fill="none" xmlns="http://www.w3.org/2000/svg">
<path fill-rule="evenodd" clip-rule="evenodd" d="M16 32C7.1776 32 -6.26985e-07 24.8224 -1.39765e-06 16C-2.16831e-06 7.1776 7.1776 2.17178e-06 16 1.39988e-06C24.8224 6.27987e-07 32 7.1776 32 16C32 24.8224 24.8224 32 16 32ZM16 29.6C23.4992 29.6 29.6 23.4992 29.6 16C29.6 8.5008 23.4992 2.4 16 2.4C8.5008 2.4 2.4 8.5008 2.4 16C2.4 23.4992 8.5008 29.6 16 29.6ZM15.1493 20.1178L9.59568 14.5386C9.12848 14.0682 9.13008 13.3098 9.59888 12.8426C9.83248 12.609 10.1397 12.4922 10.4453 12.4922C10.7525 12.4922 11.0613 12.609 11.2949 12.8458L16.0005 17.5706L20.7029 12.8458C21.1701 12.3754 21.9301 12.3754 22.4005 12.8426C22.8693 13.3098 22.8725 14.0682 22.4037 14.5386L16.8501 20.1178C16.4005 20.5706 15.6005 20.5706 15.1493 20.1178Z" fill="black"/>
</svg>
