<svg width="24" height="24" viewBox="0 0 24 24" fill="none" xmlns="http://www.w3.org/2000/svg">
<g clip-path="url(#clip0_2111_14449)">
<mask id="mask0_2111_14449" style="mask-type:alpha" maskUnits="userSpaceOnUse" x="0" y="0" width="24" height="24">
<circle cx="12" cy="12" r="12" fill="#2E42A5"/>
</mask>
<g mask="url(#mask0_2111_14449)">
<circle cx="12" cy="12" r="12" fill="#2E42A5"/>
<rect x="-6" width="18" height="14" fill="#2B409A"/>
<mask id="mask1_2111_14449" style="mask-type:alpha" maskUnits="userSpaceOnUse" x="-6" y="0" width="18" height="14">
<rect x="-6" width="18" height="14" fill="white"/>
</mask>
<g mask="url(#mask1_2111_14449)">
<path d="M-8.00427 12.9998L-4.04332 14.737L12.0899 1.88875L14.1792 -0.69278L9.94352 -1.2734L3.36317 4.26329L-1.93333 7.99372L-8.00427 12.9998Z" fill="#F7FCFF"/>
<path d="M-7.46201 14.217L-5.44408 15.2251L13.4289 -0.932632H10.5955L-7.46201 14.217Z" fill="#F50100"/>
<path d="M14.0043 12.9998L10.0433 14.737L-6.08989 1.88875L-8.1792 -0.69278L-3.94353 -1.2734L2.63681 4.26329L7.93331 7.99372L14.0043 12.9998Z" fill="#F7FCFF"/>
<path d="M13.8691 13.8733L11.8512 14.8815L3.81486 7.96351L1.43226 7.19059L-8.38023 -0.683947H-5.54684L4.26015 7.00368L6.8651 7.9305L13.8691 13.8733Z" fill="#F50100"/>
<mask id="path-9-outside-1_2111_14449" maskUnits="userSpaceOnUse" x="-8" y="-2" width="22" height="18" fill="black">
<rect fill="white" x="-8" y="-2" width="22" height="18"/>
<path fill-rule="evenodd" clip-rule="evenodd" d="M3.98451 0H1.98451V6H-6V8H1.98451V14H3.98451V8H12V6H3.98451V0Z"/>
</mask>
<path fill-rule="evenodd" clip-rule="evenodd" d="M3.98451 0H1.98451V6H-6V8H1.98451V14H3.98451V8H12V6H3.98451V0Z" fill="#F50100"/>
<path d="M1.98451 0V-1.5H0.484511V0H1.98451ZM3.98451 0H5.48451V-1.5H3.98451V0ZM1.98451 6V7.5H3.48451V6H1.98451ZM-6 6V4.5H-7.5V6H-6ZM-6 8H-7.5V9.5H-6V8ZM1.98451 8H3.48451V6.5H1.98451V8ZM1.98451 14H0.484511V15.5H1.98451V14ZM3.98451 14V15.5H5.48451V14H3.98451ZM3.98451 8V6.5H2.48451V8H3.98451ZM12 8V9.5H13.5V8H12ZM12 6H13.5V4.5H12V6ZM3.98451 6H2.48451V7.5H3.98451V6ZM1.98451 1.5H3.98451V-1.5H1.98451V1.5ZM3.48451 6V0H0.484511V6H3.48451ZM-6 7.5H1.98451V4.5H-6V7.5ZM-4.5 8V6H-7.5V8H-4.5ZM1.98451 6.5H-6V9.5H1.98451V6.5ZM3.48451 14V8H0.484511V14H3.48451ZM3.98451 12.5H1.98451V15.5H3.98451V12.5ZM2.48451 8V14H5.48451V8H2.48451ZM12 6.5H3.98451V9.5H12V6.5ZM10.5 6V8H13.5V6H10.5ZM3.98451 7.5H12V4.5H3.98451V7.5ZM2.48451 0V6H5.48451V0H2.48451Z" fill="#F7FCFF" mask="url(#path-9-outside-1_2111_14449)"/>
</g>
<circle cx="12" cy="12" r="11.5" stroke="white"/>
<path d="M2 20.5L0.698349 21.7029L0.827253 19.9352L-0.924784 19.6676L0.537608 18.6662L-0.345494 17.1295L1.34917 17.6485L2 16L2.65083 17.6485L4.34549 17.1295L3.46239 18.6662L4.92478 19.6676L3.17275 19.9352L3.30165 21.7029L2 20.5Z" fill="#F7FCFF"/>
<path d="M15 13L14.1322 13.8019L14.2182 12.6235L13.0501 12.445L14.0251 11.7775L13.4363 10.753L14.5661 11.099L15 10L15.4339 11.099L16.5637 10.753L15.9749 11.7775L16.9499 12.445L15.7818 12.6235L15.8678 13.8019L15 13Z" fill="#F7FCFF"/>
<path d="M17 5L16.1322 5.80194L16.2182 4.62349L15.0501 4.44504L16.0251 3.77748L15.4363 2.75302L16.5661 3.09903L17 2L17.4339 3.09903L18.5637 2.75302L17.9749 3.77748L18.9499 4.44504L17.7818 4.62349L17.8678 5.80194L17 5Z" fill="#F7FCFF"/>
<path d="M22 9L21.1322 9.80194L21.2182 8.62349L20.0501 8.44504L21.0251 7.77748L20.4363 6.75302L21.5661 7.09903L22 6L22.4339 7.09903L23.5637 6.75302L22.9749 7.77748L23.9499 8.44504L22.7818 8.62349L22.8678 9.80194L22 9Z" fill="#F7FCFF"/>
<path d="M18 22L17.1322 22.8019L17.2182 21.6235L16.0501 21.445L17.0251 20.7775L16.4363 19.753L17.5661 20.099L18 19L18.4339 20.099L19.5637 19.753L18.9749 20.7775L19.9499 21.445L18.7818 21.6235L18.8678 22.8019L18 22Z" fill="#F7FCFF"/>
<path d="M21.5 14.25L20.6183 14.7135L20.7867 13.7318L20.0734 13.0365L21.0592 12.8932L21.5 12L21.9408 12.8932L22.9266 13.0365L22.2133 13.7318L22.3817 14.7135L21.5 14.25Z" fill="#F7FCFF"/>
</g>
</g>
<defs>
<clipPath id="clip0_2111_14449">
<rect width="24" height="24" fill="white"/>
</clipPath>
</defs>
</svg>
