<svg width="24" height="24" viewBox="0 0 24 24" fill="none" xmlns="http://www.w3.org/2000/svg">
<path fill-rule="evenodd" clip-rule="evenodd" d="M2.5 9C2.5 5.41015 5.41015 2.5 9 2.5C11.8928 2.5 14.3443 4.38977 15.1872 7.00215C15.5502 7.01048 15.9072 7.043 16.2568 7.09815C15.4149 3.87698 12.485 1.5 9 1.5C4.85786 1.5 1.5 4.85786 1.5 9C1.5 12.485 3.87698 15.4149 7.09815 16.2568C7.043 15.9072 7.01048 15.5502 7.00215 15.1872C4.38977 14.3443 2.5 11.8928 2.5 9ZM9.02053 15.5C9.0487 15.8414 9.10547 16.1748 9.18843 16.4977C13.1809 16.3992 16.3992 13.1809 16.4977 9.18843C16.1748 9.10547 15.8414 9.0487 15.5 9.02053C15.4889 12.5941 12.5941 15.4889 9.02053 15.5Z" fill="black"/>
<circle cx="15" cy="15" r="7" stroke="black"/>
</svg>
