<svg width="100" height="100" viewBox="0 0 100 100" fill="none" xmlns="http://www.w3.org/2000/svg">
<path d="M45.2934 11.1885L47.8967 16.5943" stroke="#EEC9C2" stroke-width="2" stroke-linecap="round"/>
<path d="M41.118 14.5181L45.809 18.259" stroke="#EEC9C2" stroke-width="2" stroke-linecap="round"/>
<path d="M38.8009 19.3298L44.6504 20.665" stroke="#EEC9C2" stroke-width="2" stroke-linecap="round"/>
<path d="M38.8009 24.6702L44.6504 23.335" stroke="#EEC9C2" stroke-width="2" stroke-linecap="round"/>
<path d="M41.118 29.4819L45.809 25.741" stroke="#EEC9C2" stroke-width="2" stroke-linecap="round"/>
<path d="M45.2934 32.8115L47.8967 27.4057" stroke="#EEC9C2" stroke-width="2" stroke-linecap="round"/>
<path d="M50.5 34V28" stroke="#EEC9C2" stroke-width="2" stroke-linecap="round"/>
<path d="M55.7066 32.8115L53.1033 27.4057" stroke="#EEC9C2" stroke-width="2" stroke-linecap="round"/>
<path d="M59.882 29.4819L55.191 25.741" stroke="#EEC9C2" stroke-width="2" stroke-linecap="round"/>
<path d="M62.1991 24.6702L56.3496 23.335" stroke="#EEC9C2" stroke-width="2" stroke-linecap="round"/>
<path d="M62.1991 19.3298L56.3496 20.665" stroke="#EEC9C2" stroke-width="2" stroke-linecap="round"/>
<path d="M59.882 14.5181L55.191 18.259" stroke="#EEC9C2" stroke-width="2" stroke-linecap="round"/>
<path d="M55.7066 11.1885L53.1033 16.5943" stroke="#EEC9C2" stroke-width="2" stroke-linecap="round"/>
<rect width="100" height="100" fill="white"/>
<path d="M50.5 25L58.0242 40.1438L74.7519 42.6201L62.6745 54.4557L65.4885 71.1299L50.5 63.301L35.5115 71.1299L38.3255 54.4557L26.2481 42.6201L42.9758 40.1438L50.5 25Z" stroke="black" stroke-width="2"/>
<path d="M44 71V84L51 79.5L58 84V71" stroke="black" stroke-width="2"/>
<path d="M50.578 7.98779V17.5195" stroke="black" stroke-width="2.04878" stroke-linecap="round" stroke-linejoin="round"/>
<path d="M75.6415 16.1313L70.0389 23.8427" stroke="black" stroke-width="2.04878" stroke-linecap="round" stroke-linejoin="round"/>
<path d="M91.1315 37.4517L82.0663 40.3971" stroke="black" stroke-width="2.04878" stroke-linecap="round" stroke-linejoin="round"/>
<path d="M91.1315 63.8049L82.0663 60.8595" stroke="black" stroke-width="2.04878" stroke-linecap="round" stroke-linejoin="round"/>
<path d="M75.6415 85.1252L70.0389 77.4139" stroke="black" stroke-width="2.04878" stroke-linecap="round" stroke-linejoin="round"/>
<path d="M25.5145 85.1252L31.1171 77.4139" stroke="black" stroke-width="2.04878" stroke-linecap="round" stroke-linejoin="round"/>
<path d="M10.0244 63.8049L19.0896 60.8595" stroke="black" stroke-width="2.04878" stroke-linecap="round" stroke-linejoin="round"/>
<path d="M10.0244 37.4517L19.0896 40.3971" stroke="black" stroke-width="2.04878" stroke-linecap="round" stroke-linejoin="round"/>
<path d="M25.5145 16.1313L31.1171 23.8427" stroke="black" stroke-width="2.04878" stroke-linecap="round" stroke-linejoin="round"/>
</svg>
