<svg width="134" height="134" viewBox="0 0 134 134" fill="none" xmlns="http://www.w3.org/2000/svg">
<mask id="path-1-inside-1_3353_19317" fill="white">
<path d="M122.833 83.4694C124.657 87.3602 124.61 94.8481 119.624 96.3209C119.502 97.2067 119.234 98.066 118.83 98.8641C117.182 102.1 114.04 105.095 110.385 103.547C107.666 107.773 101.913 109.293 97.9568 105.288C96.5637 106.541 94.8358 107.362 92.9847 107.65C90.1251 108.108 86.8213 106.997 85.6575 104.374C84.0879 105.89 82.0832 106.876 79.9238 107.193C77.9391 107.445 75.9289 106.996 74.2395 105.923C72.551 104.851 71.2886 103.223 70.6724 101.32C67.6445 103.533 63.9696 104.502 60.3311 101.838C58.0466 100.084 56.6983 97.3751 56.6754 94.4953C55.5171 95.5357 54.1221 96.2771 52.6119 96.6555C47.7203 97.8595 42.3905 95.3501 41.5368 90.1282C41.3713 89.0715 41.3786 87.9946 41.556 86.9387C40.8055 87.3729 39.9964 87.6993 39.1544 87.9077C34.2637 89.1126 28.9339 86.6032 28.0792 81.3813C27.8946 80.1509 27.9357 78.8967 28.1999 77.6799C28.039 77.7275 27.8772 77.7741 27.7154 77.8152C22.8237 79.0192 17.4939 76.5098 16.6402 71.2879C16.4839 70.275 16.4857 69.2448 16.6466 68.2327C11.9506 66.7801 8.45561 63.3272 8.46474 59.0279C2.71911 58.3212 1.87075 52.3197 3.77411 47.5759C-1.29963 43.0964 1.37625 35.3241 6.72778 32.4984C6.62539 31.0074 7.00113 29.5227 7.8001 28.2595C8.59819 26.9961 9.77837 26.0206 11.1696 25.474C13.1424 24.5544 15.4416 24.6696 17.3129 25.7812C19.975 22.8741 23.3017 22.3365 26.1072 23.6082C28.7045 22.0468 32.1765 20.8895 35.0972 22.2689H35.0963C36.1412 22.7617 37.0617 23.483 37.7885 24.3816C40.8363 22.3969 43.9856 21.906 47.2768 24.4693C48.307 25.272 49.1755 26.263 49.8366 27.3893C52.5197 25.1816 56.1764 24.5718 59.4317 25.7877C62.6286 27.1269 63.8528 30.9684 63.2941 34.1834C66.0531 32.5087 69.6258 33.7126 72.3382 35.3207V35.3216C74.1619 36.3583 75.8193 37.6647 77.2528 39.1969C77.9667 40.0315 78.5271 40.9859 78.9083 42.0162C79.3179 43.0401 79.6342 44.095 79.9715 45.023L79.9706 45.0239C80.1964 45.0002 80.424 44.991 80.6507 44.9974C81.7852 45.0952 82.8173 45.6913 83.4691 46.6256C85.5169 45.1729 87.8562 44.6884 89.424 46.3842V46.3833C91.842 45.1163 94.695 44.9782 97.2228 46.0067C101.059 47.5205 102.498 51.2814 102.707 55.0771C103.551 54.9857 104.404 55.0196 105.237 55.1795C106.95 55.4254 108.497 56.3314 109.55 57.7035C110.654 59.3582 110.56 61.1079 110.677 62.9994C111.459 62.9884 112.236 63.12 112.971 63.3888C116.767 64.8085 118.375 68.1927 118.059 72.0561C118.925 72.2901 119.731 72.7097 120.42 73.2847C122.964 75.4513 124.384 79.7919 122.406 82.7189C122.566 82.9584 122.709 83.2089 122.833 83.4694L122.833 83.4694ZM119.665 94.1341C122.565 92.5727 122.201 87.2743 121.165 84.6943C119.281 79.9983 113.117 81.2827 110.507 84.6532L110.506 84.6523C113.651 85.0947 116.435 86.9185 118.097 89.6254C118.95 90.9921 119.486 92.5325 119.665 94.1342L119.665 94.1341ZM120.984 81.0732H120.983C121.392 79.7797 121.333 78.3838 120.817 77.1294C120.299 75.876 119.359 74.843 118.157 74.2131C116.241 73.5001 114.109 73.66 112.321 74.6501C108.991 76.3797 106.34 80.0073 109.025 83.2771C111.845 79.7749 117.558 78.3178 120.983 81.073L120.984 81.0732ZM117.708 95.2851H117.707C117.735 93.049 116.867 90.8951 115.299 89.3019C112.546 86.5228 108.173 85.1909 105.757 88.7708C106.671 88.9874 107.526 89.3979 108.267 89.9756C111.126 92.1349 112.243 95.9497 111.867 99.3761C111.775 100.191 111.58 100.991 111.288 101.758C114.557 103.063 117.679 98.1648 117.706 95.2853L117.708 95.2851ZM116.044 71.7652C116.164 68.5419 114.664 64.9554 110.856 65.0497C109.761 65.0351 108.682 65.324 107.74 65.8844C106.799 66.4438 106.031 67.2538 105.521 68.2238C104.181 70.6811 101.678 77.7384 106.348 78.1417C107.51 75.3415 109.854 73.2006 112.747 72.2947C113.811 71.9473 114.924 71.769 116.044 71.7654L116.044 71.7652ZM109.921 98.7136C110.041 96.0698 109.154 92.7119 106.663 91.2722C104.206 89.846 101.758 90.922 99.5648 92.2814L99.5658 92.2823C101.424 94.5358 101.987 97.5892 101.052 100.356C100.667 101.585 100.083 102.741 99.3235 103.781C103.428 107.833 109.652 104.484 109.921 98.7162L109.921 98.7136ZM108.683 63.2793C108.535 61.3011 108.864 58.946 106.765 57.8218L106.766 57.8227C105.645 57.2011 104.358 56.9442 103.085 57.0895C100.809 57.3519 97.8966 58.469 96.8608 60.7025C95.1037 64.5045 97.4861 71.1935 102.473 69.8935V69.8944C102.495 69.8898 102.517 69.8871 102.539 69.888C102.953 68.6548 103.539 67.4854 104.279 66.415C105.367 64.9185 106.913 63.8177 108.684 63.282L108.683 63.2793ZM107.72 84.8722H107.721C106.5 83.5997 105.853 81.8829 105.931 80.1212C101.887 79.5635 101.207 75.7278 101.955 72.0261C97.5737 72.4905 94.6 68.4535 94.2901 64.2686C90.5218 64.2887 86.9182 63.0308 85.0588 59.5049C84.6959 58.7983 84.4482 58.0377 84.3248 57.2524C80.167 56.9452 78.9824 54.8637 79.4001 52.5086H79.3992C78.4576 52.1621 77.6513 51.5231 77.0982 50.6848C74.6355 50.853 71.7347 51.546 69.4008 50.3777C67.1364 49.235 65.1618 47.5913 63.6278 45.5719C62.2775 43.8075 61.3652 41.7479 60.9657 39.563C59.9711 40.9242 58.5908 41.9555 57.0036 42.5239C53.1541 43.8092 50.3347 42.0394 48.0274 39.2805C46.8783 40.1279 45.4686 40.5476 44.0436 40.4653C41.1767 40.383 38.4599 39.1626 36.4952 37.0737C34.4895 38.3216 32.0386 38.6287 29.787 37.9148C28.8116 39.1919 27.4559 40.1262 25.9155 40.5832C24.3751 41.0402 22.7287 40.9964 21.2148 40.4579C20.9488 40.6974 20.6672 40.9196 20.3728 41.1244C20.2841 41.1893 20.1836 41.2368 20.0775 41.2652C19.8728 42.439 19.4084 43.5515 18.7191 44.5224C19.5729 45.8699 20.0446 47.4232 20.0848 49.0174C22.394 49.4927 24.449 50.8 25.8569 52.6914C25.9566 52.7746 26.037 52.8797 26.0928 52.9985C26.1878 53.1165 26.25 53.2582 26.2747 53.4081C26.9338 55.1094 27.1176 56.9588 26.8058 58.7577C29.6827 59.0366 32.3017 60.5358 33.9985 62.8752C34.0652 62.9383 34.1228 63.0105 34.1676 63.0901C34.2224 63.1632 34.2672 63.2418 34.302 63.3259C35.2756 65.1223 35.6211 67.1921 35.2838 69.2068C39.0528 68.0367 42.9353 69.7325 45.4376 72.9686C45.5043 73.0317 45.5619 73.1039 45.6067 73.1834C45.6615 73.2566 45.7063 73.3352 45.7411 73.4193C46.6406 75.0712 47.0054 76.9618 46.7851 78.8293C46.7988 78.822 46.8189 78.8092 46.8326 78.8028C51.1448 76.243 55.9698 77.927 58.897 81.7153H58.8961C58.9628 81.7793 59.0195 81.8515 59.0643 81.932C59.1201 82.0042 59.1649 82.0828 59.1996 82.1669C59.9501 83.5327 60.3277 85.0703 60.2966 86.628C63.0609 84.1185 66.8494 82.8058 70.518 84.3069H70.5171C72.3254 85.0711 73.7706 86.5009 74.555 88.2999C77.058 86.0592 80.9131 86.0391 84.0423 87.371C85.4867 87.9653 86.7683 88.8986 87.7767 90.0916C89.3665 89.1564 91.2031 88.7268 93.0424 88.8593C94.8826 88.9919 96.6387 89.6793 98.0787 90.8321C99.715 89.6976 101.588 88.9498 103.556 88.6445C103.57 88.5275 103.607 88.4132 103.663 88.309C104.488 86.6552 105.954 85.4119 107.721 84.8699L107.72 84.8722ZM100.715 55.4595C100.588 51.9947 99.2356 48.2669 95.3906 47.4871C92.4634 46.8883 89.0426 47.9451 87.5516 50.7295C86.1584 53.334 85.3649 57.4925 87.6933 59.8812L87.6942 59.8803C89.4704 61.5862 91.8948 62.4474 94.3495 62.2426C94.5104 61.0066 94.9702 59.8293 95.6888 58.8108C96.9613 57.1836 98.7239 56.0097 100.716 55.4614L100.715 55.4595ZM97.5856 102.771H97.5865C98.8151 101.359 99.4505 99.5282 99.3609 97.6595C98.9577 92.1617 93.6089 89.047 88.8642 91.8051C89.7162 93.6617 89.9036 95.7543 89.3963 97.7335C88.9895 99.4677 88.2536 101.108 87.2288 102.565C87.7608 106.104 92.7404 106.393 95.2496 104.818C95.9142 104.403 96.524 103.909 97.0661 103.344C97.1703 103.101 97.3532 102.9 97.5863 102.772L97.5856 102.771ZM87.601 95.8814C87.6147 92.4568 85.9527 89.9265 82.5839 88.9703C80.0241 88.2535 76.9719 88.1164 75.2705 90.4787L75.2714 90.4777C75.6928 92.4917 75.5466 94.5833 74.8472 96.5185C74.9258 96.7836 74.8646 97.0697 74.6854 97.2791C74.0025 98.185 73.2492 99.0352 72.4329 99.8223C72.4548 99.889 72.4667 99.9576 72.4667 100.027C72.783 104.831 79.2161 106.419 82.6881 104.158V104.159C85.5742 102.363 87.4062 99.2765 87.6018 95.8831L87.601 95.8814ZM86.8194 48.3361L86.8203 48.3352C87.0845 48.0619 87.3624 47.8032 87.6549 47.5609C84.7953 46.2079 77.1381 54.4912 84.1829 55.2317C84.2204 52.6939 85.1546 50.2513 86.8204 48.3369L86.8194 48.3361ZM81.9413 47.9458L81.9431 47.9449C81.699 47.4329 81.2127 47.0782 80.6505 47.0033C80.1093 47.0453 79.6092 47.3104 79.271 47.7364C79.0808 47.9595 78.93 48.2145 78.8267 48.4897C78.7435 48.7155 78.7088 48.9559 78.7243 49.1964C78.877 49.8646 79.3752 50.4012 80.0298 50.6033C80.0362 50.6097 80.0435 50.617 80.0499 50.617L80.0508 50.6161C80.5454 49.6379 81.1834 48.7384 81.9431 47.9477L81.9413 47.9458ZM77.769 46.3981L77.7708 46.3971C77.9436 46.1979 78.1347 46.015 78.3431 45.8523C76.8695 43.033 76.193 40.274 73.3911 38.336C71.3525 36.93 68.5331 35.0451 65.9286 35.3484C59.9536 36.034 64.3608 43.7798 66.6014 45.8788C66.7294 45.9994 66.8638 46.121 66.9918 46.2353H66.9909C67.1198 46.1073 67.256 45.9884 67.4004 45.8788C66.1562 44.1939 65.3993 42.1991 65.2137 40.1121C65.1607 38.0999 66.5603 36.7608 68.6043 37.299C71.3368 38.0157 75.2056 40.6695 74.1562 44.0412V44.0421C74.0401 44.6472 73.764 45.2104 73.3563 45.673C72.9495 46.1356 72.4265 46.4811 71.8415 46.6731C70.7051 46.9693 69.4197 46.8075 68.5578 47.5406C69.7974 48.5325 71.3516 49.0508 72.9386 49.0006C74.2102 48.9265 75.4818 48.7958 76.7535 48.6989C76.8394 47.8432 77.196 47.0378 77.771 46.3988L77.769 46.3981ZM72.9394 95.9279C74.6214 92.0179 72.5755 85.5721 67.5696 85.6526C65.9359 85.6937 64.3435 86.1673 62.9529 87.0257C61.5624 87.8841 60.4252 89.0963 59.6573 90.538C58.0283 93.8345 58.3656 99.4531 62.5773 100.705C67.2944 102.111 70.1001 99.9713 72.8453 96.3786C72.8453 96.2232 72.8773 96.0697 72.9394 95.928L72.9394 95.9279ZM70.59 44.8839C72.4329 44.6352 72.7401 42.5564 71.5178 41.2511C70.6704 40.3406 69.5908 39.6769 68.3959 39.3331C66.7678 38.909 67.1581 40.3287 67.5219 41.4833H67.521C67.9269 42.7713 68.5312 43.9881 69.311 45.0906C69.7095 45.0056 70.1328 44.9452 70.5899 44.884L70.59 44.8839ZM61.2316 34.4074C61.7692 31.621 61.0268 27.9571 57.7394 27.3016C55.2183 26.8463 52.6273 27.5758 50.7148 29.2798C51.2954 30.9244 51.395 32.6997 51.0028 34.3992C50.7286 35.6461 50.1993 36.8235 49.4487 37.8574C51.4078 40.2525 54.1733 42.164 57.2742 40.1785C59.3146 38.864 60.7406 36.7842 61.2316 34.4074L61.2316 34.4074ZM51.3741 94.878C56.468 93.6256 60.2426 87.8389 57.3217 82.9479C53.9037 78.2976 48.6425 79.1522 45.6741 82.5301C45.2975 83.2697 44.8395 83.9654 44.3083 84.6026C43.6648 85.9556 43.3686 87.4465 43.4472 88.9431C43.5551 90.8501 44.4994 92.6117 46.0278 93.7561C47.5572 94.9007 49.5137 95.3111 51.374 94.8778L51.3741 94.878ZM49.0594 33.8551C49.5549 31.2524 48.7212 28.574 46.8361 26.7118C45.8406 25.7437 44.6028 25.0626 43.2527 24.7399C41.6584 24.4876 40.0358 24.9648 38.8317 26.039C39.276 26.987 39.5749 27.9962 39.7203 29.0329C40.1527 31.4226 39.5164 33.8818 37.9797 35.7622C40.4023 38.4132 44.7693 39.3019 47.265 37.2358V37.2349C47.3162 37.1791 47.3729 37.127 47.4332 37.0804C48.3318 36.2257 48.9068 35.0857 49.0595 33.8543L49.0594 33.8551ZM43.9693 81.4003C44.5882 80.2969 44.9045 79.0509 44.8862 77.7867C44.8679 76.5224 44.5169 75.2847 43.8669 74.2004C41.9691 71.0045 37.7164 70.3251 34.5203 71.6909C31.4999 72.9827 29.8306 77.0397 29.9914 80.1965V80.1956C30.0983 82.1034 31.0427 83.8661 32.5711 85.0114C34.1005 86.1568 36.0576 86.5682 37.9181 86.134C39.9184 85.6221 41.7 84.4775 42.9982 82.8714C43.2853 82.3576 43.6098 81.8658 43.969 81.4005L43.9693 81.4003ZM30.8637 36.0947C35.5672 37.05 38.8773 33.2014 37.5866 28.4432C37.4294 27.8361 37.1963 27.2511 36.8937 26.7026C36.5573 26.5408 36.3324 26.2135 36.3004 25.8414C34.377 23.4599 31.0986 23.3841 28.0647 24.8523C29.2504 25.8853 30.1874 27.1734 30.8035 28.6206C31.8667 30.9948 31.8868 33.7053 30.8575 36.095L30.8637 36.0947ZM32.9773 70.3097C33.7708 68.2692 33.5687 65.9755 32.4315 64.1051C27.3386 57.1875 18.1595 62.4569 18.5571 70.1012V70.1003C18.6632 72.0081 19.6075 73.7717 21.1368 74.917C22.6653 76.0625 24.6227 76.473 26.4839 76.0387C27.4182 75.8029 28.3104 75.4226 29.1287 74.9125C29.9761 73.0631 31.3026 71.4744 32.9709 70.3096L32.9773 70.3097ZM22.6554 38.7252C28.2337 39.7418 31.2679 33.5712 28.6845 28.8347C26.4173 24.676 22.3365 23.6056 19.0163 26.9231C19.158 27.031 19.2915 27.1453 19.4331 27.266C22.9316 30.247 24.8422 35.0383 22.6557 38.7252L22.6554 38.7252ZM24.7818 58.8708C25.1548 57.2473 25.0039 55.5469 24.3512 54.0138C20.7175 49.0746 13.8473 50.1643 11.4394 55.6621C9.13203 60.9296 11.8974 64.4674 16.6749 66.1119H16.6739C17.4656 63.2413 19.5389 60.8985 22.2916 59.7639C23.0713 59.3406 23.9115 59.0399 24.7819 58.8708L24.7818 58.8708ZM20.072 38.7856C22.9589 36.0137 21.392 31.5791 18.5179 29.13C16.4701 27.3894 14.1582 25.8993 11.5062 27.5549V27.5558C9.93102 28.3704 8.8862 29.9401 8.74181 31.708C8.98407 31.6476 9.23364 31.5937 9.4823 31.5461C11.8399 31.1604 14.2553 31.697 16.2261 33.0454C18.1979 34.3938 19.5748 36.4489 20.0711 38.7854L20.072 38.7856ZM17.3743 42.85C20.2138 37.5806 14.3128 31.8076 8.70076 33.7722C3.98368 35.4278 1.12408 41.7931 4.72415 45.6684C4.85213 45.4636 4.98013 45.2588 5.12181 45.0632C6.91725 42.52 9.48878 40.4877 12.7516 40.7227V40.7236C14.4949 40.8662 16.1312 41.6195 17.3737 42.8508L17.3743 42.85ZM10.1049 53.8647V53.8657C11.7733 50.9951 14.7471 49.1303 18.0572 48.8787C17.8524 45.5347 14.6126 41.7537 10.9587 42.8635C8.82772 43.6296 7.09345 45.2202 6.14657 47.2771C4.34291 50.8231 3.84469 56.4344 8.72369 57.0138V57.0147C9.01349 55.8976 9.48064 54.8344 10.1068 53.8654L10.1049 53.8647Z"/>
</mask>
<path d="M122.833 83.4694C124.657 87.3602 124.61 94.8481 119.624 96.3209C119.502 97.2067 119.234 98.066 118.83 98.8641C117.182 102.1 114.04 105.095 110.385 103.547C107.666 107.773 101.913 109.293 97.9568 105.288C96.5637 106.541 94.8358 107.362 92.9847 107.65C90.1251 108.108 86.8213 106.997 85.6575 104.374C84.0879 105.89 82.0832 106.876 79.9238 107.193C77.9391 107.445 75.9289 106.996 74.2395 105.923C72.551 104.851 71.2886 103.223 70.6724 101.32C67.6445 103.533 63.9696 104.502 60.3311 101.838C58.0466 100.084 56.6983 97.3751 56.6754 94.4953C55.5171 95.5357 54.1221 96.2771 52.6119 96.6555C47.7203 97.8595 42.3905 95.3501 41.5368 90.1282C41.3713 89.0715 41.3786 87.9946 41.556 86.9387C40.8055 87.3729 39.9964 87.6993 39.1544 87.9077C34.2637 89.1126 28.9339 86.6032 28.0792 81.3813C27.8946 80.1509 27.9357 78.8967 28.1999 77.6799C28.039 77.7275 27.8772 77.7741 27.7154 77.8152C22.8237 79.0192 17.4939 76.5098 16.6402 71.2879C16.4839 70.275 16.4857 69.2448 16.6466 68.2327C11.9506 66.7801 8.45561 63.3272 8.46474 59.0279C2.71911 58.3212 1.87075 52.3197 3.77411 47.5759C-1.29963 43.0964 1.37625 35.3241 6.72778 32.4984C6.62539 31.0074 7.00113 29.5227 7.8001 28.2595C8.59819 26.9961 9.77837 26.0206 11.1696 25.474C13.1424 24.5544 15.4416 24.6696 17.3129 25.7812C19.975 22.8741 23.3017 22.3365 26.1072 23.6082C28.7045 22.0468 32.1765 20.8895 35.0972 22.2689H35.0963C36.1412 22.7617 37.0617 23.483 37.7885 24.3816C40.8363 22.3969 43.9856 21.906 47.2768 24.4693C48.307 25.272 49.1755 26.263 49.8366 27.3893C52.5197 25.1816 56.1764 24.5718 59.4317 25.7877C62.6286 27.1269 63.8528 30.9684 63.2941 34.1834C66.0531 32.5087 69.6258 33.7126 72.3382 35.3207V35.3216C74.1619 36.3583 75.8193 37.6647 77.2528 39.1969C77.9667 40.0315 78.5271 40.9859 78.9083 42.0162C79.3179 43.0401 79.6342 44.095 79.9715 45.023L79.9706 45.0239C80.1964 45.0002 80.424 44.991 80.6507 44.9974C81.7852 45.0952 82.8173 45.6913 83.4691 46.6256C85.5169 45.1729 87.8562 44.6884 89.424 46.3842V46.3833C91.842 45.1163 94.695 44.9782 97.2228 46.0067C101.059 47.5205 102.498 51.2814 102.707 55.0771C103.551 54.9857 104.404 55.0196 105.237 55.1795C106.95 55.4254 108.497 56.3314 109.55 57.7035C110.654 59.3582 110.56 61.1079 110.677 62.9994C111.459 62.9884 112.236 63.12 112.971 63.3888C116.767 64.8085 118.375 68.1927 118.059 72.0561C118.925 72.2901 119.731 72.7097 120.42 73.2847C122.964 75.4513 124.384 79.7919 122.406 82.7189C122.566 82.9584 122.709 83.2089 122.833 83.4694L122.833 83.4694ZM119.665 94.1341C122.565 92.5727 122.201 87.2743 121.165 84.6943C119.281 79.9983 113.117 81.2827 110.507 84.6532L110.506 84.6523C113.651 85.0947 116.435 86.9185 118.097 89.6254C118.95 90.9921 119.486 92.5325 119.665 94.1342L119.665 94.1341ZM120.984 81.0732H120.983C121.392 79.7797 121.333 78.3838 120.817 77.1294C120.299 75.876 119.359 74.843 118.157 74.2131C116.241 73.5001 114.109 73.66 112.321 74.6501C108.991 76.3797 106.34 80.0073 109.025 83.2771C111.845 79.7749 117.558 78.3178 120.983 81.073L120.984 81.0732ZM117.708 95.2851H117.707C117.735 93.049 116.867 90.8951 115.299 89.3019C112.546 86.5228 108.173 85.1909 105.757 88.7708C106.671 88.9874 107.526 89.3979 108.267 89.9756C111.126 92.1349 112.243 95.9497 111.867 99.3761C111.775 100.191 111.58 100.991 111.288 101.758C114.557 103.063 117.679 98.1648 117.706 95.2853L117.708 95.2851ZM116.044 71.7652C116.164 68.5419 114.664 64.9554 110.856 65.0497C109.761 65.0351 108.682 65.324 107.74 65.8844C106.799 66.4438 106.031 67.2538 105.521 68.2238C104.181 70.6811 101.678 77.7384 106.348 78.1417C107.51 75.3415 109.854 73.2006 112.747 72.2947C113.811 71.9473 114.924 71.769 116.044 71.7654L116.044 71.7652ZM109.921 98.7136C110.041 96.0698 109.154 92.7119 106.663 91.2722C104.206 89.846 101.758 90.922 99.5648 92.2814L99.5658 92.2823C101.424 94.5358 101.987 97.5892 101.052 100.356C100.667 101.585 100.083 102.741 99.3235 103.781C103.428 107.833 109.652 104.484 109.921 98.7162L109.921 98.7136ZM108.683 63.2793C108.535 61.3011 108.864 58.946 106.765 57.8218L106.766 57.8227C105.645 57.2011 104.358 56.9442 103.085 57.0895C100.809 57.3519 97.8966 58.469 96.8608 60.7025C95.1037 64.5045 97.4861 71.1935 102.473 69.8935V69.8944C102.495 69.8898 102.517 69.8871 102.539 69.888C102.953 68.6548 103.539 67.4854 104.279 66.415C105.367 64.9185 106.913 63.8177 108.684 63.282L108.683 63.2793ZM107.72 84.8722H107.721C106.5 83.5997 105.853 81.8829 105.931 80.1212C101.887 79.5635 101.207 75.7278 101.955 72.0261C97.5737 72.4905 94.6 68.4535 94.2901 64.2686C90.5218 64.2887 86.9182 63.0308 85.0588 59.5049C84.6959 58.7983 84.4482 58.0377 84.3248 57.2524C80.167 56.9452 78.9824 54.8637 79.4001 52.5086H79.3992C78.4576 52.1621 77.6513 51.5231 77.0982 50.6848C74.6355 50.853 71.7347 51.546 69.4008 50.3777C67.1364 49.235 65.1618 47.5913 63.6278 45.5719C62.2775 43.8075 61.3652 41.7479 60.9657 39.563C59.9711 40.9242 58.5908 41.9555 57.0036 42.5239C53.1541 43.8092 50.3347 42.0394 48.0274 39.2805C46.8783 40.1279 45.4686 40.5476 44.0436 40.4653C41.1767 40.383 38.4599 39.1626 36.4952 37.0737C34.4895 38.3216 32.0386 38.6287 29.787 37.9148C28.8116 39.1919 27.4559 40.1262 25.9155 40.5832C24.3751 41.0402 22.7287 40.9964 21.2148 40.4579C20.9488 40.6974 20.6672 40.9196 20.3728 41.1244C20.2841 41.1893 20.1836 41.2368 20.0775 41.2652C19.8728 42.439 19.4084 43.5515 18.7191 44.5224C19.5729 45.8699 20.0446 47.4232 20.0848 49.0174C22.394 49.4927 24.449 50.8 25.8569 52.6914C25.9566 52.7746 26.037 52.8797 26.0928 52.9985C26.1878 53.1165 26.25 53.2582 26.2747 53.4081C26.9338 55.1094 27.1176 56.9588 26.8058 58.7577C29.6827 59.0366 32.3017 60.5358 33.9985 62.8752C34.0652 62.9383 34.1228 63.0105 34.1676 63.0901C34.2224 63.1632 34.2672 63.2418 34.302 63.3259C35.2756 65.1223 35.6211 67.1921 35.2838 69.2068C39.0528 68.0367 42.9353 69.7325 45.4376 72.9686C45.5043 73.0317 45.5619 73.1039 45.6067 73.1834C45.6615 73.2566 45.7063 73.3352 45.7411 73.4193C46.6406 75.0712 47.0054 76.9618 46.7851 78.8293C46.7988 78.822 46.8189 78.8092 46.8326 78.8028C51.1448 76.243 55.9698 77.927 58.897 81.7153H58.8961C58.9628 81.7793 59.0195 81.8515 59.0643 81.932C59.1201 82.0042 59.1649 82.0828 59.1996 82.1669C59.9501 83.5327 60.3277 85.0703 60.2966 86.628C63.0609 84.1185 66.8494 82.8058 70.518 84.3069H70.5171C72.3254 85.0711 73.7706 86.5009 74.555 88.2999C77.058 86.0592 80.9131 86.0391 84.0423 87.371C85.4867 87.9653 86.7683 88.8986 87.7767 90.0916C89.3665 89.1564 91.2031 88.7268 93.0424 88.8593C94.8826 88.9919 96.6387 89.6793 98.0787 90.8321C99.715 89.6976 101.588 88.9498 103.556 88.6445C103.57 88.5275 103.607 88.4132 103.663 88.309C104.488 86.6552 105.954 85.4119 107.721 84.8699L107.72 84.8722ZM100.715 55.4595C100.588 51.9947 99.2356 48.2669 95.3906 47.4871C92.4634 46.8883 89.0426 47.9451 87.5516 50.7295C86.1584 53.334 85.3649 57.4925 87.6933 59.8812L87.6942 59.8803C89.4704 61.5862 91.8948 62.4474 94.3495 62.2426C94.5104 61.0066 94.9702 59.8293 95.6888 58.8108C96.9613 57.1836 98.7239 56.0097 100.716 55.4614L100.715 55.4595ZM97.5856 102.771H97.5865C98.8151 101.359 99.4505 99.5282 99.3609 97.6595C98.9577 92.1617 93.6089 89.047 88.8642 91.8051C89.7162 93.6617 89.9036 95.7543 89.3963 97.7335C88.9895 99.4677 88.2536 101.108 87.2288 102.565C87.7608 106.104 92.7404 106.393 95.2496 104.818C95.9142 104.403 96.524 103.909 97.0661 103.344C97.1703 103.101 97.3532 102.9 97.5863 102.772L97.5856 102.771ZM87.601 95.8814C87.6147 92.4568 85.9527 89.9265 82.5839 88.9703C80.0241 88.2535 76.9719 88.1164 75.2705 90.4787L75.2714 90.4777C75.6928 92.4917 75.5466 94.5833 74.8472 96.5185C74.9258 96.7836 74.8646 97.0697 74.6854 97.2791C74.0025 98.185 73.2492 99.0352 72.4329 99.8223C72.4548 99.889 72.4667 99.9576 72.4667 100.027C72.783 104.831 79.2161 106.419 82.6881 104.158V104.159C85.5742 102.363 87.4062 99.2765 87.6018 95.8831L87.601 95.8814ZM86.8194 48.3361L86.8203 48.3352C87.0845 48.0619 87.3624 47.8032 87.6549 47.5609C84.7953 46.2079 77.1381 54.4912 84.1829 55.2317C84.2204 52.6939 85.1546 50.2513 86.8204 48.3369L86.8194 48.3361ZM81.9413 47.9458L81.9431 47.9449C81.699 47.4329 81.2127 47.0782 80.6505 47.0033C80.1093 47.0453 79.6092 47.3104 79.271 47.7364C79.0808 47.9595 78.93 48.2145 78.8267 48.4897C78.7435 48.7155 78.7088 48.9559 78.7243 49.1964C78.877 49.8646 79.3752 50.4012 80.0298 50.6033C80.0362 50.6097 80.0435 50.617 80.0499 50.617L80.0508 50.6161C80.5454 49.6379 81.1834 48.7384 81.9431 47.9477L81.9413 47.9458ZM77.769 46.3981L77.7708 46.3971C77.9436 46.1979 78.1347 46.015 78.3431 45.8523C76.8695 43.033 76.193 40.274 73.3911 38.336C71.3525 36.93 68.5331 35.0451 65.9286 35.3484C59.9536 36.034 64.3608 43.7798 66.6014 45.8788C66.7294 45.9994 66.8638 46.121 66.9918 46.2353H66.9909C67.1198 46.1073 67.256 45.9884 67.4004 45.8788C66.1562 44.1939 65.3993 42.1991 65.2137 40.1121C65.1607 38.0999 66.5603 36.7608 68.6043 37.299C71.3368 38.0157 75.2056 40.6695 74.1562 44.0412V44.0421C74.0401 44.6472 73.764 45.2104 73.3563 45.673C72.9495 46.1356 72.4265 46.4811 71.8415 46.6731C70.7051 46.9693 69.4197 46.8075 68.5578 47.5406C69.7974 48.5325 71.3516 49.0508 72.9386 49.0006C74.2102 48.9265 75.4818 48.7958 76.7535 48.6989C76.8394 47.8432 77.196 47.0378 77.771 46.3988L77.769 46.3981ZM72.9394 95.9279C74.6214 92.0179 72.5755 85.5721 67.5696 85.6526C65.9359 85.6937 64.3435 86.1673 62.9529 87.0257C61.5624 87.8841 60.4252 89.0963 59.6573 90.538C58.0283 93.8345 58.3656 99.4531 62.5773 100.705C67.2944 102.111 70.1001 99.9713 72.8453 96.3786C72.8453 96.2232 72.8773 96.0697 72.9394 95.928L72.9394 95.9279ZM70.59 44.8839C72.4329 44.6352 72.7401 42.5564 71.5178 41.2511C70.6704 40.3406 69.5908 39.6769 68.3959 39.3331C66.7678 38.909 67.1581 40.3287 67.5219 41.4833H67.521C67.9269 42.7713 68.5312 43.9881 69.311 45.0906C69.7095 45.0056 70.1328 44.9452 70.5899 44.884L70.59 44.8839ZM61.2316 34.4074C61.7692 31.621 61.0268 27.9571 57.7394 27.3016C55.2183 26.8463 52.6273 27.5758 50.7148 29.2798C51.2954 30.9244 51.395 32.6997 51.0028 34.3992C50.7286 35.6461 50.1993 36.8235 49.4487 37.8574C51.4078 40.2525 54.1733 42.164 57.2742 40.1785C59.3146 38.864 60.7406 36.7842 61.2316 34.4074L61.2316 34.4074ZM51.3741 94.878C56.468 93.6256 60.2426 87.8389 57.3217 82.9479C53.9037 78.2976 48.6425 79.1522 45.6741 82.5301C45.2975 83.2697 44.8395 83.9654 44.3083 84.6026C43.6648 85.9556 43.3686 87.4465 43.4472 88.9431C43.5551 90.8501 44.4994 92.6117 46.0278 93.7561C47.5572 94.9007 49.5137 95.3111 51.374 94.8778L51.3741 94.878ZM49.0594 33.8551C49.5549 31.2524 48.7212 28.574 46.8361 26.7118C45.8406 25.7437 44.6028 25.0626 43.2527 24.7399C41.6584 24.4876 40.0358 24.9648 38.8317 26.039C39.276 26.987 39.5749 27.9962 39.7203 29.0329C40.1527 31.4226 39.5164 33.8818 37.9797 35.7622C40.4023 38.4132 44.7693 39.3019 47.265 37.2358V37.2349C47.3162 37.1791 47.3729 37.127 47.4332 37.0804C48.3318 36.2257 48.9068 35.0857 49.0595 33.8543L49.0594 33.8551ZM43.9693 81.4003C44.5882 80.2969 44.9045 79.0509 44.8862 77.7867C44.8679 76.5224 44.5169 75.2847 43.8669 74.2004C41.9691 71.0045 37.7164 70.3251 34.5203 71.6909C31.4999 72.9827 29.8306 77.0397 29.9914 80.1965V80.1956C30.0983 82.1034 31.0427 83.8661 32.5711 85.0114C34.1005 86.1568 36.0576 86.5682 37.9181 86.134C39.9184 85.6221 41.7 84.4775 42.9982 82.8714C43.2853 82.3576 43.6098 81.8658 43.969 81.4005L43.9693 81.4003ZM30.8637 36.0947C35.5672 37.05 38.8773 33.2014 37.5866 28.4432C37.4294 27.8361 37.1963 27.2511 36.8937 26.7026C36.5573 26.5408 36.3324 26.2135 36.3004 25.8414C34.377 23.4599 31.0986 23.3841 28.0647 24.8523C29.2504 25.8853 30.1874 27.1734 30.8035 28.6206C31.8667 30.9948 31.8868 33.7053 30.8575 36.095L30.8637 36.0947ZM32.9773 70.3097C33.7708 68.2692 33.5687 65.9755 32.4315 64.1051C27.3386 57.1875 18.1595 62.4569 18.5571 70.1012V70.1003C18.6632 72.0081 19.6075 73.7717 21.1368 74.917C22.6653 76.0625 24.6227 76.473 26.4839 76.0387C27.4182 75.8029 28.3104 75.4226 29.1287 74.9125C29.9761 73.0631 31.3026 71.4744 32.9709 70.3096L32.9773 70.3097ZM22.6554 38.7252C28.2337 39.7418 31.2679 33.5712 28.6845 28.8347C26.4173 24.676 22.3365 23.6056 19.0163 26.9231C19.158 27.031 19.2915 27.1453 19.4331 27.266C22.9316 30.247 24.8422 35.0383 22.6557 38.7252L22.6554 38.7252ZM24.7818 58.8708C25.1548 57.2473 25.0039 55.5469 24.3512 54.0138C20.7175 49.0746 13.8473 50.1643 11.4394 55.6621C9.13203 60.9296 11.8974 64.4674 16.6749 66.1119H16.6739C17.4656 63.2413 19.5389 60.8985 22.2916 59.7639C23.0713 59.3406 23.9115 59.0399 24.7819 58.8708L24.7818 58.8708ZM20.072 38.7856C22.9589 36.0137 21.392 31.5791 18.5179 29.13C16.4701 27.3894 14.1582 25.8993 11.5062 27.5549V27.5558C9.93102 28.3704 8.8862 29.9401 8.74181 31.708C8.98407 31.6476 9.23364 31.5937 9.4823 31.5461C11.8399 31.1604 14.2553 31.697 16.2261 33.0454C18.1979 34.3938 19.5748 36.4489 20.0711 38.7854L20.072 38.7856ZM17.3743 42.85C20.2138 37.5806 14.3128 31.8076 8.70076 33.7722C3.98368 35.4278 1.12408 41.7931 4.72415 45.6684C4.85213 45.4636 4.98013 45.2588 5.12181 45.0632C6.91725 42.52 9.48878 40.4877 12.7516 40.7227V40.7236C14.4949 40.8662 16.1312 41.6195 17.3737 42.8508L17.3743 42.85ZM10.1049 53.8647V53.8657C11.7733 50.9951 14.7471 49.1303 18.0572 48.8787C17.8524 45.5347 14.6126 41.7537 10.9587 42.8635C8.82772 43.6296 7.09345 45.2202 6.14657 47.2771C4.34291 50.8231 3.84469 56.4344 8.72369 57.0138V57.0147C9.01349 55.8976 9.48064 54.8344 10.1068 53.8654L10.1049 53.8647Z" fill="#602D23" stroke="#602D23" stroke-width="2" mask="url(#path-1-inside-1_3353_19317)"/>
<path d="M120.477 86.7199C120.646 87.8535 120.566 89.0108 120.241 90.1105C119.999 90.9296 119.744 91.3958 119.589 91.362C119.435 91.3282 119.414 90.8044 119.448 89.9825C119.523 88.9587 119.493 87.9293 119.36 86.9109C119.273 86.3981 119.102 85.9026 118.855 85.4446C118.638 85.078 118.366 84.7462 118.048 84.4619C117.772 84.226 117.53 84.0249 117.321 83.8759C117.133 83.7287 117.039 83.6135 117.065 83.5404C117.092 83.4663 117.247 83.4462 117.49 83.4663C117.843 83.5139 118.185 83.6263 118.499 83.7963C118.983 84.0596 119.403 84.4271 119.728 84.8723C120.111 85.4254 120.367 86.0562 120.477 86.7199L120.477 86.7199Z" fill="#602D23"/>
<path d="M116.407 94.1272C116.514 94.8393 116.485 95.5661 116.32 96.2673C116.023 97.5023 115.387 98.6305 114.482 99.5235C113.783 100.196 113.191 100.397 113.116 100.277C113.022 100.142 113.399 99.732 113.869 99.0125H113.87C114.484 98.092 114.938 97.0754 115.216 96.0048C115.35 95.4353 115.402 94.8484 115.37 94.2642C115.329 93.8016 115.204 93.3501 115 92.9332C114.685 92.2603 114.159 91.8298 114.294 91.6954C114.341 91.635 114.498 91.6616 114.745 91.7557C114.9 91.8142 115.043 91.8983 115.169 92.0044C115.357 92.1452 115.526 92.307 115.674 92.4889C116.051 92.9652 116.303 93.5283 116.407 94.1271L116.407 94.1272Z" fill="#602D23"/>
<path d="M112.02 75.8849C112.225 76.2214 110.082 77.0825 109.8 79.3771C109.747 79.6523 109.759 79.9494 109.733 80.2182V80.2456C110.757 79.7071 111.496 79.4265 111.603 79.5865C111.738 79.7812 110.869 80.582 109.503 81.5574L108.852 82.0282L108.731 81.1744C108.69 80.8846 108.65 80.5683 108.622 80.2456H108.621C108.614 79.8991 108.632 79.5527 108.676 79.2098C108.726 78.8633 108.817 78.5251 108.945 78.1997C109.019 78.0452 109.079 77.8925 109.15 77.7417C109.244 77.6 109.331 77.4665 109.419 77.3385C109.586 77.0953 109.785 76.8759 110.011 76.6858C110.195 76.5084 110.404 76.3594 110.631 76.2415C110.924 76.0495 111.254 75.9197 111.599 75.8585C111.838 75.8109 111.986 75.8173 112.02 75.885L112.02 75.8849Z" fill="#602D23"/>
<path d="M108.454 97.3774C108.454 98.9818 107.996 100.552 107.135 101.906C106.639 102.684 105.951 103.322 105.136 103.756C104.437 104.093 103.648 104.201 102.884 104.063C102.397 103.967 101.937 103.765 101.537 103.47C101.262 103.266 101.134 103.128 101.173 103.061C101.214 102.994 101.409 103.001 101.719 103.075V103.074C102.132 103.183 102.553 103.248 102.978 103.269C103.563 103.275 104.139 103.124 104.645 102.832C105.266 102.437 105.791 101.908 106.181 101.285C106.93 100.074 107.429 98.7277 107.649 97.3217C107.837 96.2649 107.81 95.5043 107.979 95.4906C108.124 95.4732 108.44 96.1332 108.454 97.3774L108.454 97.3774Z" fill="#602D23"/>
<path d="M107.062 68.0688C107.19 68.1766 106.9 68.7078 106.523 69.5817H106.523C106.009 70.6824 105.649 71.8489 105.453 73.0474C105.391 73.563 105.408 74.0841 105.504 74.5942C105.562 74.852 105.657 75.0998 105.787 75.3283C105.841 75.2808 105.889 75.214 105.941 75.1665C106.123 74.991 106.248 74.7963 106.385 74.6619C106.634 74.3794 106.817 74.245 106.897 74.2926C106.978 74.3401 106.945 74.5604 106.823 74.9179H106.824C106.759 75.1391 106.669 75.3512 106.555 75.5514C106.42 75.7872 106.258 76.0551 106.063 76.3449L105.795 76.7617L105.397 76.3714H105.398C104.967 75.96 104.647 75.4462 104.469 74.8776C104.293 74.2359 104.247 73.5658 104.335 72.9066C104.528 71.5637 105.042 70.2867 105.835 69.1851C106.416 68.3514 106.947 67.9784 107.062 68.0689V68.0688Z" fill="#602D23"/>
<path d="M102.607 66.3038C102.775 66.4647 101.908 67.2664 101.268 68.6175L101.073 69.0353L100.621 68.8306H100.622C99.5855 68.3378 98.6969 67.5809 98.0451 66.6365C97.5541 65.9591 97.2013 65.1921 97.0066 64.3785C96.8429 63.6975 96.8457 62.9872 97.0139 62.3061C97.1437 61.8536 97.3759 61.4367 97.694 61.0893C97.9226 60.8846 98.077 60.7822 98.1447 60.8334C98.2123 60.8845 98.1712 61.0555 98.0578 61.338H98.0569C97.9317 61.7027 97.8458 62.0803 97.801 62.4642C97.7772 63.7368 98.1904 64.9782 98.9711 65.9828C99.4492 66.6639 100.038 67.259 100.712 67.7463C101.033 67.3157 101.416 66.9363 101.85 66.62C102.271 66.3385 102.535 66.2224 102.607 66.3037L102.607 66.3038Z" fill="#602D23"/>
<path d="M96.8619 97.3713C97.1261 98.7225 96.8628 100.124 96.1278 101.288C95.7512 101.943 95.2457 102.516 94.6414 102.97C94.1175 103.362 93.4849 103.583 92.8313 103.602C92.3898 103.603 91.9592 103.464 91.6026 103.206C91.3668 103.017 91.2863 102.869 91.333 102.802C91.4207 102.647 91.9793 102.957 92.7591 102.802V102.801C93.804 102.456 94.6651 101.704 95.1478 100.715C95.742 99.7499 96.0593 98.6401 96.0629 97.5065C96.051 97.1737 95.9871 96.8447 95.8746 96.5302C95.8006 96.2943 95.7201 96.1206 95.7878 96.0722C95.8554 96.0237 96.0026 96.0585 96.2247 96.2605V96.2614C96.5411 96.5613 96.7623 96.947 96.8619 97.3712L96.8619 97.3713Z" fill="#602D23"/>
<path d="M95.4514 56.7083C95.572 56.8107 95.189 57.5695 94.4887 58.8082C94.2931 59.1538 94.0746 59.4865 93.8369 59.8037C93.5215 60.237 93.09 60.5735 92.5918 60.7737C91.9876 60.9428 91.3422 60.8724 90.7891 60.578C90.2863 60.3266 89.8164 60.0149 89.3895 59.6492C88.5219 58.9544 87.8655 58.033 87.4916 56.9871C87.1854 56.1461 87.0839 55.2447 87.1964 54.3571C87.2704 53.7583 87.4807 53.1852 87.8107 52.6805C88.0529 52.345 88.2349 52.217 88.3025 52.2509C88.3702 52.2847 88.3089 52.5205 88.2001 52.8826H88.1992C88.0648 53.3808 87.9963 53.8936 87.9944 54.4101C88.0054 55.1652 88.1654 55.9112 88.4652 56.6041C88.8245 57.4433 89.384 58.1811 90.0934 58.7543C90.4563 59.0669 90.8512 59.3421 91.2708 59.5734C91.5716 59.7608 91.9318 59.8303 92.2801 59.7681C92.866 59.6136 93.4063 58.8667 93.8269 58.3493C94.6844 57.2468 95.3307 56.6124 95.4513 56.7084L95.4514 56.7083Z" fill="#602D23"/>
<path d="M85.0267 98.0889C85.1008 98.109 85.1291 98.3046 85.1072 98.641C85.0935 98.8166 85.0733 99.025 85.0322 99.2664C84.9719 99.5022 84.8978 99.771 84.8037 100.067H84.8046C84.683 100.394 84.534 100.708 84.3603 101.01C84.2561 101.18 84.1363 101.34 84.0029 101.488C83.8804 101.662 83.7332 101.819 83.5659 101.952C82.8346 102.569 81.9423 102.963 80.9944 103.089C80.7722 103.115 80.5501 103.136 80.3353 103.163L79.9788 103.196L79.6551 103.21V103.209C79.2337 103.227 78.8123 103.222 78.3908 103.196C77.6394 103.178 76.8998 102.996 76.2243 102.665C75.7206 102.424 75.3466 101.975 75.2004 101.437C75.1602 101.303 75.1556 101.162 75.1876 101.027C75.2013 100.933 75.2278 100.879 75.268 100.872C75.3092 100.864 75.3549 100.899 75.4097 100.974V100.973C75.4682 101.082 75.5368 101.185 75.6145 101.28C75.8513 101.592 76.1813 101.821 76.5561 101.934C77.9776 102.226 79.4431 102.237 80.8692 101.968C81.0621 101.933 81.2532 101.887 81.4415 101.832C81.6253 101.799 81.8044 101.739 81.9726 101.658C82.1408 101.584 82.309 101.516 82.4772 101.443C82.6189 101.341 82.7597 101.248 82.895 101.154V101.153C83.034 101.062 83.1583 100.95 83.2644 100.823C83.3814 100.715 83.4892 100.598 83.5871 100.474C83.7644 100.238 83.929 99.9931 84.0789 99.7399C84.1996 99.4913 84.3212 99.2627 84.4354 99.0671C84.5232 98.8623 84.6045 98.6767 84.6777 98.5286C84.8294 98.2379 84.951 98.0779 85.0269 98.0889L85.0267 98.0889Z" fill="#602D23"/>
<path d="M71.0622 94.8129C71.1298 94.8394 71.1298 95.1018 71.0219 95.5534H71.0229C70.8172 96.1988 70.5027 96.804 70.0941 97.3433C69.4889 98.1515 68.7264 98.8289 67.8525 99.3344C66.7601 99.9981 65.4883 100.309 64.2131 100.223C63.8712 100.199 63.533 100.141 63.203 100.048C63.0411 99.988 62.8866 99.9268 62.7322 99.8665C62.6407 99.8354 62.5503 99.7997 62.4625 99.7586L62.2742 99.6507C61.9917 99.4981 61.7247 99.3179 61.4779 99.1123C61.3637 98.9989 61.2485 98.8901 61.1351 98.7896L60.838 98.4321V98.433C60.2356 97.5874 59.8827 96.5901 59.8224 95.5533C59.7685 94.8988 59.7758 94.2415 59.8425 93.5888C59.8955 93.1308 59.9632 92.8821 60.0473 92.8821C60.2228 92.862 60.3225 93.8978 60.6196 95.4319C60.7695 96.2875 61.1251 97.0938 61.6562 97.7803L61.8976 98.0363L62.1736 98.2722H62.1746C62.3729 98.4276 62.5868 98.5629 62.8127 98.6753L63.001 98.7777C62.9937 98.7576 63.1034 98.8115 63.1491 98.8253L63.5184 98.9606L63.5193 98.9596C63.778 99.0227 64.0413 99.0657 64.3073 99.0876C65.3641 99.1544 66.4191 98.9185 67.3478 98.4084C68.1422 98.0007 68.8635 97.4641 69.4815 96.8205C69.8993 96.3771 70.2768 95.8972 70.6078 95.3871C70.84 95.0068 70.989 94.7791 71.0621 94.813L71.0622 94.8129Z" fill="#602D23"/>
<path d="M59.0369 35.6882C59.1585 35.7284 59.0972 36.4954 58.4655 37.5723V37.5714C58.0743 38.2132 57.5367 38.7525 56.8968 39.1465C56.0704 39.6347 55.1005 39.8221 54.1524 39.6777C52.9447 39.4528 51.8368 38.8604 50.9785 37.9828L50.6484 37.6592L50.9044 37.3429C51.3222 36.8099 51.6568 36.2184 51.9 35.5867C52.0279 35.0684 52.1157 34.7521 52.2236 34.7594C52.3314 34.7667 52.4283 35.0666 52.4649 35.6132C52.4165 36.265 52.2336 36.9004 51.9274 37.4772C52.6304 38.0184 53.4504 38.3868 54.3215 38.5541C55.029 38.6611 55.7531 38.5486 56.3939 38.2314C56.936 37.9444 57.4205 37.5586 57.8219 37.0933C58.5322 36.2659 58.8686 35.6132 59.0368 35.6882L59.0369 35.6882Z" fill="#602D23"/>
<path d="M56.091 87.1626C56.1651 87.169 56.1852 87.478 56.1102 88.0301V88.0292C55.9758 88.8136 55.7052 89.5678 55.3094 90.2571C54.7179 91.3184 53.8394 92.1905 52.7744 92.7738C52.1299 93.1102 51.4342 93.3379 50.7157 93.4466L50.1507 93.507C49.9551 93.5134 49.753 93.5134 49.5583 93.5134H49.5574C49.3709 93.5134 49.1844 93.5024 48.9998 93.4805L48.7246 93.453L48.657 93.4466L48.5966 93.4393L48.5628 93.4256L48.4147 93.3991L48.4138 93.4C47.6176 93.2748 46.8634 92.9603 46.2134 92.484C45.6009 92.0132 45.1475 91.3641 44.9153 90.6273C44.7059 90.0029 44.6145 89.3456 44.6456 88.6893C44.6602 88.1371 44.7288 87.5886 44.8504 87.0511C45.301 85.1057 45.9602 84.0817 46.079 84.1311C46.2545 84.1914 45.8742 85.336 45.642 87.1863V87.1854C45.5853 87.6818 45.5671 88.181 45.5881 88.6801C45.5981 89.2268 45.7024 89.7689 45.8953 90.2808C46.0854 90.8128 46.4301 91.2763 46.8844 91.6118C47.3991 91.9757 47.9906 92.217 48.6131 92.3185L48.7347 92.3788L48.7612 92.4666L48.7685 92.6211L48.8352 92.473L49.1049 92.345C49.2768 92.3688 49.4496 92.3807 49.6232 92.3788C49.7777 92.3861 49.9304 92.3861 50.0876 92.3861C50.2485 92.366 50.403 92.3523 50.5649 92.3386C51.1646 92.2618 51.7478 92.0918 52.2945 91.834C53.2324 91.3723 54.0378 90.6803 54.6357 89.8219C55.6806 88.3263 55.9027 87.1076 56.0911 87.1626L56.091 87.1626Z" fill="#602D23"/>
<path d="M46.9266 33.9163C47.0409 33.984 46.8726 34.6769 46.166 35.5984H46.1651C45.7418 36.1506 45.2079 36.6095 44.5982 36.945C43.8111 37.3691 42.9106 37.5364 42.0239 37.4222C41.171 37.2951 40.361 36.9651 39.6616 36.4595L39.2319 36.1634L39.4943 35.7538C40.0666 34.8661 40.4835 34.0918 40.7796 33.547C41.0621 32.9683 41.2578 32.6182 41.3711 32.6584C41.4844 32.6986 41.5064 33.0762 41.3912 33.728V33.7289C41.2148 34.4447 40.9625 35.1395 40.6379 35.8013C41.117 36.0546 41.6362 36.221 42.1737 36.2932C42.842 36.3791 43.5221 36.2795 44.1383 36.0043C44.6676 35.763 45.1549 35.4402 45.5836 35.0481C46.3533 34.3679 46.7775 33.8295 46.9265 33.9163L46.9266 33.9163Z" fill="#602D23"/>
<path d="M39.7717 82.9497C39.8192 83.0164 39.7114 83.1709 39.4554 83.4132C39.0861 83.7496 38.6536 84.0083 38.1838 84.1747C37.8574 84.2944 37.5192 84.3776 37.1745 84.4233C36.9825 84.4535 36.7896 84.4736 36.5958 84.4836L35.9705 84.4635L35.9696 84.4626C35.0454 84.3822 34.1522 84.0896 33.3588 83.6088C32.5671 83.1042 31.9199 82.4012 31.4811 81.5693C31.3942 81.3746 31.3074 81.1789 31.2187 80.9906C31.1657 80.7959 31.1246 80.6002 31.077 80.4119C31.0569 80.3251 31.0368 80.2309 31.0167 80.1422C30.9966 80.0545 31.0094 79.9612 31.003 79.8671C30.9957 79.6916 30.9957 79.5233 30.9893 79.3625L30.9911 79.3634C31.0085 78.8624 31.1319 78.3715 31.354 77.9226C31.5012 77.6155 31.6219 77.4656 31.6968 77.4857C31.7718 77.5049 31.7992 77.7014 31.7773 78.0378L31.7782 78.0369C31.7389 78.4693 31.7434 78.9045 31.7919 79.3351L31.8723 79.7446L31.9126 79.9668C31.9391 80.0344 31.9665 80.1085 31.993 80.1715C32.0406 80.3196 32.0954 80.4677 32.1475 80.6222C32.228 80.7639 32.3157 80.912 32.3962 81.0592H32.3971C32.7957 81.6964 33.3314 82.2366 33.964 82.6416C34.6176 83.0338 35.3389 83.2989 36.0912 83.4214L36.6032 83.4817C36.7714 83.4955 36.9332 83.4753 37.0877 83.4817H37.0868C37.383 83.4753 37.6773 83.4461 37.9689 83.3949C39.0331 83.191 39.6593 82.8016 39.7717 82.9497L39.7717 82.9497Z" fill="#602D23"/>
<path d="M36.578 32.2968C36.6273 32.5802 36.609 32.87 36.524 33.1451C36.2626 34.1114 35.5477 34.8912 34.607 35.2368C34.3135 35.3584 34.0018 35.4333 33.6855 35.4589C33.4003 35.4763 33.1151 35.4699 32.8317 35.4397L32.3472 35.4123L32.3664 34.9278C32.4075 33.7577 32.5711 32.9093 32.7905 32.9093C32.9862 32.9093 33.1745 33.4807 33.3162 34.3884C33.3966 34.382 33.478 34.3747 33.5585 34.3619C33.7769 34.3244 33.9909 34.2641 34.1975 34.1809C34.8575 33.9185 35.4151 33.4487 35.7854 32.8416C35.9143 32.6433 36.0331 32.4385 36.141 32.2273C36.2434 32.0728 36.3293 31.986 36.4107 31.9915C36.492 31.9979 36.5442 32.0938 36.578 32.2968L36.578 32.2968Z" fill="#602D23"/>
<path d="M28.2539 73.2815C28.3014 73.3418 28.1734 73.5173 27.89 73.7861H27.8909C27.4841 74.1691 27.006 74.469 26.484 74.6673C25.6814 74.969 24.8148 75.0595 23.9682 74.9297C22.9197 74.7706 21.9388 74.3181 21.137 73.6243C20.348 72.9103 19.7885 71.9778 19.5298 70.9458C19.3205 70.113 19.3388 69.2391 19.5829 68.4155C19.6926 68.1074 19.8233 67.8067 19.9732 67.515C20.0793 67.3075 20.2127 67.1146 20.37 66.9428C20.6122 66.653 20.774 66.5113 20.8408 66.5524C20.9075 66.5935 20.8746 66.8084 20.7539 67.1667C20.6652 67.3715 20.5939 67.5836 20.5391 67.7993C20.4915 68.0407 20.4175 68.3039 20.3636 68.5928C20.146 70.1552 20.7228 71.722 21.8994 72.7714C23.0887 73.8126 24.7005 74.2304 26.2462 73.8977C26.7271 73.7825 27.196 73.6207 27.6458 73.4132C27.985 73.2742 28.2016 73.2212 28.2538 73.2815L28.2539 73.2815Z" fill="#602D23"/>
<path d="M27.8296 33.6687C27.964 33.7427 27.91 34.166 27.6614 34.8269H27.6623C27.3378 35.7393 26.75 36.5355 25.9729 37.1142C25.5908 37.3747 25.1483 37.5329 24.6876 37.5713L23.9873 37.6188L24.1016 36.9259C24.2158 36.2402 24.3712 35.6342 24.4517 35.1569C24.5541 34.6925 24.6738 34.4229 24.8018 34.4229C24.9298 34.4229 25.0432 34.7053 25.1319 35.1707V35.1697C25.2013 35.5235 25.2279 35.8855 25.2123 36.2457C25.2534 36.2192 25.3001 36.1982 25.3476 36.1717H25.3467C25.9656 35.6716 26.5086 35.0857 26.962 34.4311C27.3725 33.9045 27.6897 33.5882 27.8296 33.6687L27.8296 33.6687Z" fill="#602D23"/>
<path d="M16.9825 60.4081C17.0693 60.4821 16.9221 60.8377 16.6323 61.41V61.4109C16.2237 62.1103 15.9431 62.8772 15.805 63.6753L15.7172 64.51L14.9914 64.0181C14.1942 63.4852 13.4921 62.8233 12.9116 62.06C12.3558 61.3496 11.9673 60.5242 11.7744 59.6448C11.6117 58.9189 11.6226 58.1648 11.8082 57.4444C11.9371 56.9709 12.1492 56.5247 12.4335 56.1252C12.6383 55.8693 12.791 55.7486 12.8577 55.7824C13.0195 55.8629 12.6968 56.5494 12.6027 57.5852C12.514 58.9592 12.9491 60.3149 13.8194 61.3809C14.186 61.8581 14.5937 62.3015 15.038 62.7055C15.3058 62.0967 15.6743 61.5372 16.1277 61.0509C16.5793 60.57 16.8883 60.3479 16.9824 60.4082L16.9825 60.4081Z" fill="#602D23"/>
<path d="M9.99912 50.4035C10.1207 50.4784 9.91227 51.0571 9.46799 51.9393C9.02371 52.8214 8.35088 53.998 7.73838 55.3437L7.40287 56.0915L6.85071 55.5393C6.66879 55.3574 6.48686 55.1691 6.29854 54.9798V54.9808C5.67324 54.3198 5.2646 53.4843 5.12748 52.5857C5.06989 52.1953 5.06532 51.7995 5.11377 51.4083C5.17319 51.0801 5.25455 50.7564 5.35604 50.4383C5.48402 50.1559 5.59737 49.9072 5.70617 49.6978V49.6988C5.80581 49.5287 5.92008 49.3697 6.04991 49.2215C6.25468 48.9729 6.39913 48.8577 6.46676 48.8915C6.53441 48.9253 6.5207 49.1137 6.44025 49.4226C6.40643 49.5771 6.32598 49.7655 6.27844 49.9748C6.23091 50.1832 6.19159 50.4118 6.13126 50.655H6.13034C5.87804 51.9083 6.23456 53.2063 7.09206 54.1553C7.59576 53.2302 8.17809 52.3498 8.83265 51.5244C9.44058 50.7537 9.8748 50.3304 9.99914 50.4036L9.99912 50.4035Z" fill="#602D23"/>
<path d="M7.22594 40.2231C7.30639 40.3255 7.07785 40.6939 6.68019 41.2324C6.30354 41.7973 5.79984 42.578 5.24676 43.5397L4.89664 44.1595L4.3847 43.6284C3.99616 43.2051 3.75757 42.6658 3.70548 42.0926C3.61954 41.332 3.70913 40.5613 3.96785 39.8401C4.15982 39.2623 4.45144 38.723 4.829 38.2448C5.09411 37.9093 5.43602 37.6424 5.82545 37.4651C6.10062 37.3709 6.2551 37.3901 6.29624 37.4513C6.33738 37.5126 6.22219 37.6561 6.04759 37.8417C5.83824 38.1068 5.65358 38.3911 5.49542 38.6891C5.26596 39.1499 5.08952 39.6353 4.96977 40.1363C4.81619 40.7241 4.77048 41.3348 4.8363 41.939C4.84179 42.0195 4.8555 42.0981 4.87653 42.1758C5.25773 41.6611 5.69015 41.1876 6.16916 40.7625C6.74784 40.3109 7.14459 40.128 7.22594 40.2231H7.22594Z" fill="#602D23"/>
</svg>
