<svg width="25" height="25" viewBox="0 0 25 25" fill="none" xmlns="http://www.w3.org/2000/svg">
<path d="M19.3984 4.1741H18.3984V3.1741C18.3984 2.5741 17.9984 2.1741 17.3984 2.1741C16.7984 2.1741 16.3984 2.5741 16.3984 3.1741V4.1741H8.39844V3.1741C8.39844 2.5741 7.99844 2.1741 7.39844 2.1741C6.79844 2.1741 6.39844 2.5741 6.39844 3.1741V4.1741H5.39844C3.69844 4.1741 2.39844 5.4741 2.39844 7.1741V8.1741H22.3984V7.1741C22.3984 5.4741 21.0984 4.1741 19.3984 4.1741ZM2.39844 19.1741C2.39844 20.8741 3.69844 22.1741 5.39844 22.1741H19.3984C21.0984 22.1741 22.3984 20.8741 22.3984 19.1741V10.1741H2.39844V19.1741ZM17.3984 12.1741C17.9984 12.1741 18.3984 12.5741 18.3984 13.1741C18.3984 13.7741 17.9984 14.1741 17.3984 14.1741C16.7984 14.1741 16.3984 13.7741 16.3984 13.1741C16.3984 12.5741 16.7984 12.1741 17.3984 12.1741ZM17.3984 16.1741C17.9984 16.1741 18.3984 16.5741 18.3984 17.1741C18.3984 17.7741 17.9984 18.1741 17.3984 18.1741C16.7984 18.1741 16.3984 17.7741 16.3984 17.1741C16.3984 16.5741 16.7984 16.1741 17.3984 16.1741ZM12.3984 12.1741C12.9984 12.1741 13.3984 12.5741 13.3984 13.1741C13.3984 13.7741 12.9984 14.1741 12.3984 14.1741C11.7984 14.1741 11.3984 13.7741 11.3984 13.1741C11.3984 12.5741 11.7984 12.1741 12.3984 12.1741ZM12.3984 16.1741C12.9984 16.1741 13.3984 16.5741 13.3984 17.1741C13.3984 17.7741 12.9984 18.1741 12.3984 18.1741C11.7984 18.1741 11.3984 17.7741 11.3984 17.1741C11.3984 16.5741 11.7984 16.1741 12.3984 16.1741ZM7.39844 12.1741C7.99844 12.1741 8.39844 12.5741 8.39844 13.1741C8.39844 13.7741 7.99844 14.1741 7.39844 14.1741C6.79844 14.1741 6.39844 13.7741 6.39844 13.1741C6.39844 12.5741 6.79844 12.1741 7.39844 12.1741ZM7.39844 16.1741C7.99844 16.1741 8.39844 16.5741 8.39844 17.1741C8.39844 17.7741 7.99844 18.1741 7.39844 18.1741C6.79844 18.1741 6.39844 17.7741 6.39844 17.1741C6.39844 16.5741 6.79844 16.1741 7.39844 16.1741Z" fill="#757575"/>
</svg>
