<svg width="50" height="50" viewBox="0 0 50 50" fill="none" xmlns="http://www.w3.org/2000/svg">
<path fill-rule="evenodd" clip-rule="evenodd" d="M38.8513 28.8631C36.5105 28.8631 34.1697 29.7557 32.3836 31.5428C28.8113 35.1155 28.8113 40.9073 32.3836 44.4796C34.1697 46.2657 36.5105 47.1593 38.8513 47.1593C41.1932 47.1593 43.534 46.2658 45.3202 44.4796C48.8925 40.9072 48.8925 35.1159 45.3202 31.5428C43.5341 29.7567 41.1933 28.8631 38.8513 28.8631ZM43.8407 43.0002C42.5087 44.3322 40.736 45.067 38.8513 45.067C36.9678 45.067 35.1955 44.3322 33.8635 43.0002C31.1125 40.2493 31.1125 35.7739 33.8635 33.0227C35.1955 31.6894 36.9678 30.9559 38.8513 30.9559C40.736 30.9559 42.5087 31.6894 43.8407 33.0227C45.1727 34.3547 45.9071 36.1261 45.9071 38.0108C45.9071 39.8952 45.1727 41.6679 43.8407 42.9999V43.0002ZM41.8223 36.6267H39.7295V34.5339C39.7295 33.9561 39.2609 33.4876 38.6831 33.4876C38.1056 33.4876 37.6367 33.9562 37.6367 34.5339V37.6728C37.6367 38.2506 38.1056 38.7191 38.6831 38.7191H41.8223C42.4001 38.7191 42.8686 38.2506 42.8686 37.6728C42.8686 37.0953 42.4 36.6267 41.8223 36.6267V36.6267ZM27.1733 43.9512C27.1972 43.9512 26.1743 43.9506 26.1978 43.949C26.7424 43.9123 27.1733 43.4588 27.1733 42.9048C27.1733 42.3273 26.7044 41.8584 26.127 41.8584H6.24584C5.09149 41.8584 4.15303 40.92 4.15303 39.7656V17.7915H42.8692V25.1162C42.8692 25.6937 43.3381 26.1626 43.9155 26.1626C44.4934 26.1626 44.9619 25.6937 44.9619 25.1162V11.5134C44.9619 9.20506 43.0848 7.32783 40.7763 7.32783H36.5907V6.80463C36.5907 4.78494 34.948 3.14224 32.9286 3.14224C30.9089 3.14224 29.2662 4.78494 29.2662 6.80463V7.32783H18.8026V6.80463C18.8026 4.78494 17.1599 3.14224 15.1402 3.14224C13.1208 3.14224 11.4781 4.78494 11.4781 6.80463V7.32783H6.24616C3.93778 7.32783 2.06055 9.20498 2.06055 11.5134V39.7652C2.06055 42.0735 3.9377 43.9508 6.24616 43.9508L27.1733 43.9512ZM4.15303 11.5134C4.15303 10.359 5.09149 9.42058 6.24584 9.42058H11.4778V9.94378C11.4778 11.9632 13.1205 13.6062 15.1399 13.6062C17.1596 13.6062 18.8023 11.9632 18.8023 9.94378V9.42058H29.2659V9.94378C29.2659 11.9632 30.9086 13.6062 32.9283 13.6062C34.9477 13.6062 36.5904 11.9632 36.5904 9.94378V9.42058H40.776C41.9303 9.42058 42.8688 10.359 42.8688 11.5134V15.6987H4.15263L4.15303 11.5134ZM13.5705 6.80464C13.5705 5.9393 14.2745 5.23505 15.1398 5.23505C16.0054 5.23505 16.7094 5.93934 16.7094 6.80464V9.94381C16.7094 10.8091 16.0054 11.5134 15.1398 11.5134C14.2745 11.5134 13.5705 10.8091 13.5705 9.94381V6.80464ZM31.3586 6.80464C31.3586 5.9393 32.0626 5.23505 32.9282 5.23505C33.7936 5.23505 34.4978 5.93934 34.4978 6.80464V9.94381C34.4978 10.8091 33.7935 11.5134 32.9282 11.5134C32.0626 11.5134 31.3586 10.8091 31.3586 9.94381V6.80464ZM13.0467 19.8844C11.027 19.8844 9.38428 21.5274 9.38428 23.5468C9.38428 25.5665 11.027 27.2092 13.0467 27.2092C15.066 27.2092 16.7087 25.5665 16.7087 23.5468C16.7087 21.5274 15.066 19.8844 13.0467 19.8844ZM13.0467 25.1163C12.1811 25.1163 11.4771 24.4121 11.4771 23.5468C11.4771 22.6815 12.1811 21.9772 13.0467 21.9772C13.912 21.9772 14.6159 22.6815 14.6159 23.5468C14.6159 24.4121 13.912 25.1163 13.0467 25.1163ZM23.5103 19.8844C21.4909 19.8844 19.8479 21.5274 19.8479 23.5468C19.8479 25.5665 21.4909 27.2092 23.5103 27.2092C25.53 27.2092 27.1727 25.5665 27.1727 23.5468C27.1727 21.5274 25.53 19.8844 23.5103 19.8844ZM23.5103 25.1163C22.645 25.1163 21.9407 24.4121 21.9407 23.5468C21.9407 22.6815 22.645 21.9772 23.5103 21.9772C24.3756 21.9772 25.0799 22.6815 25.0799 23.5468C25.0799 24.4121 24.3756 25.1163 23.5103 25.1163ZM30.3119 23.5468C30.3119 25.5665 31.9546 27.2092 33.9743 27.2092C35.9936 27.2092 37.6363 25.5665 37.6363 23.5468C37.6363 21.5274 35.9936 19.8844 33.9743 19.8844C31.9546 19.8844 30.3119 21.5274 30.3119 23.5468ZM35.5438 23.5468C35.5438 24.4121 34.8395 25.1163 33.9743 25.1163C33.1087 25.1163 32.4047 24.4121 32.4047 23.5468C32.4047 22.6815 33.1087 21.9772 33.9743 21.9772C34.8396 21.9772 35.5438 22.6815 35.5438 23.5468ZM23.5102 30.3483C21.4909 30.3483 19.8478 31.991 19.8478 34.0107C19.8478 36.0301 21.4909 37.6728 23.5102 37.6728C25.5299 37.6728 27.1726 36.0301 27.1726 34.0107C27.1726 31.991 25.5299 30.3483 23.5102 30.3483ZM23.5102 35.5803C22.6449 35.5803 21.9406 34.876 21.9406 34.0107C21.9406 33.1451 22.6449 32.4411 23.5102 32.4411C24.3756 32.4411 25.0798 33.1451 25.0798 34.0107C25.0798 34.8761 24.3755 35.5803 23.5102 35.5803ZM13.0466 30.3483C11.0269 30.3483 9.3842 31.991 9.3842 34.0107C9.3842 36.0301 11.0269 37.6728 13.0466 37.6728C15.066 37.6728 16.7087 36.0301 16.7087 34.0107C16.7087 31.991 15.066 30.3483 13.0466 30.3483ZM13.0466 35.5803C12.181 35.5803 11.477 34.876 11.477 34.0107C11.477 33.1451 12.181 32.4411 13.0466 32.4411C13.9119 32.4411 14.6159 33.1451 14.6159 34.0107C14.6159 34.8761 13.9119 35.5803 13.0466 35.5803Z" fill="black" stroke="black" stroke-width="0.5"/>
</svg>
