<svg width="50" height="50" viewBox="0 0 50 50" fill="none" xmlns="http://www.w3.org/2000/svg">
<path d="M38.6598 31.1789L33.8537 30.6301C33.2886 30.5638 32.7158 30.6263 32.1783 30.8131C31.6409 30.9999 31.1527 31.3061 30.7506 31.7087L27.2691 35.1902C21.8976 32.4584 17.5316 28.0924 14.7998 22.7209L18.3003 19.2205C19.1139 18.4068 19.5112 17.2715 19.3788 16.1173L18.8301 11.3491C18.7228 10.4261 18.2798 9.57472 17.5855 8.95714C16.8911 8.33957 15.9939 7.9989 15.0647 8H11.7913C9.65312 8 7.8745 9.77862 8.00695 11.9168C9.00979 28.0757 21.9332 40.9802 38.0732 41.983C40.2114 42.1155 41.99 40.3369 41.99 38.1987V34.9253C42.0089 33.0142 40.5709 31.4059 38.6598 31.1789Z" fill="black"/>
</svg>
