<svg width="24" height="24" viewBox="0 0 24 24" fill="none" xmlns="http://www.w3.org/2000/svg">
<mask id="mask0_2111_14451" style="mask-type:alpha" maskUnits="userSpaceOnUse" x="0" y="0" width="24" height="24">
<circle cx="12" cy="12" r="12" fill="#D9D9D9"/>
</mask>
<g mask="url(#mask0_2111_14451)">
<path fill-rule="evenodd" clip-rule="evenodd" d="M4 0H20V24H4V0Z" fill="#F7FCFF"/>
<path fill-rule="evenodd" clip-rule="evenodd" d="M11.9764 7L12 19H11.4005L11.7683 16.0303C9.07819 16.5144 7.84432 16.6343 8.06672 16.3902C8.28912 16.146 8.46436 15.8 8.59246 15.3521L5 12.9553C5.37779 12.9506 5.72035 12.8568 6.0277 12.674C6.33504 12.4912 6.18137 11.8578 5.56668 10.7737L7.38047 11.0376L8.06672 10.2918L9.43519 11.7241H10.0503L9.43519 8.44343L10.5378 9.05932L11.9764 7ZM11.9764 7L13.4622 9.05932L14.5648 8.44343L13.9497 11.7241H14.5648L15.9333 10.2918L16.6195 11.0376L18.4333 10.7737C17.8186 11.8578 17.665 12.4912 17.9723 12.674C18.2796 12.8568 18.6222 12.9506 19 12.9553L15.4075 15.3521C15.5356 15.8 15.7109 16.146 15.9333 16.3902C16.1557 16.6343 14.9218 16.5144 12.2317 16.0303L12.5995 19H12L11.9764 7Z" fill="#E31D1C"/>
<path fill-rule="evenodd" clip-rule="evenodd" d="M20 0H28V24H20V0Z" fill="#E31D1C"/>
<path fill-rule="evenodd" clip-rule="evenodd" d="M-4 0H4V24H-4V0Z" fill="#E31D1C"/>
</g>
<circle cx="12" cy="12" r="11.5" stroke="white"/>
</svg>
