<svg width="56" height="38" viewBox="0 0 56 38" fill="none" xmlns="http://www.w3.org/2000/svg">
<path fill-rule="evenodd" clip-rule="evenodd" d="M16.7021 25.5568H13.3691L10.8698 16.0217C10.7512 15.5831 10.4993 15.1953 10.1288 15.0126C9.20412 14.5533 8.18521 14.1878 7.07367 14.0034V13.6363H12.4429C13.1839 13.6363 13.7397 14.1878 13.8323 14.8282L15.1291 21.7062L18.4605 13.6363H21.7008L16.7021 25.5568ZM23.5534 25.5568H20.4057L22.9976 13.6363H26.1454L23.5534 25.5568ZM30.2178 16.9387C30.3104 16.2966 30.8662 15.9295 31.5146 15.9295C32.5335 15.8373 33.6434 16.0217 34.5697 16.4794L35.1255 13.9128C34.1992 13.5457 33.1803 13.3614 32.2556 13.3614C29.2005 13.3614 26.9774 15.0126 26.9774 17.3042C26.9774 19.0475 28.5521 19.9629 29.6636 20.5143C30.8662 21.0642 31.3293 21.4313 31.2367 21.9811C31.2367 22.8059 30.3104 23.173 29.3857 23.173C28.2742 23.173 27.1627 22.8981 26.1454 22.4388L25.5896 25.007C26.7012 25.4646 27.9037 25.649 29.0152 25.649C32.4409 25.7396 34.5697 24.09 34.5697 21.614C34.5697 18.4961 30.2178 18.3133 30.2178 16.9387V16.9387ZM45.586 25.5568L43.0866 13.6363H40.402C39.8462 13.6363 39.2905 14.0034 39.1052 14.5533L34.477 25.5568H37.7174L38.3642 23.8151H42.3456L42.7161 25.5568H45.586ZM40.8651 16.8465L41.7898 21.3391H39.1978L40.8651 16.8465Z" fill="#B5B5B5"/>
</svg>
