<svg width="56" height="38" viewBox="0 0 56 38" fill="none" xmlns="http://www.w3.org/2000/svg">
<g style="mix-blend-mode:luminosity">
<path fill-rule="evenodd" clip-rule="evenodd" d="M15.6146 23.9576H13.1692C13.0019 23.9576 12.8596 24.0793 12.8335 24.2444L11.8445 30.5149C11.8248 30.6387 11.9206 30.7502 12.0462 30.7502H13.2136C13.3809 30.7502 13.5232 30.6286 13.5493 30.4631L13.8161 28.7719C13.8418 28.6063 13.9845 28.4848 14.1515 28.4848H14.9256C16.5364 28.4848 17.466 27.7053 17.7089 26.1607C17.8182 25.4849 17.7135 24.9539 17.397 24.5819C17.0495 24.1737 16.433 23.9576 15.6146 23.9576ZM15.8967 26.2479C15.763 27.1253 15.0925 27.1253 14.4443 27.1253H14.0753L14.3342 25.4866C14.3495 25.3876 14.4353 25.3146 14.5355 25.3146H14.7046C15.1462 25.3146 15.5628 25.3146 15.778 25.5663C15.9063 25.7166 15.9457 25.9396 15.8967 26.2479ZM22.9242 26.2197H21.7532C21.6534 26.2197 21.5672 26.2927 21.5518 26.3918L21.5 26.7193L21.4181 26.6006C21.1646 26.2326 20.5994 26.1097 20.0352 26.1097C18.7411 26.1097 17.6359 27.0898 17.4206 28.4646C17.3088 29.1503 17.4678 29.8061 17.8568 30.2634C18.2137 30.6839 18.7243 30.8591 19.3318 30.8591C20.3744 30.8591 20.9527 30.1886 20.9527 30.1886L20.9004 30.5141C20.8807 30.6385 20.9765 30.75 21.1013 30.75H22.1561C22.3239 30.75 22.4654 30.6284 22.4919 30.463L23.1248 26.455C23.1448 26.3318 23.0493 26.2197 22.9242 26.2197ZM21.2919 28.4989C21.1789 29.1679 20.6479 29.6169 19.9708 29.6169C19.6308 29.6169 19.3589 29.5079 19.1845 29.3012C19.0114 29.096 18.9456 28.8038 19.0007 28.4785C19.1062 27.8152 19.6462 27.3515 20.313 27.3515C20.6454 27.3515 20.9158 27.4619 21.0938 27.6704C21.2722 27.881 21.343 28.1749 21.2919 28.4989ZM27.984 26.2196H29.1608C29.3256 26.2196 29.4218 26.4044 29.3281 26.5396L25.4143 32.1889C25.351 32.2805 25.2465 32.3349 25.135 32.3349H23.9597C23.7942 32.3349 23.6976 32.1486 23.7934 32.0131L25.0121 30.2929L23.716 26.4891C23.6711 26.3569 23.7688 26.2196 23.9094 26.2196H25.0657C25.2159 26.2196 25.3485 26.3182 25.3918 26.462L26.0797 28.7593L27.7027 26.3687C27.7663 26.2753 27.8718 26.2196 27.984 26.2196Z" fill="#9B9B9B"/>
<path fill-rule="evenodd" clip-rule="evenodd" d="M40.7426 30.5149L41.7461 24.1297C41.7615 24.0306 41.8474 23.9576 41.9472 23.9573H43.077C43.2018 23.9573 43.2976 24.0691 43.2779 24.1929L42.2882 30.4631C42.2624 30.6286 42.1201 30.7502 41.9525 30.7502H40.9435C40.8187 30.7502 40.7229 30.6387 40.7426 30.5149ZM33.0568 23.9576H30.6111C30.4441 23.9576 30.3018 24.0792 30.2757 24.2444L29.2867 30.5149C29.267 30.6387 29.3628 30.7502 29.4877 30.7502H30.7426C30.8593 30.7502 30.959 30.6651 30.9772 30.5493L31.2579 28.7719C31.2837 28.6062 31.4263 28.4848 31.5933 28.4848H32.367C33.9781 28.4848 34.9076 27.7053 35.1506 26.1606C35.2603 25.4849 35.1549 24.9539 34.8386 24.5819C34.4913 24.1737 33.8752 23.9576 33.0568 23.9576ZM33.3389 26.2478C33.2056 27.1253 32.5351 27.1253 31.8865 27.1253H31.5178L31.7771 25.4865C31.7925 25.3876 31.8775 25.3146 31.978 25.3146H32.1471C32.5884 25.3146 33.0054 25.3146 33.2205 25.5663C33.3489 25.7165 33.3879 25.9396 33.3389 26.2478ZM40.3658 26.2197H39.1956C39.095 26.2197 39.0096 26.2927 38.9946 26.3918L38.9428 26.7192L38.8606 26.6006C38.6071 26.2326 38.0422 26.1097 37.4779 26.1097C36.1838 26.1097 35.079 27.0897 34.8637 28.4646C34.7522 29.1503 34.9105 29.806 35.2996 30.2634C35.6571 30.6838 36.1671 30.8591 36.7745 30.8591C37.8171 30.8591 38.3953 30.1886 38.3953 30.1886L38.3431 30.5141C38.3235 30.6385 38.4193 30.75 38.5449 30.75H39.5992C39.7662 30.75 39.9085 30.6284 39.9346 30.4629L40.5678 26.455C40.5872 26.3317 40.4914 26.2197 40.3658 26.2197ZM38.7337 28.4988C38.6213 29.1678 38.0897 29.6169 37.4124 29.6169C37.073 29.6169 36.8007 29.5079 36.6261 29.3012C36.453 29.096 36.388 28.8038 36.4424 28.4785C36.5485 27.8151 37.0878 27.3515 37.7546 27.3515C38.0872 27.3515 38.3574 27.4619 38.5356 27.6703C38.7146 27.881 38.7854 28.1749 38.7337 28.4988Z" fill="#B5B5B5"/>
<path d="M24.6642 21.7144L24.9649 19.8049L24.2952 19.7894H21.0976L23.3198 5.69885C23.3266 5.65631 23.3491 5.61665 23.3818 5.58848C23.4146 5.56032 23.4566 5.5448 23.5003 5.5448H28.892C30.6821 5.5448 31.9173 5.91728 32.5623 6.65247C32.8646 6.99737 33.0572 7.35777 33.1503 7.75439C33.2479 8.17057 33.2498 8.66778 33.1543 9.27422L33.1473 9.31848V9.70705L33.4498 9.87836C33.7045 10.0134 33.9067 10.1681 34.0619 10.3451C34.3207 10.64 34.488 11.0148 34.5586 11.4591C34.6316 11.9161 34.6074 12.4599 34.488 13.0755C34.35 13.7837 34.1269 14.4004 33.8258 14.9051C33.5486 15.3702 33.1957 15.7558 32.7767 16.0548C32.3766 16.3387 31.9012 16.5543 31.3638 16.6923C30.8429 16.8278 30.2492 16.8963 29.5979 16.8963H29.1783C28.8783 16.8963 28.5868 17.0044 28.3581 17.1982C28.1287 17.3959 27.9768 17.6659 27.9303 17.9615L27.8987 18.1334L27.3676 21.4988L27.3434 21.6224C27.3371 21.6616 27.3262 21.6811 27.3102 21.6944C27.2958 21.7063 27.2751 21.7144 27.2549 21.7144H24.6642Z" fill="#9B9B9B"/>
<path d="M33.7361 9.36346C33.72 9.46635 33.7017 9.57154 33.681 9.67961C32.9698 13.3303 30.5373 14.5914 27.4303 14.5914H25.8484C25.4685 14.5914 25.1484 14.8673 25.0891 15.2421L24.2792 20.3787L24.0498 21.8347C24.0113 22.0807 24.2011 22.3026 24.4493 22.3026H27.2551C27.5873 22.3026 27.8695 22.0612 27.9217 21.7336L27.9494 21.591L28.4777 18.2386L28.5116 18.0548C28.5633 17.726 28.846 17.4846 29.1783 17.4846H29.5979C32.3162 17.4846 34.4443 16.3809 35.0663 13.1872C35.326 11.853 35.1915 10.739 34.504 9.95552C34.296 9.71927 34.0379 9.52326 33.7361 9.36346Z" fill="#B5B5B5"/>
<path d="M32.992 9.06711C32.8834 9.03548 32.7712 9.00674 32.6562 8.98088C32.5407 8.9556 32.4223 8.93318 32.3005 8.91364C31.8739 8.84465 31.4066 8.81189 30.9059 8.81189H26.6799C26.5758 8.81189 26.477 8.83545 26.3885 8.87799C26.1936 8.97168 26.0488 9.15621 26.0137 9.3821L25.1146 15.0763L25.0888 15.2424C25.148 14.8676 25.4682 14.5917 25.8481 14.5917H27.43C30.5369 14.5917 32.9696 13.33 33.6806 9.67986C33.7018 9.5718 33.7197 9.46661 33.7357 9.36372C33.5559 9.2683 33.361 9.18667 33.1511 9.11711C33.0995 9.09987 33.0461 9.08321 32.992 9.06711Z" fill="#868686"/>
</g>
</svg>
