<svg width="56" height="38" viewBox="0 0 56 38" fill="none" xmlns="http://www.w3.org/2000/svg">
<g style="mix-blend-mode:luminosity">
<path fill-rule="evenodd" clip-rule="evenodd" d="M29.5959 12.7985L26.8012 13.3983V11.1324L29.5959 10.5438V12.7985ZM18.2386 11.8322L15.5218 12.4098L15.5107 21.3067C15.5107 22.9506 16.7466 24.1613 18.3945 24.1613C19.3076 24.1613 19.9756 23.9947 20.3431 23.7948V21.54C19.9868 21.6844 18.2275 22.1953 18.2275 20.5514V16.6083H20.3431V14.2425H18.2275L18.2386 11.8322ZM47.979 19.1408C47.979 16.2973 46.5983 14.0537 43.9594 14.0537C41.3094 14.0537 39.7061 16.2973 39.7061 19.1186C39.7061 22.4619 41.5989 24.1502 44.3158 24.1502C45.6408 24.1502 46.6429 23.8503 47.4 23.4282V21.2068C46.6429 21.5844 45.7744 21.8177 44.6721 21.8177C43.592 21.8177 42.6344 21.44 42.512 20.1294H47.9567C47.9567 20.0681 47.9607 19.9291 47.9654 19.7688L47.9654 19.7686V19.7684L47.9654 19.768C47.9716 19.5505 47.979 19.2942 47.979 19.1408ZM42.4785 18.0856C42.4785 16.8305 43.2468 16.3085 43.9482 16.3085C44.6274 16.3085 45.3512 16.8305 45.3512 18.0856H42.4785ZM11.6583 16.464C11.0681 16.464 10.7118 16.6306 10.7118 17.0638C10.7118 17.5367 11.325 17.7448 12.0858 18.0029C13.326 18.4237 14.9583 18.9775 14.9652 21.0291C14.9652 23.0173 13.373 24.1614 11.057 24.1614C10.0994 24.1614 9.05277 23.9725 8.01726 23.5282V20.8847C8.95256 21.3956 10.1328 21.7733 11.057 21.7733C11.6805 21.7733 12.1259 21.6067 12.1259 21.0957C12.1259 20.5718 11.4612 20.3324 10.6587 20.0433C9.4365 19.603 7.89478 19.0476 7.89478 17.1971C7.89478 15.2311 9.39794 14.0537 11.6583 14.0537C12.5824 14.0537 13.4955 14.1981 14.4196 14.5646V17.1748C13.5734 16.7194 12.5045 16.464 11.6583 16.464ZM23.8061 15.0644L23.6279 14.2425H21.2228V23.9614H24.0065V17.3748C24.6634 16.5195 25.7769 16.675 26.122 16.7972V14.2425C25.7657 14.1092 24.463 13.8649 23.8061 15.0644ZM26.801 14.2425H29.5958V23.9614H26.801V14.2425ZM33.2256 14.92C33.6154 14.5646 34.3168 14.0537 35.408 14.0537C37.3566 14.0537 39.1938 15.8086 39.2049 19.0298C39.2049 22.5508 37.39 24.1502 35.3969 24.1502C34.417 24.1502 33.8269 23.7393 33.4261 23.4505L33.4149 26.5938L30.6313 27.1825V14.2314H33.0809L33.2256 14.92ZM33.426 21.1846C33.6932 21.4734 34.083 21.7066 34.7399 21.7066C35.7643 21.7066 36.4546 20.5959 36.4546 19.1075C36.4546 17.6524 35.7531 16.5195 34.7399 16.5195C34.1052 16.5195 33.7044 16.7416 33.4149 17.0638L33.426 21.1846Z" fill="#B5B5B5"/>
</g>
</svg>
