<svg width="56" height="38" viewBox="0 0 56 38" fill="none" xmlns="http://www.w3.org/2000/svg">
<g style="mix-blend-mode:luminosity">
<path fill-rule="evenodd" clip-rule="evenodd" d="M27.9193 26.9695C26.0462 28.5859 23.6166 29.5616 20.9616 29.5616C15.0375 29.5616 10.2351 24.7035 10.2351 18.7106C10.2351 12.7178 15.0375 7.85962 20.9616 7.85962C23.6166 7.85962 26.0463 8.8354 27.9193 10.4518C29.7924 8.83542 32.2221 7.85965 34.877 7.85965C40.8011 7.85965 45.6035 12.7178 45.6035 18.7107C45.6035 24.7035 40.8011 29.5617 34.877 29.5617C32.2221 29.5617 29.7924 28.5859 27.9193 26.9695Z" fill="#9B9B9B"/>
<path fill-rule="evenodd" clip-rule="evenodd" d="M27.9193 26.9695C30.2257 24.9792 31.6881 22.0177 31.6881 18.7106C31.6881 15.4036 30.2257 12.442 27.9193 10.4518C29.7924 8.83539 32.2221 7.85962 34.877 7.85962C40.8011 7.85962 45.6035 12.7178 45.6035 18.7106C45.6035 24.7035 40.8011 29.5616 34.877 29.5616C32.2221 29.5616 29.7924 28.5859 27.9193 26.9695Z" fill="#B5B5B5"/>
<path fill-rule="evenodd" clip-rule="evenodd" d="M27.9194 26.9695C30.2257 24.9792 31.6881 22.0177 31.6881 18.7107C31.6881 15.4036 30.2257 12.4421 27.9194 10.4518C25.6131 12.4421 24.1506 15.4036 24.1506 18.7107C24.1506 22.0177 25.6131 24.9792 27.9194 26.9695Z" fill="#868686"/>
</g>
</svg>
