<svg width="66" height="84" viewBox="0 0 66 84" fill="none" xmlns="http://www.w3.org/2000/svg">
<g clip-path="url(#clip0_800_11991)">
<path d="M38.2215 0.460388C40.418 2.68441 42.5778 4.94971 44.8248 7.1233C46.095 8.35683 46.0583 9.4161 44.8248 10.5992C42.1513 13.2038 39.5329 15.8589 36.8412 18.5461C38.0701 19.5595 39.4458 19.3944 40.6518 19.6971C55.8807 23.5261 65.8361 37.1454 65.2399 53.4289C64.7034 68.0112 53.0147 80.9426 38.093 83.4326C37.6345 83.5106 37.1759 83.5152 36.8549 83.9187H28.5917C26.8491 83.4601 25.0974 83.0016 23.364 82.5063C8.768 78.2784 -0.641669 64.4894 0.229599 48.6186C0.995398 34.6187 12.4548 21.8844 26.6061 19.3119C27.2618 19.1926 27.9818 19.2844 28.6559 18.4314C26.0696 15.891 23.5062 13.291 20.8603 10.7918C19.4296 9.44362 19.4021 8.37517 20.8603 6.9949C23.066 4.90386 25.1203 2.64773 27.2389 0.460388H38.2215ZM32.815 21.9578C25.0129 21.9529 17.5275 25.0429 12.0007 30.5499C6.47391 36.0569 3.35712 43.5312 3.33405 51.3333C3.30653 67.3829 16.5223 80.6216 32.6178 80.7088C48.7134 80.7959 62.1217 67.4517 62.1034 51.3058C62.085 35.1598 48.8922 21.9853 32.815 21.9578ZM40.0557 11.1174L39.7118 10.6359H25.0836C27.6608 13.1442 29.8343 15.2215 31.9621 17.3584C32.5123 17.9041 32.9205 17.9179 33.4845 17.3584C35.6718 15.2628 37.8775 13.1992 40.0557 11.1174ZM25.8403 7.08203H39.8539C36.0983 2.05619 28.8072 2.12956 25.8403 7.08203Z" fill="#602D23"/>
<path d="M32.8794 26.5988C36.4015 26.563 39.8862 27.3233 43.0733 28.8228C44.2289 29.3456 45.2148 30.0243 44.5361 31.3999C43.8987 32.6977 42.789 32.1887 41.7847 31.7576C33.5077 28.2909 25.6846 29.1438 18.8566 34.9676C12.0286 40.7913 9.60281 48.3851 12.0699 57.0473C14.5369 65.7096 20.4753 71.0748 29.4952 72.5146C37.8411 73.8491 44.7287 70.9097 49.8371 64.288C54.8813 57.7719 55.537 50.5082 52.5609 42.8778C52.3314 42.3981 52.1353 41.9032 51.974 41.3966C51.7905 40.5666 52.0336 39.8375 52.8911 39.5348C53.9504 39.1588 54.6703 39.7045 55.1059 40.6262C56.4159 43.3071 57.2049 46.2123 57.4309 49.1876C58.348 62.9123 48.7778 74.491 35.3419 75.9814C22.1628 77.4442 10.2448 68.062 8.1721 54.594C5.89763 40.0117 17.8065 26.5346 32.8794 26.5988Z" fill="#602D23"/>
<path d="M45.4484 48.9357C44.5818 48.2341 43.7013 47.56 42.8575 46.8263C42.5045 46.5236 42.1743 46.1017 42.6237 45.6661C43.0731 45.2305 43.4629 45.6294 43.7839 45.9413C45.0357 47.1748 46.2693 48.4221 47.512 49.6648C47.6353 49.7565 47.7354 49.8758 47.8044 50.0132C47.8735 50.1505 47.9094 50.3021 47.9094 50.4558C47.9094 50.6095 47.8735 50.7611 47.8044 50.8984C47.7354 51.0358 47.6353 51.1551 47.512 51.2468C46.2693 52.4849 45.0311 53.7368 43.7839 54.9703C43.4583 55.2913 43.0639 55.6628 42.6237 55.195C42.1835 54.7273 42.5641 54.3421 42.9034 54.0395C43.6967 53.3241 44.5221 52.6638 45.3292 51.9484L45.0816 51.4257H19.6314C20.6356 52.4895 21.4656 53.3379 22.2498 54.2C22.5157 54.4889 22.7083 54.8328 22.3782 55.195C22.048 55.5573 21.6628 55.3785 21.3831 55.0987C20.0762 53.8148 18.7831 52.517 17.4853 51.2193C17.362 51.1276 17.2618 51.0082 17.1928 50.8709C17.1238 50.7336 17.0879 50.582 17.0879 50.4283C17.0879 50.2746 17.1238 50.123 17.1928 49.9857C17.2618 49.8483 17.362 49.729 17.4853 49.6373C18.7326 48.3991 19.9661 47.1473 21.218 45.9137C21.5436 45.5927 21.9471 45.2396 22.3736 45.7257C22.8 46.2118 22.3736 46.6016 22.0434 46.8767C21.2134 47.5462 20.3422 48.1607 19.4847 48.7981L19.9432 49.4905H44.9899L45.4484 48.9357Z" fill="#602D23"/>
<path d="M49.0705 33.4767C50.0702 33.4767 50.6296 33.9353 50.6434 34.9533C50.6572 35.9713 50.1848 36.5445 49.1806 36.5812C48.9725 36.6007 48.7626 36.5759 48.5648 36.5084C48.367 36.441 48.1856 36.3325 48.0328 36.19C47.8799 36.0475 47.7589 35.8743 47.6777 35.6817C47.5965 35.4891 47.5571 35.2815 47.5619 35.0725C47.5397 34.865 47.5628 34.6551 47.6296 34.4574C47.6963 34.2596 47.8052 34.0787 47.9485 33.927C48.0919 33.7754 48.2665 33.6566 48.4601 33.5789C48.6538 33.5011 48.8621 33.4663 49.0705 33.4767Z" fill="#602D23"/>
</g>
<defs>
<clipPath id="clip0_800_11991">
<rect width="65.0837" height="83.4583" fill="white" transform="translate(0.169922 0.459991)"/>
</clipPath>
</defs>
</svg>
