<svg width="100" height="100" viewBox="0 0 100 100" fill="none" xmlns="http://www.w3.org/2000/svg">
<rect width="100" height="100" fill="white"/>
<path d="M78.5291 55.9776H20.4715C19.8268 55.9776 19.2994 55.4501 19.2994 54.8055C19.2994 54.1608 19.8268 53.6334 20.4715 53.6334H76.3217L67.8826 41.1115H30.4929C29.8482 41.1115 29.3208 40.5841 29.3208 39.9394C29.3208 39.2948 29.8482 38.7673 30.4929 38.7673H68.5078C68.8984 38.7673 69.2696 38.9627 69.4845 39.2752L79.5059 54.1413C79.7403 54.4929 79.7794 54.9618 79.5645 55.3524C79.3496 55.7431 78.9589 55.9776 78.5291 55.9776Z" fill="black"/>
<path d="M20.4712 55.9775C20.2368 55.9775 20.0219 55.9188 19.8265 55.7821C19.2991 55.4109 19.1428 54.6882 19.514 54.1607L29.5354 39.2947C29.9065 38.7672 30.6293 38.6109 31.1568 38.9821C31.6842 39.3533 31.8405 40.0761 31.4693 40.6035L21.4479 55.4695C21.2135 55.8016 20.8423 55.9775 20.4712 55.9775Z" fill="black"/>
<path d="M36.6265 55.9775C36.4702 55.9775 36.314 55.9385 36.1577 55.8799C35.5716 55.6259 35.2981 54.9226 35.5521 54.3366L42.0963 39.4706C42.3502 38.8845 43.0535 38.611 43.6395 38.865C44.2256 39.1189 44.4991 39.8222 44.2451 40.4082L37.7009 55.2743C37.5056 55.7236 37.0758 55.9775 36.6265 55.9775Z" fill="black"/>
<path d="M62.3735 55.9775C61.9242 55.9775 61.4944 55.7235 61.2991 55.2742L54.7744 40.4277C54.5204 39.8417 54.7744 39.1384 55.38 38.8844C55.966 38.6305 56.6693 38.8844 56.9232 39.49L63.4479 54.3561C63.7018 54.9421 63.4479 55.6454 62.8423 55.8993C62.7056 55.9579 62.5297 55.9775 62.3735 55.9775Z" fill="black"/>
<path d="M49.5 85.5142C49.1874 85.5142 48.8749 85.397 48.66 85.1626L19.6311 55.6259C19.299 55.2938 19.2014 54.7859 19.3772 54.3561C19.553 53.9263 19.9828 53.6333 20.4516 53.6333H78.5093C78.9781 53.6333 79.4079 53.9263 79.5837 54.3561C79.7595 54.7859 79.6618 55.2938 79.3297 55.6259L50.34 85.1626C50.1251 85.397 49.8125 85.5142 49.5 85.5142ZM23.2646 55.9775L49.5 82.6621L75.7353 55.9775H23.2646Z" fill="black"/>
<path d="M49.5 85.5144C49.3437 85.5144 49.1874 85.4754 49.0312 85.4168C48.4451 85.1628 48.1716 84.4595 48.4256 83.8735L61.2991 54.3368C61.553 53.7507 62.2563 53.4772 62.8423 53.7312C63.4284 53.9851 63.7019 54.6884 63.4479 55.2744L50.5744 84.8112C50.3791 85.2605 49.9493 85.5144 49.5 85.5144Z" fill="black"/>
<path d="M49.5 85.5144C49.0507 85.5144 48.6209 85.2605 48.4256 84.8112L35.5521 55.2744C35.2981 54.6884 35.5716 53.9851 36.1577 53.7312C36.7437 53.4772 37.447 53.7507 37.7009 54.3368L50.5744 83.8735C50.8284 84.4595 50.5549 85.1628 49.9688 85.4168C49.8126 85.4754 49.6563 85.5144 49.5 85.5144Z" fill="black"/>
<path d="M78.3726 43.4168C77.9624 43.4168 77.5717 43.202 77.3568 42.8308C77.0247 42.2643 77.22 41.561 77.7865 41.2289L86.5968 36.1303C87.1633 35.7982 87.8665 35.9936 88.1986 36.5601C88.5307 37.1266 88.3354 37.8299 87.7689 38.162L78.9586 43.2606C78.7828 43.3582 78.5679 43.4168 78.3726 43.4168Z" fill="black"/>
<path d="M66.007 31.3052C65.8116 31.3052 65.6163 31.2466 65.4209 31.149C64.8544 30.8169 64.6591 30.1136 64.9912 29.5471L70.0702 20.6978C70.4023 20.1313 71.1056 19.9359 71.6721 20.268C72.2386 20.6001 72.434 21.3034 72.1019 21.8699L67.0228 30.7192C66.8079 31.1099 66.4172 31.3052 66.007 31.3052Z" fill="black"/>
<path d="M49.2851 27.0465C48.6405 27.0465 48.113 26.5191 48.113 25.8744V15.6577C48.113 15.013 48.6405 14.4856 49.2851 14.4856C49.9298 14.4856 50.4572 15.013 50.4572 15.6577V25.8744C50.4572 26.5191 49.9298 27.0465 49.2851 27.0465Z" fill="black"/>
<path d="M32.661 31.7545C32.2507 31.7545 31.86 31.5396 31.6451 31.1684L26.5661 22.3191C26.234 21.7526 26.4293 21.0493 26.9958 20.7173C27.5623 20.3852 28.2656 20.5805 28.5977 21.147L33.6768 29.9963C34.0089 30.5628 33.8135 31.2661 33.247 31.5982C33.0712 31.6959 32.8758 31.7545 32.661 31.7545Z" fill="black"/>
<path d="M20.6274 44.1787C20.4321 44.1787 20.2172 44.1201 20.0414 44.0224L11.2312 38.9238C10.6647 38.5917 10.4888 37.8884 10.8014 37.3219C11.1335 36.7554 11.8368 36.5796 12.4033 36.8922L21.2135 41.9908C21.78 42.3229 21.9558 43.0261 21.6433 43.5926C21.4284 43.9638 21.0181 44.1787 20.6274 44.1787Z" fill="black"/>
</svg>
