<svg width="24" height="24" viewBox="0 0 24 24" fill="none" xmlns="http://www.w3.org/2000/svg">
<circle cx="7" cy="17" r="4" stroke="black" stroke-linecap="round"/>
<circle cx="7" cy="12" r="1" stroke="black" stroke-linecap="round"/>
<path d="M7 11V10.5607C7 9.88153 7.26978 9.23022 7.75 8.75L8.08579 8.41421C8.351 8.149 8.5 7.78929 8.5 7.41421V7.25C8.5 6.55964 7.94036 6 7.25 6V6C6.55964 6 6 6.55964 6 7.25V7.5" stroke="black" stroke-linecap="round"/>
<circle cx="17" cy="13" r="4" stroke="black" stroke-linecap="round"/>
<circle cx="17" cy="8" r="1" stroke="black" stroke-linecap="round"/>
<path d="M17 7V6.56066C17 5.88153 17.2698 5.23022 17.75 4.75L18.0858 4.41421C18.351 4.149 18.5 3.78929 18.5 3.41421V3.25C18.5 2.55964 17.9404 2 17.25 2V2C16.5596 2 16 2.55964 16 3.25V3.5" stroke="black" stroke-linecap="round"/>
</svg>
