<svg width="120" height="120" viewBox="0 0 120 120" fill="none" xmlns="http://www.w3.org/2000/svg">
<g clip-path="url(#clip0_1693_10949)">
<path d="M89.6875 58.4375H83.4375C83.0231 58.4375 82.6257 58.6021 82.3326 58.8952C82.0396 59.1882 81.875 59.5856 81.875 60C81.875 60.4144 82.0396 60.8118 82.3326 61.1049C82.6257 61.3979 83.0231 61.5625 83.4375 61.5625H86.5625V64.6875C86.5625 65.1019 86.7271 65.4993 87.0201 65.7924C87.3132 66.0854 87.7106 66.25 88.125 66.25C88.5394 66.25 88.9368 66.0854 89.2299 65.7924C89.5229 65.4993 89.6875 65.1019 89.6875 64.6875V61.5625C90.9307 61.5625 92.123 61.0686 93.0021 60.1896C93.8811 59.3105 94.375 58.1182 94.375 56.875V53.75C94.375 52.5068 93.8811 51.3145 93.0021 50.4354C92.123 49.5564 90.9307 49.0625 89.6875 49.0625H86.5625C86.1481 49.0625 85.7507 48.8979 85.4576 48.6049C85.1646 48.3118 85 47.9144 85 47.5V44.375C85 43.9606 85.1646 43.5632 85.4576 43.2702C85.7507 42.9771 86.1481 42.8125 86.5625 42.8125H92.8125C93.2269 42.8125 93.6243 42.6479 93.9174 42.3549C94.2104 42.0618 94.375 41.6644 94.375 41.25C94.375 40.8356 94.2104 40.4382 93.9174 40.1452C93.6243 39.8521 93.2269 39.6875 92.8125 39.6875H89.6875V36.5625C89.6875 36.1481 89.5229 35.7507 89.2299 35.4577C88.9368 35.1646 88.5394 35 88.125 35C87.7106 35 87.3132 35.1646 87.0201 35.4577C86.7271 35.7507 86.5625 36.1481 86.5625 36.5625V39.6875C85.3193 39.6875 84.127 40.1814 83.2479 41.0604C82.3689 41.9395 81.875 43.1318 81.875 44.375V47.5C81.875 48.7432 82.3689 49.9355 83.2479 50.8146C84.127 51.6937 85.3193 52.1875 86.5625 52.1875H89.6875C90.1019 52.1875 90.4993 52.3521 90.7924 52.6452C91.0854 52.9382 91.25 53.3356 91.25 53.75V56.875C91.25 57.2894 91.0854 57.6868 90.7924 57.9799C90.4993 58.2729 90.1019 58.4375 89.6875 58.4375ZM104.562 82.1875L72.5 84.8656V81.0375C72.5114 78.682 71.7572 76.3865 70.351 74.4967C68.9448 72.6069 66.9627 71.2251 64.7031 70.5594L41.0688 63.4719C40.8022 62.4792 40.2167 61.6016 39.4025 60.9742C38.5882 60.3469 37.5904 60.0046 36.5625 60H11.5625C11.1481 60 10.7507 60.1646 10.4576 60.4577C10.1646 60.7507 10 61.1481 10 61.5625V95.9375C10 96.3519 10.1646 96.7493 10.4576 97.0424C10.7507 97.3354 11.1481 97.5 11.5625 97.5H36.5625C37.4552 97.4972 38.3284 97.2395 39.0797 96.7574C39.8309 96.2752 40.4288 95.5885 40.8031 94.7781L65.75 102.263C69.1401 103.285 72.7641 103.231 76.1219 102.106L106.562 91.9594C107.73 91.5732 108.716 90.7719 109.332 89.7075C109.948 88.643 110.152 87.3895 109.905 86.1846C109.659 84.9797 108.979 83.9071 107.994 83.1704C107.009 82.4336 105.788 82.0839 104.562 82.1875ZM28.75 94.375H13.125V63.125H28.75V94.375ZM38.125 92.8125C38.125 93.2269 37.9604 93.6243 37.6674 93.9174C37.3743 94.2104 36.9769 94.375 36.5625 94.375H31.875V63.125H36.5625C36.9769 63.125 37.3743 63.2896 37.6674 63.5827C37.9604 63.8757 38.125 64.2731 38.125 64.6875V92.8125ZM105.578 88.9906L75.1344 99.1375C72.3871 100.059 69.4214 100.105 66.6469 99.2688L41.25 91.65V66.7875L63.8063 73.5531C65.4194 74.03 66.8343 75.0173 67.8385 76.3669C68.8426 77.7164 69.3818 79.3554 69.375 81.0375V84.2531L55.8937 78.8594C55.7018 78.7749 55.4948 78.7299 55.2852 78.7271C55.0755 78.7243 54.8674 78.7638 54.6733 78.8431C54.4792 78.9224 54.303 79.04 54.1553 79.1889C54.0076 79.3377 53.8913 79.5148 53.8135 79.7095C53.7356 79.9042 53.6978 80.1126 53.7022 80.3222C53.7066 80.5319 53.7531 80.7385 53.839 80.9298C53.925 81.1211 54.0485 81.2931 54.2024 81.4356C54.3562 81.5782 54.5371 81.6883 54.7344 81.7594L70.3594 88.0094H70.4C70.4759 88.0298 70.5532 88.0444 70.6313 88.0531C70.7332 88.0833 70.8379 88.1032 70.9438 88.1125C70.9625 88.1125 70.9781 88.1125 70.9969 88.0969C71.0156 88.0813 71.0469 88.0969 71.075 88.0969L104.825 85.2844C105.289 85.2418 105.752 85.3719 106.127 85.6496C106.501 85.9274 106.759 86.3333 106.853 86.7898C106.947 87.2462 106.869 87.7212 106.634 88.1238C106.399 88.5264 106.025 88.8283 105.581 88.9719L105.578 88.9906ZM88.125 72.5C92.4515 72.5 96.6808 71.2171 100.278 68.8134C103.875 66.4098 106.679 62.9933 108.335 58.9962C109.991 54.9991 110.424 50.6007 109.58 46.3574C108.736 42.1141 106.652 38.2163 103.593 35.1571C100.534 32.0978 96.6359 30.0144 92.3926 29.1703C88.1493 28.3263 83.7509 28.7595 79.7538 30.4151C75.7567 32.0708 72.3403 34.8746 69.9366 38.4719C67.5329 42.0692 66.25 46.2985 66.25 50.625C66.2566 56.4246 68.5634 61.9847 72.6643 66.0857C76.7653 70.1866 82.3254 72.4934 88.125 72.5ZM88.125 31.875C91.8334 31.875 95.4585 32.9747 98.5419 35.035C101.625 37.0952 104.029 40.0236 105.448 43.4497C106.867 46.8758 107.238 50.6458 106.515 54.283C105.791 57.9201 104.005 61.261 101.383 63.8833C98.761 66.5055 95.4201 68.2913 91.7829 69.0147C88.1458 69.7382 84.3758 69.3669 80.9497 67.9478C77.5236 66.5286 74.5952 64.1254 72.5349 61.042C70.4747 57.9585 69.375 54.3334 69.375 50.625C69.3808 45.654 71.3581 40.8882 74.8731 37.3732C78.3882 33.8581 83.154 31.8808 88.125 31.875Z" fill="black"/>
</g>
<defs>
<clipPath id="clip0_1693_10949">
<rect width="100" height="100" fill="white" transform="translate(10 10)"/>
</clipPath>
</defs>
</svg>
