<svg width="24" height="24" viewBox="0 0 24 24" fill="none" xmlns="http://www.w3.org/2000/svg">
<path d="M0 12C0 18.6274 5.37258 24 12 24C18.6274 24 24 18.6274 24 12C24 5.37258 18.6274 0 12 0C5.37258 0 0 5.37258 0 12Z" fill="#000099"/>
<path fill-rule="evenodd" clip-rule="evenodd" d="M11.9727 4.61944L12.7437 5.19783L12.4461 4.25543L13.2345 3.70104L12.2463 3.69266L11.9621 2.77203L11.6489 3.70941L10.6858 3.69434L11.4803 4.28223L11.1682 5.19392L11.9727 4.61944ZM16.6417 6.28281L15.8707 5.70441L15.0662 6.2789L15.3783 5.3672L14.5838 4.77931L15.5469 4.79439L15.8601 3.85701L16.1442 4.77764L17.1324 4.78601L16.3441 5.3404L16.6417 6.28281ZM18.6435 8.51741L19.4145 9.0958L19.1169 8.1534L19.9052 7.59901L18.917 7.59063L18.6329 6.67L18.3197 7.60738L17.3566 7.59231L18.1511 8.1802L17.839 9.09189L18.6435 8.51741ZM19.6883 12.4154L20.4593 12.9938L20.1617 12.0514L20.95 11.497L19.9618 11.4886L19.6777 10.568L19.3645 11.5054L18.4014 11.4903L19.1958 12.0782L18.8838 12.9899L19.6883 12.4154ZM8.88594 6.24262L8.11493 5.66422L7.31043 6.23871L7.62252 5.32701L6.82806 4.73912L7.79112 4.7542L8.10433 3.81682L8.3885 4.73745L9.37669 4.74582L8.58837 5.30021L8.88594 6.24262ZM5.2216 8.47722L5.99261 9.05561L5.69504 8.11321L6.48335 7.55882L5.49517 7.55044L5.21099 6.62981L4.89779 7.56719L3.93473 7.55212L4.72918 8.14L4.41709 9.0517L5.2216 8.47722ZM4.94783 12.9536L4.17683 12.3752L3.37232 12.9497L3.68441 12.038L2.88995 11.4501L3.85301 11.4652L4.16622 10.5278L4.45039 11.4484L5.43858 11.4568L4.65026 12.0112L4.94783 12.9536ZM5.2216 16.3535L5.99261 16.9319L5.69504 15.9895L6.48335 15.4351L5.49517 15.4268L5.21099 14.5061L4.89779 15.4435L3.93473 15.4284L4.72918 16.0163L4.41709 16.928L5.2216 16.3535ZM8.8056 19.8253L8.03459 19.2469L7.23009 19.8214L7.54218 18.9097L6.74772 18.3218L7.71078 18.3368L8.02399 17.3995L8.30816 18.3201L9.29635 18.3285L8.50803 18.8829L8.8056 19.8253ZM11.9326 20.2917L12.7036 20.8701L12.406 19.9277L13.1943 19.3733L12.2061 19.3649L11.922 18.4443L11.6088 19.3817L10.6457 19.3666L11.4402 19.9545L11.1281 20.8662L11.9326 20.2917ZM16.6016 19.8253L15.8305 19.2469L15.026 19.8214L15.3381 18.9097L14.5437 18.3218L15.5067 18.3368L15.8199 17.3995L16.1041 18.3201L17.0923 18.3285L16.304 18.8829L16.6016 19.8253ZM18.7238 16.3535L19.4949 16.9319L19.1973 15.9895L19.9856 15.4351L18.9974 15.4268L18.7132 14.5061L18.4 15.4435L17.437 15.4284L18.2314 16.0163L17.9193 16.928L18.7238 16.3535Z" fill="#FFCC00"/>
<circle cx="12" cy="12" r="11.5" stroke="white"/>
</svg>
