<svg width="100" height="100" viewBox="0 0 100 100" fill="none" xmlns="http://www.w3.org/2000/svg">
<rect width="100" height="100" fill="white"/>
<path d="M82 50C82 50 67.4493 69.0667 49.5 69.0667C31.5507 69.0667 17 50 17 50C17 50 31.5507 30.9333 49.5 30.9333C67.4493 30.9333 82 50 82 50Z" stroke="black" stroke-width="2"/>
<path fill-rule="evenodd" clip-rule="evenodd" d="M48.465 20.3888C48.465 21.0335 48.9925 21.5609 49.6371 21.5609C50.2818 21.5609 50.8092 21.0335 50.8092 20.3888V10.1721C50.8092 9.52744 50.2818 9 49.6371 9C48.9925 9 48.465 9.52744 48.465 10.1721V20.3888ZM66.359 25.8195C66.1636 25.8195 65.9683 25.7609 65.7729 25.6633C65.2064 25.3312 65.0111 24.6279 65.3432 24.0614L70.4222 15.2121C70.7543 14.6456 71.4576 14.4502 72.0241 14.7823C72.5906 15.1144 72.7859 15.8177 72.4538 16.3842L67.3748 25.2335C67.1599 25.6242 66.7692 25.8195 66.359 25.8195ZM82.7245 35.9312C82.3143 35.9312 81.9236 35.7163 81.7087 35.3451C81.3766 34.7786 81.572 34.0753 82.1385 33.7433L90.9487 28.6446C91.5152 28.3126 92.2185 28.5079 92.5506 29.0744C92.8827 29.6409 92.6873 30.3442 92.1208 30.6763L83.3106 35.7749C83.1348 35.8726 82.9199 35.9312 82.7245 35.9312ZM33.0129 26.2688C32.6027 26.2688 32.212 26.054 31.9971 25.6828L26.918 16.8335C26.5859 16.267 26.7813 15.5637 27.3478 15.2316C27.9143 14.8995 28.6176 15.0949 28.9497 15.6614L34.0287 24.5107C34.3608 25.0772 34.1655 25.7805 33.599 26.1126C33.4232 26.2102 33.2278 26.2688 33.0129 26.2688ZM15.3934 36.5367C15.5692 36.6344 15.7841 36.693 15.9794 36.693C16.3701 36.693 16.7804 36.4781 16.9953 36.107C17.3078 35.5405 17.132 34.8372 16.5655 34.5051L7.75525 29.4065C7.18874 29.094 6.48549 29.2698 6.15339 29.8363C5.84083 30.4028 6.01665 31.106 6.58316 31.4381L15.3934 36.5367Z" fill="black"/>
<path fill-rule="evenodd" clip-rule="evenodd" d="M48.465 79.3043C48.465 78.6596 48.9925 78.1322 49.6371 78.1322C50.2818 78.1322 50.8092 78.6596 50.8092 79.3043V89.521C50.8092 90.1657 50.2818 90.6931 49.6371 90.6931C48.9925 90.6931 48.465 90.1657 48.465 89.521V79.3043ZM66.359 73.8736C66.1636 73.8736 65.9683 73.9322 65.7729 74.0299C65.2064 74.362 65.0111 75.0652 65.3432 75.6317L70.4222 84.481C70.7543 85.0475 71.4576 85.2429 72.0241 84.9108C72.5906 84.5787 72.7859 83.8754 72.4538 83.3089L67.3748 74.4596C67.1599 74.0689 66.7692 73.8736 66.359 73.8736ZM82.7245 63.762C82.3143 63.762 81.9236 63.9768 81.7087 64.348C81.3766 64.9145 81.572 65.6178 82.1385 65.9499L90.9487 71.0485C91.5152 71.3806 92.2185 71.1852 92.5506 70.6187C92.8827 70.0522 92.6873 69.3489 92.1208 69.0168L83.3106 63.9182C83.1348 63.8206 82.9199 63.762 82.7245 63.762ZM33.0129 73.4243C32.6027 73.4243 32.212 73.6392 31.9971 74.0103L26.918 82.8596C26.5859 83.4261 26.7813 84.1294 27.3478 84.4615C27.9143 84.7936 28.6176 84.5982 28.9497 84.0317L34.0287 75.1824C34.3608 74.6159 34.1655 73.9126 33.599 73.5806C33.4232 73.4829 33.2278 73.4243 33.0129 73.4243ZM15.3934 63.1564C15.5692 63.0587 15.7841 63.0001 15.9794 63.0001C16.3701 63.0001 16.7804 63.215 16.9953 63.5861C17.3078 64.1526 17.132 64.8559 16.5655 65.188L7.75525 70.2866C7.18874 70.5992 6.48549 70.4233 6.15339 69.8568C5.84083 69.2903 6.01665 68.5871 6.58316 68.255L15.3934 63.1564Z" fill="black"/>
<circle cx="49.9333" cy="50" r="13.8667" stroke="black" stroke-width="2"/>
<path d="M59.4097 48.9517C58.438 49.6132 57.2641 49.9999 56 49.9999C52.6495 49.9999 49.9333 47.2837 49.9333 43.9332C49.9333 42.6691 50.32 41.4952 50.9815 40.5235C50.6373 40.4859 50.2876 40.4666 49.9333 40.4666C44.6682 40.4666 40.4 44.7348 40.4 49.9999C40.4 55.265 44.6682 59.5332 49.9333 59.5332C55.1984 59.5332 59.4667 55.265 59.4667 49.9999C59.4667 49.6457 59.4473 49.2959 59.4097 48.9517Z" stroke="black" stroke-width="2"/>
</svg>
