<svg width="24" height="24" viewBox="0 0 24 24" fill="none" xmlns="http://www.w3.org/2000/svg">
<g clip-path="url(#clip0_161_3849)">
<mask id="mask0_161_3849" style="mask-type:alpha" maskUnits="userSpaceOnUse" x="0" y="0" width="24" height="24">
<circle cx="12" cy="12" r="12" fill="#D9D9D9"/>
</mask>
<g mask="url(#mask0_161_3849)">
<mask id="mask1_161_3849" style="mask-type:alpha" maskUnits="userSpaceOnUse" x="-8" y="0" width="32" height="24">
<rect x="-7.27271" y="0.727295" width="31.0303" height="23.2727" fill="white"/>
</mask>
<g mask="url(#mask1_161_3849)">
<path fill-rule="evenodd" clip-rule="evenodd" d="M-7.27271 0.727295H23.7576V24H-7.27271V0.727295Z" fill="#F7FCFF"/>
<path fill-rule="evenodd" clip-rule="evenodd" d="M-7.27271 14.9495V16.8889H23.7576V14.9495H-7.27271Z" fill="#E31D1C"/>
<path fill-rule="evenodd" clip-rule="evenodd" d="M-7.27271 18.5051V20.4445H23.7576V18.5051H-7.27271Z" fill="#E31D1C"/>
<path fill-rule="evenodd" clip-rule="evenodd" d="M-7.27271 7.83838V9.77777H23.7576V7.83838H-7.27271Z" fill="#E31D1C"/>
<path fill-rule="evenodd" clip-rule="evenodd" d="M-7.27271 22.0606V24H23.7576V22.0606H-7.27271Z" fill="#E31D1C"/>
<path fill-rule="evenodd" clip-rule="evenodd" d="M-7.27271 11.394V13.3333H23.7576V11.394H-7.27271Z" fill="#E31D1C"/>
<path fill-rule="evenodd" clip-rule="evenodd" d="M-7.27271 0.727295V2.66669H23.7576V0.727295H-7.27271Z" fill="#E31D1C"/>
<path fill-rule="evenodd" clip-rule="evenodd" d="M-7.27271 4.28284V6.22223H23.7576V4.28284H-7.27271Z" fill="#E31D1C"/>
<rect x="-7.27271" y="0.727295" width="19.3939" height="12.6061" fill="#2E42A5"/>
<path fill-rule="evenodd" clip-rule="evenodd" d="M-5.60285 3.5769L-6.30673 4.07037L-6.0691 3.1922L-6.69427 2.63568H-5.87771L-5.60383 1.91901L-5.2827 2.63568H-4.5866L-5.13354 3.1922L-4.9218 4.07037L-5.60285 3.5769ZM-1.72406 3.5769L-2.42795 4.07037L-2.19031 3.1922L-2.81549 2.63568H-1.99892L-1.72505 1.91901L-1.40391 2.63568H-0.707808L-1.25475 3.1922L-1.04301 4.07037L-1.72406 3.5769ZM1.45084 4.07037L2.15472 3.5769L2.83578 4.07037L2.62403 3.1922L3.17098 2.63568H2.47488L2.15374 1.91901L1.87987 2.63568H1.0633L1.68848 3.1922L1.45084 4.07037ZM6.03351 3.5769L5.32963 4.07037L5.56727 3.1922L4.94209 2.63568H5.75866L6.03253 1.91901L6.35366 2.63568H7.04977L6.50282 3.1922L6.71457 4.07037L6.03351 3.5769ZM-6.30673 7.94915L-5.60285 7.45569L-4.9218 7.94915L-5.13354 7.07099L-4.5866 6.51447H-5.2827L-5.60383 5.79779L-5.87771 6.51447H-6.69427L-6.0691 7.07099L-6.30673 7.94915ZM-1.72406 7.45569L-2.42795 7.94915L-2.19031 7.07099L-2.81549 6.51447H-1.99892L-1.72505 5.79779L-1.40391 6.51447H-0.707808L-1.25475 7.07099L-1.04301 7.94915L-1.72406 7.45569ZM1.45084 7.94915L2.15472 7.45569L2.83578 7.94915L2.62403 7.07099L3.17098 6.51447H2.47488L2.15374 5.79779L1.87987 6.51447H1.0633L1.68848 7.07099L1.45084 7.94915ZM6.03351 7.45569L5.32963 7.94915L5.56727 7.07099L4.94209 6.51447H5.75866L6.03253 5.79779L6.35366 6.51447H7.04977L6.50282 7.07099L6.71457 7.94915L6.03351 7.45569ZM-6.30673 11.8279L-5.60285 11.3345L-4.9218 11.8279L-5.13354 10.9498L-4.5866 10.3933H-5.2827L-5.60383 9.67658L-5.87771 10.3933H-6.69427L-6.0691 10.9498L-6.30673 11.8279ZM-1.72406 11.3345L-2.42795 11.8279L-2.19031 10.9498L-2.81549 10.3933H-1.99892L-1.72505 9.67658L-1.40391 10.3933H-0.707808L-1.25475 10.9498L-1.04301 11.8279L-1.72406 11.3345ZM1.45084 11.8279L2.15472 11.3345L2.83578 11.8279L2.62403 10.9498L3.17098 10.3933H2.47488L2.15374 9.67658L1.87987 10.3933H1.0633L1.68848 10.9498L1.45084 11.8279ZM6.03351 11.3345L5.32963 11.8279L5.56727 10.9498L4.94209 10.3933H5.75866L6.03253 9.67658L6.35366 10.3933H7.04977L6.50282 10.9498L6.71457 11.8279L6.03351 11.3345ZM9.20842 4.07037L9.9123 3.5769L10.5934 4.07037L10.3816 3.1922L10.9286 2.63568H10.2325L9.91132 1.91901L9.63745 2.63568H8.82088L9.44605 3.1922L9.20842 4.07037ZM9.9123 7.45569L9.20842 7.94915L9.44605 7.07099L8.82088 6.51447H9.63745L9.91132 5.79779L10.2325 6.51447H10.9286L10.3816 7.07099L10.5934 7.94915L9.9123 7.45569ZM9.20842 11.8279L9.9123 11.3345L10.5934 11.8279L10.3816 10.9498L10.9286 10.3933H10.2325L9.91132 9.67658L9.63745 10.3933H8.82088L9.44605 10.9498L9.20842 11.8279ZM-3.66346 5.51629L-4.36734 6.00976L-4.1297 5.13159L-4.75488 4.57507H-3.93831L-3.66444 3.8584L-3.34331 4.57507H-2.6472L-3.19415 5.13159L-2.9824 6.00976L-3.66346 5.51629ZM-0.488553 6.00976L0.21533 5.51629L0.896385 6.00976L0.684641 5.13159L1.23159 4.57507H0.535482L0.214346 3.8584L-0.0595245 4.57507H-0.876094L-0.250914 5.13159L-0.488553 6.00976ZM4.09412 5.51629L3.39023 6.00976L3.62787 5.13159L3.00269 4.57507H3.81926L4.09313 3.8584L4.41427 4.57507H5.11037L4.56343 5.13159L4.77517 6.00976L4.09412 5.51629ZM-4.36734 9.88855L-3.66346 9.39508L-2.9824 9.88855L-3.19415 9.01038L-2.6472 8.45386H-3.34331L-3.66444 7.73719L-3.93831 8.45386H-4.75488L-4.1297 9.01038L-4.36734 9.88855ZM0.21533 9.39508L-0.488553 9.88855L-0.250914 9.01038L-0.876094 8.45386H-0.0595245L0.214346 7.73719L0.535482 8.45386H1.23159L0.684641 9.01038L0.896385 9.88855L0.21533 9.39508ZM3.39023 9.88855L4.09412 9.39508L4.77517 9.88855L4.56343 9.01038L5.11037 8.45386H4.41427L4.09313 7.73719L3.81926 8.45386H3.00269L3.62787 9.01038L3.39023 9.88855ZM7.97291 5.51629L7.26902 6.00976L7.50666 5.13159L6.88148 4.57507H7.69805L7.97192 3.8584L8.29306 4.57507H8.98916L8.44222 5.13159L8.65396 6.00976L7.97291 5.51629ZM7.26902 9.88855L7.97291 9.39508L8.65396 9.88855L8.44222 9.01038L8.98916 8.45386H8.29306L7.97192 7.73719L7.69805 8.45386H6.88148L7.50666 9.01038L7.26902 9.88855Z" fill="#F7FCFF"/>
</g>
<circle cx="12" cy="12" r="11.5" stroke="white"/>
</g>
</g>
<defs>
<clipPath id="clip0_161_3849">
<rect width="24" height="24" fill="white"/>
</clipPath>
</defs>
</svg>
