<svg width="105" height="105" viewBox="0 0 105 105" fill="none" xmlns="http://www.w3.org/2000/svg">
<path d="M33.4552 69.6605C33.2436 69.0138 32.6347 68.5749 31.9469 68.5749H13.2234C12.5356 68.5749 11.9252 69.0138 11.7144 69.662L6.07643 86.9512C5.92089 87.4281 6.00566 87.9501 6.30421 88.3555C6.60203 88.7601 7.07899 89 7.58543 89H14.2296C15.1054 89 15.8145 88.2979 15.8145 87.4317C15.8145 86.5663 15.1054 85.8641 14.2296 85.8641H9.76228L14.3785 71.7108H30.7931L35.4093 85.8641H21.0219C20.1461 85.8641 19.4362 86.5663 19.4362 87.4317C19.4362 88.2979 20.1461 89 21.0219 89H97.4146C97.921 89 98.3979 88.7601 98.6958 88.3555C98.9943 87.9501 99.0791 87.428 98.9236 86.9512L93.2856 69.662C93.0748 69.0138 92.4644 68.5749 91.7766 68.5749H85.2246L79.9405 52.3735H79.9398C79.7289 51.726 79.1193 51.2871 78.4308 51.2871H70.2282L64.9441 35.0856V35.0864C64.7325 34.4389 64.1236 34 63.4358 34H44.7123C44.0238 33.9978 43.4126 34.4353 43.1996 35.0827L39.7423 45.6962C39.4732 46.5201 39.9303 47.4038 40.7633 47.6699C41.5963 47.936 42.4905 47.484 42.7595 46.6601L45.8668 37.1329H62.2814L66.8976 51.2854H54.0737C53.1979 51.2854 52.488 51.9868 52.488 52.853C52.488 53.7192 53.1979 54.4206 54.0737 54.4206H57.5348L54.0737 65.032L49.9447 52.3712C49.7332 51.7237 49.1235 51.2848 48.435 51.2855H29.713C29.0244 51.2848 28.4148 51.7244 28.204 52.3726L24.6295 63.3318C24.4924 63.7299 24.5226 64.1652 24.7135 64.5414C24.9037 64.9169 25.2391 65.2012 25.6438 65.3303C26.0485 65.4593 26.4886 65.4221 26.8646 65.2267C27.2413 65.0321 27.5229 64.6952 27.6467 64.2935L30.8666 54.4214L47.2812 54.4206L51.8982 68.574L37.5004 68.5747C36.6247 68.5747 35.9155 69.2768 35.9155 70.1423C35.9155 71.0084 36.6247 71.7106 37.5004 71.7106H40.9607L37.5417 82.1921L33.4552 69.6605ZM67.4582 82.1924L64.04 71.7109H70.8766L67.4582 82.1924ZM90.6232 71.7109L95.2394 85.8642H69.5928L74.209 71.7109H90.6232ZM60.8663 54.4209H77.2817L81.8979 68.5742L56.2494 68.575L60.8663 54.4209ZM44.2924 71.7109H60.7093L65.3255 85.8642H39.677L44.2924 71.7109Z" fill="#EEC9C2"/>
<path d="M54 24.3873V17.6127C54 16.7223 53.3283 16 52.5003 16C51.6717 16 51 16.7223 51 17.6127V24.3873C51 25.2784 51.6717 26 52.5003 26C53.3283 26 54 25.2784 54 24.3873Z" fill="#EEC9C2"/>
<path d="M33.3947 38C34.0437 38 34.6291 37.6087 34.8778 37.0083C35.1265 36.4079 34.9883 35.7171 34.5291 35.2586L29.7609 30.4907V30.4899C29.4615 30.18 29.0507 30.0038 28.6198 30.0001C28.1889 29.9963 27.7752 30.1658 27.4705 30.4705C27.1659 30.7752 26.9963 31.1889 27.0001 31.6198C27.0038 32.0506 27.18 32.4613 27.49 32.7608L32.2581 37.5303H32.2589C32.5598 37.8312 32.9683 38 33.3947 38V38Z" fill="#EEC9C2"/>
<path d="M72.7546 37.5278L77.5471 32.7348C78.1588 32.1015 78.1497 31.0951 77.5268 30.4731C76.9047 29.8503 75.8983 29.8413 75.265 30.4529L70.4732 35.2443V35.245C69.8428 35.8747 69.842 36.8968 70.4724 37.5271C71.1028 38.1575 72.1243 38.1575 72.7547 37.5279L72.7546 37.5278Z" fill="#EEC9C2"/>
</svg>
