<svg width="24" height="24" viewBox="0 0 24 24" fill="none" xmlns="http://www.w3.org/2000/svg">
<g clip-path="url(#clip0_748_4721)">
<path d="M23.7663 12.2763C23.7663 11.4605 23.7001 10.6404 23.559 9.83789H12.2402V14.4589H18.722C18.453 15.9492 17.5888 17.2676 16.3233 18.1054V21.1037H20.1903C22.4611 19.0137 23.7663 15.9272 23.7663 12.2763Z" fill="#4285F4"/>
<path d="M12.2401 24.0007C15.4766 24.0007 18.2059 22.938 20.1945 21.1037L16.3276 18.1054C15.2517 18.8373 13.8627 19.2518 12.2445 19.2518C9.11388 19.2518 6.45946 17.1398 5.50705 14.3001H1.5166V17.3911C3.55371 21.4433 7.7029 24.0007 12.2401 24.0007V24.0007Z" fill="#34A853"/>
<path d="M5.50277 14.3001C5.00011 12.8098 5.00011 11.196 5.50277 9.70563V6.61469H1.51674C-0.185266 10.0055 -0.185266 14.0003 1.51674 17.3911L5.50277 14.3001V14.3001Z" fill="#FBBC04"/>
<path d="M12.2401 4.74951C13.9509 4.72305 15.6044 5.36681 16.8434 6.54852L20.2695 3.12246C18.1001 1.08535 15.2208 -0.0346186 12.2401 0.000656078C7.7029 0.000656078 3.55371 2.55807 1.5166 6.61466L5.50264 9.7056C6.45065 6.86158 9.10947 4.74951 12.2401 4.74951V4.74951Z" fill="#EA4335"/>
</g>
<defs>
<clipPath id="clip0_748_4721">
<rect width="24" height="24" fill="white"/>
</clipPath>
</defs>
</svg>
