<svg width="24" height="24" viewBox="0 0 24 24" fill="none" xmlns="http://www.w3.org/2000/svg">
<g clip-path="url(#clip0_800_5830)">
<mask id="mask0_800_5830" style="mask-type:alpha" maskUnits="userSpaceOnUse" x="0" y="0" width="24" height="24">
<circle cx="12" cy="12" r="12" fill="#D9D9D9"/>
</mask>
<g mask="url(#mask0_800_5830)">
<mask id="mask1_800_5830" style="mask-type:alpha" maskUnits="userSpaceOnUse" x="-4" y="0" width="32" height="24">
<rect x="-4" width="32" height="24" fill="white"/>
</mask>
<g mask="url(#mask1_800_5830)">
<path fill-rule="evenodd" clip-rule="evenodd" d="M-4 0V24H28V0H-4Z" fill="#F7FCFF"/>
<mask id="mask2_800_5830" style="mask-type:alpha" maskUnits="userSpaceOnUse" x="-4" y="0" width="32" height="24">
<path fill-rule="evenodd" clip-rule="evenodd" d="M-4 0V24H28V0H-4Z" fill="white"/>
</mask>
<g mask="url(#mask2_800_5830)">
<path fill-rule="evenodd" clip-rule="evenodd" d="M-4 0V8H28V0H-4Z" fill="#FF8C1A"/>
<path fill-rule="evenodd" clip-rule="evenodd" d="M-4 16V24H28V16H-4Z" fill="#5EAA22"/>
<path fill-rule="evenodd" clip-rule="evenodd" d="M8 12C8 14.2091 9.79086 16 12 16C14.2091 16 16 14.2091 16 12C16 9.79086 14.2091 8 12 8C9.79086 8 8 9.79086 8 12ZM15 12C15 13.6569 13.6569 15 12 15C10.3431 15 9 13.6569 9 12C9 10.3431 10.3431 9 12 9C13.6569 9 15 10.3431 15 12Z" fill="#3D58DB"/>
<path fill-rule="evenodd" clip-rule="evenodd" d="M11.9945 12.8607L11.4237 15.9813L11.7551 12.8263L10.3283 15.6596L11.5351 12.7258L9.36783 15.0424L11.3524 12.5675L8.6202 14.1796L11.2216 12.364L8.14593 13.1411L11.1535 12.132L7.98346 12.011L11.1535 11.8901L8.14593 10.881L11.2216 11.6581L8.6202 9.84251L11.3524 11.4546L9.36783 8.9797L11.5351 11.2963L10.3283 8.36247L11.7551 11.1958L11.4237 8.04083L11.9945 11.1614L12.5653 8.04083L12.2339 11.1958L13.6608 8.36247L12.4539 11.2963L14.6212 8.9797L12.6366 11.4546L15.3688 9.84251L12.7674 11.6581L15.8431 10.881L12.8355 11.8901L16.0056 12.011L12.8355 12.132L15.8431 13.1411L12.7674 12.364L15.3688 14.1796L12.6366 12.5675L14.6212 15.0424L12.4539 12.7258L13.6608 15.6596L12.2339 12.8263L12.5653 15.9813L11.9945 12.8607Z" fill="#3D58DB"/>
</g>
</g>
</g>
</g>
<circle cx="12" cy="12" r="11.5" stroke="white"/>
<defs>
<clipPath id="clip0_800_5830">
<rect width="24" height="24" fill="white"/>
</clipPath>
</defs>
</svg>
