<svg width="31" height="31" viewBox="0 0 31 31" fill="none" xmlns="http://www.w3.org/2000/svg">
	<path d="M29.9454 18.0433C29.9526 18.0222 29.9586 18.0008 29.9634 17.9791C29.972 17.9613 29.9781 17.9422 29.9813 17.9227C29.9851 17.8808 29.9851 17.8387 29.9813 17.7969V10.8805C29.9851 10.8387 29.9851 10.7966 29.9813 10.7548C29.9781 10.7352 29.972 10.7162 29.9634 10.6983C29.9586 10.6775 29.9526 10.6569 29.9454 10.6367C29.9454 10.6136 29.9223 10.5931 29.912 10.57C29.9018 10.5469 29.8966 10.5392 29.8864 10.5264C29.8403 10.455 29.78 10.3939 29.7093 10.3467L29.6631 10.3236L29.5964 10.2877L29.5348 10.2697L29.4783 10.2518C29.4369 10.2437 29.3948 10.2394 29.3526 10.2389H26.2729L27.4868 9.02504C27.517 8.99503 27.5445 8.9624 27.5689 8.92753C27.5689 8.91213 27.5843 8.89672 27.5946 8.88132L27.628 8.81717C27.6351 8.79613 27.6411 8.77471 27.6459 8.75301C27.6546 8.73514 27.6606 8.71613 27.6639 8.69655C27.6677 8.65471 27.6677 8.61263 27.6639 8.5708V1.64159C27.6677 1.59976 27.6677 1.55768 27.6639 1.51584C27.6639 1.49788 27.6639 1.47991 27.6485 1.45938C27.6331 1.43885 27.6357 1.41832 27.628 1.39778C27.6203 1.37725 27.6049 1.35416 27.5946 1.33363C27.5843 1.31309 27.5792 1.30026 27.5689 1.28743C27.5221 1.21663 27.462 1.15562 27.3919 1.10779L27.3457 1.08469L27.2789 1.04876L27.2174 1.0308L27.1609 1.01283C27.1194 1.00476 27.0774 1.00047 27.0351 1H20.1059C20.0637 1.00047 20.0216 1.00476 19.9802 1.01283L19.9237 1.0308L19.8596 1.04876L19.7954 1.08469L19.7492 1.10779C19.7143 1.13222 19.6817 1.1597 19.6517 1.18991L8.10301 12.7386C8.07215 12.7689 8.04462 12.8025 8.02089 12.8387C8.02089 12.8515 8.00549 12.8669 7.99522 12.8823C7.98495 12.8977 7.97212 12.9259 7.96186 12.949C7.95159 12.9721 7.96186 12.9901 7.94133 13.0106C7.9208 13.0311 7.9285 13.0491 7.92593 13.0671C7.91786 13.1085 7.91357 13.1506 7.9131 13.1928V15.5565C7.83046 15.5863 7.75518 15.6336 7.69239 15.695L1.18151 21.9698C1.16133 21.9909 1.14247 22.0132 1.12505 22.0365L1.09938 22.0673C1.08504 22.0896 1.07218 22.1127 1.06089 22.1366C1.06089 22.1495 1.04549 22.1623 1.04036 22.1751C1.03407 22.191 1.02891 22.2073 1.02495 22.2239C1.01572 22.2473 1.00801 22.2713 1.00186 22.2958C1.00059 22.3086 1.00059 22.3214 1.00186 22.3342C0.999381 22.3633 0.999381 22.3925 1.00186 22.4215V29.3507C1.00186 29.5209 1.06946 29.6841 1.18978 29.8044C1.3101 29.9247 1.47329 29.9923 1.64345 29.9923H8.57265C8.61402 29.9918 8.65526 29.9875 8.69584 29.9795H8.7446C8.76819 29.9733 8.79133 29.9656 8.81389 29.9564L8.86779 29.9307C8.88714 29.9214 8.90598 29.9112 8.92425 29.8999L8.97558 29.8589L9.01664 29.8281L10.2408 28.6552V29.3584C10.2408 29.5286 10.3084 29.6918 10.4287 29.8121C10.549 29.9324 10.7122 30 10.8824 30H17.8116C17.8538 29.9995 17.8959 29.9952 17.9373 29.9872L17.9938 29.9718L18.058 29.9512L18.1221 29.9179L18.1683 29.8922C18.2026 29.8679 18.2351 29.8413 18.2658 29.8127L29.8145 18.264C29.8447 18.234 29.8722 18.2013 29.8966 18.1665C29.8966 18.1511 29.912 18.1357 29.9223 18.1203L29.9454 18.0433ZM18.4455 22.6858L28.711 12.4204V17.5351L18.4455 27.8006V22.6858ZM27.8025 11.5119L17.537 21.7773H12.4248L13.3872 20.8124C13.4065 20.7922 13.4245 20.7708 13.4411 20.7482H15.4942C15.5364 20.7478 15.5785 20.7435 15.6199 20.7354L15.6764 20.72L15.7405 20.6995L15.8047 20.6661L15.8509 20.6404C15.8851 20.6161 15.9177 20.5895 15.9484 20.5609L24.9974 11.5093L27.8025 11.5119ZM9.20655 19.4676V13.8216H14.8526V19.4676H9.20655ZM20.378 2.27292H25.4927L15.2273 12.5384H10.115L20.378 2.27292ZM26.4012 8.29619L24.2789 10.416L16.1358 18.5591V13.4469L26.4012 3.18142V8.29619ZM7.92336 17.2503V20.1195C7.92336 20.2896 7.99096 20.4528 8.11128 20.5731C8.2316 20.6935 8.39479 20.7611 8.56495 20.7611H9.3939L8.31089 21.7876H3.22691L7.92336 17.2503ZM7.92336 28.7066H2.27734V23.0605H7.92336V28.7066ZM10.1048 26.9871L9.20655 27.8468V22.6858L11.1493 20.8483C11.1834 20.8161 11.2136 20.7799 11.2391 20.7405H11.6369L10.4204 21.9544C10.3912 21.9855 10.3646 22.019 10.3409 22.0545C10.3409 22.0673 10.3255 22.0827 10.3152 22.0981C10.305 22.1135 10.2921 22.1418 10.2819 22.1649C10.2716 22.188 10.2819 22.2059 10.2613 22.2265C10.2408 22.247 10.2485 22.265 10.2459 22.2829C10.2379 22.3244 10.2336 22.3665 10.2331 22.4087V26.8844C10.1857 26.9114 10.1425 26.9451 10.1048 26.9845V26.9871ZM11.5163 23.0605H17.1623V28.7066H11.5163V23.0605Z" fill="#000" stroke="#000" stroke-width="0.3"/>
</svg>
