<svg width="134" height="134" viewBox="0 0 134 134" fill="none" xmlns="http://www.w3.org/2000/svg">
<path d="M71.537 96.941L68.4263 95.2832C67.8019 94.9568 67.0364 95.1901 66.7046 95.8074C66.3738 96.4266 66.6088 97.1983 67.2289 97.5291L69.6663 98.8277V101.757C69.6663 102.461 70.2349 103.029 70.9383 103.029C71.6417 103.029 72.2103 102.461 72.2103 101.757V98.0647C72.2111 97.5946 71.9513 97.1626 71.537 96.9409V96.941Z" fill="#602D23"/>
<path d="M117.859 21.2388C117.924 20.5399 117.41 19.9198 116.712 19.8542C116.027 19.7877 115.393 20.3021 115.328 21.0002C115.318 21.1022 114.28 31.3462 107.759 43.5801C101.797 54.7627 89.8846 69.9391 66.9988 78.9789C23.0438 61.6183 18.7112 21.4062 18.6704 20.9998C18.6038 20.3008 17.9776 19.7854 17.2857 19.8537C16.5868 19.9203 16.0741 20.5394 16.1388 21.2384C16.1796 21.6721 17.213 32.0049 23.94 44.6726C29.9627 56.0113 41.8878 71.2926 64.5297 80.7003L50.1894 89.5944C50.1806 89.6006 50.1726 89.6086 50.1637 89.6148C50.1433 89.6273 50.1265 89.645 50.1078 89.661C49.9996 89.7408 49.9083 89.8366 49.832 89.943C49.8205 89.9599 49.8027 89.967 49.793 89.9838C49.7868 89.9927 49.7868 90.0042 49.7814 90.0131C49.7051 90.1373 49.6519 90.2739 49.6227 90.4176C49.6164 90.4522 49.6138 90.4841 49.6102 90.5178C49.604 90.5701 49.5898 90.6207 49.5898 90.6739V110.295C49.5898 110.348 49.604 110.399 49.6102 110.451C49.6138 110.485 49.6164 110.517 49.6227 110.551C49.6528 110.696 49.7051 110.832 49.7814 110.955C49.7868 110.964 49.7868 110.976 49.793 110.985C49.8143 111.018 49.8435 111.043 49.8684 111.073C49.9012 111.117 49.9349 111.159 49.9739 111.198C50.0156 111.238 50.0617 111.273 50.1087 111.307C50.138 111.328 50.1611 111.355 50.1912 111.374L66.3295 121.383C66.3667 121.406 66.4067 121.415 66.4448 121.434C66.4838 121.453 66.5211 121.471 66.5628 121.486C66.7056 121.538 66.851 121.574 67.0001 121.574C67.1491 121.574 67.2954 121.538 67.4365 121.486C67.4782 121.471 67.5154 121.453 67.5545 121.434C67.5926 121.414 67.6334 121.405 67.6698 121.383L83.808 111.374C83.8382 111.355 83.8612 111.328 83.8905 111.307C83.9375 111.272 83.9836 111.238 84.0253 111.198C84.0644 111.159 84.0963 111.116 84.13 111.074C84.1539 111.044 84.1832 111.018 84.2054 110.986C84.2116 110.977 84.2116 110.965 84.2169 110.956C84.2932 110.832 84.3464 110.696 84.3757 110.552C84.3819 110.519 84.3846 110.485 84.3881 110.452C84.3943 110.399 84.4085 110.349 84.4085 110.295V90.6748C84.4085 90.6216 84.3943 90.5701 84.3881 90.5187C84.3846 90.4841 84.3819 90.4522 84.3757 90.4185C84.3455 90.2739 84.2932 90.1373 84.2169 90.014C84.2116 90.0051 84.2116 89.9936 84.2054 89.9847C84.1939 89.9679 84.1761 89.959 84.1646 89.9439C84.0883 89.8375 83.9978 89.7426 83.8914 89.6627C83.871 89.6477 83.8532 89.6281 83.832 89.6148C83.8231 89.6095 83.8169 89.6006 83.808 89.5953L69.4702 80.7039C113.468 62.4262 117.819 21.6507 117.858 21.2352L117.859 21.2388ZM81.8656 107.961L77.035 104.838V96.1365L81.8656 93.0133V107.961ZM52.1323 93.0133L56.9629 96.1365V104.838L52.1323 107.961V93.0133ZM66.9987 109.122L59.5052 104.797V96.1789L66.9987 91.8529L74.4922 96.1789V104.797L66.9987 109.122ZM65.7276 89.6496L58.2723 93.9543L53.2375 90.6989L65.7276 82.9527V89.6496ZM58.2714 107.02L65.7267 111.323V118.021L53.2366 110.274L58.2714 107.02ZM68.2706 111.325L75.726 107.022L80.7607 110.277L68.2706 118.023V111.325ZM75.726 93.9543L68.2706 89.6496V82.9536L80.7607 90.6998L75.726 93.9543Z" fill="#602D23"/>
</svg>
