<svg width="24" height="24" viewBox="0 0 24 24" fill="none" xmlns="http://www.w3.org/2000/svg">
<path d="M12 3L14.3394 5.5725L17.7851 5.1056L17.9236 8.58L20.8633 10.4372L18.7361 13.1878L19.7942 16.5L16.3967 17.2397L15.0782 20.4572L12 18.84L8.92182 20.4572L7.60333 17.2397L4.20577 16.5L5.26392 13.1878L3.13673 10.4372L6.07639 8.58L6.21491 5.1056L9.66058 5.5725L12 3Z" stroke="black" stroke-linecap="round"/>
<path d="M7.272 14V11.176H7.712L7.9 11.74V14H7.272ZM9.22 14L7.556 11.868L7.712 11.176L9.376 13.308L9.22 14ZM9.22 14L9.052 13.436V11.176H9.68V14H9.22ZM10.4251 14V11.176H11.0531V14H10.4251ZM10.9051 14V13.456H12.4531V14H10.9051ZM10.9051 12.82V12.296H12.3131V12.82H10.9051ZM10.9051 11.716V11.176H12.4331V11.716H10.9051ZM13.7901 14L12.8821 11.176H13.5061L14.1701 13.348H13.9261L14.5741 11.176H15.0661L15.7141 13.348H15.4741L16.1341 11.176H16.7541L15.8461 14H15.3541L14.7021 11.828H14.9341L14.2821 14H13.7901Z" fill="black"/>
</svg>
