<svg width="50" height="50" viewBox="0 0 50 50" fill="none" xmlns="http://www.w3.org/2000/svg">
<g opacity="0.4">
<path d="M36.2647 26.3129V12.183C36.2647 10.9422 35.7719 9.75245 34.8944 8.87495C34.0173 7.99778 32.8272 7.50473 31.5864 7.50473H12.8735C11.6328 7.50473 10.443 7.99781 9.56553 8.87495C8.68836 9.75245 8.19531 10.9422 8.19531 12.183V32.7672C8.19531 34.0079 8.68839 35.1977 9.56553 36.0752C10.443 36.9523 11.6328 37.4454 12.8735 37.4454H27.4245C28.0909 39.3436 29.4164 40.94 31.1603 41.9438C32.9039 42.9473 34.9499 43.2919 36.9265 42.9143C38.9027 42.5371 40.6779 41.4628 41.9291 39.8873C43.1802 38.3115 43.8244 36.3391 43.7441 34.3287C43.6642 32.3182 42.8651 30.4033 41.4922 28.9325C40.1196 27.4615 38.2647 26.5315 36.2647 26.3129ZM27.0034 35.5741H12.8735C12.1292 35.5741 11.4152 35.2784 10.8888 34.7521C10.3624 34.2257 10.0668 33.5117 10.0668 32.7673V12.1831C10.0668 11.4388 10.3624 10.7248 10.8888 10.1984C11.4152 9.67204 12.1292 9.37639 12.8735 9.37639H31.5864C32.3308 9.37639 33.0448 9.67204 33.5712 10.1984C34.0979 10.7248 34.3935 11.4388 34.3935 12.1831V26.313C32.3406 26.5382 30.443 27.5117 29.0624 29.0473C27.6817 30.583 26.9148 32.5733 26.9083 34.6383C26.922 34.9519 26.9535 35.2644 27.0034 35.5741ZM35.3287 41.1879C33.5916 41.1879 31.9258 40.498 30.6974 39.2697C29.469 38.0414 28.7793 36.3755 28.7793 34.6384C28.7793 32.9014 29.4691 31.2355 30.6974 30.0072C31.9257 28.7788 33.5916 28.089 35.3287 28.089C37.0657 28.089 38.7316 28.7789 39.96 30.0072C41.1883 31.2355 41.8781 32.9014 41.8781 34.6384C41.8781 36.3755 41.1883 38.0413 39.96 39.2697C38.7317 40.4981 37.0657 41.1879 35.3287 41.1879ZM36.2642 30.8958V34.6384C36.2642 34.8864 36.1657 35.1247 35.9901 35.2999C35.8149 35.4755 35.5767 35.574 35.3287 35.574H32.6172C32.1003 35.574 31.6817 35.1553 31.6817 34.6385C31.6817 34.1216 32.1003 33.7029 32.6172 33.7029H34.3931V30.8958C34.3931 30.3792 34.8118 29.9602 35.3287 29.9602C35.8456 29.9602 36.2642 30.3792 36.2642 30.8958ZM13.8088 14.0542C13.8088 13.5373 14.2278 13.1183 14.7447 13.1183H29.715C30.2316 13.1183 30.6505 13.5373 30.6505 14.0542C30.6505 14.5707 30.2315 14.9897 29.715 14.9897H14.7447C14.2278 14.9897 13.8088 14.5707 13.8088 14.0542ZM13.8088 19.6679C13.8088 19.151 14.2278 18.7324 14.7447 18.7324H29.715C30.2316 18.7324 30.6505 19.1511 30.6505 19.6679C30.6505 20.1845 30.2315 20.6035 29.715 20.6035H14.7447C14.2278 20.6035 13.8088 20.1845 13.8088 19.6679ZM29.135 26.2173H14.7452C14.2283 26.2173 13.8093 25.7986 13.8093 25.2817C13.8093 24.7649 14.2284 24.3462 14.7452 24.3462H29.1358C29.6527 24.3462 30.071 24.7649 30.071 25.2817C30.071 25.7986 29.6518 26.2173 29.135 26.2173ZM25.6919 30.8955C25.6919 31.1439 25.5933 31.3817 25.4178 31.5573C25.2422 31.7326 25.0043 31.8311 24.7563 31.8311H14.7449C14.228 31.8311 13.809 31.4124 13.809 30.8955C13.809 30.379 14.228 29.96 14.7449 29.96H24.7563C25.0043 29.96 25.2422 30.0585 25.4178 30.2341C25.5933 30.4093 25.6919 30.6475 25.6919 30.8955Z" fill="black"/>
</g>
</svg>
