<svg width="51" height="50" viewBox="0 0 51 50" fill="none" xmlns="http://www.w3.org/2000/svg">
<path fill-rule="evenodd" clip-rule="evenodd" d="M31.0179 5C37.2875 5 41.5 9.3993 41.5 15.9446V31.0554C41.5 37.6007 37.2876 42 31.0161 42H14.9803C8.7106 42 4.5 37.6007 4.5 31.0554V15.9446C4.5 9.3993 8.7106 5 14.9803 5H31.0179ZM31.0179 7.775H14.9803C10.2997 7.775 7.275 10.981 7.275 15.9446V31.0554C7.275 36.0189 10.2997 39.225 14.9803 39.225H31.0161C35.6984 39.225 38.725 36.0189 38.725 31.0554V15.9446C38.725 10.981 35.6984 7.775 31.0179 7.775ZM30.3042 21.6753C31.3272 21.6753 32.1542 22.5023 32.1542 23.5253C32.1542 24.5484 31.3272 25.3753 30.3042 25.3753C29.2811 25.3753 28.4449 24.5484 28.4449 23.5253C28.4449 22.5023 29.2645 21.6753 30.2857 21.6753H30.3042ZM22.8862 21.6753C23.9093 21.6753 24.7362 22.5023 24.7362 23.5253C24.7362 24.5484 23.9093 25.3753 22.8862 25.3753C21.8632 25.3753 21.0288 24.5484 21.0288 23.5253C21.0288 22.5023 21.8465 21.6753 22.8696 21.6753H22.8862ZM15.4699 21.6753C16.493 21.6753 17.3199 22.5023 17.3199 23.5253C17.3199 24.5484 16.493 25.3753 15.4699 25.3753C14.4469 25.3753 13.6107 24.5484 13.6107 23.5253C13.6107 22.5023 14.4302 21.6753 15.4533 21.6753H15.4699Z" fill="black"/>
</svg>
