<svg width="120" height="120" viewBox="0 0 120 120" fill="none" xmlns="http://www.w3.org/2000/svg">
<path fill-rule="evenodd" clip-rule="evenodd" d="M94.9879 19.4887L107.261 39.567L107.26 39.5662C107.792 40.4458 108.047 41.4655 107.993 42.492C107.938 43.5193 107.577 44.5055 106.955 45.3236L96.1433 59.4864L92.8663 58.1838L103.586 44.1438H84.356L79.0923 57.4748L74.7568 59.1981L80.7012 44.1458H41.6247L60.5071 95.2807L65.808 81.858C66.4273 83.2987 67.1046 84.6863 67.8225 86.0172L63.7621 96.3007L69.4555 88.8442C70.0994 89.889 70.763 90.8923 71.4361 91.8521L64.4916 100.949C63.5346 102.211 62.0424 102.95 60.4614 102.945C58.8795 102.951 57.3873 102.212 56.4303 100.949L14.0506 45.4482C13.3916 44.5896 13.0246 43.5426 13.0011 42.4599C12.9784 41.3765 13.3014 40.315 13.9232 39.4292L28.0346 19.2263C28.9848 17.8661 30.5377 17.0555 32.1937 17.0547H90.6581C92.415 17.0943 94.0377 18.006 94.9879 19.4887ZM85.7007 40.7387H103.993L92.8799 22.5539L85.7007 40.7387ZM90.0633 20.4599H64.5426L82.6967 39.0962L90.0633 20.4599ZM42.7007 40.7387H79.5443L60.5467 21.2346L42.7007 40.7387ZM32.877 20.4608L39.7113 38.9663L56.6448 20.4608H32.877ZM36.746 40.739L29.9686 22.3954L17.1595 40.7382L36.746 40.739ZM38.0027 44.1438H17.335L57.3743 96.5829L38.0027 44.1438Z" fill="black"/>
<path d="M85.0881 100.315C85.0032 100.247 84.9083 100.17 84.8038 100.085C84.3021 99.6731 83.5809 99.0592 82.7135 98.2577C80.9769 96.6529 78.6643 94.3052 76.3555 91.3323C71.8085 85.4773 67.3755 77.3281 67.2106 67.7269L85.0878 60.6211L102.966 67.7277C102.802 77.2178 98.4693 85.2888 93.9776 91.1288C90.2132 96.0232 86.4105 99.2539 85.0881 100.315ZM85.5815 100.701C85.5796 100.699 85.5773 100.698 85.5746 100.696C85.5769 100.697 85.5792 100.699 85.5815 100.701L85.5815 100.701Z" stroke="black" stroke-width="3.35294"/>
<path fill-rule="evenodd" clip-rule="evenodd" d="M94.4198 71.3799C95.0745 72.0346 95.0745 73.0961 94.4198 73.7508L83.7508 84.4198C83.0961 85.0745 82.0346 85.0745 81.3799 84.4198L76.6381 79.678C75.9834 79.0233 75.9834 77.9618 76.6381 77.3071C77.2928 76.6524 78.3543 76.6524 79.009 77.3071L82.5653 80.8634L92.0489 71.3799C92.7036 70.7252 93.7651 70.7252 94.4198 71.3799Z" fill="black"/>
</svg>
