<svg width="51" height="50" viewBox="0 0 51 50" fill="none" xmlns="http://www.w3.org/2000/svg">
<path fill-rule="evenodd" clip-rule="evenodd" d="M22.7624 3C32.8322 3 41.023 11.2209 41.023 21.3277C41.023 26.0961 39.1998 30.4451 36.2162 33.709L42.087 39.589C42.6364 40.1405 42.6383 41.0326 42.0889 41.5841C41.8151 41.8626 41.4532 42 41.0931 42C40.735 42 40.3749 41.8626 40.0993 41.5878L34.1577 35.641C31.0321 38.1533 27.0691 39.6574 22.7624 39.6574C12.6927 39.6574 4.5 31.4345 4.5 21.3277C4.5 11.2209 12.6927 3 22.7624 3ZM22.7624 5.82313C14.2435 5.82313 7.31278 12.7774 7.31278 21.3277C7.31278 29.8781 14.2435 36.8342 22.7624 36.8342C31.2795 36.8342 38.2102 29.8781 38.2102 21.3277C38.2102 12.7774 31.2795 5.82313 22.7624 5.82313Z" fill="white"/>
</svg>
