<svg width="51" height="50" viewBox="0 0 51 50" fill="none" xmlns="http://www.w3.org/2000/svg">
<g clip-path="url(#clip0_1444_10509)">
<path fill-rule="evenodd" clip-rule="evenodd" d="M32.7346 6C39.1737 6 43.5 10.5182 43.5 17.2404V32.7596C43.5 39.4818 39.1737 44 32.7327 44H16.2635C9.8244 44 5.5 39.4818 5.5 32.7596V17.2404C5.5 10.5182 9.8244 6 16.2635 6H32.7346ZM32.7346 8.85H16.2635C11.4565 8.85 8.35 12.1427 8.35 17.2404V32.7596C8.35 37.8573 11.4565 41.15 16.2635 41.15H32.7327C37.5416 41.15 40.65 37.8573 40.65 32.7596V17.2404C40.65 12.1427 37.5416 8.85 32.7346 8.85ZM32.2701 19.4843C32.8267 20.041 32.8267 20.9416 32.2701 21.4983L23.2526 30.5157C22.9753 30.795 22.6105 30.9337 22.2457 30.9337C21.8828 30.9337 21.516 30.795 21.2386 30.5157L16.7281 26.007C16.1714 25.4503 16.1714 24.5497 16.7281 23.993C17.2847 23.4363 18.1853 23.4363 18.7421 23.993L22.2457 27.4928L30.2561 19.4843C30.8127 18.9276 31.7134 18.9276 32.2701 19.4843Z" fill="black"/>
</g>
<defs>
<clipPath id="clip0_1444_10509">
<rect width="50" height="50" fill="white" transform="translate(0.5)"/>
</clipPath>
</defs>
</svg>
