<svg width="24" height="24" viewBox="0 0 24 24" fill="none" xmlns="http://www.w3.org/2000/svg">
<mask id="mask0_2111_14450" style="mask-type:alpha" maskUnits="userSpaceOnUse" x="0" y="0" width="24" height="24">
<circle cx="12" cy="12" r="12" fill="#D9D9D9"/>
</mask>
<g mask="url(#mask0_2111_14450)">
<mask id="mask1_2111_14450" style="mask-type:alpha" maskUnits="userSpaceOnUse" x="-4" y="0" width="32" height="24">
<rect x="-4" width="32" height="24" fill="white"/>
</mask>
<g mask="url(#mask1_2111_14450)">
<path fill-rule="evenodd" clip-rule="evenodd" d="M-4 0H28V24H-4V0Z" fill="#F5FBFF"/>
<path fill-rule="evenodd" clip-rule="evenodd" d="M-4 0V8H28V0H-4Z" fill="#E31C1C"/>
<path fill-rule="evenodd" clip-rule="evenodd" d="M-4 16V24H28V16H-4Z" fill="#3D57DB"/>
<mask id="path-6-outside-1_2111_14450" maskUnits="userSpaceOnUse" x="-6" y="-7" width="36" height="38" fill="black">
<rect fill="white" x="-6" y="-7" width="36" height="38"/>
<path fill-rule="evenodd" clip-rule="evenodd" d="M11.4286 10L-4 -2V26L11.4286 14H28V10H11.4286Z"/>
</mask>
<path fill-rule="evenodd" clip-rule="evenodd" d="M11.4286 10L-4 -2V26L11.4286 14H28V10H11.4286Z" fill="#5DA923"/>
<path d="M-4 -2L-2.77212 -3.5787L-6 -6.08928V-2H-4ZM11.4286 10L10.2007 11.5787L10.7424 12H11.4286V10ZM-4 26H-6V30.0893L-2.77212 27.5787L-4 26ZM11.4286 14V12H10.7424L10.2007 12.4213L11.4286 14ZM28 14V16H30V14H28ZM28 10H30V8H28V10ZM-5.22788 -0.421296L10.2007 11.5787L12.6565 8.4213L-2.77212 -3.5787L-5.22788 -0.421296ZM-2 26V-2H-6V26H-2ZM10.2007 12.4213L-5.22788 24.4213L-2.77212 27.5787L12.6565 15.5787L10.2007 12.4213ZM28 12H11.4286V16H28V12ZM26 10V14H30V10H26ZM11.4286 12H28V8H11.4286V12Z" fill="#FAFDFF" mask="url(#path-6-outside-1_2111_14450)"/>
<path d="M-3.4 5.2L-5 4V6V18V20L-3.4 18.8L4.6 12.8L5.66667 12L4.6 11.2L-3.4 5.2Z" fill="#262626" stroke="#FFCC00" stroke-width="2"/>
</g>
<circle cx="12" cy="12" r="11.5" stroke="white"/>
</g>
</svg>
