<svg width="50" height="50" viewBox="0 0 50 50" fill="none" xmlns="http://www.w3.org/2000/svg">
<g clip-path="url(#clip0_1373_8948)">
<path fill-rule="evenodd" clip-rule="evenodd" d="M41.8376 14.4716L41.898 14.7132C42.0188 14.9548 42.0792 15.1361 42.0188 15.3777C42.1396 15.861 42.2 16.3443 42.2 16.7672C42.2 19.244 40.7502 21.3584 38.6962 22.3854V25H35.7361V22.9895H35.4945C35.3736 22.929 35.2528 22.9291 35.132 22.9291C35.1018 22.9291 35.0565 22.9139 35.0112 22.8988C34.9659 22.8837 34.9206 22.8686 34.8904 22.8686C34.7695 22.8686 34.5883 22.8686 34.4675 22.8082H34.4071C33.1384 22.4458 32.0511 21.7208 31.2053 20.7543C30.0575 22.1437 28.366 22.9895 26.4329 22.9895C24.4997 22.9895 22.8082 22.1437 21.6604 20.7543C20.5126 22.1437 18.8211 22.9895 16.888 22.9895C14.9548 22.9895 13.2634 22.1437 12.1156 20.7543C11.149 21.9021 9.81995 22.6874 8.30968 22.9291C8.27948 22.9291 8.23417 22.9442 8.18886 22.9593C8.14355 22.9744 8.09825 22.9895 8.06804 22.9895V39.3003H26V42.2H6.55778C5.77244 42.2 5.10792 41.5355 5.10792 40.7502V22.627C2.6915 21.7208 1 19.4252 1 16.7672C1 16.3443 1.06041 15.861 1.18123 15.3173C1.18123 15.1965 1.18123 15.0757 1.24164 14.9548L1.42287 14.532C1.42287 14.4612 1.4436 14.4112 1.46078 14.3697C1.47292 14.3404 1.48329 14.3154 1.48329 14.2903L5.95367 1.96657C6.19531 1.36246 6.73901 1 7.34311 1H35.9777C36.6423 1 37.186 1.36246 37.3672 1.96657L41.7772 14.3507C41.7772 14.4112 41.8376 14.4716 41.8376 14.4716ZM36.7357 20.0237C36.797 20.0103 36.8648 19.9954 36.9443 19.9689C38.3338 19.5461 39.3607 18.2774 39.4816 16.8276C39.4816 16.5859 39.4211 16.2839 39.3003 15.9214C39.2399 15.9214 39.2399 15.861 39.2399 15.8006L39.1795 15.559C39.1191 15.4985 39.1191 15.4381 39.1191 15.4381L35.0112 3.96012H8.4305L4.20176 15.7402C4.14135 15.7402 4.14135 15.8006 4.14135 15.861C4.02053 16.2235 3.96012 16.5255 3.96012 16.7672C3.96012 18.3983 5.16833 19.7273 6.73901 20.0293H6.92024C7.04106 20.0898 7.16188 20.0898 7.2827 20.0898H8.06804C8.18885 20.0293 8.37006 19.9689 8.55128 19.9085L8.55133 19.9085H8.61174C9.69913 19.4252 10.5449 18.3378 10.6657 17.0692V16.7672C10.6657 15.9818 11.3302 15.3173 12.1156 15.3173C12.9009 15.3173 13.5654 15.9818 13.5654 16.7672V17.0088C13.6258 18.2774 14.4716 19.3648 15.6194 19.8481H15.6798C15.8006 19.9287 15.9214 19.9555 16.0422 19.9824C16.1027 19.9958 16.1631 20.0092 16.2235 20.0293C16.4651 20.0898 16.7067 20.0898 16.888 20.0898H16.888H17.6129L18.1566 19.9085H18.217C19.3044 19.4252 20.1502 18.3378 20.271 17.0692V16.7672C20.271 15.9818 20.9355 15.3173 21.7208 15.3173C22.5062 15.3173 23.1707 15.9818 23.1707 16.7672V17.0088C23.2311 18.2774 24.0769 19.3648 25.2247 19.8481H25.2851C25.3685 19.9315 25.4807 19.9573 25.6018 19.9852C25.6561 19.9977 25.7122 20.0106 25.7683 20.0293C26.01 20.0898 26.1912 20.0898 26.4328 20.0898H26.4329H27.1578L27.7015 19.9085H27.7619C28.8493 19.4252 29.695 18.3378 29.8159 17.0692V16.7672C29.8159 15.9818 30.5408 15.3777 31.3261 15.3777C32.1115 15.3777 32.776 16.0422 32.776 16.8276V17.0692C32.8364 18.3378 33.6821 19.4252 34.8299 19.9085H34.8904C34.9738 19.9919 35.086 20.0178 35.2071 20.0456C35.2614 20.0581 35.3175 20.071 35.3736 20.0898C35.6153 20.1502 35.7965 20.1502 36.0382 20.1502C36.1288 20.1502 36.2043 20.1351 36.2798 20.12C36.3553 20.1049 36.4308 20.0898 36.5214 20.0898C36.5893 20.0558 36.6571 20.041 36.7357 20.0237Z" fill="black"/>
<path d="M36.5 49L35.5246 49.7817L36.5 50.9987L37.4754 49.7817L36.5 49ZM42.75 35.5C42.75 36.2349 42.3934 37.3788 41.702 38.8144C41.0323 40.2048 40.1274 41.7117 39.2049 43.1175C38.2853 44.5189 37.3634 45.7967 36.6701 46.7254C36.324 47.1892 36.036 47.5645 35.8352 47.8229C35.7348 47.9521 35.6563 48.052 35.6033 48.1191C35.5768 48.1527 35.5567 48.178 35.5434 48.1947C35.5368 48.203 35.5319 48.2092 35.5287 48.2131C35.5271 48.2151 35.526 48.2165 35.5253 48.2174C35.525 48.2178 35.5247 48.2181 35.5246 48.2182C35.5246 48.2183 35.5246 48.2183 35.5245 48.2184C35.5246 48.2183 35.5246 48.2183 36.5 49C37.4754 49.7817 37.4755 49.7816 37.4756 49.7814C37.4757 49.7813 37.4759 49.7811 37.4761 49.7809C37.4764 49.7805 37.4769 49.7799 37.4774 49.7792C37.4785 49.7778 37.4801 49.7758 37.4822 49.7733C37.4862 49.7682 37.4921 49.7609 37.4996 49.7514C37.5147 49.7324 37.5367 49.7047 37.5652 49.6687C37.622 49.5966 37.7047 49.4915 37.8094 49.3567C38.0187 49.0872 38.3166 48.6991 38.6736 48.2208C39.3866 47.2655 40.3397 45.9449 41.2951 44.4891C42.2476 43.0377 43.2177 41.4285 43.9543 39.8993C44.6691 38.4153 45.25 36.8362 45.25 35.5H42.75ZM36.5 29.25C39.9518 29.25 42.75 32.0482 42.75 35.5H45.25C45.25 30.6675 41.3325 26.75 36.5 26.75V29.25ZM30.25 35.5C30.25 32.0482 33.0482 29.25 36.5 29.25V26.75C31.6675 26.75 27.75 30.6675 27.75 35.5H30.25ZM36.5 49C37.4754 48.2183 37.4754 48.2183 37.4755 48.2184C37.4754 48.2183 37.4754 48.2183 37.4754 48.2182C37.4753 48.2181 37.475 48.2178 37.4747 48.2174C37.474 48.2165 37.4729 48.2151 37.4713 48.2131C37.4681 48.2092 37.4632 48.203 37.4566 48.1947C37.4433 48.178 37.4232 48.1527 37.3967 48.1191C37.3437 48.052 37.2652 47.9521 37.1648 47.8229C36.964 47.5645 36.676 47.1892 36.3299 46.7254C35.6366 45.7967 34.7147 44.5189 33.7951 43.1175C32.8726 41.7117 31.9677 40.2048 31.298 38.8144C30.6066 37.3788 30.25 36.2349 30.25 35.5H27.75C27.75 36.8362 28.3309 38.4153 29.0457 39.8993C29.7823 41.4285 30.7524 43.0377 31.7049 44.4891C32.6603 45.9449 33.6134 47.2655 34.3264 48.2208C34.6834 48.6991 34.9813 49.0872 35.1906 49.3567C35.2953 49.4915 35.378 49.5966 35.4348 49.6687C35.4633 49.7047 35.4853 49.7324 35.5004 49.7514C35.5079 49.7609 35.5138 49.7682 35.5178 49.7733C35.5199 49.7758 35.5215 49.7778 35.5226 49.7792C35.5231 49.7799 35.5236 49.7805 35.5239 49.7809C35.5241 49.7811 35.5243 49.7813 35.5244 49.7814C35.5245 49.7816 35.5246 49.7817 36.5 49ZM38.4167 35.5C38.4167 36.5585 37.5586 37.4167 36.5 37.4167V39.9167C38.9393 39.9167 40.9167 37.9393 40.9167 35.5H38.4167ZM36.5 33.5833C37.5586 33.5833 38.4167 34.4415 38.4167 35.5H40.9167C40.9167 33.0607 38.9393 31.0833 36.5 31.0833V33.5833ZM34.5833 35.5C34.5833 34.4415 35.4415 33.5833 36.5 33.5833V31.0833C34.0608 31.0833 32.0833 33.0607 32.0833 35.5H34.5833ZM36.5 37.4167C35.4415 37.4167 34.5833 36.5585 34.5833 35.5H32.0833C32.0833 37.9393 34.0608 39.9167 36.5 39.9167V37.4167Z" fill="black"/>
</g>
<defs>
<clipPath id="clip0_1373_8948">
<rect width="50" height="50" fill="white"/>
</clipPath>
</defs>
</svg>
