<svg width="50" height="50" viewBox="0 0 50 50" fill="none" xmlns="http://www.w3.org/2000/svg">
<path fill-rule="evenodd" clip-rule="evenodd" d="M24.5 5.14252C13.2575 5.14252 4.14274 14.2569 4.14274 25.4998C4.14274 34.6134 10.1326 42.3306 18.392 44.925L17.7499 46.9694C8.62257 44.1028 2 35.5762 2 25.5C2 13.0737 12.0735 3.00017 24.4998 3.00017C36.9262 3.00017 46.9996 13.0737 46.9996 25.5H44.8569C44.8569 14.2574 35.7426 5.1427 24.4996 5.1427L24.5 5.14252Z" fill="black" stroke="black" stroke-width="0.608105"/>
<path fill-rule="evenodd" clip-rule="evenodd" d="M23.4274 24.4279V16.9282H25.5705V25.4995C25.5705 26.091 25.0905 26.571 24.499 26.571H15.9277V24.4279H23.4274Z" fill="black" stroke="black" stroke-width="0.608105"/>
<path fill-rule="evenodd" clip-rule="evenodd" d="M25.5723 34.0707C25.5723 33.4791 26.0519 32.9995 26.6434 32.9995H45.929C46.5209 32.9995 47.0005 33.4791 47.0005 34.0707V46.9277C47.0005 47.5196 46.5209 47.9993 45.929 47.9993H26.6434C26.0519 47.9993 25.5723 47.5196 25.5723 46.9277V34.0707ZM27.715 35.1422V45.8567H44.858V35.1422H27.715Z" fill="black" stroke="black" stroke-width="0.608105"/>
<path fill-rule="evenodd" clip-rule="evenodd" d="M25.5723 34.0707C25.5723 33.4791 26.0519 32.9995 26.6434 32.9995H45.929C46.5209 32.9995 47.0005 33.4791 47.0005 34.0707V38.3565C47.0005 38.8587 46.6519 39.2935 46.1615 39.4026L36.5187 41.5453C36.3655 41.5794 36.2069 41.5794 36.0538 41.5453L26.411 39.4026C25.921 39.2935 25.5723 38.8587 25.5723 38.3565V34.0707ZM27.715 35.1422V37.497L36.2862 39.4019L44.8578 37.497V35.1422H27.715Z" fill="black" stroke="black" stroke-width="0.608105"/>
<path fill-rule="evenodd" clip-rule="evenodd" d="M35.215 28.7139C33.4396 28.7139 32.0007 30.1532 32.0007 31.9282V32.9997H40.5719V31.9282C40.5719 30.1532 39.1327 28.7139 37.3577 28.7139H35.215ZM29.8576 31.9282C29.8576 28.9697 32.2561 26.5712 35.215 26.5712H37.3577C40.3162 26.5712 42.7146 28.9697 42.7146 31.9282V34.0709C42.7146 34.6628 42.235 35.1424 41.6435 35.1424H30.929C30.3374 35.1424 29.8574 34.6628 29.8574 34.0709L29.8576 31.9282Z" fill="black" stroke="black" stroke-width="0.608105"/>
</svg>
