<svg width="100" height="100" viewBox="0 0 100 100" fill="none" xmlns="http://www.w3.org/2000/svg">
<rect width="100" height="100" fill="white"/>
<path d="M42.2 38H58.9143L67.8286 53.6H33.2857L42.2 38Z" stroke="black" stroke-width="2"/>
<rect x="43.3143" y="42.457" width="6.68571" height="4.45714" rx="2.22857" fill="black"/>
<path d="M19.9143 61.3999H36.6286L45.5429 76.9999H11L19.9143 61.3999Z" stroke="black" stroke-width="2"/>
<rect x="21.0286" y="65.8569" width="6.68571" height="4.45714" rx="2.22857" fill="black"/>
<path d="M63.3714 61.3999H80.0857L89 76.9999H54.4571L63.3714 61.3999Z" stroke="black" stroke-width="2"/>
<rect x="64.4857" y="65.8569" width="6.68571" height="4.45714" rx="2.22857" fill="black"/>
<path d="M23.7886 26.5962L20.5899 31.1924L23.7886 35.7886L19.1924 32.5899L14.5962 35.7886L17.7949 31.1924L14.5962 26.5962L19.1924 29.7949L23.7886 26.5962Z" fill="black"/>
<path d="M32.7886 10.5962L29.5899 15.1924L32.7886 19.7886L28.1924 16.5899L23.5962 19.7886L26.7949 15.1924L23.5962 10.5962L28.1924 13.7949L32.7886 10.5962Z" fill="black"/>
<path d="M46.7886 15.5962L43.5899 20.1924L46.7886 24.7886L42.1924 21.5899L37.5962 24.7886L40.7949 20.1924L37.5962 15.5962L42.1924 18.7949L46.7886 15.5962Z" fill="black"/>
</svg>
