<svg width="51" height="50" viewBox="0 0 51 50" fill="none" xmlns="http://www.w3.org/2000/svg">
<path fill-rule="evenodd" clip-rule="evenodd" d="M22.9995 4C25.0697 4 35.9321 7.70982 37.37 9.1403C38.5687 10.3327 38.5504 11.296 38.4663 15.9129C38.4334 17.7632 38.3878 20.2843 38.3878 23.7742C38.3878 36.2832 24.0081 40.7583 23.396 40.9418C23.2663 40.9818 23.1329 41 22.9995 41C22.8661 41 22.7327 40.9818 22.603 40.9418C21.9909 40.7583 7.61126 36.2832 7.61126 23.7742C7.61126 20.2897 7.56558 17.7687 7.53269 15.9183C7.51768 15.0929 7.50477 14.3842 7.50052 13.77L7.5 13.0769C7.51567 10.8 7.73048 10.0346 8.63081 9.1403C10.0651 7.70982 20.9275 4 22.9995 4ZM22.9995 6.72647C21.4501 6.72647 11.6748 10.1509 10.5475 11.087C10.2149 11.4196 10.2022 11.9976 10.2734 15.8674C10.3063 17.7323 10.352 20.2661 10.352 23.7742C10.352 33.2277 20.8069 37.4247 22.9977 38.1972C25.1866 37.4211 35.647 33.2005 35.647 23.7742C35.647 20.2625 35.6927 17.7269 35.7274 15.862C35.7969 11.9958 35.7841 11.4178 35.4314 11.0688C34.326 10.1509 24.5489 6.72647 22.9995 6.72647ZM29.7992 17.3406C30.3346 17.8732 30.3346 18.7366 29.7992 19.2691L22.677 26.3561C22.4724 26.5612 22.2081 26.6941 21.9244 26.739L21.7086 26.756C21.345 26.756 20.996 26.6124 20.7384 26.3561L17.2814 22.9135C16.7479 22.3809 16.7479 21.5157 17.2833 20.985C17.8168 20.4524 18.6865 20.4524 19.2219 20.985L21.7086 23.4624L27.8625 17.3406C28.3978 16.808 29.2639 16.808 29.7992 17.3406Z" fill="black"/>
</svg>
