<svg width="50" height="50" viewBox="0 0 50 50" fill="none" xmlns="http://www.w3.org/2000/svg">
<mask id="path-1-inside-1_748_5251" fill="white">
<path d="M34.5846 29.1673C34.168 28.959 31.4596 27.709 31.043 27.5006C30.6263 27.2923 30.2096 27.2923 29.793 27.709C29.3763 28.1256 28.543 29.3756 28.1263 29.7923C27.918 30.209 27.5013 30.209 27.0846 30.0006C25.6263 29.3756 24.168 28.5423 22.918 27.5006C21.8763 26.459 20.8346 25.209 20.0013 23.959C19.793 23.5423 20.0013 23.1256 20.2096 22.9173C20.418 22.709 20.6263 22.2923 21.043 22.084C21.2513 21.8757 21.4596 21.459 21.4596 21.2506C21.668 21.0423 21.668 20.6257 21.4596 20.4173C21.2513 20.209 20.2096 17.709 19.793 16.6673C19.5846 15.209 19.168 15.209 18.7513 15.209H17.7096C17.293 15.209 16.668 15.6257 16.4596 15.834C15.2096 17.084 14.5846 18.5423 14.5846 20.209C14.793 22.084 15.418 23.959 16.668 25.6256C18.9596 28.959 21.8763 31.6673 25.418 33.334C26.4596 33.7506 27.293 34.1673 28.3346 34.3756C29.3763 34.7923 30.418 34.7923 31.668 34.584C33.1263 34.3756 34.3763 33.334 35.2096 32.084C35.6263 31.2506 35.6263 30.4173 35.418 29.584L34.5846 29.1673V29.1673ZM39.793 10.209C31.668 2.08398 18.543 2.08398 10.418 10.209C3.7513 16.8757 2.5013 27.084 7.08464 35.209L4.16797 45.834L15.2096 42.9173C18.3346 44.584 21.668 45.4173 25.0013 45.4173C36.4596 45.4173 45.6263 36.2506 45.6263 24.7923C45.8346 19.3756 43.543 14.1673 39.793 10.209V10.209ZM34.168 39.3756C31.4596 41.0423 28.3346 42.084 25.0013 42.084C21.8763 42.084 18.9596 41.2506 16.2513 39.7923L15.6263 39.3756L9.16797 41.0423L10.8346 34.7923L10.418 34.1673C5.41797 25.834 7.91797 15.4173 16.043 10.209C24.168 5.00065 34.5846 7.70898 39.5846 15.6257C44.5846 23.7507 42.293 34.3756 34.168 39.3756Z"/>
</mask>
<path d="M34.5846 29.1673C34.168 28.959 31.4596 27.709 31.043 27.5006C30.6263 27.2923 30.2096 27.2923 29.793 27.709C29.3763 28.1256 28.543 29.3756 28.1263 29.7923C27.918 30.209 27.5013 30.209 27.0846 30.0006C25.6263 29.3756 24.168 28.5423 22.918 27.5006C21.8763 26.459 20.8346 25.209 20.0013 23.959C19.793 23.5423 20.0013 23.1256 20.2096 22.9173C20.418 22.709 20.6263 22.2923 21.043 22.084C21.2513 21.8757 21.4596 21.459 21.4596 21.2506C21.668 21.0423 21.668 20.6257 21.4596 20.4173C21.2513 20.209 20.2096 17.709 19.793 16.6673C19.5846 15.209 19.168 15.209 18.7513 15.209H17.7096C17.293 15.209 16.668 15.6257 16.4596 15.834C15.2096 17.084 14.5846 18.5423 14.5846 20.209C14.793 22.084 15.418 23.959 16.668 25.6256C18.9596 28.959 21.8763 31.6673 25.418 33.334C26.4596 33.7506 27.293 34.1673 28.3346 34.3756C29.3763 34.7923 30.418 34.7923 31.668 34.584C33.1263 34.3756 34.3763 33.334 35.2096 32.084C35.6263 31.2506 35.6263 30.4173 35.418 29.584L34.5846 29.1673V29.1673ZM39.793 10.209C31.668 2.08398 18.543 2.08398 10.418 10.209C3.7513 16.8757 2.5013 27.084 7.08464 35.209L4.16797 45.834L15.2096 42.9173C18.3346 44.584 21.668 45.4173 25.0013 45.4173C36.4596 45.4173 45.6263 36.2506 45.6263 24.7923C45.8346 19.3756 43.543 14.1673 39.793 10.209V10.209ZM34.168 39.3756C31.4596 41.0423 28.3346 42.084 25.0013 42.084C21.8763 42.084 18.9596 41.2506 16.2513 39.7923L15.6263 39.3756L9.16797 41.0423L10.8346 34.7923L10.418 34.1673C5.41797 25.834 7.91797 15.4173 16.043 10.209C24.168 5.00065 34.5846 7.70898 39.5846 15.6257C44.5846 23.7507 42.293 34.3756 34.168 39.3756Z" fill="black"/>
<path d="M28.1263 29.7923L27.8925 29.5585L27.8545 29.5964L27.8305 29.6444L28.1263 29.7923ZM27.0846 30.0006L27.2325 29.7049L27.2238 29.7005L27.2149 29.6967L27.0846 30.0006ZM22.918 27.5006L22.6841 27.7345L22.6947 27.7451L22.7063 27.7547L22.918 27.5006ZM20.0013 23.959L19.7055 24.1069L19.7147 24.1253L19.7262 24.1424L20.0013 23.959ZM20.2096 22.9173L20.4435 23.1511L20.2096 22.9173ZM21.043 22.084L21.1909 22.3798L21.2389 22.3558L21.2768 22.3178L21.043 22.084ZM21.4596 21.2506L21.2258 21.0168L21.129 21.1137V21.2506H21.4596ZM19.793 16.6673L19.4656 16.7141L19.4712 16.7533L19.4859 16.7901L19.793 16.6673ZM14.5846 20.209H14.254V20.2273L14.256 20.2455L14.5846 20.209ZM16.668 25.6256L16.9407 25.4382L16.9325 25.4272L16.668 25.6256ZM25.418 33.334L25.2772 33.6332L25.286 33.6374L25.2952 33.641L25.418 33.334ZM28.3346 34.3756L28.4574 34.0686L28.4293 34.0573L28.3995 34.0514L28.3346 34.3756ZM31.668 34.584L31.6212 34.2565L31.6136 34.2578L31.668 34.584ZM35.2096 32.084L35.4848 32.2674L35.4962 32.2503L35.5054 32.2319L35.2096 32.084ZM35.418 29.584L35.7388 29.5038L35.7019 29.3562L35.5659 29.2882L35.418 29.584ZM7.08464 35.209L7.40352 35.2965L7.43958 35.1652L7.37265 35.0465L7.08464 35.209ZM4.16797 45.834L3.84908 45.7464L3.69702 46.3004L4.25242 46.1537L4.16797 45.834ZM15.2096 42.9173L15.3653 42.6255L15.2507 42.5644L15.1252 42.5976L15.2096 42.9173ZM45.6263 24.7923L45.2956 24.7796V24.7923H45.6263ZM34.168 39.3756L33.9947 39.094L34.168 39.3756ZM16.2513 39.7923L16.0679 40.0675L16.0808 40.0761L16.0945 40.0835L16.2513 39.7923ZM15.6263 39.3756L15.8097 39.1005L15.6868 39.0185L15.5437 39.0555L15.6263 39.3756ZM9.16797 41.0423L8.84845 40.9571L8.70264 41.5039L9.2506 41.3625L9.16797 41.0423ZM10.8346 34.7923L11.1542 34.8775L11.1926 34.7332L11.1098 34.6089L10.8346 34.7923ZM10.418 34.1673L10.1344 34.3374L10.1385 34.3442L10.1428 34.3507L10.418 34.1673ZM39.5846 15.6257L39.8663 15.4523L39.8642 15.4491L39.5846 15.6257ZM34.7325 28.8715C34.5189 28.7648 33.7312 28.3972 32.9536 28.0343C32.1687 27.668 31.3939 27.3064 31.1909 27.2049L30.8951 27.7964C31.1087 27.9032 31.8964 28.2708 32.674 28.6336C33.4589 28.9999 34.2337 29.3615 34.4367 29.4631L34.7325 28.8715ZM31.1909 27.2049C30.9444 27.0816 30.6694 27.0058 30.377 27.0423C30.0809 27.0793 29.8079 27.2264 29.5591 27.4752L30.0268 27.9428C30.1947 27.7749 30.3383 27.7136 30.459 27.6986C30.5832 27.683 30.7249 27.7113 30.8951 27.7964L31.1909 27.2049ZM29.5591 27.4752C29.3298 27.7045 28.9997 28.146 28.6951 28.5522C28.3747 28.9794 28.0798 29.3712 27.8925 29.5585L28.3601 30.0261C28.5895 29.7968 28.9195 29.3553 29.2242 28.9491C29.5445 28.5219 29.8395 28.1301 30.0268 27.9428L29.5591 27.4752ZM27.8305 29.6444C27.7722 29.7611 27.7059 29.7936 27.6368 29.8035C27.5464 29.8164 27.4084 29.7928 27.2325 29.7049L26.9367 30.2964C27.1775 30.4168 27.4563 30.4974 27.7304 30.4582C28.0259 30.416 28.2721 30.2402 28.4221 29.9402L27.8305 29.6444ZM27.2149 29.6967C25.7796 29.0816 24.3503 28.2638 23.1297 27.2466L22.7063 27.7547C23.9857 28.8209 25.473 29.6697 26.9544 30.3046L27.2149 29.6967ZM23.1518 27.2668C22.1243 26.2394 21.0968 25.0061 20.2764 23.7756L19.7262 24.1424C20.5725 25.4119 21.6283 26.6786 22.6841 27.7345L23.1518 27.2668ZM20.2971 23.8111C20.1785 23.574 20.2871 23.3075 20.4435 23.1511L19.9758 22.6835C19.7155 22.9438 19.4074 23.5106 19.7055 24.1069L20.2971 23.8111ZM20.4435 23.1511C20.5121 23.0825 20.5757 23.0021 20.6308 22.9307C20.6898 22.8543 20.7423 22.7843 20.8022 22.7123C20.92 22.571 21.0416 22.4544 21.1909 22.3798L20.8951 21.7882C20.6277 21.9219 20.4368 22.1178 20.2941 22.289C20.2239 22.3733 20.1591 22.4595 20.1075 22.5263C20.0519 22.5982 20.0113 22.648 19.9758 22.6835L20.4435 23.1511ZM21.2768 22.3178C21.4137 22.1809 21.5368 21.992 21.6252 21.8152C21.7084 21.6489 21.7903 21.4351 21.7903 21.2506H21.129C21.129 21.2504 21.1289 21.2581 21.1255 21.2753C21.1224 21.2918 21.117 21.3132 21.1087 21.3392C21.0921 21.3915 21.0666 21.4536 21.0337 21.5194C20.9658 21.6552 20.8806 21.7787 20.8091 21.8502L21.2768 22.3178ZM21.6935 21.4845C21.8737 21.3043 21.9466 21.0559 21.9466 20.834C21.9466 20.6121 21.8737 20.3637 21.6935 20.1835L21.2258 20.6511C21.2539 20.6793 21.2852 20.7434 21.2852 20.834C21.2852 20.9246 21.2539 20.9887 21.2258 21.0168L21.6935 21.4845ZM21.6935 20.1835C21.707 20.197 21.7065 20.2003 21.6898 20.1743C21.6763 20.1531 21.6583 20.1224 21.6356 20.0808C21.5905 19.9981 21.5341 19.8854 21.4684 19.7477C21.3375 19.473 21.1765 19.1126 21.0078 18.7233C20.6707 17.9454 20.3074 17.0629 20.1 16.5445L19.4859 16.7901C19.6952 17.3134 20.061 18.2017 20.401 18.9863C20.5709 19.3783 20.7354 19.747 20.8714 20.0323C20.9392 20.1745 21.0016 20.2994 21.0549 20.3974C21.0816 20.4462 21.1077 20.4915 21.1325 20.5304C21.1542 20.5643 21.1862 20.6116 21.2258 20.6511L21.6935 20.1835ZM20.1203 16.6206C20.0148 15.8816 19.8479 15.4212 19.5841 15.1574C19.2943 14.8677 18.9496 14.8783 18.7513 14.8783V15.5397C18.9697 15.5397 19.0416 15.5503 19.1164 15.6251C19.2172 15.7259 19.3628 15.9947 19.4656 16.7141L20.1203 16.6206ZM18.7513 14.8783H17.7096V15.5397H18.7513V14.8783ZM17.7096 14.8783C17.413 14.8783 17.0904 15.0185 16.8459 15.1543C16.5928 15.2949 16.3574 15.4686 16.2258 15.6002L16.6935 16.0678C16.7702 15.9911 16.9515 15.8522 17.1671 15.7324C17.3913 15.6078 17.5896 15.5397 17.7096 15.5397V14.8783ZM16.2258 15.6002C14.918 16.908 14.254 18.4489 14.254 20.209H14.9153C14.9153 18.6358 15.5013 17.26 16.6935 16.0678L16.2258 15.6002ZM14.256 20.2455C14.4697 22.1691 15.1123 24.1026 16.4034 25.8241L16.9325 25.4272C15.7236 23.8154 15.1162 21.9989 14.9133 20.1725L14.256 20.2455ZM16.3955 25.813C18.7137 29.1849 21.6727 31.937 25.2772 33.6332L25.5588 33.0348C22.0799 31.3976 19.2056 28.7331 16.9405 25.4383L16.3955 25.813ZM25.2952 33.641C26.3069 34.0457 27.1886 34.4837 28.2698 34.6999L28.3995 34.0514C27.3973 33.851 26.6124 33.4556 25.5408 33.027L25.2952 33.641ZM28.2118 34.6827C29.3325 35.1309 30.4427 35.1234 31.7223 34.9102L31.6136 34.2578C30.3933 34.4612 29.4201 34.4537 28.4574 34.0686L28.2118 34.6827ZM31.7147 34.9113C33.2987 34.6851 34.6208 33.5634 35.4848 32.2674L34.9345 31.9006C34.1318 33.1045 32.9539 34.0662 31.6212 34.2566L31.7147 34.9113ZM35.5054 32.2319C35.9666 31.3095 35.9606 30.3909 35.7388 29.5038L35.0972 29.6642C35.292 30.4437 35.286 31.1918 34.9139 31.9361L35.5054 32.2319ZM35.5659 29.2882L34.7325 28.8715L34.4367 29.4631L35.2701 29.8798L35.5659 29.2882ZM40.0268 9.97516C31.7727 1.72102 18.4383 1.72102 10.1841 9.97516L10.6518 10.4428C18.6477 2.44695 31.5633 2.44695 39.5591 10.4428L40.0268 9.97516ZM10.1841 9.97516C3.41 16.7493 2.14211 27.1203 6.79662 35.3715L7.37265 35.0465C2.86049 27.0477 4.09261 17.002 10.6518 10.4428L10.1841 9.97516ZM6.76575 35.1214L3.84908 45.7464L4.48685 45.9215L7.40352 35.2965L6.76575 35.1214ZM4.25242 46.1537L15.2941 43.237L15.1252 42.5976L4.08352 45.5143L4.25242 46.1537ZM15.054 43.2091C18.2254 44.9005 21.612 45.748 25.0013 45.748V45.0866C21.7239 45.0866 18.4439 44.2675 15.3653 42.6255L15.054 43.2091ZM25.0013 45.748C36.6423 45.748 45.957 36.4333 45.957 24.7923H45.2956C45.2956 36.068 36.277 45.0866 25.0013 45.0866V45.748ZM45.9567 24.805C46.169 19.2858 43.8342 13.9939 40.033 9.98156L39.5529 10.4364C43.2518 14.3408 45.5003 19.4655 45.2959 24.7796L45.9567 24.805ZM33.9947 39.094C31.3302 40.7337 28.2645 41.7533 25.0013 41.7533V42.4147C28.4048 42.4147 31.589 41.351 34.3413 39.6573L33.9947 39.094ZM25.0013 41.7533C21.9375 41.7533 19.0743 40.9368 16.4081 39.5012L16.0945 40.0835C18.845 41.5645 21.8151 42.4147 25.0013 42.4147V41.7533ZM16.4347 39.5172L15.8097 39.1005L15.4429 39.6508L16.0679 40.0675L16.4347 39.5172ZM15.5437 39.0555L9.08534 40.7221L9.2506 41.3625L15.7089 39.6958L15.5437 39.0555ZM9.48748 41.1275L11.1542 34.8775L10.5151 34.7071L8.84845 40.9571L9.48748 41.1275ZM11.1098 34.6089L10.6931 33.9839L10.1428 34.3507L10.5595 34.9757L11.1098 34.6089ZM10.7015 33.9972C5.79414 25.8182 8.24596 15.5999 16.2214 10.4874L15.8645 9.93059C7.58997 15.2348 5.0418 25.8498 10.1344 34.3374L10.7015 33.9972ZM16.2214 10.4874C24.1835 5.38348 34.3976 8.03211 39.305 15.8022L39.8642 15.4491C34.7717 7.38586 24.1524 4.61783 15.8645 9.93059L16.2214 10.4874ZM39.303 15.799C44.2116 23.7755 41.9572 34.194 33.9947 39.094L34.3413 39.6573C42.6288 34.5573 44.9577 23.7259 39.8663 15.4523L39.303 15.799Z" fill="#FCF5F4" mask="url(#path-1-inside-1_748_5251)"/>
</svg>
