<svg width="24" height="24" viewBox="0 0 24 24" fill="none" xmlns="http://www.w3.org/2000/svg">
<rect width="24" height="24" fill="white"/>
<path d="M13.3662 2.09334C10.9735 1.7642 8.54244 2.3119 6.52202 3.6353C4.5016 4.95871 3.02824 6.96845 2.37399 9.29341C1.71974 11.6184 1.9288 14.1015 2.96255 16.2844C3.99631 18.4673 5.78494 20.2024 7.99819 21.1693C7.93834 20.4012 7.99327 19.6283 8.16119 18.8763C8.34619 18.0373 9.45719 13.4133 9.45719 13.4133C9.23596 12.9174 9.12539 12.3793 9.13319 11.8363C9.13319 10.3513 9.99019 9.24334 11.0562 9.24334C11.2477 9.24056 11.4376 9.27904 11.6129 9.35617C11.7882 9.43331 11.9448 9.54729 12.0721 9.69037C12.1995 9.83344 12.2945 10.0023 12.3507 10.1853C12.407 10.3684 12.4232 10.5615 12.3982 10.7513C12.3982 11.6513 11.8202 13.0133 11.5182 14.2913C11.4585 14.5257 11.4547 14.7708 11.5071 15.007C11.5595 15.2431 11.6667 15.4636 11.8199 15.6507C11.9732 15.8378 12.1683 15.9863 12.3894 16.0842C12.6106 16.1821 12.8516 16.2267 13.0932 16.2143C14.9912 16.2143 16.2632 13.7833 16.2632 10.9133C16.2632 8.71334 14.8062 7.06534 12.1202 7.06534C11.4776 7.04037 10.8366 7.14627 10.2361 7.3766C9.63567 7.60693 9.0883 7.95689 8.62724 8.40523C8.16618 8.85358 7.80105 9.39095 7.55401 9.98472C7.30698 10.5785 7.1832 11.2163 7.19019 11.8593C7.16156 12.5727 7.39169 13.2723 7.83819 13.8293C7.92162 13.8916 7.98254 13.9793 8.01176 14.0793C8.04099 14.1792 8.03692 14.2859 8.00019 14.3833C7.95419 14.5673 7.83819 15.0063 7.79219 15.1673C7.78262 15.2219 7.76036 15.2735 7.72721 15.318C7.69406 15.3624 7.65094 15.3984 7.60132 15.4231C7.5517 15.4478 7.49697 15.4605 7.44154 15.4602C7.38611 15.4599 7.33153 15.4466 7.28219 15.4213C5.89819 14.8673 5.24619 13.3443 5.24619 11.6053C5.24619 8.75834 7.63019 5.35034 12.4002 5.35034C16.1962 5.35034 18.7202 8.12734 18.7202 11.0973C18.7202 15.0063 16.5432 17.9453 13.3262 17.9453C12.8454 17.9607 12.3685 17.8546 11.9395 17.6368C11.5106 17.419 11.1435 17.0966 10.8722 16.6993C10.8722 16.6993 10.2942 19.0153 10.1802 19.4533C9.94748 20.21 9.6041 20.9282 9.16119 21.5843C10.0842 21.8643 11.0432 22.0043 12.0072 22.0003C13.3208 22.0014 14.6217 21.7433 15.8354 21.2409C17.0491 20.7385 18.1517 20.0016 19.0803 19.0725C20.0088 18.1433 20.7449 17.0401 21.2464 15.826C21.748 14.612 22.0052 13.3109 22.0032 11.9973C22.0019 9.58234 21.127 7.24934 19.5398 5.42912C17.9527 3.60891 15.7605 2.42441 13.3682 2.09434L13.3662 2.09334Z" fill="black"/>
</svg>
